<?xml version="1.0" encoding="UTF-8"?>
<svg width="922px" height="620px" viewBox="0 0 922 620" version="1.1" xmlns="http://www.w3.org/2000/svg" xmlns:xlink="http://www.w3.org/1999/xlink">
    <!-- Generator: Sketch 52.5 (67469) - http://www.bohemiancoding.com/sketch -->
    <title>ceremony</title>
    <desc>Created with Sketch.</desc>
    <defs>
        <linearGradient x1="0.25781251%" y1="49.7500002%" x2="101.257813%" y2="49.7500002%" id="linearGradient-1">
            <stop stop-color="#3023AE" offset="0%"></stop>
            <stop stop-color="#53A0FD" offset="47.5247532%"></stop>
            <stop stop-color="#B4EC51" offset="100%"></stop>
        </linearGradient>
        <linearGradient x1="50%" y1="0%" x2="50%" y2="100%" id="linearGradient-2">
            <stop stop-color="#F5515F" offset="0%"></stop>
            <stop stop-color="#9F041B" offset="100%"></stop>
        </linearGradient>
    </defs>
    <g id="Page-1" stroke="none" stroke-width="1" fill="none" fill-rule="evenodd">
        <g id="ceremony">
            <path d="M417.6,589.3 C415.7,582.6 411.7,583.7 409.8,577 C407.9,570.3 411.9,569.2 409.9,562.5 C408,555.8 404,556.9 402.1,550.2 C400.2,543.5 404.2,542.4 402.2,535.7 C400.3,529 396.3,530.1 394.4,523.4 C392.5,516.7 396.5,515.6 394.5,508.9 C392.6,502.2 388.6,503.3 386.7,496.6 C384.8,489.9 388.8,488.8 386.8,482.1 C384.9,475.4 380.9,476.5 379,469.8 C377.1,463.1 381.1,462 379.1,455.3 C377.2,448.6 373.2,449.7 371.3,443 C369.4,436.3 373.4,435.2 371.4,428.5 C369.5,421.8 365.5,422.9 363.6,416.2 C361.7,409.5 365.7,408.4 363.7,401.7 C361.8,395 357.8,396.1 355.9,389.4 C354,382.7 358,381.6 356,374.9 C356,374.8 356,374.8 355.9,374.7 C355,371.8 353,370.1 350.6,369.3 C350.6,369.3 350.6,369.3 350.6,369.3 C350.6,369.3 350.6,369.3 350.6,369.3 C350.6,369.3 350.5,369.3 350.5,369.3 C350.2,369.2 349.9,369.1 349.6,369.1 C349.5,369.1 349.4,369.1 349.3,369.1 C349,369.1 348.6,369 348.3,369 C348.2,369 348.1,369 348,369 C347.7,369 347.4,369 347.1,369.1 C347,369.1 347,369.1 346.9,369.1 C346.6,369.2 346.2,369.2 345.9,369.3 C345.8,369.3 345.7,369.4 345.6,369.4 C345.3,369.5 344.9,369.6 344.6,369.8 C344.6,369.8 344.6,369.8 344.5,369.8 C344.2,370 343.9,370.1 343.6,370.3 C343.5,370.3 343.5,370.4 343.4,370.4 C343.1,370.6 342.8,370.8 342.5,371.1 C342.5,371.1 342.4,371.2 342.4,371.2 C342.2,371.4 341.9,371.7 341.7,372 C341.7,372.1 341.6,372.1 341.6,372.2 C341.4,372.5 341.2,372.9 341,373.2 C341,373.3 340.9,373.4 340.9,373.4 C340.7,373.8 340.6,374.2 340.4,374.6 C340.4,374.6 340.4,374.6 340.4,374.7 C340.4,374.7 340.4,374.8 340.4,374.8 C340,376.1 339.9,377.1 339.9,378.1 C339.8,382.2 342.1,383.9 340.6,389.4 C340.2,390.7 339.8,391.6 339.3,392.4 C339,392.9 338.6,393.4 338.3,393.8 C338.1,394 337.9,394.2 337.8,394.4 C336,396.3 334,397.4 332.8,401.6 C332.7,401.9 332.6,402.2 332.6,402.5 C332.6,402.7 332.5,402.8 332.5,403 C332,405.4 332.4,407.1 332.8,408.7 C333.1,409.7 333.4,410.8 333.4,412 C333.4,412.3 333.4,412.6 333.4,412.9 C333.4,413.5 333.3,414.2 333.2,415 C333.1,415.4 333,415.8 332.9,416.2 C332.7,416.8 332.5,417.3 332.3,417.8 C332.1,418.3 331.8,418.8 331.6,419.3 C331.3,419.8 331,420.2 330.7,420.6 C330.6,420.7 330.6,420.7 330.5,420.8 C329.5,422 328.4,422.8 327.4,424 C327.1,424.3 326.8,424.7 326.6,425.1 C326.5,425.2 326.4,425.4 326.3,425.5 C325.8,426.3 325.4,427.3 325.1,428.5 C324.7,429.7 324.6,430.8 324.6,431.7 C324.6,431.7 324.6,431.7 324.6,431.8 C324.6,433.4 324.9,434.7 325.3,436 C325.4,436.4 325.5,436.7 325.6,437.1 C325.7,437.4 325.7,437.7 325.8,438.1 C325.9,438.6 325.9,439.2 325.9,439.8 C325.9,440.7 325.7,441.8 325.4,443.1 C325.1,444.1 324.8,445 324.4,445.7 C322.3,449.6 319.2,449.7 317.6,455.4 C316.6,458.7 317.2,460.7 317.7,462.7 C317.8,462.9 317.8,463.2 317.9,463.4 C318.2,464.6 318.4,465.9 318.3,467.6 C318.2,468.3 318.1,469.1 317.8,469.9 C316.7,473.6 315,474.9 313.4,476.5 C313.4,476.5 313.4,476.5 313.4,476.5 C312.6,477.3 311.8,478.2 311.1,479.5 C310.9,479.9 310.6,480.4 310.4,481 C310.3,481.4 310.1,481.7 310,482.2 C309.6,483.5 309.5,484.5 309.5,485.5 C309.5,486.8 309.7,487.9 310,489 C310.1,489.4 310.2,489.7 310.3,490.1 C310.5,490.9 310.7,491.7 310.7,492.7 C310.8,493.8 310.7,495.2 310.2,496.8 C309.4,499.7 308.1,501.2 306.8,502.4 C306.8,502.4 306.8,502.4 306.8,502.4 C305.5,501.1 304.2,499.7 303.4,496.8 C301.5,490.1 305.5,489 303.5,482.3 C301.6,475.6 297.6,476.7 295.7,470 C293.8,463.3 297.8,462.2 295.8,455.5 C293.9,448.8 289.9,449.9 288,443.2 C286.1,436.5 290.1,435.4 288.1,428.7 C286.2,422 282.2,423.1 280.3,416.4 C278.4,409.7 282.4,408.6 280.4,401.9 C278.5,395.2 274.5,396.3 272.6,389.6 C270.7,382.9 274.7,381.8 272.7,375.1 C272.7,375 272.7,375 272.6,374.9 C271.7,372 269.7,370.3 267.3,369.5 C267.3,369.5 267.3,369.5 267.3,369.5 C267.3,369.5 267.3,369.5 267.3,369.5 C267.3,369.5 267.2,369.5 267.2,369.5 C266.9,369.4 266.6,369.3 266.3,369.3 C266.2,369.3 266.1,369.3 266,369.3 C265.7,369.3 265.3,369.2 265,369.2 C264.9,369.2 264.8,369.2 264.7,369.2 C264.4,369.2 264.1,369.2 263.8,369.3 C263.7,369.3 263.7,369.3 263.6,369.3 C263.3,369.4 262.9,369.4 262.6,369.5 C262.5,369.5 262.4,369.6 262.3,369.6 C262,369.7 261.6,369.8 261.3,370 C261.3,370 261.3,370 261.2,370 C260.9,370.2 260.6,370.3 260.3,370.5 C260.2,370.5 260.2,370.6 260.1,370.6 C259.8,370.8 259.5,371 259.2,371.3 C259.2,371.3 259.1,371.4 259.1,371.4 C258.9,371.6 258.6,371.9 258.4,372.2 C258.4,372.3 258.3,372.3 258.3,372.4 C258.1,372.7 257.9,373.1 257.7,373.4 C257.7,373.5 257.6,373.6 257.6,373.6 C257.4,374 257.3,374.4 257.1,374.8 C257.1,374.8 257.1,374.8 257.1,374.9 C257.1,374.9 257.1,375 257.1,375 C256.7,376.3 256.6,377.3 256.6,378.3 C256.5,382.4 258.8,384.1 257.3,389.6 C256.9,390.9 256.5,391.8 256,392.6 C255.7,393.1 255.3,393.6 255,394 C254.8,394.2 254.6,394.4 254.5,394.6 C252.7,396.5 250.7,397.6 249.5,401.8 C249.4,402.1 249.3,402.4 249.3,402.7 C249.3,402.9 249.2,403 249.2,403.2 C248.7,405.6 249.1,407.3 249.5,408.9 C249.8,409.9 250.1,411 250.1,412.2 C250.1,412.5 250.1,412.8 250.1,413.1 C250.1,413.7 250,414.4 249.9,415.2 C249.8,415.6 249.7,416 249.6,416.4 C249.4,417 249.2,417.5 249,418 C248.8,418.5 248.5,419 248.3,419.5 C248,420 247.7,420.4 247.4,420.8 C247.3,420.9 247.3,420.9 247.2,421 C246.2,422.2 245.1,423 244.1,424.2 C243.8,424.5 243.5,424.9 243.3,425.3 C243.2,425.4 243.1,425.6 243,425.7 C242.5,426.5 242.1,427.5 241.8,428.7 C241.4,429.9 241.3,431 241.3,431.9 C241.3,431.9 241.3,431.9 241.3,432 C241.3,433.6 241.6,434.9 242,436.2 C242.1,436.6 242.2,436.9 242.3,437.3 C242.4,437.6 242.4,437.9 242.5,438.3 C242.6,438.8 242.6,439.4 242.6,440 C242.6,440.9 242.4,442 242.1,443.3 C241.8,444.3 241.5,445.2 241.1,445.9 C239,449.8 235.9,449.9 234.3,455.6 C233.3,458.9 233.9,460.9 234.4,462.9 C234.5,463.1 234.5,463.4 234.6,463.6 C234.9,464.8 235.1,466.1 235,467.8 C234.9,468.5 234.8,469.3 234.5,470.1 C233.4,473.8 231.7,475.1 230.1,476.7 C230.1,476.7 230.1,476.7 230.1,476.7 C229.3,477.5 228.5,478.4 227.8,479.7 C227.6,480.1 227.3,480.6 227.1,481.2 C227,481.6 226.8,481.9 226.7,482.4 C226.3,483.7 226.2,484.7 226.2,485.7 C226.2,487 226.4,488.1 226.7,489.2 C226.8,489.6 226.9,489.9 227,490.3 C227.2,491.1 227.4,491.9 227.4,492.9 C227.5,494 227.4,495.4 226.9,497 C226.1,499.9 224.9,501.3 223.6,502.6 C222.7,496.5 226.3,494.7 224.3,487.5 C222,479.5 217.2,480.8 214.9,472.8 C212.6,464.8 217.4,463.4 215.1,455.4 C212.8,447.4 208,448.7 205.7,440.7 C203.4,432.7 208.2,431.3 205.9,423.3 C203.6,415.3 198.8,416.6 196.5,408.6 C194.2,400.6 199,399.2 196.7,391.2 C194.4,383.2 189.6,384.5 187.3,376.5 C185,368.5 189.8,367.1 187.5,359.1 C185.2,351.1 180.4,352.4 178.1,344.4 C175.8,336.4 180.6,335 178.3,327 C178.3,326.9 178.3,326.8 178.2,326.8 C177.2,323.4 174.7,321.2 171.9,320.4 C171.9,320.4 171.9,320.4 171.9,320.4 C171.9,320.4 171.9,320.4 171.9,320.4 C171.8,320.4 171.8,320.4 171.7,320.4 C171.3,320.3 171,320.2 170.6,320.2 C170.5,320.2 170.4,320.2 170.3,320.1 C169.9,320 169.5,320 169.1,320 C169,320 168.9,320 168.8,320 C168.4,320 168.1,320 167.7,320.1 C167.6,320.1 167.5,320.1 167.5,320.1 C167.1,320.2 166.7,320.3 166.3,320.4 C166.2,320.4 166.1,320.5 166,320.5 C165.6,320.6 165.2,320.8 164.8,321 C164.8,321 164.7,321 164.7,321 C164.3,321.2 164,321.4 163.6,321.6 C163.5,321.7 163.4,321.7 163.4,321.8 C163,322.1 162.7,322.3 162.4,322.6 C162.3,322.7 162.3,322.7 162.2,322.8 C161.9,323.1 161.6,323.4 161.4,323.7 C161.4,323.8 161.3,323.8 161.3,323.9 C161,324.3 160.8,324.7 160.6,325.1 C160.6,325.2 160.5,325.3 160.5,325.4 C160.3,325.9 160.1,326.3 159.9,326.8 C159.9,326.8 159.9,326.8 159.9,326.9 C159.9,327 159.9,327 159.8,327.1 C159.4,328.6 159.2,329.9 159.2,331 C159.1,335.9 161.9,338 160,344.5 C159.6,346 159.1,347.2 158.5,348.1 C158.1,348.7 157.7,349.3 157.3,349.8 C157.1,350 156.9,350.3 156.7,350.5 C154.5,352.8 152.1,354.1 150.7,359.1 C150.6,359.5 150.5,359.8 150.4,360.2 C150.4,360.4 150.3,360.6 150.3,360.8 C149.7,363.7 150.2,365.7 150.7,367.6 C151,368.9 151.4,370.1 151.5,371.6 C151.5,371.9 151.5,372.3 151.5,372.7 C151.5,373.4 151.4,374.3 151.2,375.2 C151.1,375.7 151,376.1 150.8,376.6 C150.6,377.3 150.4,377.9 150.1,378.5 C149.8,379.1 149.6,379.7 149.3,380.2 C149,380.8 148.6,381.3 148.2,381.7 C148.1,381.8 148.1,381.9 148,382 C146.8,383.4 145.4,384.4 144.2,385.8 C143.9,386.2 143.5,386.7 143.2,387.2 C143.1,387.4 143,387.5 142.9,387.7 C142.3,388.7 141.8,389.8 141.4,391.3 C141,392.8 140.8,394 140.8,395.1 C140.8,395.1 140.8,395.2 140.8,395.2 C140.8,397.2 141.2,398.7 141.6,400.2 C141.7,400.6 141.8,401.1 141.9,401.6 C142,402 142.1,402.4 142.1,402.8 C142.2,403.4 142.2,404.1 142.2,404.9 C142.2,406 142,407.3 141.6,408.8 C141.2,410 140.8,411 140.4,411.9 C137.9,416.6 134.2,416.7 132.3,423.5 C131.1,427.5 131.8,429.9 132.4,432.2 C132.5,432.5 132.6,432.8 132.6,433.1 C133,434.6 133.2,436.1 133,438.1 C132.9,438.9 132.7,439.9 132.4,440.9 C131.1,445.4 129.1,446.9 127.1,448.8 C127.1,448.8 127.1,448.8 127.1,448.8 C126.1,449.8 125.2,450.8 124.3,452.4 C124,452.9 123.7,453.5 123.5,454.2 C123.3,454.6 123.2,455.1 123,455.6 C122.6,457.1 122.4,458.4 122.4,459.5 C122.4,461.1 122.6,462.4 123,463.7 C123.1,464.1 123.2,464.6 123.3,465 C123.5,466 123.8,467 123.8,468.1 C123.9,469.5 123.8,471.1 123.2,473.1 C122.2,476.6 120.7,478.3 119.2,479.8 C117.2,481.7 115.1,483.3 113.9,487.8 C112,494.3 114.8,496.5 114.7,501.3 C114.7,501.7 114.7,502.1 114.6,502.5 C114.5,503.2 114.4,504 114.1,504.8 C112.2,502.8 110.1,501.7 108.9,497.4 C107,490.7 111,489.6 109,482.9 C107.1,476.2 103.1,477.3 101.2,470.6 C99.3,463.9 103.3,462.8 101.3,456.1 C99.4,449.4 95.4,450.5 93.5,443.8 C91.6,437.1 95.6,436 93.6,429.3 C91.7,422.6 87.7,423.7 85.8,417 C83.9,410.3 87.9,409.2 85.9,402.5 C84,395.8 80,396.9 78.1,390.2 C76.2,383.5 80.2,382.4 78.2,375.7 C78.2,375.6 78.2,375.6 78.1,375.5 C77.2,372.6 75.2,370.9 72.8,370.1 C72.8,370.1 72.8,370.1 72.8,370.1 C72.8,370.1 72.8,370.1 72.8,370.1 C72.8,370.1 72.7,370.1 72.7,370.1 C72.4,370 72.1,369.9 71.8,369.9 C71.7,369.9 71.6,369.9 71.5,369.9 C71.2,369.9 70.8,369.8 70.5,369.8 C70.4,369.8 70.3,369.8 70.2,369.8 C69.9,369.8 69.6,369.8 69.3,369.9 C69.2,369.9 69.2,369.9 69.1,369.9 C68.8,370 68.4,370 68.1,370.1 C68,370.1 67.9,370.2 67.8,370.2 C67.5,370.3 67.1,370.4 66.8,370.6 C66.8,370.6 66.8,370.6 66.7,370.6 C66.4,370.8 66.1,370.9 65.8,371.1 C65.7,371.1 65.7,371.2 65.6,371.2 C65.3,371.4 65,371.6 64.7,371.9 C64.7,371.9 64.6,372 64.6,372 C64.4,372.2 64.1,372.5 63.9,372.8 C63.9,372.9 63.8,372.9 63.8,373 C63.6,373.3 63.4,373.7 63.2,374 C63.2,374.1 63.1,374.2 63.1,374.2 C62.9,374.6 62.8,375 62.6,375.4 C62.6,375.4 62.6,375.4 62.6,375.5 C62.6,375.5 62.6,375.6 62.6,375.6 C62.2,376.9 62.1,377.9 62.1,378.9 C62,383 64.3,384.7 62.8,390.2 C62.4,391.5 62,392.4 61.5,393.2 C61.2,393.7 60.8,394.2 60.5,394.6 C60.3,394.8 60.1,395 60,395.2 C58.2,397.1 56.2,398.2 55,402.4 C54.9,402.7 54.8,403 54.8,403.3 C54.8,403.5 54.7,403.6 54.7,403.8 C54.2,406.2 54.6,407.9 55,409.5 C55.3,410.5 55.6,411.6 55.6,412.8 C55.6,413.1 55.6,413.4 55.6,413.7 C55.6,414.3 55.5,415 55.4,415.8 C55.3,416.2 55.2,416.6 55.1,417 C54.9,417.6 54.7,418.1 54.5,418.6 C54.3,419.1 54,419.6 53.8,420.1 C53.5,420.6 53.2,421 52.9,421.4 C52.8,421.5 52.8,421.5 52.7,421.6 C51.7,422.8 50.6,423.6 49.6,424.8 C49.3,425.1 49,425.5 48.8,425.9 C48.7,426 48.6,426.2 48.5,426.3 C48,427.1 47.6,428.1 47.3,429.3 C46.9,430.5 46.8,431.6 46.8,432.5 C46.8,432.5 46.8,432.5 46.8,432.6 C46.8,434.2 47.1,435.5 47.5,436.8 C47.6,437.2 47.7,437.5 47.8,437.9 C47.9,438.2 47.9,438.5 48,438.9 C48.1,439.4 48.1,440 48.1,440.6 C48.1,441.5 47.9,442.6 47.6,443.9 C47.3,444.9 47,445.8 46.6,446.5 C44.5,450.4 41.4,450.5 39.8,456.2 C38.8,459.5 39.4,461.5 39.9,463.5 C40,463.7 40,464 40.1,464.2 C40.4,465.4 40.6,466.7 40.5,468.4 C40.4,469.1 40.3,469.9 40,470.7 C38.9,474.4 37.2,475.7 35.6,477.3 C35.6,477.3 35.6,477.3 35.6,477.3 C34.8,478.1 34,479 33.3,480.3 C33.1,480.7 32.8,481.2 32.6,481.8 C32.5,482.2 32.3,482.5 32.2,483 C31.8,484.3 31.7,485.3 31.7,486.3 C31.7,487.6 31.9,488.7 32.2,489.8 C32.3,490.2 32.4,490.5 32.5,490.9 C32.7,491.7 32.9,492.5 32.9,493.5 C33,494.6 32.9,496 32.4,497.6 C31.6,500.5 30.3,502 29,503.2 C27.3,504.8 25.6,506.1 24.5,509.9 C22.9,515.3 25.3,517.1 25.2,521.2 C25.2,521.5 25.2,521.8 25.1,522.2 C25,522.9 24.9,523.6 24.6,524.5 C23.9,527 22.9,528.4 21.8,529.6 C20.7,530.7 19.6,531.6 18.6,533 C17.9,533.9 17.3,535.1 16.8,536.8 C16.6,537.6 16.4,538.4 16.3,539.1 C15.8,543.2 17.8,545 17.4,549.1 C17.4,549.4 17.3,549.8 17.2,550.2 C17.1,550.6 17,551 16.9,551.4 C16.1,554.3 14.8,555.8 13.5,557 C13.3,557.2 13.1,557.4 12.9,557.5 C11.4,558.9 9.9,560.3 9,563.6 C8.9,564 8.8,564.4 8.7,564.8 C8.5,565.6 8.5,566.2 8.5,566.9 C8.5,567.5 8.5,568.1 8.6,568.6 C8.9,570.8 9.8,572.4 9.7,574.9 C9.7,575.8 9.5,576.9 9.2,578.2 C8,582.4 6,583.5 4.2,585.4 C3.7,586 3.1,586.6 2.7,587.4 C2.2,588.2 1.8,589.2 1.4,590.4 C1.3,590.8 1.2,591.1 1.2,591.4 C0.9,592.8 0.9,594 1,595 C1.1,595.7 1.2,596.4 1.4,597.1 C1.6,597.8 1.9,598.4 2.2,599 C4.1,602.6 8,605 12.3,605 L61,605 L61,619.9 L74.6,619.9 L80.5,619.9 L80.5,605 L106.4,605 L129.2,605 L157.8,605 L157.8,619.9 L174.1,619.9 L181.1,619.9 L181.1,605 L207.4,605 L256.1,605 L256.1,619.9 L269.7,619.9 L275.6,619.9 L275.6,605 L291,605 L324.3,605 L335.8,605 L339.7,605 L339.7,619.9 L353.3,619.9 L359.2,619.9 L359.2,605 L407.9,605 C413.6,605 418.6,600.8 419.2,595.1 C418.2,592.7 418.1,591.2 417.6,589.3 Z" id="XMLID_1304_" fill="url(#linearGradient-1)" opacity="0.5"></path>
            <path d="M741.9,370 C741.9,378.2 735.2,384.9 727,384.9 C725.5,384.9 724,384.6 722.6,384.2 C725.1,386 728.1,387.2 731.4,387.2 C739.6,387.2 746.3,380.5 746.3,372.3 C746.3,365.6 741.9,360 735.8,358.1 C739.5,360.8 741.9,365.1 741.9,370 Z" id="XMLID_1320_" fill="#7A2340"></path>
            <path d="M741.9,370 C741.9,365.1 739.5,360.8 735.8,358.1 C734.4,357.7 733,357.4 731.4,357.4 C723.2,357.4 716.5,364.1 716.5,372.3 C716.5,377.2 718.9,381.5 722.6,384.2 C724,384.6 725.4,384.9 727,384.9 C735.2,384.9 741.9,378.2 741.9,370 Z" id="XMLID_1319_" fill="#852844"></path>
            <polygon id="XMLID_1318_" fill="#711E3A" points="774.5 423.8 807.8 431.5 774.5 342.4"></polygon>
            <g id="XMLID_28187_" transform="translate(681.500000, 190.500000)">
                <path d="M220.5,402.7 C230.3,402.7 238.8,395.5 239.8,385.7 C240,383.5 239.9,381 239,377.7 C235.7,366.2 228.9,368.2 225.6,356.7 C222.3,345.2 229.1,343.3 225.8,331.8 C222.5,320.3 215.7,322.3 212.4,310.8 C209.1,299.3 215.9,297.4 212.6,285.9 C209.3,274.4 202.5,276.4 199.2,264.9 C195.9,253.4 202.7,251.5 199.4,240 C196.1,228.5 189.3,230.5 186,219 C182.7,207.5 189.5,205.6 186.2,194.1 C182.9,182.6 176.1,184.6 172.8,173.1 C169.5,161.6 176.3,159.7 173,148.2 C169.7,136.7 162.9,138.7 159.6,127.2 C156.3,115.7 163.1,113.8 159.8,102.3 C156.5,90.8 149.7,92.8 146.4,81.3 C143.1,69.8 149.9,67.9 146.6,56.4 C143.3,44.9 136.5,46.9 133.2,35.4 C129.9,23.9 136.7,22 133.4,10.5 C133.4,10.4 133.3,10.3 133.3,10.2 C129.4,-2.9 110.7,-2.9 106.7,10.2 C106.7,10.3 106.6,10.4 106.6,10.5 C103.3,22 110.1,23.9 106.8,35.4 C103.5,46.9 96.7,44.9 93.4,56.4 C90.1,67.9 96.9,69.8 93.6,81.3 C90.3,92.8 83.5,90.8 80.2,102.3 C76.9,113.8 83.7,115.7 80.4,127.2 C77.1,138.7 70.3,136.7 67,148.2 C63.7,159.7 70.5,161.6 67.2,173.1 C63.9,184.6 57.1,182.6 53.8,194.1 C50.5,205.6 57.3,207.5 54,219 C50.7,230.5 43.9,228.5 40.6,240 C37.3,251.5 44.1,253.4 40.8,264.9 C37.5,276.4 30.7,274.4 27.4,285.9 C24.1,297.4 30.9,299.3 27.6,310.8 C24.3,322.3 17.5,320.3 14.2,331.8 C10.9,343.3 17.7,345.2 14.4,356.7 C11.1,368.2 4.3,366.2 1,377.7 C0.1,381 -0.1,383.5 0.2,385.7 C1.3,395.4 9.8,402.7 19.5,402.7 L220.5,402.7 Z" id="XMLID_28191_" fill="#4E3852"></path>
                <path d="M155.2,383.2 C154.1,370.8 161.4,370.1 160.3,357.7 C159.2,345.3 151.8,345.9 150.6,333.5 C149.5,321.1 156.8,320.4 155.7,308 C154.6,295.6 147.2,296.2 146,283.8 C144.9,271.4 152.2,270.7 151.1,258.3 C150,245.9 142.6,246.6 141.4,234.1 C140.3,221.7 147.6,221 146.5,208.6 C145.4,196.2 138,196.8 136.8,184.4 C135.7,172 143,171.3 141.9,158.9 C140.8,146.5 133.4,147.2 132.2,134.7 C131.1,122.3 138.4,121.6 137.3,109.2 C136.2,96.8 128.8,97.5 127.6,85 C126.5,72.6 133.8,71.9 132.7,59.5 C131.6,47.1 124.2,47.7 123,35.3 C121.9,22.9 129.2,22.2 128.1,9.8 C128.1,9.7 128.1,9.5 128.1,9.4 C127.7,6 126.4,3.2 124.4,1.1 C117.6,-1 109.3,2.1 106.8,10.3 C106.8,10.4 106.7,10.5 106.7,10.6 C103.4,22.1 110.2,24 106.9,35.5 C103.6,47 96.8,45 93.5,56.5 C90.2,68 97,69.9 93.7,81.4 C90.4,92.9 83.6,90.9 80.3,102.4 C77,113.9 83.8,115.8 80.5,127.3 C77.2,138.8 70.4,136.8 67.1,148.3 C63.8,159.8 70.6,161.7 67.3,173.2 C64,184.7 57.2,182.7 53.9,194.2 C50.6,205.7 57.4,207.6 54.1,219.1 C50.8,230.6 44,228.6 40.7,240.1 C37.4,251.6 44.2,253.5 40.9,265 C37.6,276.5 30.8,274.5 27.5,286 C24.2,297.5 31,299.4 27.7,310.9 C24.4,322.4 17.6,320.4 14.3,331.9 C11,343.4 17.8,345.3 14.5,356.8 C11.2,368.3 4.4,366.3 1.1,377.8 C0.2,381.1 -4.57966998e-13,383.6 0.3,385.8 C1.4,395.5 9.9,402.8 19.6,402.8 L164,402.8 C161.7,394.9 156.2,393.8 155.2,383.2 Z" id="XMLID_28190_" fill="#603952"></path>
                <rect id="XMLID_28189_" fill="#8D6E16" x="103.7" y="402.7" width="33.4" height="25.5"></rect>
                <rect id="XMLID_28188_" fill="#7F6000" x="103.7" y="402.7" width="23.4" height="25.5"></rect>
            </g>
            <g id="XMLID_1846_" transform="translate(521.500000, 190.500000)">
                <path d="M220.9,402.7 C230.7,402.7 239.2,395.5 240.2,385.7 C240.4,383.5 240.3,381 239.4,377.7 C236.1,366.2 229.3,368.2 226,356.7 C222.7,345.2 229.5,343.3 226.2,331.8 C222.9,320.3 216.1,322.3 212.8,310.8 C209.5,299.3 216.3,297.4 213,285.9 C209.7,274.4 202.9,276.4 199.6,264.9 C196.3,253.4 203.1,251.5 199.8,240 C196.5,228.5 189.7,230.5 186.4,219 C183.1,207.5 189.9,205.6 186.6,194.1 C183.3,182.6 176.5,184.6 173.2,173.1 C169.9,161.6 176.7,159.7 173.4,148.2 C170.1,136.7 163.3,138.7 160,127.2 C156.7,115.7 163.5,113.8 160.2,102.3 C156.9,90.8 150.1,92.8 146.8,81.3 C143.5,69.8 150.3,67.9 147,56.4 C143.7,44.9 136.9,46.9 133.6,35.4 C130.3,23.9 137.1,22 133.8,10.5 C133.8,10.4 133.7,10.3 133.7,10.2 C129.8,-2.9 111.1,-2.9 107.1,10.2 C107.1,10.3 107,10.4 107,10.5 C103.7,22 110.5,23.9 107.2,35.4 C103.9,46.9 97.1,44.9 93.8,56.4 C90.5,67.9 97.3,69.8 94,81.3 C90.7,92.8 83.9,90.8 80.6,102.3 C77.3,113.8 84.1,115.7 80.8,127.2 C77.5,138.7 70.7,136.7 67.4,148.2 C64.1,159.7 70.9,161.6 67.6,173.1 C64.3,184.6 57.5,182.6 54.2,194.1 C50.9,205.6 57.7,207.5 54.4,219 C51.1,230.5 44.3,228.5 41,240 C37.7,251.5 44.5,253.4 41.2,264.9 C37.9,276.4 31.1,274.4 27.8,285.9 C24.5,297.4 31.3,299.3 28,310.8 C24.7,322.3 17.9,320.3 14.6,331.8 C11.3,343.3 18.1,345.2 14.8,356.7 C11.5,368.2 4.7,366.2 1.4,377.7 C0.5,381 0.3,383.5 0.6,385.7 C1.7,395.4 10.2,402.7 19.9,402.7 L220.9,402.7 Z" id="XMLID_1850_" fill="#4E3852"></path>
                <path d="M155.5,383.2 C154.4,370.8 161.7,370.1 160.6,357.7 C159.5,345.3 152.1,345.9 150.9,333.5 C149.8,321.1 157.1,320.4 156,308 C154.9,295.6 147.5,296.2 146.3,283.8 C145.2,271.4 152.5,270.7 151.4,258.3 C150.3,245.9 142.9,246.6 141.7,234.1 C140.6,221.7 147.9,221 146.8,208.6 C145.7,196.2 138.3,196.8 137.1,184.4 C136,172 143.3,171.3 142.2,158.9 C141.1,146.5 133.7,147.2 132.5,134.7 C131.4,122.3 138.7,121.6 137.6,109.2 C136.5,96.8 129.1,97.5 127.9,85 C126.8,72.6 134.1,71.9 133,59.5 C131.9,47.1 124.5,47.7 123.3,35.3 C122.2,22.9 129.5,22.2 128.4,9.8 C128.4,9.7 128.4,9.5 128.4,9.4 C128,6 126.7,3.2 124.7,1.1 C117.9,-1 109.6,2.1 107.1,10.3 C107.1,10.4 107,10.5 107,10.6 C103.7,22.1 110.5,24 107.2,35.5 C103.9,47 97.1,45 93.8,56.5 C90.5,68 97.3,69.9 94,81.4 C90.7,92.9 83.9,90.9 80.6,102.4 C77.3,113.9 84.1,115.8 80.8,127.3 C77.5,138.8 70.7,136.8 67.4,148.3 C64.1,159.8 70.9,161.7 67.6,173.2 C64.3,184.7 57.5,182.7 54.2,194.2 C50.9,205.7 57.7,207.6 54.4,219.1 C51.1,230.6 44.3,228.6 41,240.1 C37.7,251.6 44.5,253.5 41.2,265 C37.9,276.5 31.1,274.5 27.8,286 C24.5,297.5 31.3,299.4 28,310.9 C24.7,322.4 17.9,320.4 14.6,331.9 C11.3,343.4 18.1,345.3 14.8,356.8 C11.5,368.3 4.7,366.3 1.4,377.8 C0.5,381.1 0.3,383.6 0.6,385.8 C1.7,395.5 10.2,402.8 19.9,402.8 L163.6,402.8 C162,394.9 156.5,393.8 155.5,383.2 Z" id="XMLID_1849_" fill="#603952"></path>
                <rect id="XMLID_1848_" fill="#8D6E16" x="104.1" y="402.7" width="33.4" height="25.5"></rect>
                <rect id="XMLID_1847_" fill="#7F6000" x="104.1" y="402.7" width="23.4" height="25.5"></rect>
            </g>
            <g id="XMLID_1851_" transform="translate(361.500000, 190.500000)">
                <path d="M220.8,402.7 C230.6,402.7 239.1,395.5 240.1,385.7 C240.3,383.5 240.2,381 239.3,377.7 C236,366.2 229.2,368.2 225.9,356.7 C222.6,345.2 229.4,343.3 226.1,331.8 C222.8,320.3 216,322.3 212.7,310.8 C209.4,299.3 216.2,297.4 212.9,285.9 C209.6,274.4 202.8,276.4 199.5,264.9 C196.2,253.4 203,251.5 199.7,240 C196.4,228.5 189.6,230.5 186.3,219 C183,207.5 189.8,205.6 186.5,194.1 C183.2,182.6 176.4,184.6 173.1,173.1 C169.8,161.6 176.6,159.7 173.3,148.2 C170,136.7 163.2,138.7 159.9,127.2 C156.6,115.7 163.4,113.8 160.1,102.3 C156.8,90.8 150,92.8 146.7,81.3 C143.4,69.8 150.2,67.9 146.9,56.4 C143.6,44.9 136.8,46.9 133.5,35.4 C130.2,23.9 137,22 133.7,10.5 C133.7,10.4 133.6,10.3 133.6,10.2 C129.7,-2.9 111,-2.9 107,10.2 C107,10.3 106.9,10.4 106.9,10.5 C103.6,22 110.4,23.9 107.1,35.4 C103.8,46.9 97,44.9 93.7,56.4 C90.4,67.9 97.2,69.8 93.9,81.3 C90.6,92.8 83.8,90.8 80.5,102.3 C77.2,113.8 84,115.7 80.7,127.2 C77.4,138.7 70.6,136.7 67.3,148.2 C64,159.7 70.8,161.6 67.5,173.1 C64.2,184.6 57.4,182.6 54.1,194.1 C50.8,205.6 57.6,207.5 54.3,219 C51,230.5 44.2,228.5 40.9,240 C37.6,251.5 44.4,253.4 41.1,264.9 C37.8,276.4 31,274.4 27.7,285.9 C24.4,297.4 31.2,299.3 27.9,310.8 C24.6,322.3 17.8,320.3 14.5,331.8 C11.2,343.3 18,345.2 14.7,356.7 C11.4,368.2 4.6,366.2 1.3,377.7 C0.4,381 0.2,383.5 0.5,385.7 C1.6,395.4 10.1,402.7 19.8,402.7 L220.8,402.7 Z" id="XMLID_1856_" fill="#4E3852"></path>
                <path d="M155.5,383.2 C154.4,370.8 161.7,370.1 160.6,357.7 C159.5,345.3 152.1,345.9 150.9,333.5 C149.8,321.1 157.1,320.4 156,308 C154.9,295.6 147.5,296.2 146.3,283.8 C145.2,271.4 152.5,270.7 151.4,258.3 C150.3,245.9 142.9,246.6 141.7,234.1 C140.6,221.7 147.9,221 146.8,208.6 C145.7,196.2 138.3,196.8 137.1,184.4 C136,172 143.3,171.3 142.2,158.9 C141.1,146.5 133.7,147.2 132.5,134.7 C131.4,122.3 138.7,121.6 137.6,109.2 C136.5,96.8 129.1,97.5 127.9,85 C126.8,72.6 134.1,71.9 133,59.5 C131.9,47.1 124.5,47.7 123.3,35.3 C122.2,22.9 129.5,22.2 128.4,9.8 C128.4,9.7 128.4,9.5 128.4,9.4 C128,6 126.7,3.2 124.7,1.1 C117.9,-1 109.6,2.1 107.1,10.3 C107.1,10.4 107,10.5 107,10.6 C103.7,22.1 110.5,24 107.2,35.5 C103.9,47 97.1,45 93.8,56.5 C90.5,68 97.3,69.9 94,81.4 C90.7,92.9 83.9,90.9 80.6,102.4 C77.3,113.9 84.1,115.8 80.8,127.3 C77.5,138.8 70.7,136.8 67.4,148.3 C64.1,159.8 70.9,161.7 67.6,173.2 C64.3,184.7 57.5,182.7 54.2,194.2 C50.9,205.7 57.7,207.6 54.4,219.1 C51.1,230.6 44.3,228.6 41,240.1 C37.7,251.6 44.5,253.5 41.2,265 C37.9,276.5 31.1,274.5 27.8,286 C24.5,297.5 31.3,299.4 28,310.9 C24.7,322.4 17.9,320.4 14.6,331.9 C11.3,343.4 18.1,345.3 14.8,356.8 C11.5,368.3 4.7,366.3 1.4,377.8 C0.5,381.1 0.3,383.6 0.6,385.8 C1.7,395.5 10.2,402.8 19.9,402.8 L163.6,402.8 C162,394.9 156.5,393.8 155.5,383.2 Z" id="XMLID_1855_" fill="#603952"></path>
                <rect id="XMLID_1854_" fill="#8D6E16" x="104" y="402.7" width="33.4" height="25.5"></rect>
                <rect id="XMLID_1852_" fill="#7F6000" x="104" y="402.7" width="23.4" height="25.5"></rect>
            </g>
            <path d="M531.2,195.4 L159.8,195.4 C146.3,195.4 135.4,206.3 135.4,219.8 C135.4,233.3 146.3,244.2 159.8,244.2 L313.2,244.2 C326.7,244.2 337.6,255.1 337.6,268.6 C337.6,282.1 326.7,293 313.2,293 L123.7,293 C110.2,293 99.3,303.9 99.3,317.4 C99.3,330.9 110.2,341.8 123.7,341.8 L194.4,341.8 C207.9,341.8 218.8,352.7 218.8,366.2 C218.8,379.7 207.9,390.6 194.4,390.6 L187.6,390.6 C174.1,390.6 163.2,401.5 163.2,415 C163.2,428.5 174.1,439.4 187.6,439.4 L265.3,439.4 C278.8,439.4 289.7,428.5 289.7,415 C289.7,401.5 278.8,390.6 265.3,390.6 L268.9,390.6 C255.4,390.6 244.5,379.7 244.5,366.2 C244.5,352.7 255.4,341.8 268.9,341.8 L438.6,341.8 C452.1,341.8 463,330.9 463,317.4 C463,303.9 452.1,293 438.6,293 L430,293 C416.5,293 405.6,282.1 405.6,268.6 C405.6,255.1 416.5,244.2 430,244.2 L531.2,244.2 C544.7,244.2 555.6,233.3 555.6,219.8 C555.7,206.3 544.7,195.4 531.2,195.4 Z" id="XMLID_1533_" fill="#375E70" opacity="0.4"></path>
            <path d="M531.2,0.2 L159.8,0.2 C146.3,0.2 135.4,11.1 135.4,24.6 C135.4,38.1 146.3,49 159.8,49 L313.2,49 C326.7,49 337.6,59.9 337.6,73.4 C337.6,86.9 326.7,97.8 313.2,97.8 L123.7,97.8 C110.2,97.8 99.3,108.7 99.3,122.2 C99.3,135.7 110.2,146.6 123.7,146.6 L194.4,146.6 C207.9,146.6 218.8,157.5 218.8,171 C218.8,180 208.4,188.133333 187.6,195.4 C174.1,195.4 278.8,195.4 265.3,195.4 C251.433333,188.133333 244.5,180 244.5,171 C244.5,157.5 255.4,146.6 268.9,146.6 L438.6,146.6 C452.1,146.6 463,135.7 463,122.2 C463,108.7 452.1,97.8 438.6,97.8 L430,97.8 C416.5,97.8 405.6,86.9 405.6,73.4 C405.6,59.9 416.5,49 430,49 L531.2,49 C544.7,49 555.6,38.1 555.6,24.6 C555.7,11.1 544.7,0.2 531.2,0.2 Z" id="XMLID_1533_" fill="#375E70" opacity="0.4"></path>
            <polygon id="XMLID_28825_" fill="#9C4635" points="629.2 317.5 581.1 237.9 570.6 244.2 614.9 317.5"></polygon>
            <polygon id="XMLID_28822_" fill="url(#linearGradient-2)" points="634.7 317.5 556.4 317.5 373.1 618.7 817.9 618.7"></polygon>
            <polygon id="XMLID_28824_" fill="#B85141" points="576.2 317.5 620.5 244.2 610 237.9 561.9 317.5"></polygon>
            <polygon id="XMLID_28602_" fill="#443049" points="492 618.7 595.5 448.5 699.1 618.7"></polygon>
            <polygon id="XMLID_1668_" fill="#4E3852" points="545.3 618.7 699.1 618.7 622.2 492.3"></polygon>
            <polygon id="XMLID_28601_" fill="#972F4B" points="492 618.7 492 448.5 595.5 448.5"></polygon>
            <polygon id="XMLID_28823_" fill="#853628" points="602.7 273.7 595.5 285.5 599.9 292.7"></polygon>
            <g id="XMLID_1722_" transform="translate(208.500000, 581.500000)">
                <path d="M18.7,0.8 C8.6,0.8 0.5,9 0.5,19 C0.5,29.1 8.7,37.2 18.7,37.2 L60.2,37.2 L60.2,0.7 L18.7,0.7 L18.7,0.8 Z" id="XMLID_1728_" fill="#6D1513"></path>
                <path d="M2,11.7 C1,14 0.4,16.5 0.4,19.1 C0.4,29.2 8.6,37.3 18.6,37.3 L60.1,37.3 L60.1,11.7 L2,11.7 Z" id="XMLID_1729_" fill="#451512"></path>
                <circle id="XMLID_1317_" fill="#A03524" cx="60.2" cy="19" r="18.2"></circle>
                <path d="M60.2,6.6 C53.3,6.6 47.8,12.2 47.8,19 C47.8,25.9 53.4,31.4 60.2,31.4 C67.1,31.4 72.6,25.8 72.6,19 C72.6,12.2 67,6.6 60.2,6.6 Z M60.2,29 C54.7,29 50.2,24.5 50.2,19 C50.2,13.5 54.7,9 60.2,9 C65.7,9 70.2,13.5 70.2,19 C70.1,24.6 65.7,29 60.2,29 Z" id="XMLID_1732_" fill="#8F2E23" fill-rule="nonzero"></path>
            </g>
            <g id="XMLID_1733_" transform="translate(166.500000, 581.500000)">
                <path d="M18.7,0.8 C8.6,0.8 0.5,9 0.5,19 C0.5,29.1 8.7,37.2 18.7,37.2 L60.2,37.2 L60.2,0.7 L18.7,0.7 L18.7,0.8 Z" id="XMLID_1844_" fill="#6D1513"></path>
                <path d="M2,11.7 C1,14 0.4,16.5 0.4,19.1 C0.4,29.2 8.6,37.3 18.6,37.3 L60.1,37.3 L60.1,11.7 L2,11.7 Z" id="XMLID_1843_" fill="#451512"></path>
                <circle id="XMLID_1842_" fill="#A03524" cx="60.1" cy="19" r="18.2"></circle>
                <path d="M60.1,6.6 C53.2,6.6 47.7,12.2 47.7,19 C47.7,25.9 53.3,31.4 60.1,31.4 C67,31.4 72.5,25.8 72.5,19 C72.5,12.2 67,6.6 60.1,6.6 Z M60.1,29 C54.6,29 50.1,24.5 50.1,19 C50.1,13.5 54.6,9 60.1,9 C65.6,9 70.1,13.5 70.1,19 C70.1,24.6 65.6,29 60.1,29 Z" id="XMLID_1734_" fill="#8F2E23" fill-rule="nonzero"></path>
            </g>
            <path d="M255.9,533 C250,522.8 247.6,511.9 253.3,507.6 C259,503.3 262.6,501.9 262.6,501.9 C262.6,501.9 243.8,503.3 236.7,516.6 C229.6,529.9 235.5,536.3 235.5,536.3 C235.5,536.3 227.8,529 232.6,518.2 C237.5,507.4 245.3,491.3 239.2,479.7 C233.2,468.1 212.1,459.6 212.1,459.6 C212.1,459.6 235.4,472.4 210.7,506.1 C202.9,515.3 197.4,523.8 193.7,531.6 C183.3,553.6 199.5,579 223.9,579 L226.5,579 C227.2,577.2 227.8,575.7 226.7,573 C225.7,573 224.7,573 223.7,572.9 C224.7,573 225.7,573 226.7,573 C225.9,571.1 224.2,568.6 221.1,565 C214.9,556.5 222.9,543.4 223.7,538 C224,536.2 223.6,534.6 222.9,533.3 C222.5,532.5 222.3,531.7 222.2,530.9 C222.2,530.9 222.2,530.9 222.2,530.9 C222.8,531.4 223.5,531.9 224.2,532.5 C226.5,534.6 227.7,537.3 226.2,544.3 C226,545.1 225.8,545.9 225.6,546.8 C223.2,556.3 223.5,557.6 230.3,566.8 C230.8,567.5 231.3,568.2 231.7,568.9 C232.4,570 232.9,571.1 233.3,572 C234.4,574.8 234.3,577.1 233.8,578.9 C255.3,578.9 268.8,555.7 258.2,536.9 C257.5,535.7 256.6,534.3 255.9,533 Z M208.7,568.7 C208.8,568.7 208.8,568.8 208.9,568.8 C208.9,568.7 208.8,568.7 208.7,568.7 Z" id="XMLID_1738_" fill="#FBB44A" fill-rule="nonzero"></path>
        </g>
    </g>
</svg>