<?xml version="1.0" encoding="UTF-8"?>
<svg width="1011px" height="1011px" viewBox="0 0 1011 1011" version="1.1" xmlns="http://www.w3.org/2000/svg" xmlns:xlink="http://www.w3.org/1999/xlink">
    <!-- Generator: Sketch 51.2 (57519) - http://www.bohemiancoding.com/sketch -->
    <title>ceremony</title>
    <desc>Created with Sketch.</desc>
    <defs>
        <linearGradient x1="0.25781251%" y1="49.7500002%" x2="101.257813%" y2="49.7500002%" id="linearGradient-1">
            <stop stop-color="#3023AE" offset="0%"></stop>
            <stop stop-color="#53A0FD" offset="47.5247532%"></stop>
            <stop stop-color="#B4EC51" offset="100%"></stop>
        </linearGradient>
        <linearGradient x1="50%" y1="0%" x2="50%" y2="100%" id="linearGradient-2">
            <stop stop-color="#F5515F" offset="0%"></stop>
            <stop stop-color="#9F041B" offset="100%"></stop>
        </linearGradient>
    </defs>
    <g id="ceremony" stroke="none" stroke-width="1" fill="none" fill-rule="evenodd">
        <g id="FEB_17_CHALET_EEZY_06" transform="translate(44.500000, 290.500000)" fill-rule="nonzero">
            <path d="M417.1,398.8 C415.2,392.1 411.2,393.2 409.3,386.5 C407.4,379.8 411.4,378.7 409.4,372 C407.5,365.3 403.5,366.4 401.6,359.7 C399.7,353 403.7,351.9 401.7,345.2 C399.8,338.5 395.8,339.6 393.9,332.9 C392,326.2 396,325.1 394,318.4 C392.1,311.7 388.1,312.8 386.2,306.1 C384.3,299.4 388.3,298.3 386.3,291.6 C384.4,284.9 380.4,286 378.5,279.3 C376.6,272.6 380.6,271.5 378.6,264.8 C376.7,258.1 372.7,259.2 370.8,252.5 C368.9,245.8 372.9,244.7 370.9,238 C369,231.3 365,232.4 363.1,225.7 C361.2,219 365.2,217.9 363.2,211.2 C361.3,204.5 357.3,205.6 355.4,198.9 C353.5,192.2 357.5,191.1 355.5,184.4 C355.5,184.3 355.5,184.3 355.4,184.2 C354.5,181.3 352.5,179.6 350.1,178.8 C350.1,178.8 350.1,178.8 350.1,178.8 C350.1,178.8 350.1,178.8 350.1,178.8 C350.1,178.8 350,178.8 350,178.8 C349.7,178.7 349.4,178.6 349.1,178.6 C349,178.6 348.9,178.6 348.8,178.6 C348.5,178.6 348.1,178.5 347.8,178.5 C347.7,178.5 347.6,178.5 347.5,178.5 C347.2,178.5 346.9,178.5 346.6,178.6 C346.5,178.6 346.5,178.6 346.4,178.6 C346.1,178.7 345.7,178.7 345.4,178.8 C345.3,178.8 345.2,178.9 345.1,178.9 C344.8,179 344.4,179.1 344.1,179.3 C344.1,179.3 344.1,179.3 344,179.3 C343.7,179.5 343.4,179.6 343.1,179.8 C343,179.8 343,179.9 342.9,179.9 C342.6,180.1 342.3,180.3 342,180.6 C342,180.6 341.9,180.7 341.9,180.7 C341.7,180.9 341.4,181.2 341.2,181.5 C341.2,181.6 341.1,181.6 341.1,181.7 C340.9,182 340.7,182.4 340.5,182.7 C340.5,182.8 340.4,182.9 340.4,182.9 C340.2,183.3 340.1,183.7 339.9,184.1 C339.9,184.1 339.9,184.1 339.9,184.2 C339.9,184.2 339.9,184.3 339.9,184.3 C339.5,185.6 339.4,186.6 339.4,187.6 C339.3,191.7 341.6,193.4 340.1,198.9 C339.7,200.2 339.3,201.1 338.8,201.9 C338.5,202.4 338.1,202.9 337.8,203.3 C337.6,203.5 337.4,203.7 337.3,203.9 C335.5,205.8 333.5,206.9 332.3,211.1 C332.2,211.4 332.1,211.7 332.1,212 C332.1,212.2 332,212.3 332,212.5 C331.5,214.9 331.9,216.6 332.3,218.2 C332.6,219.2 332.9,220.3 332.9,221.5 C332.9,221.8 332.9,222.1 332.9,222.4 C332.9,223 332.8,223.7 332.7,224.5 C332.6,224.9 332.5,225.3 332.4,225.7 C332.2,226.3 332,226.8 331.8,227.3 C331.6,227.8 331.3,228.3 331.1,228.8 C330.8,229.3 330.5,229.7 330.2,230.1 C330.1,230.2 330.1,230.2 330,230.3 C329,231.5 327.9,232.3 326.9,233.5 C326.6,233.8 326.3,234.2 326.1,234.6 C326,234.7 325.9,234.9 325.8,235 C325.3,235.8 324.9,236.8 324.6,238 C324.2,239.2 324.1,240.3 324.1,241.2 C324.1,241.2 324.1,241.2 324.1,241.3 C324.1,242.9 324.4,244.2 324.8,245.5 C324.9,245.9 325,246.2 325.1,246.6 C325.2,246.9 325.2,247.2 325.3,247.6 C325.4,248.1 325.4,248.7 325.4,249.3 C325.4,250.2 325.2,251.3 324.9,252.6 C324.6,253.6 324.3,254.5 323.9,255.2 C321.8,259.1 318.7,259.2 317.1,264.9 C316.1,268.2 316.7,270.2 317.2,272.2 C317.3,272.4 317.3,272.7 317.4,272.9 C317.7,274.1 317.9,275.4 317.8,277.1 C317.7,277.8 317.6,278.6 317.3,279.4 C316.2,283.1 314.5,284.4 312.9,286 C312.9,286 312.9,286 312.9,286 C312.1,286.8 311.3,287.7 310.6,289 C310.4,289.4 310.1,289.9 309.9,290.5 C309.8,290.9 309.6,291.2 309.5,291.7 C309.1,293 309,294 309,295 C309,296.3 309.2,297.4 309.5,298.5 C309.6,298.9 309.7,299.2 309.8,299.6 C310,300.4 310.2,301.2 310.2,302.2 C310.3,303.3 310.2,304.7 309.7,306.3 C308.9,309.2 307.6,310.7 306.3,311.9 C306.3,311.9 306.3,311.9 306.3,311.9 C305,310.6 303.7,309.2 302.9,306.3 C301,299.6 305,298.5 303,291.8 C301.1,285.1 297.1,286.2 295.2,279.5 C293.3,272.8 297.3,271.7 295.3,265 C293.4,258.3 289.4,259.4 287.5,252.7 C285.6,246 289.6,244.9 287.6,238.2 C285.7,231.5 281.7,232.6 279.8,225.9 C277.9,219.2 281.9,218.1 279.9,211.4 C278,204.7 274,205.8 272.1,199.1 C270.2,192.4 274.2,191.3 272.2,184.6 C272.2,184.5 272.2,184.5 272.1,184.4 C271.2,181.5 269.2,179.8 266.8,179 C266.8,179 266.8,179 266.8,179 C266.8,179 266.8,179 266.8,179 C266.8,179 266.7,179 266.7,179 C266.4,178.9 266.1,178.8 265.8,178.8 C265.7,178.8 265.6,178.8 265.5,178.8 C265.2,178.8 264.8,178.7 264.5,178.7 C264.4,178.7 264.3,178.7 264.2,178.7 C263.9,178.7 263.6,178.7 263.3,178.8 C263.2,178.8 263.2,178.8 263.1,178.8 C262.8,178.9 262.4,178.9 262.1,179 C262,179 261.9,179.1 261.8,179.1 C261.5,179.2 261.1,179.3 260.8,179.5 C260.8,179.5 260.8,179.5 260.7,179.5 C260.4,179.7 260.1,179.8 259.8,180 C259.7,180 259.7,180.1 259.6,180.1 C259.3,180.3 259,180.5 258.7,180.8 C258.7,180.8 258.6,180.9 258.6,180.9 C258.4,181.1 258.1,181.4 257.9,181.7 C257.9,181.8 257.8,181.8 257.8,181.9 C257.6,182.2 257.4,182.6 257.2,182.9 C257.2,183 257.1,183.1 257.1,183.1 C256.9,183.5 256.8,183.9 256.6,184.3 C256.6,184.3 256.6,184.3 256.6,184.4 C256.6,184.4 256.6,184.5 256.6,184.5 C256.2,185.8 256.1,186.8 256.1,187.8 C256,191.9 258.3,193.6 256.8,199.1 C256.4,200.4 256,201.3 255.5,202.1 C255.2,202.6 254.8,203.1 254.5,203.5 C254.3,203.7 254.1,203.9 254,204.1 C252.2,206 250.2,207.1 249,211.3 C248.9,211.6 248.8,211.9 248.8,212.2 C248.8,212.4 248.7,212.5 248.7,212.7 C248.2,215.1 248.6,216.8 249,218.4 C249.3,219.4 249.6,220.5 249.6,221.7 C249.6,222 249.6,222.3 249.6,222.6 C249.6,223.2 249.5,223.9 249.4,224.7 C249.3,225.1 249.2,225.5 249.1,225.9 C248.9,226.5 248.7,227 248.5,227.5 C248.3,228 248,228.5 247.8,229 C247.5,229.5 247.2,229.9 246.9,230.3 C246.8,230.4 246.8,230.4 246.7,230.5 C245.7,231.7 244.6,232.5 243.6,233.7 C243.3,234 243,234.4 242.8,234.8 C242.7,234.9 242.6,235.1 242.5,235.2 C242,236 241.6,237 241.3,238.2 C240.9,239.4 240.8,240.5 240.8,241.4 C240.8,241.4 240.8,241.4 240.8,241.5 C240.8,243.1 241.1,244.4 241.5,245.7 C241.6,246.1 241.7,246.4 241.8,246.8 C241.9,247.1 241.9,247.4 242,247.8 C242.1,248.3 242.1,248.9 242.1,249.5 C242.1,250.4 241.9,251.5 241.6,252.8 C241.3,253.8 241,254.7 240.6,255.4 C238.5,259.3 235.4,259.4 233.8,265.1 C232.8,268.4 233.4,270.4 233.9,272.4 C234,272.6 234,272.9 234.1,273.1 C234.4,274.3 234.6,275.6 234.5,277.3 C234.4,278 234.3,278.8 234,279.6 C232.9,283.3 231.2,284.6 229.6,286.2 C229.6,286.2 229.6,286.2 229.6,286.2 C228.8,287 228,287.9 227.3,289.2 C227.1,289.6 226.8,290.1 226.6,290.7 C226.5,291.1 226.3,291.4 226.2,291.9 C225.8,293.2 225.7,294.2 225.7,295.2 C225.7,296.5 225.9,297.6 226.2,298.7 C226.3,299.1 226.4,299.4 226.5,299.8 C226.7,300.6 226.9,301.4 226.9,302.4 C227,303.5 226.9,304.9 226.4,306.5 C225.6,309.4 224.4,310.8 223.1,312.1 C222.2,306 225.8,304.2 223.8,297 C221.5,289 216.7,290.3 214.4,282.3 C212.1,274.3 216.9,272.9 214.6,264.9 C212.3,256.9 207.5,258.2 205.2,250.2 C202.9,242.2 207.7,240.8 205.4,232.8 C203.1,224.8 198.3,226.1 196,218.1 C193.7,210.1 198.5,208.7 196.2,200.7 C193.9,192.7 189.1,194 186.8,186 C184.5,178 189.3,176.6 187,168.6 C184.7,160.6 179.9,161.9 177.6,153.9 C175.3,145.9 180.1,144.5 177.8,136.5 C177.8,136.4 177.8,136.3 177.7,136.3 C176.7,132.9 174.2,130.7 171.4,129.9 C171.4,129.9 171.4,129.9 171.4,129.9 C171.4,129.9 171.4,129.9 171.4,129.9 C171.3,129.9 171.3,129.9 171.2,129.9 C170.8,129.8 170.5,129.7 170.1,129.7 C170,129.7 169.9,129.7 169.8,129.6 C169.4,129.5 169,129.5 168.6,129.5 C168.5,129.5 168.4,129.5 168.3,129.5 C167.9,129.5 167.6,129.5 167.2,129.6 C167.1,129.6 167,129.6 167,129.6 C166.6,129.7 166.2,129.8 165.8,129.9 C165.7,129.9 165.6,130 165.5,130 C165.1,130.1 164.7,130.3 164.3,130.5 C164.3,130.5 164.2,130.5 164.2,130.5 C163.8,130.7 163.5,130.9 163.1,131.1 C163,131.2 162.9,131.2 162.9,131.3 C162.5,131.6 162.2,131.8 161.9,132.1 C161.8,132.2 161.8,132.2 161.7,132.3 C161.4,132.6 161.1,132.9 160.9,133.2 C160.9,133.3 160.8,133.3 160.8,133.4 C160.5,133.8 160.3,134.2 160.1,134.6 C160.1,134.7 160,134.8 160,134.9 C159.8,135.4 159.6,135.8 159.4,136.3 C159.4,136.3 159.4,136.3 159.4,136.4 C159.4,136.5 159.4,136.5 159.3,136.6 C158.9,138.1 158.7,139.4 158.7,140.5 C158.6,145.4 161.4,147.5 159.5,154 C159.1,155.5 158.6,156.7 158,157.6 C157.6,158.2 157.2,158.8 156.8,159.3 C156.6,159.5 156.4,159.8 156.2,160 C154,162.3 151.6,163.6 150.2,168.6 C150.1,169 150,169.3 149.9,169.7 C149.9,169.9 149.8,170.1 149.8,170.3 C149.2,173.2 149.7,175.2 150.2,177.1 C150.5,178.4 150.9,179.6 151,181.1 C151,181.4 151,181.8 151,182.2 C151,182.9 150.9,183.8 150.7,184.7 C150.6,185.2 150.5,185.6 150.3,186.1 C150.1,186.8 149.9,187.4 149.6,188 C149.3,188.6 149.1,189.2 148.8,189.7 C148.5,190.3 148.1,190.8 147.7,191.2 C147.6,191.3 147.6,191.4 147.5,191.5 C146.3,192.9 144.9,193.9 143.7,195.3 C143.4,195.7 143,196.2 142.7,196.7 C142.6,196.9 142.5,197 142.4,197.2 C141.8,198.2 141.3,199.3 140.9,200.8 C140.5,202.3 140.3,203.5 140.3,204.6 C140.3,204.6 140.3,204.7 140.3,204.7 C140.3,206.7 140.7,208.2 141.1,209.7 C141.2,210.1 141.3,210.6 141.4,211.1 C141.5,211.5 141.6,211.9 141.6,212.3 C141.7,212.9 141.7,213.6 141.7,214.4 C141.7,215.5 141.5,216.8 141.1,218.3 C140.7,219.5 140.3,220.5 139.9,221.4 C137.4,226.1 133.7,226.2 131.8,233 C130.6,237 131.3,239.4 131.9,241.7 C132,242 132.1,242.3 132.1,242.6 C132.5,244.1 132.7,245.6 132.5,247.6 C132.4,248.4 132.2,249.4 131.9,250.4 C130.6,254.9 128.6,256.4 126.6,258.3 C126.6,258.3 126.6,258.3 126.6,258.3 C125.6,259.3 124.7,260.3 123.8,261.9 C123.5,262.4 123.2,263 123,263.7 C122.8,264.1 122.7,264.6 122.5,265.1 C122.1,266.6 121.9,267.9 121.9,269 C121.9,270.6 122.1,271.9 122.5,273.2 C122.6,273.6 122.7,274.1 122.8,274.5 C123,275.5 123.3,276.5 123.3,277.6 C123.4,279 123.3,280.6 122.7,282.6 C121.7,286.1 120.2,287.8 118.7,289.3 C116.7,291.2 114.6,292.8 113.4,297.3 C111.5,303.8 114.3,306 114.2,310.8 C114.2,311.2 114.2,311.6 114.1,312 C114,312.7 113.9,313.5 113.6,314.3 C111.7,312.3 109.6,311.2 108.4,306.9 C106.5,300.2 110.5,299.1 108.5,292.4 C106.6,285.7 102.6,286.8 100.7,280.1 C98.8,273.4 102.8,272.3 100.8,265.6 C98.9,258.9 94.9,260 93,253.3 C91.1,246.6 95.1,245.5 93.1,238.8 C91.2,232.1 87.2,233.2 85.3,226.5 C83.4,219.8 87.4,218.7 85.4,212 C83.5,205.3 79.5,206.4 77.6,199.7 C75.7,193 79.7,191.9 77.7,185.2 C77.7,185.1 77.7,185.1 77.6,185 C76.7,182.1 74.7,180.4 72.3,179.6 C72.3,179.6 72.3,179.6 72.3,179.6 C72.3,179.6 72.3,179.6 72.3,179.6 C72.3,179.6 72.2,179.6 72.2,179.6 C71.9,179.5 71.6,179.4 71.3,179.4 C71.2,179.4 71.1,179.4 71,179.4 C70.7,179.4 70.3,179.3 70,179.3 C69.9,179.3 69.8,179.3 69.7,179.3 C69.4,179.3 69.1,179.3 68.8,179.4 C68.7,179.4 68.7,179.4 68.6,179.4 C68.3,179.5 67.9,179.5 67.6,179.6 C67.5,179.6 67.4,179.7 67.3,179.7 C67,179.8 66.6,179.9 66.3,180.1 C66.3,180.1 66.3,180.1 66.2,180.1 C65.9,180.3 65.6,180.4 65.3,180.6 C65.2,180.6 65.2,180.7 65.1,180.7 C64.8,180.9 64.5,181.1 64.2,181.4 C64.2,181.4 64.1,181.5 64.1,181.5 C63.9,181.7 63.6,182 63.4,182.3 C63.4,182.4 63.3,182.4 63.3,182.5 C63.1,182.8 62.9,183.2 62.7,183.5 C62.7,183.6 62.6,183.7 62.6,183.7 C62.4,184.1 62.3,184.5 62.1,184.9 C62.1,184.9 62.1,184.9 62.1,185 C62.1,185 62.1,185.1 62.1,185.1 C61.7,186.4 61.6,187.4 61.6,188.4 C61.5,192.5 63.8,194.2 62.3,199.7 C61.9,201 61.5,201.9 61,202.7 C60.7,203.2 60.3,203.7 60,204.1 C59.8,204.3 59.6,204.5 59.5,204.7 C57.7,206.6 55.7,207.7 54.5,211.9 C54.4,212.2 54.3,212.5 54.3,212.8 C54.3,213 54.2,213.1 54.2,213.3 C53.7,215.7 54.1,217.4 54.5,219 C54.8,220 55.1,221.1 55.1,222.3 C55.1,222.6 55.1,222.9 55.1,223.2 C55.1,223.8 55,224.5 54.9,225.3 C54.8,225.7 54.7,226.1 54.6,226.5 C54.4,227.1 54.2,227.6 54,228.1 C53.8,228.6 53.5,229.1 53.3,229.6 C53,230.1 52.7,230.5 52.4,230.9 C52.3,231 52.3,231 52.2,231.1 C51.2,232.3 50.1,233.1 49.1,234.3 C48.8,234.6 48.5,235 48.3,235.4 C48.2,235.5 48.1,235.7 48,235.8 C47.5,236.6 47.1,237.6 46.8,238.8 C46.4,240 46.3,241.1 46.3,242 C46.3,242 46.3,242 46.3,242.1 C46.3,243.7 46.6,245 47,246.3 C47.1,246.7 47.2,247 47.3,247.4 C47.4,247.7 47.4,248 47.5,248.4 C47.6,248.9 47.6,249.5 47.6,250.1 C47.6,251 47.4,252.1 47.1,253.4 C46.8,254.4 46.5,255.3 46.1,256 C44,259.9 40.9,260 39.3,265.7 C38.3,269 38.9,271 39.4,273 C39.5,273.2 39.5,273.5 39.6,273.7 C39.9,274.9 40.1,276.2 40,277.9 C39.9,278.6 39.8,279.4 39.5,280.2 C38.4,283.9 36.7,285.2 35.1,286.8 C35.1,286.8 35.1,286.8 35.1,286.8 C34.3,287.6 33.5,288.5 32.8,289.8 C32.6,290.2 32.3,290.7 32.1,291.3 C32,291.7 31.8,292 31.7,292.5 C31.3,293.8 31.2,294.8 31.2,295.8 C31.2,297.1 31.4,298.2 31.7,299.3 C31.8,299.7 31.9,300 32,300.4 C32.2,301.2 32.4,302 32.4,303 C32.5,304.1 32.4,305.5 31.9,307.1 C31.1,310 29.8,311.5 28.5,312.7 C26.8,314.3 25.1,315.6 24,319.4 C22.4,324.8 24.8,326.6 24.7,330.7 C24.7,331 24.7,331.3 24.6,331.7 C24.5,332.4 24.4,333.1 24.1,334 C23.4,336.5 22.4,337.9 21.3,339.1 C20.2,340.2 19.1,341.1 18.1,342.5 C17.4,343.4 16.8,344.6 16.3,346.3 C16.1,347.1 15.9,347.9 15.8,348.6 C15.3,352.7 17.3,354.5 16.9,358.6 C16.9,358.9 16.8,359.3 16.7,359.7 C16.6,360.1 16.5,360.5 16.4,360.9 C15.6,363.8 14.3,365.3 13,366.5 C12.8,366.7 12.6,366.9 12.4,367 C10.9,368.4 9.4,369.8 8.5,373.1 C8.4,373.5 8.3,373.9 8.2,374.3 C8,375.1 8,375.7 8,376.4 C8,377 8,377.6 8.1,378.1 C8.4,380.3 9.3,381.9 9.2,384.4 C9.2,385.3 9,386.4 8.7,387.7 C7.5,391.9 5.5,393 3.7,394.9 C3.2,395.5 2.6,396.1 2.2,396.9 C1.7,397.7 1.3,398.7 0.9,399.9 C0.8,400.3 0.7,400.6 0.7,400.9 C0.4,402.3 0.4,403.5 0.5,404.5 C0.6,405.2 0.7,405.9 0.9,406.6 C1.1,407.3 1.4,407.9 1.7,408.5 C3.6,412.1 7.5,414.5 11.8,414.5 L60.5,414.5 L60.5,429.4 L74.1,429.4 L80,429.4 L80,414.5 L105.9,414.5 L128.7,414.5 L157.3,414.5 L157.3,429.4 L173.6,429.4 L180.6,429.4 L180.6,414.5 L206.9,414.5 L255.6,414.5 L255.6,429.4 L269.2,429.4 L275.1,429.4 L275.1,414.5 L290.5,414.5 L323.8,414.5 L335.3,414.5 L339.2,414.5 L339.2,429.4 L352.8,429.4 L358.7,429.4 L358.7,414.5 L407.4,414.5 C413.1,414.5 418.1,410.3 418.7,404.6 C417.7,402.2 417.6,400.7 417.1,398.8 Z" id="XMLID_1304_" fill="url(#linearGradient-1)" opacity="0.5"></path>
            <path d="M741.4,179.5 C741.4,187.7 734.7,194.4 726.5,194.4 C725,194.4 723.5,194.1 722.1,193.7 C724.6,195.5 727.6,196.7 730.9,196.7 C739.1,196.7 745.8,190 745.8,181.8 C745.8,175.1 741.4,169.5 735.3,167.6 C739,170.3 741.4,174.6 741.4,179.5 Z" id="XMLID_1320_" fill="#7A2340"></path>
            <path d="M741.4,179.5 C741.4,174.6 739,170.3 735.3,167.6 C733.9,167.2 732.5,166.9 730.9,166.9 C722.7,166.9 716,173.6 716,181.8 C716,186.7 718.4,191 722.1,193.7 C723.5,194.1 724.9,194.4 726.5,194.4 C734.7,194.4 741.4,187.7 741.4,179.5 Z" id="XMLID_1319_" fill="#852844"></path>
            <polygon id="XMLID_1318_" fill="#711E3A" points="774 233.3 807.3 241 774 151.9"></polygon>
            <g id="XMLID_28187_" transform="translate(681.000000, 0.000000)">
                <path d="M220.5,402.7 C230.3,402.7 238.8,395.5 239.8,385.7 C240,383.5 239.9,381 239,377.7 C235.7,366.2 228.9,368.2 225.6,356.7 C222.3,345.2 229.1,343.3 225.8,331.8 C222.5,320.3 215.7,322.3 212.4,310.8 C209.1,299.3 215.9,297.4 212.6,285.9 C209.3,274.4 202.5,276.4 199.2,264.9 C195.9,253.4 202.7,251.5 199.4,240 C196.1,228.5 189.3,230.5 186,219 C182.7,207.5 189.5,205.6 186.2,194.1 C182.9,182.6 176.1,184.6 172.8,173.1 C169.5,161.6 176.3,159.7 173,148.2 C169.7,136.7 162.9,138.7 159.6,127.2 C156.3,115.7 163.1,113.8 159.8,102.3 C156.5,90.8 149.7,92.8 146.4,81.3 C143.1,69.8 149.9,67.9 146.6,56.4 C143.3,44.9 136.5,46.9 133.2,35.4 C129.9,23.9 136.7,22 133.4,10.5 C133.4,10.4 133.3,10.3 133.3,10.2 C129.4,-2.9 110.7,-2.9 106.7,10.2 C106.7,10.3 106.6,10.4 106.6,10.5 C103.3,22 110.1,23.9 106.8,35.4 C103.5,46.9 96.7,44.9 93.4,56.4 C90.1,67.9 96.9,69.8 93.6,81.3 C90.3,92.8 83.5,90.8 80.2,102.3 C76.9,113.8 83.7,115.7 80.4,127.2 C77.1,138.7 70.3,136.7 67,148.2 C63.7,159.7 70.5,161.6 67.2,173.1 C63.9,184.6 57.1,182.6 53.8,194.1 C50.5,205.6 57.3,207.5 54,219 C50.7,230.5 43.9,228.5 40.6,240 C37.3,251.5 44.1,253.4 40.8,264.9 C37.5,276.4 30.7,274.4 27.4,285.9 C24.1,297.4 30.9,299.3 27.6,310.8 C24.3,322.3 17.5,320.3 14.2,331.8 C10.9,343.3 17.7,345.2 14.4,356.7 C11.1,368.2 4.3,366.2 1,377.7 C0.1,381 -0.1,383.5 0.2,385.7 C1.3,395.4 9.8,402.7 19.5,402.7 L220.5,402.7 Z" id="XMLID_28191_" fill="#4E3852"></path>
                <path d="M155.2,383.2 C154.1,370.8 161.4,370.1 160.3,357.7 C159.2,345.3 151.8,345.9 150.6,333.5 C149.5,321.1 156.8,320.4 155.7,308 C154.6,295.6 147.2,296.2 146,283.8 C144.9,271.4 152.2,270.7 151.1,258.3 C150,245.9 142.6,246.6 141.4,234.1 C140.3,221.7 147.6,221 146.5,208.6 C145.4,196.2 138,196.8 136.8,184.4 C135.7,172 143,171.3 141.9,158.9 C140.8,146.5 133.4,147.2 132.2,134.7 C131.1,122.3 138.4,121.6 137.3,109.2 C136.2,96.8 128.8,97.5 127.6,85 C126.5,72.6 133.8,71.9 132.7,59.5 C131.6,47.1 124.2,47.7 123,35.3 C121.9,22.9 129.2,22.2 128.1,9.8 C128.1,9.7 128.1,9.5 128.1,9.4 C127.7,6 126.4,3.2 124.4,1.1 C117.6,-1 109.3,2.1 106.8,10.3 C106.8,10.4 106.7,10.5 106.7,10.6 C103.4,22.1 110.2,24 106.9,35.5 C103.6,47 96.8,45 93.5,56.5 C90.2,68 97,69.9 93.7,81.4 C90.4,92.9 83.6,90.9 80.3,102.4 C77,113.9 83.8,115.8 80.5,127.3 C77.2,138.8 70.4,136.8 67.1,148.3 C63.8,159.8 70.6,161.7 67.3,173.2 C64,184.7 57.2,182.7 53.9,194.2 C50.6,205.7 57.4,207.6 54.1,219.1 C50.8,230.6 44,228.6 40.7,240.1 C37.4,251.6 44.2,253.5 40.9,265 C37.6,276.5 30.8,274.5 27.5,286 C24.2,297.5 31,299.4 27.7,310.9 C24.4,322.4 17.6,320.4 14.3,331.9 C11,343.4 17.8,345.3 14.5,356.8 C11.2,368.3 4.4,366.3 1.1,377.8 C0.2,381.1 -4.57994753e-13,383.6 0.3,385.8 C1.4,395.5 9.9,402.8 19.6,402.8 L164,402.8 C161.7,394.9 156.2,393.8 155.2,383.2 Z" id="XMLID_28190_" fill="#603952"></path>
                <rect id="XMLID_28189_" fill="#8D6E16" x="103.7" y="402.7" width="33.4" height="25.5"></rect>
                <rect id="XMLID_28188_" fill="#7F6000" x="103.7" y="402.7" width="23.4" height="25.5"></rect>
            </g>
            <g id="XMLID_1846_" transform="translate(521.000000, 0.000000)">
                <path d="M220.9,402.7 C230.7,402.7 239.2,395.5 240.2,385.7 C240.4,383.5 240.3,381 239.4,377.7 C236.1,366.2 229.3,368.2 226,356.7 C222.7,345.2 229.5,343.3 226.2,331.8 C222.9,320.3 216.1,322.3 212.8,310.8 C209.5,299.3 216.3,297.4 213,285.9 C209.7,274.4 202.9,276.4 199.6,264.9 C196.3,253.4 203.1,251.5 199.8,240 C196.5,228.5 189.7,230.5 186.4,219 C183.1,207.5 189.9,205.6 186.6,194.1 C183.3,182.6 176.5,184.6 173.2,173.1 C169.9,161.6 176.7,159.7 173.4,148.2 C170.1,136.7 163.3,138.7 160,127.2 C156.7,115.7 163.5,113.8 160.2,102.3 C156.9,90.8 150.1,92.8 146.8,81.3 C143.5,69.8 150.3,67.9 147,56.4 C143.7,44.9 136.9,46.9 133.6,35.4 C130.3,23.9 137.1,22 133.8,10.5 C133.8,10.4 133.7,10.3 133.7,10.2 C129.8,-2.9 111.1,-2.9 107.1,10.2 C107.1,10.3 107,10.4 107,10.5 C103.7,22 110.5,23.9 107.2,35.4 C103.9,46.9 97.1,44.9 93.8,56.4 C90.5,67.9 97.3,69.8 94,81.3 C90.7,92.8 83.9,90.8 80.6,102.3 C77.3,113.8 84.1,115.7 80.8,127.2 C77.5,138.7 70.7,136.7 67.4,148.2 C64.1,159.7 70.9,161.6 67.6,173.1 C64.3,184.6 57.5,182.6 54.2,194.1 C50.9,205.6 57.7,207.5 54.4,219 C51.1,230.5 44.3,228.5 41,240 C37.7,251.5 44.5,253.4 41.2,264.9 C37.9,276.4 31.1,274.4 27.8,285.9 C24.5,297.4 31.3,299.3 28,310.8 C24.7,322.3 17.9,320.3 14.6,331.8 C11.3,343.3 18.1,345.2 14.8,356.7 C11.5,368.2 4.7,366.2 1.4,377.7 C0.5,381 0.3,383.5 0.6,385.7 C1.7,395.4 10.2,402.7 19.9,402.7 L220.9,402.7 Z" id="XMLID_1850_" fill="#4E3852"></path>
                <path d="M155.5,383.2 C154.4,370.8 161.7,370.1 160.6,357.7 C159.5,345.3 152.1,345.9 150.9,333.5 C149.8,321.1 157.1,320.4 156,308 C154.9,295.6 147.5,296.2 146.3,283.8 C145.2,271.4 152.5,270.7 151.4,258.3 C150.3,245.9 142.9,246.6 141.7,234.1 C140.6,221.7 147.9,221 146.8,208.6 C145.7,196.2 138.3,196.8 137.1,184.4 C136,172 143.3,171.3 142.2,158.9 C141.1,146.5 133.7,147.2 132.5,134.7 C131.4,122.3 138.7,121.6 137.6,109.2 C136.5,96.8 129.1,97.5 127.9,85 C126.8,72.6 134.1,71.9 133,59.5 C131.9,47.1 124.5,47.7 123.3,35.3 C122.2,22.9 129.5,22.2 128.4,9.8 C128.4,9.7 128.4,9.5 128.4,9.4 C128,6 126.7,3.2 124.7,1.1 C117.9,-1 109.6,2.1 107.1,10.3 C107.1,10.4 107,10.5 107,10.6 C103.7,22.1 110.5,24 107.2,35.5 C103.9,47 97.1,45 93.8,56.5 C90.5,68 97.3,69.9 94,81.4 C90.7,92.9 83.9,90.9 80.6,102.4 C77.3,113.9 84.1,115.8 80.8,127.3 C77.5,138.8 70.7,136.8 67.4,148.3 C64.1,159.8 70.9,161.7 67.6,173.2 C64.3,184.7 57.5,182.7 54.2,194.2 C50.9,205.7 57.7,207.6 54.4,219.1 C51.1,230.6 44.3,228.6 41,240.1 C37.7,251.6 44.5,253.5 41.2,265 C37.9,276.5 31.1,274.5 27.8,286 C24.5,297.5 31.3,299.4 28,310.9 C24.7,322.4 17.9,320.4 14.6,331.9 C11.3,343.4 18.1,345.3 14.8,356.8 C11.5,368.3 4.7,366.3 1.4,377.8 C0.5,381.1 0.3,383.6 0.6,385.8 C1.7,395.5 10.2,402.8 19.9,402.8 L163.6,402.8 C162,394.9 156.5,393.8 155.5,383.2 Z" id="XMLID_1849_" fill="#603952"></path>
                <rect id="XMLID_1848_" fill="#8D6E16" x="104.1" y="402.7" width="33.4" height="25.5"></rect>
                <rect id="XMLID_1847_" fill="#7F6000" x="104.1" y="402.7" width="23.4" height="25.5"></rect>
            </g>
            <g id="XMLID_1851_" transform="translate(361.000000, 0.000000)">
                <path d="M220.8,402.7 C230.6,402.7 239.1,395.5 240.1,385.7 C240.3,383.5 240.2,381 239.3,377.7 C236,366.2 229.2,368.2 225.9,356.7 C222.6,345.2 229.4,343.3 226.1,331.8 C222.8,320.3 216,322.3 212.7,310.8 C209.4,299.3 216.2,297.4 212.9,285.9 C209.6,274.4 202.8,276.4 199.5,264.9 C196.2,253.4 203,251.5 199.7,240 C196.4,228.5 189.6,230.5 186.3,219 C183,207.5 189.8,205.6 186.5,194.1 C183.2,182.6 176.4,184.6 173.1,173.1 C169.8,161.6 176.6,159.7 173.3,148.2 C170,136.7 163.2,138.7 159.9,127.2 C156.6,115.7 163.4,113.8 160.1,102.3 C156.8,90.8 150,92.8 146.7,81.3 C143.4,69.8 150.2,67.9 146.9,56.4 C143.6,44.9 136.8,46.9 133.5,35.4 C130.2,23.9 137,22 133.7,10.5 C133.7,10.4 133.6,10.3 133.6,10.2 C129.7,-2.9 111,-2.9 107,10.2 C107,10.3 106.9,10.4 106.9,10.5 C103.6,22 110.4,23.9 107.1,35.4 C103.8,46.9 97,44.9 93.7,56.4 C90.4,67.9 97.2,69.8 93.9,81.3 C90.6,92.8 83.8,90.8 80.5,102.3 C77.2,113.8 84,115.7 80.7,127.2 C77.4,138.7 70.6,136.7 67.3,148.2 C64,159.7 70.8,161.6 67.5,173.1 C64.2,184.6 57.4,182.6 54.1,194.1 C50.8,205.6 57.6,207.5 54.3,219 C51,230.5 44.2,228.5 40.9,240 C37.6,251.5 44.4,253.4 41.1,264.9 C37.8,276.4 31,274.4 27.7,285.9 C24.4,297.4 31.2,299.3 27.9,310.8 C24.6,322.3 17.8,320.3 14.5,331.8 C11.2,343.3 18,345.2 14.7,356.7 C11.4,368.2 4.6,366.2 1.3,377.7 C0.4,381 0.2,383.5 0.5,385.7 C1.6,395.4 10.1,402.7 19.8,402.7 L220.8,402.7 Z" id="XMLID_1856_" fill="#4E3852"></path>
                <path d="M155.5,383.2 C154.4,370.8 161.7,370.1 160.6,357.7 C159.5,345.3 152.1,345.9 150.9,333.5 C149.8,321.1 157.1,320.4 156,308 C154.9,295.6 147.5,296.2 146.3,283.8 C145.2,271.4 152.5,270.7 151.4,258.3 C150.3,245.9 142.9,246.6 141.7,234.1 C140.6,221.7 147.9,221 146.8,208.6 C145.7,196.2 138.3,196.8 137.1,184.4 C136,172 143.3,171.3 142.2,158.9 C141.1,146.5 133.7,147.2 132.5,134.7 C131.4,122.3 138.7,121.6 137.6,109.2 C136.5,96.8 129.1,97.5 127.9,85 C126.8,72.6 134.1,71.9 133,59.5 C131.9,47.1 124.5,47.7 123.3,35.3 C122.2,22.9 129.5,22.2 128.4,9.8 C128.4,9.7 128.4,9.5 128.4,9.4 C128,6 126.7,3.2 124.7,1.1 C117.9,-1 109.6,2.1 107.1,10.3 C107.1,10.4 107,10.5 107,10.6 C103.7,22.1 110.5,24 107.2,35.5 C103.9,47 97.1,45 93.8,56.5 C90.5,68 97.3,69.9 94,81.4 C90.7,92.9 83.9,90.9 80.6,102.4 C77.3,113.9 84.1,115.8 80.8,127.3 C77.5,138.8 70.7,136.8 67.4,148.3 C64.1,159.8 70.9,161.7 67.6,173.2 C64.3,184.7 57.5,182.7 54.2,194.2 C50.9,205.7 57.7,207.6 54.4,219.1 C51.1,230.6 44.3,228.6 41,240.1 C37.7,251.6 44.5,253.5 41.2,265 C37.9,276.5 31.1,274.5 27.8,286 C24.5,297.5 31.3,299.4 28,310.9 C24.7,322.4 17.9,320.4 14.6,331.9 C11.3,343.4 18.1,345.3 14.8,356.8 C11.5,368.3 4.7,366.3 1.4,377.8 C0.5,381.1 0.3,383.6 0.6,385.8 C1.7,395.5 10.2,402.8 19.9,402.8 L163.6,402.8 C162,394.9 156.5,393.8 155.5,383.2 Z" id="XMLID_1855_" fill="#603952"></path>
                <rect id="XMLID_1854_" fill="#8D6E16" x="104" y="402.7" width="33.4" height="25.5"></rect>
                <rect id="XMLID_1852_" fill="#7F6000" x="104" y="402.7" width="23.4" height="25.5"></rect>
            </g>
            <path d="M530.7,4.9 L159.3,4.9 C145.8,4.9 134.9,15.8 134.9,29.3 C134.9,42.8 145.8,53.7 159.3,53.7 L312.7,53.7 C326.2,53.7 337.1,64.6 337.1,78.1 C337.1,91.6 326.2,102.5 312.7,102.5 L123.2,102.5 C109.7,102.5 98.8,113.4 98.8,126.9 C98.8,140.4 109.7,151.3 123.2,151.3 L193.9,151.3 C207.4,151.3 218.3,162.2 218.3,175.7 C218.3,189.2 207.4,200.1 193.9,200.1 L187.1,200.1 C173.6,200.1 162.7,211 162.7,224.5 C162.7,238 173.6,248.9 187.1,248.9 L264.8,248.9 C278.3,248.9 289.2,238 289.2,224.5 C289.2,211 278.3,200.1 264.8,200.1 L268.4,200.1 C254.9,200.1 244,189.2 244,175.7 C244,162.2 254.9,151.3 268.4,151.3 L438.1,151.3 C451.6,151.3 462.5,140.4 462.5,126.9 C462.5,113.4 451.6,102.5 438.1,102.5 L429.5,102.5 C416,102.5 405.1,91.6 405.1,78.1 C405.1,64.6 416,53.7 429.5,53.7 L530.7,53.7 C544.2,53.7 555.1,42.8 555.1,29.3 C555.2,15.8 544.2,4.9 530.7,4.9 Z" id="XMLID_1533_" fill="#375E70" opacity="0.4"></path>
            <polygon id="XMLID_28825_" fill="#9C4635" points="628.7 127 580.6 47.4 570.1 53.7 614.4 127"></polygon>
            <polygon id="XMLID_28822_" fill="url(#linearGradient-2)" points="634.2 127 555.9 127 372.6 428.2 817.4 428.2"></polygon>
            <polygon id="XMLID_28824_" fill="#B85141" points="575.7 127 620 53.7 609.5 47.4 561.4 127"></polygon>
            <polygon id="XMLID_28602_" fill="#443049" points="491.5 428.2 595 258 698.6 428.2"></polygon>
            <polygon id="XMLID_1668_" fill="#4E3852" points="544.8 428.2 698.6 428.2 621.7 301.8"></polygon>
            <polygon id="XMLID_28601_" fill="#972F4B" points="491.5 428.2 491.5 258 595 258"></polygon>
            <polygon id="XMLID_28823_" fill="#853628" points="602.2 83.2 595 95 599.4 102.2"></polygon>
            <g id="XMLID_1722_" transform="translate(208.000000, 391.000000)">
                <path d="M18.7,0.8 C8.6,0.8 0.5,9 0.5,19 C0.5,29.1 8.7,37.2 18.7,37.2 L60.2,37.2 L60.2,0.7 L18.7,0.7 L18.7,0.8 Z" id="XMLID_1728_" fill="#6D1513"></path>
                <path d="M2,11.7 C1,14 0.4,16.5 0.4,19.1 C0.4,29.2 8.6,37.3 18.6,37.3 L60.1,37.3 L60.1,11.7 L2,11.7 Z" id="XMLID_1729_" fill="#451512"></path>
                <circle id="XMLID_1317_" fill="#A03524" cx="60.2" cy="19" r="18.2"></circle>
                <path d="M60.2,6.6 C53.3,6.6 47.8,12.2 47.8,19 C47.8,25.9 53.4,31.4 60.2,31.4 C67.1,31.4 72.6,25.8 72.6,19 C72.6,12.2 67,6.6 60.2,6.6 Z M60.2,29 C54.7,29 50.2,24.5 50.2,19 C50.2,13.5 54.7,9 60.2,9 C65.7,9 70.2,13.5 70.2,19 C70.1,24.6 65.7,29 60.2,29 Z" id="XMLID_1732_" fill="#8F2E23"></path>
            </g>
            <g id="XMLID_1733_" transform="translate(166.000000, 391.000000)">
                <path d="M18.7,0.8 C8.6,0.8 0.5,9 0.5,19 C0.5,29.1 8.7,37.2 18.7,37.2 L60.2,37.2 L60.2,0.7 L18.7,0.7 L18.7,0.8 Z" id="XMLID_1844_" fill="#6D1513"></path>
                <path d="M2,11.7 C1,14 0.4,16.5 0.4,19.1 C0.4,29.2 8.6,37.3 18.6,37.3 L60.1,37.3 L60.1,11.7 L2,11.7 Z" id="XMLID_1843_" fill="#451512"></path>
                <circle id="XMLID_1842_" fill="#A03524" cx="60.1" cy="19" r="18.2"></circle>
                <path d="M60.1,6.6 C53.2,6.6 47.7,12.2 47.7,19 C47.7,25.9 53.3,31.4 60.1,31.4 C67,31.4 72.5,25.8 72.5,19 C72.5,12.2 67,6.6 60.1,6.6 Z M60.1,29 C54.6,29 50.1,24.5 50.1,19 C50.1,13.5 54.6,9 60.1,9 C65.6,9 70.1,13.5 70.1,19 C70.1,24.6 65.6,29 60.1,29 Z" id="XMLID_1734_" fill="#8F2E23"></path>
            </g>
            <path d="M255.4,342.5 C249.5,332.3 247.1,321.4 252.8,317.1 C258.5,312.8 262.1,311.4 262.1,311.4 C262.1,311.4 243.3,312.8 236.2,326.1 C229.1,339.4 235,345.8 235,345.8 C235,345.8 227.3,338.5 232.1,327.7 C237,316.9 244.8,300.8 238.7,289.2 C232.7,277.6 211.6,269.1 211.6,269.1 C211.6,269.1 234.9,281.9 210.2,315.6 C202.4,324.8 196.9,333.3 193.2,341.1 C182.8,363.1 199,388.5 223.4,388.5 L226,388.5 C226.7,386.7 227.3,385.2 226.2,382.5 C225.2,382.5 224.2,382.5 223.2,382.4 C224.2,382.5 225.2,382.5 226.2,382.5 C225.4,380.6 223.7,378.1 220.6,374.5 C214.4,366 222.4,352.9 223.2,347.5 C223.5,345.7 223.1,344.1 222.4,342.8 C222,342 221.8,341.2 221.7,340.4 C221.7,340.4 221.7,340.4 221.7,340.4 C222.3,340.9 223,341.4 223.7,342 C226,344.1 227.2,346.8 225.7,353.8 C225.5,354.6 225.3,355.4 225.1,356.3 C222.7,365.8 223,367.1 229.8,376.3 C230.3,377 230.8,377.7 231.2,378.4 C231.9,379.5 232.4,380.6 232.8,381.5 C233.9,384.3 233.8,386.6 233.3,388.4 C254.8,388.4 268.3,365.2 257.7,346.4 C257,345.2 256.1,343.8 255.4,342.5 Z M208.2,378.2 C208.3,378.2 208.3,378.3 208.4,378.3 C208.4,378.2 208.3,378.2 208.2,378.2 Z" id="XMLID_1738_" fill="#FBB44A"></path>
        </g>
    </g>
</svg>