<?xml version="1.0" encoding="UTF-8"?>
<svg width="509px" height="509px" viewBox="0 0 509 509" version="1.1" xmlns="http://www.w3.org/2000/svg" xmlns:xlink="http://www.w3.org/1999/xlink">
    <!-- Generator: Sketch 52.5 (67469) - http://www.bohemiancoding.com/sketch -->
    <title>lightarian-end</title>
    <desc>Created with Sketch.</desc>
    <defs>
        <linearGradient x1="35.5364655%" y1="96.6308265%" x2="64.4665086%" y2="3.37457185%" id="linearGradient-1">
            <stop stop-color="#4F3E90" offset="0%"></stop>
            <stop stop-color="#171A31" offset="100%"></stop>
        </linearGradient>
        <linearGradient x1="42.7746552%" y1="96.5819806%" x2="57.2283621%" y2="3.39843634%" id="linearGradient-2">
            <stop stop-color="#4F3E90" offset="0%"></stop>
            <stop stop-color="#171A31" offset="100%"></stop>
        </linearGradient>
        <linearGradient x1="31.5589965%" y1="10.5372705%" x2="68.4406574%" y2="89.5031266%" id="linearGradient-3">
            <stop stop-color="#4F3E90" offset="0%"></stop>
            <stop stop-color="#171A31" offset="100%"></stop>
        </linearGradient>
        <linearGradient x1="43.44922%" y1="49.85232%" x2="70.78112%" y2="49.85232%" id="linearGradient-4">
            <stop stop-color="#7F00FF" stop-opacity="0.4" offset="1.916698e-05%"></stop>
            <stop stop-color="#3D00FF" stop-opacity="0.6" offset="100%"></stop>
        </linearGradient>
        <linearGradient x1="0.0337234821%" y1="50.014665%" x2="100.004097%" y2="50.014665%" id="linearGradient-5">
            <stop stop-color="#7F00FF" stop-opacity="0.4" offset="1.916698e-05%"></stop>
            <stop stop-color="#3D00FF" stop-opacity="0.6" offset="100%"></stop>
        </linearGradient>
        <linearGradient x1="42.7705925%" y1="3.31515152%" x2="57.2652524%" y2="96.6829545%" id="linearGradient-6">
            <stop stop-color="#7F00FF" stop-opacity="0.4" offset="1.916698e-05%"></stop>
            <stop stop-color="#3D00FF" stop-opacity="0.6" offset="100%"></stop>
        </linearGradient>
        <linearGradient x1="42.7705925%" y1="3.32272727%" x2="57.2652524%" y2="96.6905303%" id="linearGradient-7">
            <stop stop-color="#7F00FF" stop-opacity="0.4" offset="1.916698e-05%"></stop>
            <stop stop-color="#3D00FF" stop-opacity="0.6" offset="100%"></stop>
        </linearGradient>
        <linearGradient x1="42.7705925%" y1="3.33042929%" x2="57.2652524%" y2="96.6982323%" id="linearGradient-8">
            <stop stop-color="#7F00FF" stop-opacity="0.4" offset="1.916698e-05%"></stop>
            <stop stop-color="#3D00FF" stop-opacity="0.6" offset="100%"></stop>
        </linearGradient>
        <linearGradient x1="42.7705925%" y1="3.33813131%" x2="57.2652524%" y2="96.7058081%" id="linearGradient-9">
            <stop stop-color="#7F00FF" stop-opacity="0.4" offset="1.916698e-05%"></stop>
            <stop stop-color="#3D00FF" stop-opacity="0.6" offset="100%"></stop>
        </linearGradient>
        <linearGradient x1="42.7705925%" y1="3.22225032%" x2="57.2652524%" y2="96.708091%" id="linearGradient-10">
            <stop stop-color="#7F00FF" stop-opacity="0.4" offset="1.916698e-05%"></stop>
            <stop stop-color="#3D00FF" stop-opacity="0.6" offset="100%"></stop>
        </linearGradient>
        <linearGradient x1="42.7705925%" y1="3.22996207%" x2="57.2652524%" y2="96.7156764%" id="linearGradient-11">
            <stop stop-color="#7F00FF" stop-opacity="0.4" offset="1.916698e-05%"></stop>
            <stop stop-color="#3D00FF" stop-opacity="0.6" offset="100%"></stop>
        </linearGradient>
        <linearGradient x1="42.7705925%" y1="3.23754741%" x2="57.2652524%" y2="96.7233881%" id="linearGradient-12">
            <stop stop-color="#7F00FF" stop-opacity="0.4" offset="1.916698e-05%"></stop>
            <stop stop-color="#3D00FF" stop-opacity="0.6" offset="100%"></stop>
        </linearGradient>
        <linearGradient x1="42.7705925%" y1="3.24525917%" x2="57.2652524%" y2="96.7310999%" id="linearGradient-13">
            <stop stop-color="#7F00FF" stop-opacity="0.4" offset="1.916698e-05%"></stop>
            <stop stop-color="#3D00FF" stop-opacity="0.6" offset="100%"></stop>
        </linearGradient>
        <linearGradient x1="2.3125%" y1="52.36875%" x2="98.25625%" y2="52.36875%" id="linearGradient-14">
            <stop stop-color="#3F00FC" offset="2.945171e-05%"></stop>
            <stop stop-color="#3F02F7" offset="20.77%"></stop>
            <stop stop-color="#3E09E7" offset="46.72%"></stop>
            <stop stop-color="#3E14CE" offset="75.31%"></stop>
            <stop stop-color="#3D20B2" offset="100%"></stop>
        </linearGradient>
        <linearGradient x1="69.9905303%" y1="-5.2249053%" x2="20.295928%" y2="100%" id="linearGradient-15">
            <stop stop-color="#3023AE" offset="0%"></stop>
            <stop stop-color="#53A0FD" offset="47.5247532%"></stop>
            <stop stop-color="#B4EC51" offset="100%"></stop>
        </linearGradient>
        <linearGradient x1="65.016572%" y1="111.467803%" x2="15.1870265%" y2="-4.83664773%" id="linearGradient-16">
            <stop stop-color="#3023AE" offset="0%"></stop>
            <stop stop-color="#53A0FD" offset="47.5247532%"></stop>
            <stop stop-color="#B4EC51" offset="100%"></stop>
        </linearGradient>
        <linearGradient x1="50%" y1="0%" x2="50%" y2="100%" id="linearGradient-17">
            <stop stop-color="#B4EC51" offset="0%"></stop>
            <stop stop-color="#429321" offset="100%"></stop>
        </linearGradient>
        <linearGradient x1="50%" y1="0%" x2="50%" y2="100%" id="linearGradient-18">
            <stop stop-color="#FAD961" offset="0%"></stop>
            <stop stop-color="#F76B1C" offset="100%"></stop>
        </linearGradient>
        <linearGradient x1="50%" y1="0%" x2="50%" y2="100%" id="linearGradient-19">
            <stop stop-color="#F5515F" offset="0%"></stop>
            <stop stop-color="#9F041B" offset="100%"></stop>
        </linearGradient>
        <linearGradient x1="1.41666667%" y1="50.2222222%" x2="100.677778%" y2="50.2222222%" id="linearGradient-20">
            <stop stop-color="#3F00FC" offset="2.945171e-05%"></stop>
            <stop stop-color="#3F02F7" offset="20.77%"></stop>
            <stop stop-color="#3E09E7" offset="46.72%"></stop>
            <stop stop-color="#3E14CE" offset="75.31%"></stop>
            <stop stop-color="#3D20B2" offset="100%"></stop>
        </linearGradient>
        <linearGradient x1="3.37%" y1="49.68%" x2="100.05%" y2="49.68%" id="linearGradient-21">
            <stop stop-color="#3F00FC" offset="2.945171e-05%"></stop>
            <stop stop-color="#3F02F7" offset="20.77%"></stop>
            <stop stop-color="#3E09E7" offset="46.72%"></stop>
            <stop stop-color="#3E14CE" offset="75.31%"></stop>
            <stop stop-color="#3D20B2" offset="100%"></stop>
        </linearGradient>
        <linearGradient x1="-0.0167259274%" y1="50.0114824%" x2="99.9923934%" y2="50.0114824%" id="linearGradient-22">
            <stop stop-color="#4F3E90" offset="0%"></stop>
            <stop stop-color="#171A31" offset="100%"></stop>
        </linearGradient>
        <linearGradient x1="-0.0290331051%" y1="50.301619%" x2="99.9494514%" y2="50.301619%" id="linearGradient-23">
            <stop stop-color="#463780" offset="0%"></stop>
            <stop stop-color="#382E68" offset="14.33%"></stop>
            <stop stop-color="#292550" offset="33.08%"></stop>
            <stop stop-color="#1F1F3F" offset="52.89%"></stop>
            <stop stop-color="#191B34" offset="74.26%"></stop>
            <stop stop-color="#171A31" offset="100%"></stop>
        </linearGradient>
        <linearGradient x1="-0.0167259274%" y1="49.9868468%" x2="99.9923934%" y2="49.9868468%" id="linearGradient-24">
            <stop stop-color="#4F3E90" offset="0%"></stop>
            <stop stop-color="#171A31" offset="100%"></stop>
        </linearGradient>
        <linearGradient x1="-0.0290331051%" y1="50.2629649%" x2="99.9494514%" y2="50.2629649%" id="linearGradient-25">
            <stop stop-color="#463780" offset="0%"></stop>
            <stop stop-color="#382E68" offset="14.33%"></stop>
            <stop stop-color="#292550" offset="33.08%"></stop>
            <stop stop-color="#1F1F3F" offset="52.89%"></stop>
            <stop stop-color="#191B34" offset="74.26%"></stop>
            <stop stop-color="#171A31" offset="100%"></stop>
        </linearGradient>
        <linearGradient x1="-0.0167259274%" y1="50.1220228%" x2="99.9923934%" y2="50.1220228%" id="linearGradient-26">
            <stop stop-color="#4F3E90" offset="0%"></stop>
            <stop stop-color="#171A31" offset="100%"></stop>
        </linearGradient>
        <linearGradient x1="-0.0290331051%" y1="50.2245603%" x2="99.9494514%" y2="50.2245603%" id="linearGradient-27">
            <stop stop-color="#463780" offset="0%"></stop>
            <stop stop-color="#382E68" offset="14.33%"></stop>
            <stop stop-color="#292550" offset="33.08%"></stop>
            <stop stop-color="#1F1F3F" offset="52.89%"></stop>
            <stop stop-color="#191B34" offset="74.26%"></stop>
            <stop stop-color="#171A31" offset="100%"></stop>
        </linearGradient>
        <linearGradient x1="42.9024038%" y1="95.2468453%" x2="57.0070296%" y2="4.35505727%" id="linearGradient-28">
            <stop stop-color="#4F3E90" stop-opacity="0.6" offset="0%"></stop>
            <stop stop-color="#171ABF" stop-opacity="0.4" offset="100%"></stop>
        </linearGradient>
        <linearGradient x1="-0.0167259274%" y1="50.0972272%" x2="99.9923934%" y2="50.0972272%" id="linearGradient-29">
            <stop stop-color="#4F3E90" offset="0%"></stop>
            <stop stop-color="#171A31" offset="100%"></stop>
        </linearGradient>
        <linearGradient x1="-0.0290331051%" y1="50.1859062%" x2="99.9494514%" y2="50.1859062%" id="linearGradient-30">
            <stop stop-color="#463780" offset="0%"></stop>
            <stop stop-color="#382E68" offset="14.33%"></stop>
            <stop stop-color="#292550" offset="33.08%"></stop>
            <stop stop-color="#1F1F3F" offset="52.89%"></stop>
            <stop stop-color="#191B34" offset="74.26%"></stop>
            <stop stop-color="#171A31" offset="100%"></stop>
        </linearGradient>
        <linearGradient x1="-0.0104964539%" y1="50.0996377%" x2="99.9548936%" y2="50.0996377%" id="linearGradient-31">
            <stop stop-color="#463780" offset="0%"></stop>
            <stop stop-color="#382E68" offset="14.33%"></stop>
            <stop stop-color="#292550" offset="33.08%"></stop>
            <stop stop-color="#1F1F3F" offset="52.89%"></stop>
            <stop stop-color="#191B34" offset="74.26%"></stop>
            <stop stop-color="#171A31" offset="100%"></stop>
        </linearGradient>
        <linearGradient x1="-0.0217647059%" y1="50.1459184%" x2="99.8314706%" y2="50.1459184%" id="linearGradient-32">
            <stop stop-color="#7F00FF" offset="1.916698e-05%"></stop>
            <stop stop-color="#7D00FF" offset="48.89%"></stop>
            <stop stop-color="#7600FF" offset="66.5%"></stop>
            <stop stop-color="#6B00FF" offset="79.05%"></stop>
            <stop stop-color="#5A00FF" offset="89.2%"></stop>
            <stop stop-color="#4400FF" offset="97.79%"></stop>
            <stop stop-color="#3D00FF" offset="100%"></stop>
        </linearGradient>
        <linearGradient x1="0.139910314%" y1="49.9984496%" x2="99.9901345%" y2="49.9984496%" id="linearGradient-33">
            <stop stop-color="#3F00FC" offset="2.945171e-05%"></stop>
            <stop stop-color="#3F02F7" offset="20.77%"></stop>
            <stop stop-color="#3E09E7" offset="46.72%"></stop>
            <stop stop-color="#3E14CE" offset="75.31%"></stop>
            <stop stop-color="#3D20B2" offset="100%"></stop>
        </linearGradient>
        <linearGradient x1="42.2833698%" y1="-23.4381166%" x2="59.6389497%" y2="109.301345%" id="linearGradient-34">
            <stop stop-color="#851CB7" offset="2.945171e-05%"></stop>
            <stop stop-color="#3D20B7" offset="100%"></stop>
        </linearGradient>
        <linearGradient x1="-0.226451613%" y1="50.1028846%" x2="99.7825806%" y2="50.1028846%" id="linearGradient-35">
            <stop stop-color="#3F00FC" offset="2.945171e-05%"></stop>
            <stop stop-color="#3F02F7" offset="20.77%"></stop>
            <stop stop-color="#3E09E7" offset="46.72%"></stop>
            <stop stop-color="#3E14CE" offset="75.31%"></stop>
            <stop stop-color="#3D20B2" offset="100%"></stop>
        </linearGradient>
        <linearGradient x1="0.123974763%" y1="49.9129944%" x2="100.109464%" y2="49.9129944%" id="linearGradient-36">
            <stop stop-color="#7F00FF" offset="1.916698e-05%"></stop>
            <stop stop-color="#7A00FF" offset="22.24%"></stop>
            <stop stop-color="#6A00FF" offset="50.03%"></stop>
            <stop stop-color="#5100FF" offset="80.64%"></stop>
            <stop stop-color="#3D00FF" offset="100%"></stop>
        </linearGradient>
        <linearGradient x1="43.6886792%" y1="19.3158537%" x2="56.2537736%" y2="79.9329268%" id="linearGradient-37">
            <stop stop-color="#3F00FC" offset="2.945171e-05%"></stop>
            <stop stop-color="#3D01F7" offset="12%"></stop>
            <stop stop-color="#3804E7" offset="27%"></stop>
            <stop stop-color="#2F08CE" offset="43.6%"></stop>
            <stop stop-color="#230EAA" offset="61.36%"></stop>
            <stop stop-color="#14167C" offset="80.05%"></stop>
            <stop stop-color="#012045" offset="99.23%"></stop>
            <stop stop-color="#002043" offset="100%"></stop>
        </linearGradient>
        <linearGradient x1="44.5982759%" y1="21.0282258%" x2="55.6488506%" y2="78.8975806%" id="linearGradient-38">
            <stop stop-color="#3F00FC" offset="2.945171e-05%"></stop>
            <stop stop-color="#3D01F7" offset="12%"></stop>
            <stop stop-color="#3804E7" offset="27%"></stop>
            <stop stop-color="#2F08CE" offset="43.6%"></stop>
            <stop stop-color="#230EAA" offset="61.36%"></stop>
            <stop stop-color="#14167C" offset="80.05%"></stop>
            <stop stop-color="#012045" offset="99.23%"></stop>
            <stop stop-color="#002043" offset="100%"></stop>
        </linearGradient>
    </defs>
    <g id="lightarian-end" stroke="none" stroke-width="1" fill="none" fill-rule="evenodd">
        <g transform="translate(113.492734, 0.000000)">
            <path d="M2.6,424.5 C2.6,424.5 -2.4,426.9 3.4,433.3 C9.1,439.6 130.1,506.2 130.1,506.2 C130.1,506.2 140.1,511.4 147.5,506.2 L257.7,441.6 C257.7,441.6 260.5,437.4 254.6,434.5 L128.1,361.2 C128.1,361.2 121.7,356.2 113.2,361.2 C104.7,366.2 2.6,424.5 2.6,424.5 Z" id="Path" fill="#1E1A21" opacity="0.2"></path>
            <polygon id="XMLID_20_" fill="url(#linearGradient-1)" points="24 420.1 24 285.8 139.6 218.6 256 285.7 256 420.1 140.4 487.2"></polygon>
            <polygon id="XMLID_49_" fill="url(#linearGradient-2)" points="139.6 218.6 256 285.7 140.4 352.9 24 285.8"></polygon>
            <polygon id="XMLID_50_" fill="url(#linearGradient-3)" points="140.4 487.2 140.4 352.9 256 285.7 256 420.1"></polygon>
            <g id="XMLID_97_" transform="translate(70.000000, 240.000000)">
                <g id="XMLID_98_-link" fill="url(#linearGradient-5)">
                    <polygon id="XMLID_98_" points="68.4 0.7 136.9 40.3 68.8 79.8 0.2 40.3"></polygon>
                </g>
                <polygon id="XMLID_109_" fill="url(#linearGradient-6)" points="68.4 13.1 136.9 52.7 68.8 92.3 0.2 52.7"></polygon>
                <polygon id="XMLID_108_" fill="url(#linearGradient-7)" points="68.4 25.3 136.9 64.9 68.8 104.5 0.2 64.9"></polygon>
                <polygon id="XMLID_107_" fill="url(#linearGradient-8)" points="68.4 37.5 136.9 77.1 68.8 116.7 0.2 77.1"></polygon>
                <polygon id="XMLID_105_" fill="url(#linearGradient-9)" points="68.4 49.7 136.9 89.3 68.8 128.9 0.2 89.3"></polygon>
                <polygon id="XMLID_104_" fill="url(#linearGradient-10)" points="68.4 62 136.9 101.5 68.8 141.1 0.2 101.5"></polygon>
                <polygon id="XMLID_103_" fill="url(#linearGradient-11)" points="68.4 74.2 136.9 113.7 68.8 153.3 0.2 113.7"></polygon>
                <polygon id="XMLID_101_" fill="url(#linearGradient-12)" points="68.4 86.4 136.9 125.9 68.8 165.5 0.2 125.9"></polygon>
                <polygon id="XMLID_100_" fill="url(#linearGradient-13)" points="68.4 98.6 136.9 138.1 68.8 177.7 0.2 138.2"></polygon>
            </g>
            <polyline id="XMLID_56_" stroke="#FBCF00" stroke-width="2" opacity="0.5" points="215.1 309.5 215.1 392 191.1 407.9 191.1 457.8"></polyline>
            <circle id="XMLID_304_" fill="url(#linearGradient-14)" cx="150.8" cy="297.8" r="1"></circle>
            <circle id="XMLID_302_" fill="#F3E10B" cx="105.3" cy="194" r="1"></circle>
            <circle id="XMLID_37_" fill="url(#linearGradient-15)" cx="200.2" cy="123.5" r="1.8"></circle>
            <circle id="XMLID_43_" fill="url(#linearGradient-16)" cx="218.9" cy="43.5" r="1"></circle>
            <circle id="XMLID_143_" fill="url(#linearGradient-17)" cx="91.3" cy="119" r="1.8"></circle>
            <circle id="XMLID_142_" fill="url(#linearGradient-18)" cx="212.1" cy="202.9" r="1"></circle>
            <circle id="XMLID_140_" fill="url(#linearGradient-19)" cx="138.6" cy="136.6" r="1"></circle>
            <circle id="XMLID_73_" fill="url(#linearGradient-20)" cx="144.9" cy="257.2" r="1.8"></circle>
            <circle id="XMLID_72_" fill="url(#linearGradient-17)" cx="129" cy="177.8" r="1"></circle>
            <circle id="XMLID_71_" fill="url(#linearGradient-21)" cx="121.2" cy="286.4" r="1"></circle>
            <circle id="XMLID_70_" fill="#F3E10B" cx="169.8" cy="234.9" r="1"></circle>
            <circle id="XMLID_369_" fill="url(#linearGradient-17)" cx="105.3" cy="25.9" r="1.8"></circle>
            <circle id="XMLID_359_" fill="url(#linearGradient-15)" cx="143.2" cy="84.5" r="1.8"></circle>
            <circle id="XMLID_358_" fill="url(#linearGradient-18)" cx="156.8" cy="65.1" r="1"></circle>
            <g id="Group" transform="translate(0.000000, 375.000000)">
                <path d="M1.5,86.1 C1.5,86.1 -0.6,87.1 1.8,89.8 C4.2,92.4 54.7,120.2 54.7,120.2 C54.7,120.2 58.9,122.4 61.9,120.2 L107.9,93.2 C107.9,93.2 109.1,91.4 106.6,90.2 L53.8,59.6 C53.8,59.6 51.1,57.5 47.6,59.6 C44,61.7 1.5,86.1 1.5,86.1 Z" id="Path" fill="#1E1A21" opacity="0.2"></path>
                <path d="M1.5,72.4 C1.5,72.4 -0.6,73.4 1.8,76.1 C4.2,78.7 54.7,106.5 54.7,106.5 C54.7,106.5 58.9,108.7 61.9,106.5 L107.9,79.5 C107.9,79.5 109.1,77.7 106.6,76.5 L53.8,45.9 C53.8,45.9 51.1,43.8 47.6,45.9 C44,48 1.5,72.4 1.5,72.4 Z" id="Path" fill="url(#linearGradient-22)"></path>
                <path d="M0.7,79.9 L0.699173554,73.6 C0.699173554,73.6 0.6,75.3 2.6,76.5 C4.5,77.8 17.3,85.3 17.3,85.3 L36.4,96.1 L54.6,106.2 C54.6,106.2 58.6,108.4 61.9,106.5 C65.1,104.6 108.1,79.4 108.1,79.4 C108.1,79.4 108.5,78.9 108.4,77.9 L108.4,84.7 C108.4,85.3 108.1,85.8 107.6,86.1 L62.5,112.4 C62.5,112.4 57.9,115.8 53.4,111.6 L1.6,81.3 C1,81.2 0.7,80.6 0.7,79.9 Z" id="Path" fill="url(#linearGradient-23)"></path>
                <path d="M1.5,57.5 C1.5,57.5 -0.6,58.5 1.8,61.2 C4.2,63.8 54.7,91.6 54.7,91.6 C54.7,91.6 58.9,93.8 61.9,91.6 L107.9,64.6 C107.9,64.6 109.1,62.8 106.6,61.6 L53.8,31 C53.8,31 51.1,28.9 47.6,31 C44,33.1 1.5,57.5 1.5,57.5 Z" id="Path" fill="url(#linearGradient-24)"></path>
                <path d="M0.7,65 L0.699173554,58.7 C0.699173554,58.7 0.6,60.4 2.6,61.6 C4.5,62.9 17.3,70.4 17.3,70.4 L36.4,81.2 L54.6,91.3 C54.6,91.3 58.6,93.5 61.9,91.6 C65.1,89.7 108.1,64.5 108.1,64.5 C108.1,64.5 108.5,64 108.4,63 L108.4,69.8 C108.4,70.4 108.1,70.9 107.6,71.2 L62.5,97.5 C62.5,97.5 57.9,100.9 53.4,96.7 L1.6,66.4 C1,66.2 0.7,65.7 0.7,65 Z" id="Path" fill="url(#linearGradient-25)"></path>
                <path d="M1.5,42.5 C1.5,42.5 -0.6,43.5 1.8,46.2 C4.2,48.8 54.7,76.6 54.7,76.6 C54.7,76.6 58.9,78.8 61.9,76.6 L107.9,49.6 C107.9,49.6 109.1,47.8 106.6,46.6 L53.8,16 C53.8,16 51.1,13.9 47.6,16 C44,18.2 1.5,42.5 1.5,42.5 Z" id="Path" fill="url(#linearGradient-26)"></path>
                <path d="M0.7,50.1 L0.699173554,43.8 C0.699173554,43.8 0.6,45.5 2.6,46.7 C4.5,48 17.3,55.5 17.3,55.5 L36.4,66.3 L54.6,76.4 C54.6,76.4 58.6,78.6 61.9,76.7 C65.2,74.8 108.1,49.6 108.1,49.6 C108.1,49.6 108.5,49.1 108.4,48.1 L108.4,54.9 C108.4,55.5 108.1,56 107.6,56.3 L62.5,82.6 C62.5,82.6 57.9,86 53.4,81.8 L1.6,51.5 C1,51.3 0.7,50.7 0.7,50.1 Z" id="Path" fill="url(#linearGradient-27)"></path>
                <path d="M7.2,42.9 C7.2,42.9 5.3,43.9 7.5,46.3 C9.7,48.7 56.1,74.2 56.1,74.2 C56.1,74.2 59.9,76.2 62.8,74.2 L105,49.5 C105,49.5 106.1,47.9 103.8,46.7 L55.3,18.7 C55.3,18.7 52.8,16.8 49.6,18.7 C46.3,20.5 7.2,42.9 7.2,42.9 Z" id="Path" fill="url(#linearGradient-28)" opacity="0.25"></path>
                <g id="Path">
                    <path d="M1.5,27.6 C1.5,27.6 -0.6,28.6 1.8,31.3 C4.2,33.9 54.7,61.7 54.7,61.7 C54.7,61.7 58.9,63.9 61.9,61.7 L107.9,34.7 C107.9,34.7 109.1,32.9 106.6,31.7 L53.8,1.1 C53.8,1.1 51.1,-1 47.6,1.1 C44,3.3 1.5,27.6 1.5,27.6 Z" fill="url(#linearGradient-29)"></path>
                    <path d="M0.7,35.2 L0.699173554,28.9 C0.699173554,28.9 0.6,30.6 2.6,31.8 C4.5,33.1 17.3,40.6 17.3,40.6 L36.4,51.4 L54.6,61.5 C54.6,61.5 58.6,63.7 61.9,61.8 C65.1,59.9 108.1,34.7 108.1,34.7 C108.1,34.7 108.5,34.2 108.4,33.2 L108.4,40 C108.4,40.6 108.1,41.1 107.6,41.4 L62.5,67.7 C62.5,67.7 57.9,71.1 53.4,66.9 L1.6,36.6 C1,36.4 0.7,35.8 0.7,35.2 Z" fill="url(#linearGradient-30)"></path>
                </g>
                <polygon id="Path" fill="url(#linearGradient-31)" opacity="0.6" points="24.7 27.8 60.9 49.6 95.2 31.3 91.8 31 56.2 22"></polygon>
                <g transform="translate(24.000000, 8.000000)" id="Path">
                    <polygon fill="url(#linearGradient-32)" points="0.7 17.7 11.2 11.5 34.7 25 24.1 31.1"></polygon>
                    <polygon fill="url(#linearGradient-33)" points="46.4 31.8 34.6 25 24.1 31.2 35.8 37.9"></polygon>
                    <polygon fill="url(#linearGradient-34)" points="0.7 17.7 0.7 19.5 35.8 40 46.4 33.8 46.4 31.8 35.9 37.9"></polygon>
                    <polygon fill="url(#linearGradient-35)" points="16.1 12.1 17.6 7.9 30.6 0.2 31.6 21"></polygon>
                    <polygon fill="url(#linearGradient-36)" points="34 22.4 34.1 13 65.7 20.5 48.3 30.7"></polygon>
                    <polygon fill="#3D20B7" points="34 22.4 48.3 30.7 65.7 20.5 65.7 22.4 48.3 32.9 34 24.7"></polygon>
                    <polygon fill="#3D20B7" points="16.1 12.1 16.1 14.3 31.5 23.2 31.6 21"></polygon>
                    <polygon fill="url(#linearGradient-37)" points="35.9 37.9 35.8 40 46.4 33.8 46.4 31.8"></polygon>
                    <polygon fill="url(#linearGradient-38)" points="48.3 30.7 48.3 32.9 65.7 22.4 65.7 20.5"></polygon>
                </g>
            </g>
            <g id="Group" opacity="0.5" transform="translate(138.000000, 0.000000)" stroke="#FBCF00">
                <g id="Path">
                    <path d="M0.6,0 L0.6,297.1"></path>
                </g>
            </g>
        </g>
    </g>
</svg>