<?xml version="1.0" encoding="UTF-8"?>
<svg width="2160px" height="2160px" viewBox="0 0 2160 2160" version="1.1" xmlns="http://www.w3.org/2000/svg" xmlns:xlink="http://www.w3.org/1999/xlink">
    <!-- Generator: Sketch 51.2 (57519) - http://www.bohemiancoding.com/sketch -->
    <title>testimonial</title>
    <desc>Created with Sketch.</desc>
    <defs>
        <linearGradient x1="-0.0444099379%" y1="50.163354%" x2="99.8242236%" y2="50.163354%" id="linearGradient-1">
            <stop stop-color="#00FF99" offset="0%"></stop>
            <stop stop-color="#33CCFF" offset="100%"></stop>
        </linearGradient>
        <linearGradient x1="0.00582379779%" y1="50.0430328%" x2="99.9784016%" y2="50.0430328%" id="linearGradient-2">
            <stop stop-color="#7F00FF" offset="1.916698e-05%"></stop>
            <stop stop-color="#7D00FF" offset="48.89%"></stop>
            <stop stop-color="#7600FF" offset="66.5%"></stop>
            <stop stop-color="#6B00FF" offset="79.05%"></stop>
            <stop stop-color="#5A00FF" offset="89.2%"></stop>
            <stop stop-color="#4400FF" offset="97.79%"></stop>
            <stop stop-color="#3D00FF" offset="100%"></stop>
        </linearGradient>
    </defs>
    <g id="testimonial" stroke="none" stroke-width="1" fill="none" fill-rule="evenodd">
        <polyline id="Fill-300" fill="#0A0B09" points="1330.90737 1722.50615 1328.66968 1722.76588 1326.47195 1722.52613 1328.66968 1722.28637 1330.90737 1722.50615"></polyline>
        <path d="M539.544189,1468.64817 C458.56777,1468.64817 397.770523,1529.42544 397.770523,1610.4618 C397.770523,1691.49815 458.56777,1752.25544 539.544189,1752.25544 C620.600525,1752.25544 681.377793,1691.49815 681.377793,1610.4618 C681.377793,1529.42544 620.600525,1468.64817 539.544189,1468.64817 M195.219589,1630.72089 C134.422342,1630.72089 93.9041633,1671.23906 93.9041633,1731.99635 C93.9041633,1792.77362 134.422342,1833.27182 195.219589,1833.27182 C235.697809,1833.27182 296.455097,1792.77362 296.455097,1731.99635 C296.455097,1671.23906 235.697809,1630.72089 195.219589,1630.72089 M1251.06978,380.631186 C886.965592,380.631186 574.727873,798.100289 574.727873,1172.03433 C574.727873,1545.98834 895.496786,1629.28237 1259.62095,1629.28237 C1623.72513,1629.28237 1893.14704,1545.98834 1893.14704,1172.03433 C1893.14704,798.100289 1615.134,380.631186 1251.06978,380.631186" id="Fill-301" fill="url(#linearGradient-1)"></path>
        <path d="M571.531173,1522.83224 C493.032197,1522.83224 434.192929,1581.71147 434.192929,1660.15051 C434.192929,1738.64949 493.032197,1797.52871 571.531173,1797.52871 C650.010169,1797.52871 708.889396,1738.64949 708.889396,1660.15051 C708.889396,1581.71147 650.010169,1522.83224 571.531173,1522.83224 M238.055375,1679.79024 C179.13619,1679.79024 139.95663,1719.04972 139.95663,1777.90896 C139.95663,1836.72825 179.13619,1875.96775 238.055375,1875.96775 C277.254915,1875.96775 336.114162,1836.72825 336.114162,1777.90896 C336.114162,1719.04972 277.254915,1679.79024 238.055375,1679.79024 M1260.57996,469.079892 C907.963918,469.079892 605.576033,873.402564 605.576033,1235.54877 C605.576033,1597.73493 916.23538,1678.41166 1268.93134,1678.41166 C1621.48744,1678.41166 1882.45808,1597.73493 1882.45808,1235.54877 C1882.45808,873.402564 1613.23596,469.079892 1260.57996,469.079892" id="Fill-302" fill="#122A31"></path>
        <path d="M330.220246,1809.37648 C332.577812,1803.26279 334.316018,1796.82943 335.275028,1790.0764 C345.464511,1791.91451 356.053581,1793.71265 367.042239,1795.47084 C354.874798,1802.74333 342.048037,1807.5184 330.220246,1809.37648" id="Fill-303" fill="url(#linearGradient-2)"></path>
        <path d="M273.998276,1618.05396 C286.625243,1612.51967 301.070333,1609.40289 316.933959,1609.12318 C302.029343,1612.02019 287.704129,1615.01709 273.998276,1618.05396" id="Fill-304" fill="url(#linearGradient-2)"></path>
        <path d="M270.461926,1619.69227 C271.62073,1619.13285 272.799514,1618.57342 273.998276,1618.05396 C287.704129,1615.01709 302.029343,1612.02019 316.933959,1609.12318 C317.753114,1609.1032 318.592248,1609.1032 319.411402,1609.1032 C325.405216,1609.1032 331.838575,1609.98229 338.451749,1611.70052 C314.956001,1614.27786 292.279407,1616.93511 270.461926,1619.69227" id="Fill-305" fill="url(#linearGradient-2)"></path>
        <path d="M270.801576,1668.18222 C261.810856,1658.23249 251.161847,1650.00099 240.093272,1643.82736 C248.204899,1633.71779 258.45432,1625.56621 270.461926,1619.69227 C292.279407,1616.93511 314.956001,1614.27786 338.451749,1611.70052 C357.472117,1616.6554 377.990938,1628.40328 393.69473,1645.42571 C346.023934,1652.47843 304.746539,1660.11055 270.801576,1668.18222" id="Fill-306" fill="url(#linearGradient-2)"></path>
        <path d="M367.042239,1795.47084 C356.053581,1793.71265 345.464511,1791.91451 335.275028,1790.0764 C335.354946,1789.45704 335.434863,1788.83768 335.514781,1788.21832 C346.303645,1790.21626 357.572014,1792.17424 369.299909,1794.09226 C368.560672,1794.57176 367.801456,1795.03129 367.042239,1795.47084 M272.539782,1670.16018 C271.96038,1669.50086 271.380978,1668.84154 270.801576,1668.18222 C304.746539,1660.11055 346.023934,1652.47843 393.69473,1645.42571 C394.154255,1645.90521 394.573822,1646.38472 395.013368,1646.8842 C347.182738,1654.09676 306.00524,1661.90869 272.539782,1670.16018" id="Fill-307" fill="url(#linearGradient-2)"></path>
        <path d="M369.299909,1794.09226 C357.572014,1792.17424 346.303645,1790.21626 335.514781,1788.21832 C335.594698,1787.57898 335.654637,1786.91966 335.714575,1786.28032 C347.122799,1788.43809 359.050488,1790.57589 371.557579,1792.65374 C370.818342,1793.13325 370.059125,1793.63273 369.299909,1794.09226 M274.277987,1672.21805 C273.698586,1671.53875 273.119184,1670.83948 272.539782,1670.16018 C306.00524,1661.90869 347.182738,1654.09676 395.013368,1646.8842 C395.472894,1647.38369 395.91244,1647.88317 396.332007,1648.38266 C348.301583,1655.77503 307.243961,1663.76678 274.277987,1672.21805" id="Fill-308" fill="url(#linearGradient-2)"></path>
        <path d="M371.557579,1792.65374 C359.050488,1790.57589 347.122799,1788.43809 335.714575,1786.28032 C335.774513,1785.621 335.834451,1784.96168 335.894389,1784.30236 C347.842057,1786.65993 360.449045,1788.95756 373.715352,1791.19525 C372.996094,1791.69473 372.276836,1792.17424 371.557579,1792.65374 M275.936276,1674.31589 C275.376853,1673.61661 274.83741,1672.91733 274.277987,1672.21805 C307.243961,1663.76678 348.301583,1655.77503 396.332007,1648.38266 C396.751574,1648.88214 397.171141,1649.36164 397.590708,1649.86113 C349.300552,1657.43331 308.362806,1665.62486 275.936276,1674.31589" id="Fill-309" fill="url(#linearGradient-2)"></path>
        <path d="M373.715352,1791.19525 C360.449045,1788.95756 347.842057,1786.65993 335.894389,1784.30236 C335.934348,1783.62306 335.974307,1782.94377 336.014265,1782.26447 C348.521356,1784.80185 361.807642,1787.29927 375.813186,1789.71678 C375.113908,1790.21626 374.41463,1790.71574 373.715352,1791.19525 M277.614544,1676.5336 C277.0751,1675.79436 276.515678,1675.05512 275.936276,1674.31589 C308.362806,1665.62486 349.300552,1657.43331 397.590708,1649.86113 C398.030255,1650.40057 398.449821,1650.92004 398.869388,1651.4395 C350.299521,1659.21148 309.461672,1667.6228 277.614544,1676.5336" id="Fill-310" fill="url(#linearGradient-2)"></path>
        <path d="M375.813186,1789.71678 C361.807642,1787.29927 348.521356,1784.80185 336.014265,1782.26447 C336.054224,1781.58517 336.074203,1780.88589 336.094183,1780.18661 C349.120737,1782.92379 363.066343,1785.621 377.831103,1788.21832 C377.171784,1788.73779 376.492485,1789.23727 375.813186,1789.71678 M279.272832,1678.83123 C278.733389,1678.07201 278.173966,1677.29282 277.614544,1676.5336 C309.461672,1667.6228 350.299521,1659.21148 398.869388,1651.4395 C399.288955,1651.95896 399.688543,1652.49841 400.10811,1653.01787 C351.198593,1661.00962 310.460641,1669.66069 279.272832,1678.83123" id="Fill-311" fill="url(#linearGradient-2)"></path>
        <path d="M377.831103,1788.21832 C363.066343,1785.621 349.120737,1782.92379 336.094183,1780.18661 C336.114162,1779.44737 336.114162,1778.70814 336.114162,1777.9689 C349.68016,1780.92585 364.285085,1783.82286 379.888979,1786.63995 C379.20968,1787.17939 378.530382,1787.71884 377.831103,1788.21832 M280.911141,1681.24873 C280.371698,1680.42958 279.832255,1679.6304 279.272832,1678.83123 C310.460641,1669.66069 351.198593,1661.00962 400.10811,1653.01787 C400.507697,1653.53733 400.907285,1654.07678 401.306873,1654.61622 C351.977788,1662.84773 311.339734,1671.77851 280.911141,1681.24873" id="Fill-312" fill="url(#linearGradient-2)"></path>
        <path d="M379.888979,1786.63995 C364.285085,1783.82286 349.68016,1780.92585 336.114162,1777.9689 C336.114162,1777.94892 336.114162,1777.92894 336.114162,1777.90896 C336.114162,1777.16973 336.114162,1776.45047 336.094183,1775.71123 C350.159665,1778.92791 365.40393,1782.04469 381.846958,1785.08156 C381.207618,1785.60102 380.548299,1786.12049 379.888979,1786.63995 M282.529471,1683.80609 C282.010007,1682.94698 281.470564,1682.08787 280.911141,1681.24873 C311.339734,1671.77851 351.977788,1662.84773 401.306873,1654.61622 C401.70646,1655.15566 402.086068,1655.69511 402.485656,1656.23455 C352.657087,1664.74577 312.118929,1673.99622 282.529471,1683.80609" id="Fill-313" fill="url(#linearGradient-2)"></path>
        <path d="M381.846958,1785.08156 C365.40393,1782.04469 350.159665,1778.92791 336.094183,1775.71123 C336.074203,1774.95201 336.054224,1774.17282 336.014265,1773.4136 C350.499314,1776.87004 366.442858,1780.24655 383.705041,1783.52317 C383.105659,1784.04263 382.486298,1784.5621 381.846958,1785.08156 M284.1478,1686.52329 C283.628336,1685.60424 283.088893,1684.68519 282.529471,1683.80609 C312.118929,1673.99622 352.657087,1664.74577 402.485656,1656.23455 C402.865264,1656.77399 403.264852,1657.33342 403.64446,1657.89284 C353.176551,1666.72372 312.758269,1676.33381 284.1478,1686.52329" id="Fill-314" fill="url(#linearGradient-2)"></path>
        <path d="M383.705041,1783.52317 C366.442858,1780.24655 350.499314,1776.87004 336.014265,1773.4136 C335.954327,1772.57447 335.914368,1771.75531 335.834451,1770.91618 C350.799005,1774.6723 367.421847,1778.30855 385.623061,1781.8449 C385.0037,1782.40432 384.36436,1782.96375 383.705041,1783.52317 M285.74615,1689.40032 C285.226687,1688.44131 284.687243,1687.46232 284.1478,1686.52329 C312.758269,1676.33381 353.176551,1666.72372 403.64446,1657.89284 C404.024068,1658.45226 404.403676,1659.03166 404.763305,1659.59109 C353.556159,1668.7816 313.197816,1678.79127 285.74615,1689.40032" id="Fill-315" fill="url(#linearGradient-2)"></path>
        <path d="M385.623061,1781.8449 C367.421847,1778.30855 350.799005,1774.6723 335.834451,1770.91618 C335.774513,1770.05707 335.694595,1769.19795 335.594698,1768.33884 C350.938861,1772.41463 368.260981,1776.35057 387.461164,1780.18661 C386.841803,1780.74603 386.242422,1781.30546 385.623061,1781.8449 M287.344501,1692.57704 C286.825037,1691.49815 286.285594,1690.45923 285.74615,1689.40032 C313.197816,1678.79127 353.556159,1668.7816 404.763305,1659.59109 C405.142913,1660.17049 405.502542,1660.72991 405.862171,1661.30931 C353.656056,1670.93937 313.39761,1681.42855 287.344501,1692.57704" id="Fill-316" fill="url(#linearGradient-2)"></path>
        <path d="M387.461164,1780.18661 C368.260981,1776.35057 350.938861,1772.41463 335.594698,1768.33884 C335.494802,1767.39981 335.374925,1766.48076 335.23507,1765.56171 C350.95884,1769.99713 369.020198,1774.2927 389.279287,1778.44841 C388.679906,1779.04779 388.060545,1779.60721 387.461164,1780.18661 M288.942851,1696.05345 C288.423387,1694.87467 287.903923,1693.71586 287.344501,1692.57704 C313.39761,1681.42855 353.656056,1670.93937 405.862171,1661.30931 C406.221799,1661.88871 406.581428,1662.4881 406.941057,1663.0675 C353.476242,1673.19704 313.277733,1684.30558 288.942851,1696.05345" id="Fill-317" fill="url(#linearGradient-2)"></path>
        <path d="M389.279287,1778.44841 C369.020198,1774.2927 350.95884,1769.99713 335.23507,1765.56171 C335.095214,1764.56274 334.935379,1763.58375 334.775544,1762.62474 C350.759046,1767.47973 369.5996,1772.17488 391.037472,1776.7102 C390.45807,1777.30958 389.858689,1777.88898 389.279287,1778.44841 M292.119572,1699.17023 C291.260459,1698.55087 290.381366,1697.95149 289.502273,1697.37209 C289.322459,1696.93254 289.122665,1696.493 288.942851,1696.05345 C313.277733,1684.30558 353.476242,1673.19704 406.941057,1663.0675 C407.080913,1663.30725 407.200789,1663.52702 407.340645,1663.7468 C407.4805,1664.14638 407.640335,1664.52599 407.780191,1664.9056 C353.975726,1675.43473 314.476496,1686.94285 292.119572,1699.17023" id="Fill-318" fill="url(#linearGradient-2)"></path>
        <path d="M391.037472,1776.7102 C369.5996,1772.17488 350.759046,1767.47973 334.775544,1762.62474 C334.57575,1761.52587 334.355977,1760.42701 334.116224,1759.34812 C350.3195,1764.70259 369.999187,1769.89723 392.795657,1774.8721 C392.216256,1775.49146 391.636854,1776.11082 391.037472,1776.7102 M296.195365,1702.18712 C294.856747,1701.14819 293.498149,1700.14922 292.119572,1699.17023 C314.476496,1686.94285 353.975726,1675.43473 407.780191,1664.9056 C408.039923,1665.54494 408.279675,1666.18428 408.539407,1666.80364 C354.81486,1677.67242 316.334578,1689.56015 296.195365,1702.18712" id="Fill-319" fill="url(#linearGradient-2)"></path>
        <path d="M392.795657,1774.8721 C369.999187,1769.89723 350.3195,1764.70259 334.116224,1759.34812 C333.856493,1758.12938 333.556802,1756.9506 333.257111,1755.75183 C349.520325,1761.72567 370.099084,1767.49971 394.513884,1773.01402 C393.954461,1773.65336 393.375059,1774.27272 392.795657,1774.8721 M300.371055,1705.56364 C299.012457,1704.38485 297.613901,1703.26601 296.195365,1702.18712 C316.334578,1689.56015 354.81486,1677.67242 408.539407,1666.80364 C408.819119,1667.46296 409.078851,1668.12228 409.358562,1668.76162 C355.394262,1680.04997 317.89297,1692.43718 300.371055,1705.56364" id="Fill-320" fill="url(#linearGradient-2)"></path>
        <path d="M394.513884,1773.01402 C370.099084,1767.49971 349.520325,1761.72567 333.257111,1755.75183 C332.877503,1754.37326 332.477915,1752.9747 332.038369,1751.6161 C348.141748,1758.38911 369.719476,1764.90239 396.192152,1771.11597 C395.652709,1771.75531 395.093286,1772.39465 394.513884,1773.01402 M304.786498,1709.49957 C303.347982,1708.14097 301.869508,1706.82234 300.371055,1705.56364 C317.89297,1692.43718 355.394262,1680.04997 409.358562,1668.76162 C409.638273,1669.42094 409.917984,1670.08026 410.217675,1670.73958 C355.474179,1682.60733 318.971856,1695.67384 304.786498,1709.49957" id="Fill-321" fill="url(#linearGradient-2)"></path>
        <path d="M396.192152,1771.11597 C369.719476,1764.90239 348.141748,1758.38911 332.038369,1751.6161 C331.498926,1749.89787 330.899545,1748.19963 330.240225,1746.52136 C345.644326,1754.39323 368.460775,1761.96542 397.870419,1769.13802 C397.310997,1769.79734 396.751574,1770.45665 396.192152,1771.11597 M309.741383,1714.43448 C308.143033,1712.73623 306.484745,1711.07794 304.786498,1709.49957 C318.971856,1695.67384 355.474179,1682.60733 410.217675,1670.73958 C410.517366,1671.41888 410.837036,1672.09818 411.136726,1672.77748 C354.694984,1685.50434 319.231588,1699.56982 309.741383,1714.43448" id="Fill-322" fill="url(#linearGradient-2)"></path>
        <path d="M397.870419,1769.13802 C368.460775,1761.96542 345.644326,1754.39323 330.240225,1746.52136 C329.221277,1743.88408 328.082452,1741.28676 326.843731,1738.78934 C339.870285,1748.69911 364.624735,1758.16934 399.528708,1767.06016 C398.989265,1767.75944 398.429842,1768.45872 397.870419,1769.13802 M316.234681,1722.00666 C314.176805,1719.36939 311.999053,1716.85198 309.741383,1714.43448 C319.231588,1699.56982 354.694984,1685.50434 411.136726,1672.77748 C411.456397,1673.47675 411.796046,1674.15605 412.115716,1674.85533 C351.218572,1689.16057 316.91398,1705.14407 316.234681,1722.00666" id="Fill-323" fill="url(#linearGradient-2)"></path>
        <path d="M399.528708,1767.06016 C364.624735,1758.16934 339.870285,1748.69911 326.843731,1738.78934 C323.866804,1732.79553 320.270516,1727.2013 316.234681,1722.00666 C316.91398,1705.14407 351.218572,1689.16057 412.115716,1674.85533 C412.475345,1675.57459 412.814994,1676.27387 413.174623,1676.99312 C356.692922,1690.87879 325.225401,1706.30287 325.225401,1722.52613 C325.225401,1737.55062 352.217541,1751.87583 401.127058,1764.96233 C400.607594,1765.6616 400.068151,1766.36088 399.528708,1767.06016" id="Fill-324" fill="url(#linearGradient-2)"></path>
        <path d="M401.127058,1764.96233 C352.217541,1751.87583 325.225401,1737.55062 325.225401,1722.52613 C325.225401,1706.30287 356.692922,1690.87879 413.174623,1676.99312 C413.554231,1677.73236 413.933839,1678.4716 414.313448,1679.19086 C362.766652,1692.47714 334.236101,1707.12203 334.236101,1722.52613 C334.236101,1736.69151 358.511045,1750.2575 402.745388,1762.70466 C402.225924,1763.46387 401.686481,1764.22309 401.127058,1764.96233" id="Fill-325" fill="url(#linearGradient-2)"></path>
        <path d="M402.745388,1762.70466 C358.511045,1750.2575 334.236101,1736.69151 334.236101,1722.52613 C334.236101,1707.12203 362.766652,1692.47714 414.313448,1679.19086 C414.613138,1679.75028 414.912829,1680.28972 415.21252,1680.84914 C415.272458,1681.06892 415.352375,1681.28869 415.432293,1681.50846 C368.96026,1694.15541 343.346697,1708.0211 343.346697,1722.52613 C343.346697,1735.83239 364.884466,1748.57924 404.343738,1760.36707 C403.824274,1761.16624 403.284831,1761.94544 402.745388,1762.70466" id="Fill-326" fill="url(#linearGradient-2)"></path>
        <path d="M404.343738,1760.36707 C364.884466,1748.57924 343.346697,1735.83239 343.346697,1722.52613 C343.346697,1708.0211 368.96026,1694.15541 415.432293,1681.50846 C415.692025,1682.32762 415.971736,1683.14677 416.211488,1683.98591 C374.934094,1695.95355 352.337417,1708.94015 352.337417,1722.52613 C352.337417,1734.91334 371.19795,1746.82105 405.942088,1757.90961 C405.422624,1758.72876 404.883181,1759.54791 404.343738,1760.36707" id="Fill-327" fill="url(#linearGradient-2)"></path>
        <path d="M405.942088,1757.90961 C371.19795,1746.82105 352.337417,1734.91334 352.337417,1722.52613 C352.337417,1708.94015 374.934094,1695.95355 416.211488,1683.98591 C416.47122,1684.865 416.730952,1685.74409 416.970705,1686.64316 C380.967866,1697.87157 361.348117,1709.93912 361.348117,1722.52613 C361.348117,1733.93435 377.531413,1744.94299 407.520459,1755.27233 C407.000995,1756.15142 406.481531,1757.03051 405.942088,1757.90961" id="Fill-328" fill="url(#linearGradient-2)"></path>
        <path d="M407.520459,1755.27233 C377.531413,1744.94299 361.348117,1733.93435 361.348117,1722.52613 C361.348117,1709.93912 380.967866,1697.87157 416.970705,1686.64316 C417.230437,1687.60217 417.470189,1688.56118 417.689962,1689.52019 C387.041597,1699.90947 370.458713,1710.99803 370.458713,1722.52613 C370.458713,1732.89542 383.944793,1742.92507 409.118809,1752.41528 C408.599345,1753.37429 408.059902,1754.3333 407.520459,1755.27233" id="Fill-329" fill="url(#linearGradient-2)"></path>
        <path d="M409.118809,1752.41528 C383.944793,1742.92507 370.458713,1732.89542 370.458713,1722.52613 C370.458713,1710.99803 387.041597,1699.90947 417.689962,1689.52019 C417.929715,1690.55912 418.169467,1691.59805 418.369261,1692.63698 C393.03541,1702.1072 379.449433,1712.13685 379.449433,1722.52613 C379.449433,1731.77658 390.298235,1740.7673 410.69718,1749.33845 C410.177716,1750.37738 409.658252,1751.39633 409.118809,1752.41528" id="Fill-330" fill="url(#linearGradient-2)"></path>
        <path d="M410.69718,1749.33845 C390.298235,1740.7673 379.449433,1731.77658 379.449433,1722.52613 C379.449433,1712.13685 393.03541,1702.1072 418.369261,1692.63698 C418.589034,1693.79578 418.788828,1694.93461 418.968643,1696.11339 C399.049203,1704.54469 388.460132,1713.39555 388.460132,1722.52613 C388.460132,1730.55784 396.691636,1738.36977 412.29553,1745.88202 C411.796046,1747.04082 411.256603,1748.19963 410.69718,1749.33845" id="Fill-331" fill="url(#linearGradient-2)"></path>
        <path d="M412.29553,1745.88202 C396.691636,1738.36977 388.460132,1730.55784 388.460132,1722.52613 C388.460132,1713.39555 399.049203,1704.54469 418.968643,1696.11339 C419.168436,1697.45201 419.348251,1698.79063 419.488106,1700.14922 C405.102954,1707.36178 397.53077,1714.83407 397.53077,1722.52613 C397.53077,1729.1393 403.164955,1735.61262 413.953819,1741.88614 C413.434355,1743.22476 412.874932,1744.56338 412.29553,1745.88202" id="Fill-332" fill="url(#linearGradient-2)"></path>
        <path d="M413.953819,1741.88614 C403.164955,1735.61262 397.53077,1729.1393 397.53077,1722.52613 C397.53077,1714.83407 405.102954,1707.36178 419.488106,1700.14922 C419.667921,1701.78753 419.807776,1703.44582 419.887694,1705.12409 C411.136726,1710.77825 406.581428,1716.59225 406.581428,1722.52613 C406.581428,1727.4011 409.698211,1732.21613 415.712004,1736.93126 C415.172561,1738.60953 414.593159,1740.24784 413.953819,1741.88614" id="Fill-333" fill="url(#linearGradient-2)"></path>
        <path d="M415.712004,1736.93126 C409.698211,1732.21613 406.581428,1727.4011 406.581428,1722.52613 C406.581428,1716.59225 411.136726,1710.77825 419.887694,1705.12409 C419.967612,1706.62254 420.00757,1708.121 420.00757,1709.63943 C420.00757,1710.59844 419.987591,1711.55745 419.947632,1712.49648 C417.030643,1715.79308 415.53219,1719.12963 415.53219,1722.52613 C415.53219,1724.90367 416.271427,1727.26124 417.729921,1729.59883 C417.170499,1732.07627 416.4912,1734.53373 415.712004,1736.93126" id="Fill-334" fill="url(#linearGradient-2)"></path>
        <path d="M417.729921,1729.59883 C416.271427,1727.26124 415.53219,1724.90367 415.53219,1722.52613 C415.53219,1719.12963 417.030643,1715.79308 419.947632,1712.49648 C419.767818,1718.41038 419.008601,1724.1045 417.729921,1729.59883" id="Fill-335" fill="url(#linearGradient-2)"></path>
        <path d="M289.502273,1697.37209 C272.559761,1686.06376 253.739187,1679.79024 238.055375,1679.79024 C232.581026,1679.79024 227.266511,1680.12989 222.15179,1680.78921 C225.628202,1666.66379 231.741892,1654.21663 240.093272,1643.82736 C251.161847,1650.00099 261.810856,1658.23249 270.801576,1668.18222 C271.380978,1668.84154 271.96038,1669.50086 272.539782,1670.16018 C273.119184,1670.83948 273.698586,1671.53875 274.277987,1672.21805 C274.83741,1672.91733 275.376853,1673.61661 275.936276,1674.31589 C276.515678,1675.05512 277.0751,1675.79436 277.614544,1676.5336 C278.173966,1677.29282 278.733389,1678.07201 279.272832,1678.83123 C279.832255,1679.6304 280.371698,1680.42958 280.911141,1681.24873 C281.470564,1682.08787 282.010007,1682.94698 282.529471,1683.80609 C283.088893,1684.68519 283.628336,1685.60424 284.1478,1686.52329 C284.687243,1687.46232 285.226687,1688.44131 285.74615,1689.40032 C286.285594,1690.45923 286.825037,1691.49815 287.344501,1692.57704 C287.903923,1693.71586 288.423387,1694.87467 288.942851,1696.05345 C289.122665,1696.493 289.322459,1696.93254 289.502273,1697.37209 M415.21252,1680.84914 C414.912829,1680.28972 414.613138,1679.75028 414.313448,1679.19086 C413.933839,1678.4716 413.554231,1677.73236 413.174623,1676.99312 C412.814994,1676.27387 412.475345,1675.57459 412.115716,1674.85533 C411.796046,1674.15605 411.456397,1673.47675 411.136726,1672.77748 C410.837036,1672.09818 410.517366,1671.41888 410.217675,1670.73958 C409.917984,1670.08026 409.638273,1669.42094 409.358562,1668.76162 C409.078851,1668.12228 408.819119,1667.46296 408.539407,1666.80364 C408.279675,1666.18428 408.039923,1665.54494 407.780191,1664.9056 C407.640335,1664.52599 407.4805,1664.14638 407.340645,1663.7468 C410.477407,1669.12125 413.154644,1674.83535 415.21252,1680.84914" id="Fill-336" fill="#303D21"></path>
        <path d="M673.685732,1562.41139 C658.900992,1518.39682 623.857164,1485.53075 578.344141,1473.58308 C599.582219,1458.61852 625.535431,1449.52791 654.305736,1448.24923 C678.141133,1491.52456 709.988262,1527.22771 748.308709,1556.47752 C732.904608,1557.59636 717.700302,1558.77515 702.67581,1559.99389 C692.945852,1560.77308 683.255854,1561.59224 673.685732,1562.41139" id="Fill-337" fill="url(#linearGradient-2)"></path>
        <path d="M702.67581,1559.99389 C717.700302,1558.77515 732.904608,1557.59636 748.308709,1556.47752 C732.924588,1557.59636 717.700302,1558.77515 702.67581,1559.99389" id="Fill-338" fill="#C14969"></path>
        <path d="M687.131853,1583.78933 C683.635462,1578.35494 679.759463,1573.22024 675.543814,1568.40521 C674.964412,1566.38729 674.345052,1564.38935 673.685732,1562.41139 C683.255854,1561.59224 692.945852,1560.77308 702.67581,1559.99389 C717.700302,1558.77515 732.924588,1557.59636 748.308709,1556.47752 C758.737944,1564.42931 769.626705,1571.9016 780.974992,1578.93434 C749.067925,1580.43279 717.780219,1582.05112 687.131853,1583.78933" id="Fill-339" fill="url(#linearGradient-2)"></path>
        <path d="M701.477047,1613.73841 C697.880759,1603.02947 693.045749,1592.97984 687.131853,1583.78933 C717.780219,1582.05112 749.067925,1580.43279 780.974992,1578.93434 C787.887857,1583.2299 795.000515,1587.36564 802.253029,1591.32155 C802.173112,1596.7959 801.793504,1602.17035 801.174143,1607.42493 C766.949468,1609.36293 733.663825,1611.46076 701.477047,1613.73841" id="Fill-340" fill="url(#linearGradient-2)"></path>
        <path d="M701.856655,1614.87724 C701.736779,1614.49763 701.596923,1614.11802 701.477047,1613.73841 C733.663825,1611.46076 766.949468,1609.36293 801.174143,1607.42493 C801.134184,1607.80454 801.094225,1608.18415 801.034287,1608.54378 C766.949468,1610.48178 733.863619,1612.59959 701.856655,1614.87724" id="Fill-341" fill="url(#linearGradient-2)"></path>
        <path d="M702.216284,1616.01606 C702.096408,1615.63645 701.976531,1615.25685 701.856655,1614.87724 C733.863619,1612.59959 766.949468,1610.48178 801.034287,1608.54378 C800.994328,1608.9034 800.95437,1609.28301 800.894432,1609.64264 C766.969448,1611.58064 734.063412,1613.71843 702.216284,1616.01606" id="Fill-342" fill="url(#linearGradient-2)"></path>
        <path d="M702.575913,1617.15489 C702.456036,1616.77528 702.33616,1616.39567 702.216284,1616.01606 C734.063412,1613.71843 766.969448,1611.58064 800.894432,1609.64264 C800.854473,1610.00227 800.794535,1610.38188 800.734597,1610.74151 C767.009407,1612.69949 734.203268,1614.83728 702.575913,1617.15489" id="Fill-343" fill="url(#linearGradient-2)"></path>
        <path d="M702.935541,1618.37363 C702.815665,1617.95406 702.695789,1617.55448 702.575913,1617.15489 C734.203268,1614.83728 767.009407,1612.69949 800.734597,1610.74151 C800.694638,1611.14109 800.6347,1611.5207 800.574762,1611.92029 C767.009407,1613.89825 734.403062,1616.03604 702.935541,1618.37363" id="Fill-344" fill="url(#linearGradient-2)"></path>
        <path d="M703.29517,1619.57239 C703.175294,1619.1728 703.055418,1618.77322 702.935541,1618.37363 C734.403062,1616.03604 767.009407,1613.89825 800.574762,1611.92029 C800.514823,1612.31988 800.454885,1612.71947 800.394947,1613.09907 C766.989427,1615.07703 734.562897,1617.23481 703.29517,1619.57239" id="Fill-345" fill="url(#linearGradient-2)"></path>
        <path d="M703.61484,1620.71122 C703.494964,1620.33161 703.395067,1619.952 703.29517,1619.57239 C734.562897,1617.23481 766.989427,1615.07703 800.394947,1613.09907 C800.335009,1613.47868 800.275071,1613.83831 800.215133,1614.19794 C766.949468,1616.19588 734.722732,1618.37363 703.61484,1620.71122" id="Fill-346" fill="url(#linearGradient-2)"></path>
        <path d="M703.93451,1621.90998 C703.834613,1621.51039 703.714737,1621.1108 703.61484,1620.71122 C734.722732,1618.37363 766.949468,1616.19588 800.215133,1614.19794 C800.155195,1614.59753 800.075277,1614.97714 800.015339,1615.35674 C766.929489,1617.37466 734.842608,1619.55241 703.93451,1621.90998" id="Fill-347" fill="url(#linearGradient-2)"></path>
        <path d="M704.25418,1623.10874 C704.154284,1622.70915 704.034407,1622.30957 703.93451,1621.90998 C734.842608,1619.55241 766.929489,1617.37466 800.015339,1615.35674 C799.955401,1615.75633 799.875483,1616.15592 799.815545,1616.53553 C766.88953,1618.55344 734.982464,1620.75118 704.25418,1623.10874" id="Fill-348" fill="url(#linearGradient-2)"></path>
        <path d="M704.57385,1624.34746 C704.453974,1623.9279 704.354077,1623.52831 704.25418,1623.10874 C734.982464,1620.75118 766.88953,1618.55344 799.815545,1616.53553 C799.735628,1616.93511 799.65571,1617.3347 799.575793,1617.73429 C766.809613,1619.75221 735.122319,1621.96992 704.57385,1624.34746" id="Fill-349" fill="url(#linearGradient-2)"></path>
        <path d="M704.853562,1625.52625 C704.773644,1625.14664 704.673747,1624.74705 704.57385,1624.34746 C735.122319,1621.96992 766.809613,1619.75221 799.575793,1617.73429 C799.515854,1618.1139 799.435937,1618.49351 799.356019,1618.87311 C766.769654,1620.91101 735.222216,1623.1487 704.853562,1625.52625" id="Fill-350" fill="url(#linearGradient-2)"></path>
        <path d="M705.133273,1626.72501 C705.053356,1626.32542 704.953459,1625.94581 704.853562,1625.52625 C735.222216,1623.1487 766.769654,1620.91101 799.356019,1618.87311 C799.276102,1619.25272 799.216164,1619.63233 799.136246,1620.03192 C766.709716,1622.08979 735.322113,1624.32748 705.133273,1626.72501" id="Fill-351" fill="url(#linearGradient-2)"></path>
        <path d="M705.412984,1627.92377 C705.313087,1627.52418 705.23317,1627.1246 705.133273,1626.72501 C735.322113,1624.32748 766.709716,1622.08979 799.136246,1620.03192 C799.056329,1620.41153 798.976411,1620.79113 798.896494,1621.17074 C766.609819,1623.22862 735.402031,1625.48629 705.412984,1627.92377" id="Fill-352" fill="url(#linearGradient-2)"></path>
        <path d="M705.672716,1629.14251 C705.592799,1628.74293 705.492902,1628.32336 705.412984,1627.92377 C735.402031,1625.48629 766.609819,1623.22862 798.896494,1621.17074 C798.796597,1621.55035 798.716679,1621.94994 798.636762,1622.34953 C766.509922,1624.42738 735.481948,1626.70503 705.672716,1629.14251" id="Fill-353" fill="url(#linearGradient-2)"></path>
        <path d="M705.932448,1630.38124 C705.852531,1629.96167 705.752634,1629.56208 705.672716,1629.14251 C735.481948,1626.70503 766.509922,1624.42738 798.636762,1622.34953 C798.536865,1622.74911 798.456947,1623.1487 798.357051,1623.54829 C766.390046,1625.64612 735.561866,1627.92377 705.932448,1630.38124" id="Fill-354" fill="url(#linearGradient-2)"></path>
        <path d="M706.172201,1631.61996 C706.092283,1631.20039 706.012366,1630.8008 705.932448,1630.38124 C735.561866,1627.92377 766.390046,1625.64612 798.357051,1623.54829 C798.257154,1623.94788 798.177236,1624.32748 798.077339,1624.72707 C766.290149,1626.84489 735.621804,1629.14251 706.172201,1631.61996" id="Fill-355" fill="url(#linearGradient-2)"></path>
        <path d="M706.411953,1632.85868 C706.332036,1632.45909 706.252118,1632.03952 706.172201,1631.61996 C735.621804,1629.14251 766.290149,1626.84489 798.077339,1624.72707 C797.977442,1625.12666 797.877545,1625.52625 797.777649,1625.92583 C766.170273,1628.06363 735.641783,1630.38124 706.411953,1632.85868" id="Fill-356" fill="url(#linearGradient-2)"></path>
        <path d="M706.631726,1634.0974 C706.571788,1633.69781 706.491871,1633.27825 706.411953,1632.85868 C735.641783,1630.38124 766.170273,1628.06363 797.777649,1625.92583 C797.677752,1626.32542 797.577855,1626.70503 797.477958,1627.10462 C766.010438,1629.26239 735.681742,1631.58 706.631726,1634.0974" id="Fill-357" fill="url(#linearGradient-2)"></path>
        <path d="M706.8515,1635.3561 C706.771582,1634.93653 706.711644,1634.51697 706.631726,1634.0974 C735.681742,1631.58 766.010438,1629.26239 797.477958,1627.10462 C797.378061,1627.50421 797.278164,1627.90379 797.158288,1628.30338 C765.870582,1630.48113 735.701721,1632.8387 706.8515,1635.3561" id="Fill-358" fill="url(#linearGradient-2)"></path>
        <path d="M707.051293,1636.63478 C706.991355,1636.19523 706.931417,1635.77567 706.8515,1635.3561 C735.701721,1632.8387 765.870582,1630.48113 797.158288,1628.30338 C797.058391,1628.72295 796.938515,1629.12254 796.818638,1629.52212 C765.690768,1631.71985 735.721701,1634.0974 707.051293,1636.63478" id="Fill-359" fill="url(#linearGradient-2)"></path>
        <path d="M707.251087,1637.91346 C707.191149,1637.49389 707.131211,1637.05435 707.051293,1636.63478 C735.721701,1634.0974 765.690768,1631.71985 796.818638,1629.52212 C796.718742,1629.94169 796.598865,1630.36126 796.478989,1630.76084 C765.510953,1632.97856 735.721701,1635.3561 707.251087,1637.91346" id="Fill-360" fill="url(#linearGradient-2)"></path>
        <path d="M707.430901,1639.11222 C707.370963,1638.71264 707.311025,1638.31305 707.251087,1637.91346 C735.721701,1635.3561 765.510953,1632.97856 796.478989,1630.76084 C796.359113,1631.14045 796.259216,1631.52006 796.13934,1631.89967 C765.311159,1634.11738 735.721701,1636.53488 707.430901,1639.11222" id="Fill-361" fill="url(#linearGradient-2)"></path>
        <path d="M707.610716,1640.41088 C707.550778,1639.97134 707.49084,1639.55177 707.430901,1639.11222 C735.721701,1636.53488 765.311159,1634.11738 796.13934,1631.89967 C796.019463,1632.29926 795.899587,1632.69884 795.779711,1633.11841 C765.111366,1635.3561 735.681742,1637.79359 707.610716,1640.41088" id="Fill-362" fill="url(#linearGradient-2)"></path>
        <path d="M707.770551,1641.70954 C707.710613,1641.27 707.650675,1640.83045 707.610716,1640.41088 C735.681742,1637.79359 765.111366,1635.3561 795.779711,1633.11841 C795.639855,1633.53798 795.519979,1633.95754 795.380123,1634.35713 C764.911572,1636.63478 735.641783,1639.09224 707.770551,1641.70954" id="Fill-363" fill="url(#linearGradient-2)"></path>
        <path d="M707.930386,1643.02818 C707.870448,1642.58864 707.830489,1642.14909 707.770551,1641.70954 C735.641783,1639.09224 764.911572,1636.63478 795.380123,1634.35713 C795.260247,1634.7767 795.120391,1635.19627 794.980536,1635.61583 C764.671819,1637.89348 735.581845,1640.37092 707.930386,1643.02818" id="Fill-364" fill="url(#linearGradient-2)"></path>
        <path d="M708.070242,1644.32684 C708.010303,1643.8873 707.970345,1643.44775 707.930386,1643.02818 C735.581845,1640.37092 764.671819,1637.89348 794.980536,1635.61583 C794.84068,1636.01542 794.720804,1636.43499 794.580948,1636.85455 C764.392108,1639.15218 735.541886,1641.64961 708.070242,1644.32684" id="Fill-365" fill="url(#linearGradient-2)"></path>
        <path d="M708.190118,1645.68544 C708.150159,1645.22591 708.1102,1644.76639 708.070242,1644.32684 C735.541886,1641.64961 764.392108,1639.15218 794.580948,1636.85455 C794.441092,1637.27412 794.281257,1637.69369 794.141402,1638.13323 C764.132376,1640.45084 735.461969,1642.98822 708.190118,1645.68544" id="Fill-366" fill="url(#linearGradient-2)"></path>
        <path d="M708.309994,1646.9841 C708.290015,1646.54455 708.250056,1646.10501 708.190118,1645.68544 C735.461969,1642.98822 764.132376,1640.45084 794.141402,1638.13323 C794.001546,1638.53282 793.841711,1638.95239 793.701855,1639.35198 C763.892624,1641.70954 735.342092,1644.2669 708.309994,1646.9841" id="Fill-367" fill="url(#linearGradient-2)"></path>
        <path d="M708.42987,1648.3427 C708.389912,1647.90315 708.349953,1647.44362 708.309994,1646.9841 C735.342092,1644.2669 763.892624,1641.70954 793.701855,1639.35198 C793.54202,1639.79152 793.382185,1640.23107 793.22235,1640.65064 C763.572954,1643.02818 735.242196,1645.60552 708.42987,1648.3427" id="Fill-368" fill="url(#linearGradient-2)"></path>
        <path d="M708.529767,1649.68131 C708.489809,1649.24177 708.469829,1648.80222 708.42987,1648.3427 C735.242196,1645.60552 763.572954,1643.02818 793.22235,1640.65064 C793.082495,1641.0702 792.92266,1641.48977 792.762825,1641.90934 C763.273263,1644.30686 735.122319,1646.90418 708.529767,1649.68131" id="Fill-369" fill="url(#linearGradient-2)"></path>
        <path d="M708.609685,1651.07987 C708.589705,1650.60037 708.549747,1650.14084 708.529767,1649.68131 C735.122319,1646.90418 763.273263,1644.30686 792.762825,1641.90934 C792.58301,1642.34888 792.423175,1642.76845 792.26334,1643.208 C762.913634,1645.64548 735.002443,1648.26278 708.609685,1651.07987" id="Fill-370" fill="url(#linearGradient-2)"></path>
        <path d="M708.689602,1652.41849 C708.669623,1651.97894 708.649644,1651.51942 708.609685,1651.07987 C735.002443,1648.26278 762.913634,1645.64548 792.26334,1643.208 C792.083526,1643.62756 791.923691,1644.04713 791.743876,1644.4667 C762.593964,1646.92416 734.842608,1649.58142 708.689602,1652.41849" id="Fill-371" fill="url(#linearGradient-2)"></path>
        <path d="M708.74954,1653.83703 C708.729561,1653.35752 708.709582,1652.89799 708.689602,1652.41849 C734.842608,1649.58142 762.593964,1646.92416 791.743876,1644.4667 C791.584041,1644.90624 791.404227,1645.34579 791.224413,1645.78534 C762.214356,1648.28276 734.682773,1650.96 708.74954,1653.83703" id="Fill-372" fill="url(#linearGradient-2)"></path>
        <path d="M708.809479,1655.25556 C708.789499,1654.77606 708.76952,1654.29655 708.74954,1653.83703 C734.682773,1650.96 762.214356,1648.28276 791.224413,1645.78534 C791.024619,1646.22488 790.844804,1646.66443 790.645011,1647.12395 C761.814768,1649.64136 734.502959,1652.35855 708.809479,1655.25556" id="Fill-373" fill="url(#linearGradient-2)"></path>
        <path d="M708.849437,1656.6741 C708.829458,1656.19459 708.809479,1655.73507 708.809479,1655.25556 C734.502959,1652.35855 761.814768,1649.64136 790.645011,1647.12395 C790.465196,1647.54352 790.285382,1647.98307 790.085588,1648.42261 C761.43516,1650.97997 734.303165,1653.73713 708.849437,1656.6741" id="Fill-374" fill="url(#linearGradient-2)"></path>
        <path d="M708.869417,1658.13259 C708.869417,1657.63311 708.849437,1657.1536 708.849437,1656.6741 C734.303165,1653.73713 761.43516,1650.97997 790.085588,1648.42261 C789.885794,1648.88214 789.686001,1649.32169 789.486207,1649.78121 C760.995614,1652.37853 734.083392,1655.15566 708.869417,1658.13259" id="Fill-375" fill="url(#linearGradient-2)"></path>
        <path d="M708.889396,1659.63105 C708.869417,1659.13156 708.869417,1658.63208 708.869417,1658.13259 C734.083392,1655.15566 760.995614,1652.37853 789.486207,1649.78121 C789.266434,1650.24074 789.06664,1650.70026 788.846867,1651.15979 C760.536088,1653.77709 733.843639,1656.61416 708.889396,1659.63105" id="Fill-376" fill="url(#linearGradient-2)"></path>
        <path d="M708.869417,1661.1295 C708.889396,1660.80983 708.889396,1660.49016 708.889396,1660.15051 C708.889396,1659.97069 708.889396,1659.79088 708.889396,1659.63105 C733.843639,1656.61416 760.536088,1653.77709 788.846867,1651.15979 C788.627093,1651.61931 788.40732,1652.09882 788.187547,1652.55835 C760.076562,1655.2156 733.563928,1658.07265 708.869417,1661.1295" id="Fill-377" fill="url(#linearGradient-2)"></path>
        <path d="M708.869417,1662.60797 C708.869417,1662.10849 708.869417,1661.62898 708.869417,1661.1295 C733.563928,1658.07265 760.076562,1655.2156 788.187547,1652.55835 C787.967774,1652.99789 787.748001,1653.45742 787.528228,1653.89696 C759.577078,1656.59418 733.304196,1659.51117 708.869417,1662.60797" id="Fill-378" fill="url(#linearGradient-2)"></path>
        <path d="M708.829458,1664.14638 C708.849437,1663.62692 708.849437,1663.10746 708.869417,1662.60797 C733.304196,1659.51117 759.577078,1656.59418 787.528228,1653.89696 C787.308455,1654.37647 787.068702,1654.83599 786.828949,1655.3155 C759.057614,1658.05267 732.984526,1661.00962 708.829458,1664.14638" id="Fill-379" fill="url(#linearGradient-2)"></path>
        <path d="M708.789499,1665.6848 C708.809479,1665.16533 708.809479,1664.66585 708.829458,1664.14638 C732.984526,1661.00962 759.057614,1658.05267 786.828949,1655.3155 C786.589197,1655.77503 786.349444,1656.23455 786.109692,1656.69408 C758.498192,1659.49119 732.664856,1662.4881 708.789499,1665.6848" id="Fill-380" fill="url(#linearGradient-2)"></path>
        <path d="M708.709582,1667.26317 C708.74954,1666.72372 708.76952,1666.20426 708.789499,1665.6848 C732.664856,1662.4881 758.498192,1659.49119 786.109692,1656.69408 C785.869939,1657.17358 785.610207,1657.65309 785.350476,1658.13259 C757.91879,1660.96966 732.305227,1664.00653 708.709582,1667.26317" id="Fill-381" fill="url(#linearGradient-2)"></path>
        <path d="M708.629664,1668.8815 C708.669623,1668.34205 708.689602,1667.80261 708.709582,1667.26317 C732.305227,1664.00653 757.91879,1660.96966 785.350476,1658.13259 C785.090744,1658.6121 784.831012,1659.0916 784.5513,1659.59109 C757.299429,1662.4881 731.925619,1665.5849 708.629664,1668.8815" id="Fill-382" fill="url(#linearGradient-2)"></path>
        <path d="M708.529767,1670.53979 C708.569726,1669.98036 708.609685,1669.42094 708.629664,1668.8815 C731.925619,1665.5849 757.299429,1662.4881 784.5513,1659.59109 C784.291568,1660.09057 783.991878,1660.59006 783.732146,1661.06956 C756.660089,1664.02651 731.506052,1667.18325 708.529767,1670.53979" id="Fill-383" fill="url(#linearGradient-2)"></path>
        <path d="M708.409891,1672.23803 C708.44985,1671.67861 708.489809,1671.09921 708.529767,1670.53979 C731.506052,1667.18325 756.660089,1664.02651 783.732146,1661.06956 C783.432455,1661.58902 783.132765,1662.08851 782.833074,1662.60797 C755.940831,1665.60488 731.046526,1668.82156 708.409891,1672.23803" id="Fill-384" fill="url(#linearGradient-2)"></path>
        <path d="M708.270035,1673.97624 C708.309994,1673.39684 708.369932,1672.81743 708.409891,1672.23803 C731.046526,1668.82156 755.940831,1665.60488 782.833074,1662.60797 C782.533383,1663.12744 782.233693,1663.62692 781.914022,1664.14638 C755.201594,1667.20323 730.567021,1670.49983 708.270035,1673.97624" id="Fill-385" fill="url(#linearGradient-2)"></path>
        <path d="M708.090221,1675.77438 C708.150159,1675.175 708.210097,1674.57562 708.270035,1673.97624 C730.567021,1670.49983 755.201594,1667.20323 781.914022,1664.14638 C781.594352,1664.66585 781.274682,1665.18531 780.955012,1665.72476 C754.402419,1668.84154 730.027578,1672.21805 708.090221,1675.77438" id="Fill-386" fill="url(#linearGradient-2)"></path>
        <path d="M707.890427,1677.57253 C707.970345,1676.97315 708.030283,1676.37376 708.090221,1675.77438 C730.027578,1672.21805 754.402419,1668.84154 780.955012,1665.72476 C780.635342,1666.24422 780.295693,1666.76368 779.956043,1667.28315 C753.563285,1670.49983 729.468155,1673.93628 707.890427,1677.57253" id="Fill-387" fill="url(#linearGradient-2)"></path>
        <path d="M707.650675,1679.49055 C707.750572,1678.85121 707.830489,1678.21187 707.890427,1677.57253 C729.468155,1673.93628 753.563285,1670.49983 779.956043,1667.28315 C779.596415,1667.84257 779.236786,1668.38201 778.877157,1668.94144 C752.644234,1672.23803 728.828815,1675.7544 707.650675,1679.49055" id="Fill-388" fill="url(#linearGradient-2)"></path>
        <path d="M707.390943,1681.40857 C707.49084,1680.76923 707.570757,1680.12989 707.650675,1679.49055 C728.828815,1675.7544 752.644234,1672.23803 778.877157,1668.94144 C778.517528,1669.48088 778.157899,1670.02032 777.778291,1670.55976 C751.725182,1673.93628 728.149516,1677.57253 707.390943,1681.40857" id="Fill-389" fill="url(#linearGradient-2)"></path>
        <path d="M707.091252,1683.48642 C707.191149,1682.80712 707.311025,1682.10785 707.390943,1681.40857 C728.149516,1677.57253 751.725182,1673.93628 777.778291,1670.55976 C777.378704,1671.13917 776.979116,1671.73855 776.559549,1672.31795 C750.626317,1675.79436 727.3903,1679.53051 707.091252,1683.48642" id="Fill-390" fill="url(#linearGradient-2)"></path>
        <path d="M706.751603,1685.58426 C706.871479,1684.88498 706.971376,1684.1857 707.091252,1683.48642 C727.3903,1679.53051 750.626317,1675.79436 776.559549,1672.31795 C776.159962,1672.89735 775.740395,1673.47675 775.320828,1674.03618 C749.527451,1677.65244 726.551166,1681.50846 706.751603,1685.58426" id="Fill-391" fill="url(#linearGradient-2)"></path>
        <path d="M706.332036,1687.86191 C706.471891,1687.10269 706.611747,1686.36345 706.751603,1685.58426 C726.551166,1681.50846 749.527451,1677.65244 775.320828,1674.03618 C774.861302,1674.65554 774.401776,1675.2749 773.942251,1675.87428 C748.248771,1679.6304 725.592156,1683.62628 706.332036,1687.86191" id="Fill-392" fill="url(#linearGradient-2)"></path>
        <path d="M705.87251,1690.25943 C706.032345,1689.46026 706.19218,1688.66108 706.332036,1687.86191 C725.592156,1683.62628 748.248771,1679.6304 773.942251,1675.87428 C773.462746,1676.51362 772.963261,1677.15296 772.483756,1677.77232 C746.870194,1681.6683 724.51327,1685.84399 705.87251,1690.25943" id="Fill-393" fill="url(#linearGradient-2)"></path>
        <path d="M705.313087,1692.85675 C705.512881,1691.99764 705.692696,1691.11854 705.87251,1690.25943 C724.51327,1685.84399 746.870194,1681.6683 772.483756,1677.77232 C771.944313,1678.45162 771.424849,1679.11094 770.865426,1679.77026 C745.291823,1683.84605 723.274548,1688.24151 705.313087,1692.85675" id="Fill-394" fill="url(#linearGradient-2)"></path>
        <path d="M704.653768,1695.6139 C704.89352,1694.69485 705.093314,1693.7758 705.313087,1692.85675 C723.274548,1688.24151 745.291823,1683.84605 770.865426,1679.77026 C770.306004,1680.44956 769.746581,1681.12886 769.187159,1681.78818 C743.513658,1686.10372 721.816054,1690.73894 704.653768,1695.6139" id="Fill-395" fill="url(#linearGradient-2)"></path>
        <path d="M703.834613,1698.83058 C704.114325,1697.77168 704.394036,1696.69279 704.653768,1695.6139 C721.816054,1690.73894 743.513658,1686.10372 769.187159,1681.78818 C768.527839,1682.54739 767.86852,1683.30661 767.2092,1684.04585 C741.335906,1688.66108 719.977951,1693.61597 703.834613,1698.83058" id="Fill-396" fill="url(#linearGradient-2)"></path>
        <path d="M702.775706,1702.50679 C703.135335,1701.28805 703.494964,1700.06931 703.834613,1698.83058 C719.977951,1693.61597 741.335906,1688.66108 767.2092,1684.04585 C766.509922,1684.82504 765.810644,1685.58426 765.091386,1686.34347 C738.698628,1691.37828 717.640364,1696.79269 702.775706,1702.50679" id="Fill-397" fill="url(#linearGradient-2)"></path>
        <path d="M701.257274,1707.2419 C701.796717,1705.68351 702.296201,1704.10514 702.775706,1702.50679 C717.640364,1696.79269 738.698628,1691.37828 765.091386,1686.34347 C764.292211,1687.20259 763.473057,1688.0617 762.653902,1688.90083 C734.962484,1694.59496 714.104014,1700.74861 701.257274,1707.2419" id="Fill-398" fill="url(#linearGradient-2)"></path>
        <path d="M700.538016,1709.29978 C700.777769,1708.62048 701.017521,1707.94118 701.257274,1707.2419 C714.104014,1700.74861 734.962484,1694.59496 762.653902,1688.90083 C762.374191,1689.20052 762.0745,1689.48024 761.794789,1689.77993 C733.224278,1695.8137 712.345828,1702.38691 700.538016,1709.29978" id="Fill-399" fill="url(#linearGradient-2)"></path>
        <path d="M692.985811,1726.522 C693.065729,1726.36217 693.145646,1726.22231 693.205584,1726.08246 C693.265523,1726.20233 693.325461,1726.30223 693.385399,1726.42211 C693.245543,1726.46206 693.125667,1726.48204 692.985811,1726.522 M699.579006,1711.91708 C699.898676,1711.05796 700.218346,1710.17887 700.538016,1709.29978 C712.345828,1702.38691 733.224278,1695.8137 761.794789,1689.77993 C761.475119,1690.07962 761.155449,1690.39929 760.835779,1690.71896 C730.846732,1697.25221 709.828427,1704.38485 699.579006,1711.91708" id="Fill-400" fill="url(#linearGradient-2)"></path>
        <path d="M693.385399,1726.42211 C693.325461,1726.30223 693.265523,1726.20233 693.205584,1726.08246 C694.024739,1724.50409 694.803935,1722.92571 695.563151,1721.32736 C695.503213,1721.72695 695.483233,1722.12654 695.483233,1722.52613 C695.483233,1723.62499 695.703007,1724.72386 696.162532,1725.80274 C695.243481,1726.02252 694.30445,1726.22231 693.385399,1726.42211 M697.660986,1716.65219 C698.320305,1715.0938 698.959645,1713.51543 699.579006,1711.91708 C709.828427,1704.38485 730.846732,1697.25221 760.835779,1690.71896 C760.496129,1691.03863 760.15648,1691.3583 759.81683,1691.69795 C725.971764,1699.33007 704.314119,1707.76137 697.660986,1716.65219" id="Fill-401" fill="url(#linearGradient-2)"></path>
        <path d="M696.162532,1725.80274 C695.703007,1724.72386 695.483233,1723.62499 695.483233,1722.52613 C695.483233,1722.12654 695.503213,1721.72695 695.563151,1721.32736 C696.282409,1719.78895 696.981687,1718.23056 697.660986,1716.65219 C704.314119,1707.76137 725.971764,1699.33007 759.81683,1691.69795 C759.437222,1692.0376 759.077593,1692.39723 758.717965,1692.73687 C720.117806,1701.76755 698.540078,1711.85714 698.540078,1722.52613 C698.540078,1723.38524 698.679934,1724.26433 698.979625,1725.12345 C698.040594,1725.3632 697.101563,1725.58297 696.162532,1725.80274" id="Fill-402" fill="url(#linearGradient-2)"></path>
        <path d="M698.979625,1725.12345 C698.679934,1724.26433 698.540078,1723.38524 698.540078,1722.52613 C698.540078,1711.85714 720.117806,1701.76755 758.717965,1692.73687 C758.338357,1693.07652 757.958748,1693.41617 757.59912,1693.75582 C721.556322,1702.52677 701.477047,1712.25673 701.477047,1722.52613 C701.477047,1723.14549 701.536985,1723.76485 701.69682,1724.40419 C700.797748,1724.64394 699.878697,1724.88369 698.979625,1725.12345" id="Fill-403" fill="url(#linearGradient-2)"></path>
        <path d="M701.69682,1724.40419 C701.536985,1723.76485 701.477047,1723.14549 701.477047,1722.52613 C701.477047,1712.25673 721.556322,1702.52677 757.59912,1693.75582 C757.159573,1694.15541 756.740006,1694.53502 756.30046,1694.91463 C722.994837,1703.3659 704.513912,1712.69627 704.513912,1722.52613 C704.513912,1722.86578 704.533892,1723.22541 704.57385,1723.56505 C703.61484,1723.84477 702.65583,1724.12448 701.69682,1724.40419" id="Fill-404" fill="url(#linearGradient-2)"></path>
        <path d="M704.57385,1723.56505 C704.533892,1723.22541 704.513912,1722.86578 704.513912,1722.52613 C704.513912,1712.69627 722.994837,1703.3659 756.30046,1694.91463 C755.840934,1695.33419 755.381409,1695.73378 754.901904,1696.15335 C724.373414,1704.26498 707.530798,1713.17578 707.530798,1722.52613 C707.530798,1722.56609 707.530798,1722.60604 707.530798,1722.646 C706.551809,1722.96567 705.572819,1723.26536 704.57385,1723.56505" id="Fill-405" fill="url(#linearGradient-2)"></path>
        <path d="M707.530798,1722.646 C707.530798,1722.60604 707.530798,1722.56609 707.530798,1722.52613 C707.530798,1713.17578 724.373414,1704.26498 754.901904,1696.15335 C754.402419,1696.57292 753.902935,1697.01246 753.383471,1697.43203 C726.651063,1704.94427 711.566633,1713.09586 710.587643,1721.62705 C709.588674,1721.9667 708.549747,1722.32633 707.530798,1722.646" id="Fill-406" fill="url(#linearGradient-2)"></path>
        <path d="M710.587643,1721.62705 C711.566633,1713.09586 726.651063,1704.94427 753.383471,1697.43203 C752.804069,1697.91153 752.224667,1698.41102 751.645265,1698.87054 C729.048588,1705.64355 715.84222,1712.89607 713.824302,1720.44827 C712.745416,1720.86784 711.66653,1721.24745 710.587643,1721.62705" id="Fill-407" fill="url(#linearGradient-2)"></path>
        <path d="M713.824302,1720.44827 C715.84222,1712.89607 729.048588,1705.64355 751.645265,1698.87054 C750.945987,1699.44995 750.226729,1700.00937 749.527451,1700.54881 C731.406155,1706.40277 720.3176,1712.61636 717.400611,1719.04972 C716.201848,1719.5492 715.023065,1720.00873 713.824302,1720.44827" id="Fill-408" fill="url(#linearGradient-2)"></path>
        <path d="M717.400611,1719.04972 C720.3176,1712.61636 731.406155,1706.40277 749.527451,1700.54881 C748.688317,1701.20813 747.849183,1701.84747 746.99007,1702.46683 C733.623866,1707.22192 724.872898,1712.21677 721.356528,1717.37145 C720.057868,1717.95085 718.71925,1718.51027 717.400611,1719.04972" id="Fill-409" fill="url(#linearGradient-2)"></path>
        <path d="M721.356528,1717.37145 C724.872898,1712.21677 733.623866,1707.22192 746.99007,1702.46683 C745.791307,1703.3659 744.552586,1704.245 743.313864,1705.10411 C735.521907,1708.30081 729.827784,1711.61739 726.43129,1714.9939 C724.753022,1715.81306 723.074754,1716.61223 721.356528,1717.37145" id="Fill-410" fill="url(#linearGradient-2)"></path>
        <path d="M726.43129,1714.9939 C729.827784,1711.61739 735.521907,1708.30081 743.313864,1705.10411 C737.959391,1708.78031 732.325206,1712.07691 726.43129,1714.9939" id="Fill-411" fill="url(#linearGradient-2)"></path>
        <path d="M675.543814,1568.40521 C650.789365,1540.09443 614.02731,1522.83224 571.531173,1522.83224 C558.244886,1522.83224 545.518023,1524.53049 533.550375,1527.70721 C543.580023,1505.74988 559.004103,1487.20901 578.344141,1473.58308 C623.857164,1485.53075 658.900992,1518.39682 673.685732,1562.41139 C674.345052,1564.38935 674.964412,1566.38729 675.543814,1568.40521" id="Fill-412" fill="#303D21"></path>
        <path d="M1765.37892,1550.36383 C1826.39594,1494.7812 1866.15491,1417.04144 1878.42224,1309.8321 C1888.09226,1268.99425 1893.14704,1223.24147 1893.14704,1172.03433 C1893.14704,799.838494 1617.73132,384.507186 1256.14454,380.671145 C1292.7068,372.040054 1330.14815,367.464776 1368.12895,367.464776 C1729.6558,367.464776 2005.81076,782.076827 2005.81076,1153.49346 C2005.81076,1370.96899 1914.06545,1489.48666 1765.37892,1550.36383" id="Fill-413" fill="url(#linearGradient-1)"></path>
        <path d="M1878.42224,1309.8321 C1881.09948,1286.49618 1882.45808,1261.78169 1882.45808,1235.54877 C1882.45808,873.402564 1613.23596,469.079892 1260.57996,469.079892 C1131.87281,469.079892 1009.81879,522.984254 906.745176,609.015456 C1002.22662,496.531558 1123.46149,411.958851 1256.14454,380.671145 C1617.73132,384.507186 1893.14704,799.838494 1893.14704,1172.03433 C1893.14704,1223.24147 1888.09226,1268.99425 1878.42224,1309.8321" id="Fill-414" fill="url(#linearGradient-2)"></path>
        <path d="M319.411402,1810.25558 C259.013743,1810.25558 218.775276,1770.03709 218.775276,1709.63943 C218.775276,1699.40999 219.934079,1689.75995 222.15179,1680.78921 C227.266511,1680.12989 232.581026,1679.79024 238.055375,1679.79024 C253.739187,1679.79024 272.559761,1686.06376 289.502273,1697.37209 C290.381366,1697.95149 291.260459,1698.55087 292.119572,1699.17023 C293.498149,1700.14922 294.856747,1701.14819 296.195365,1702.18712 C297.613901,1703.26601 299.012457,1704.38485 300.371055,1705.56364 C301.869508,1706.82234 303.347982,1708.14097 304.786498,1709.49957 C306.484745,1711.07794 308.143033,1712.73623 309.741383,1714.43448 C311.999053,1716.85198 314.176805,1719.36939 316.234681,1722.00666 C320.270516,1727.2013 323.866804,1732.79553 326.843731,1738.78934 C328.082452,1741.28676 329.221277,1743.88408 330.240225,1746.52136 C330.899545,1748.19963 331.498926,1749.89787 332.038369,1751.6161 C332.477915,1752.9747 332.877503,1754.37326 333.257111,1755.75183 C333.556802,1756.9506 333.856493,1758.12938 334.116224,1759.34812 C334.355977,1760.42701 334.57575,1761.52587 334.775544,1762.62474 C334.935379,1763.58375 335.095214,1764.56274 335.23507,1765.56171 C335.374925,1766.48076 335.494802,1767.39981 335.594698,1768.33884 C335.694595,1769.19795 335.774513,1770.05707 335.834451,1770.91618 C335.914368,1771.75531 335.954327,1772.57447 336.014265,1773.4136 C336.054224,1774.17282 336.074203,1774.95201 336.094183,1775.71123 C336.114162,1776.45047 336.114162,1777.16973 336.114162,1777.90896 C336.114162,1777.92894 336.114162,1777.94892 336.114162,1777.9689 C336.114162,1778.70814 336.114162,1779.44737 336.094183,1780.18661 C336.074203,1780.88589 336.054224,1781.58517 336.014265,1782.26447 C335.974307,1782.94377 335.934348,1783.62306 335.894389,1784.30236 C335.834451,1784.96168 335.774513,1785.621 335.714575,1786.28032 C335.654637,1786.91966 335.594698,1787.57898 335.514781,1788.21832 C335.434863,1788.83768 335.354946,1789.45704 335.275028,1790.0764 C334.316018,1796.82943 332.577812,1803.26279 330.220246,1809.37648 C326.504081,1809.95588 322.887814,1810.25558 319.411402,1810.25558 M661.358456,1729.75866 C580.92148,1729.75866 520.583759,1669.44092 520.583759,1588.96399 C520.583759,1566.72694 525.179016,1546.0283 533.550375,1527.70721 C545.518023,1524.53049 558.244886,1522.83224 571.531173,1522.83224 C614.02731,1522.83224 650.789365,1540.09443 675.543814,1568.40521 C679.759463,1573.22024 683.635462,1578.35494 687.131853,1583.78933 C693.045749,1592.97984 697.880759,1603.02947 701.477047,1613.73841 C701.596923,1614.11802 701.736779,1614.49763 701.856655,1614.87724 C701.976531,1615.25685 702.096408,1615.63645 702.216284,1616.01606 C702.33616,1616.39567 702.456036,1616.77528 702.575913,1617.15489 C702.695789,1617.55448 702.815665,1617.95406 702.935541,1618.37363 C703.055418,1618.77322 703.175294,1619.1728 703.29517,1619.57239 C703.395067,1619.952 703.494964,1620.33161 703.61484,1620.71122 C703.714737,1621.1108 703.834613,1621.51039 703.93451,1621.90998 C704.034407,1622.30957 704.154284,1622.70915 704.25418,1623.10874 C704.354077,1623.52831 704.453974,1623.9279 704.57385,1624.34746 C704.673747,1624.74705 704.773644,1625.14664 704.853562,1625.52625 C704.953459,1625.94581 705.053356,1626.32542 705.133273,1626.72501 C705.23317,1627.1246 705.313087,1627.52418 705.412984,1627.92377 C705.492902,1628.32336 705.592799,1628.74293 705.672716,1629.14251 C705.752634,1629.56208 705.852531,1629.96167 705.932448,1630.38124 C706.012366,1630.8008 706.092283,1631.20039 706.172201,1631.61996 C706.252118,1632.03952 706.332036,1632.45909 706.411953,1632.85868 C706.491871,1633.27825 706.571788,1633.69781 706.631726,1634.0974 C706.711644,1634.51697 706.771582,1634.93653 706.8515,1635.3561 C706.931417,1635.77567 706.991355,1636.19523 707.051293,1636.63478 C707.131211,1637.05435 707.191149,1637.49389 707.251087,1637.91346 C707.311025,1638.31305 707.370963,1638.71264 707.430901,1639.11222 C707.49084,1639.55177 707.550778,1639.97134 707.610716,1640.41088 C707.650675,1640.83045 707.710613,1641.27 707.770551,1641.70954 C707.830489,1642.14909 707.870448,1642.58864 707.930386,1643.02818 C707.970345,1643.44775 708.010303,1643.8873 708.070242,1644.32684 C708.1102,1644.76639 708.150159,1645.22591 708.190118,1645.68544 C708.250056,1646.10501 708.290015,1646.54455 708.309994,1646.9841 C708.349953,1647.44362 708.389912,1647.90315 708.42987,1648.3427 C708.469829,1648.80222 708.489809,1649.24177 708.529767,1649.68131 C708.549747,1650.14084 708.589705,1650.60037 708.609685,1651.07987 C708.649644,1651.51942 708.669623,1651.97894 708.689602,1652.41849 C708.709582,1652.89799 708.729561,1653.35752 708.74954,1653.83703 C708.76952,1654.29655 708.789499,1654.77606 708.809479,1655.25556 C708.809479,1655.73507 708.829458,1656.19459 708.849437,1656.6741 C708.849437,1657.1536 708.869417,1657.63311 708.869417,1658.13259 C708.869417,1658.63208 708.869417,1659.13156 708.889396,1659.63105 C708.889396,1659.79088 708.889396,1659.97069 708.889396,1660.15051 C708.889396,1660.49016 708.889396,1660.80983 708.869417,1661.1295 C708.869417,1661.62898 708.869417,1662.10849 708.869417,1662.60797 C708.849437,1663.10746 708.849437,1663.62692 708.829458,1664.14638 C708.809479,1664.66585 708.809479,1665.16533 708.789499,1665.6848 C708.76952,1666.20426 708.74954,1666.72372 708.709582,1667.26317 C708.689602,1667.80261 708.669623,1668.34205 708.629664,1668.8815 C708.609685,1669.42094 708.569726,1669.98036 708.529767,1670.53979 C708.489809,1671.09921 708.44985,1671.67861 708.409891,1672.23803 C708.369932,1672.81743 708.309994,1673.39684 708.270035,1673.97624 C708.210097,1674.57562 708.150159,1675.175 708.090221,1675.77438 C708.030283,1676.37376 707.970345,1676.97315 707.890427,1677.57253 C707.830489,1678.21187 707.750572,1678.85121 707.650675,1679.49055 C707.570757,1680.12989 707.49084,1680.76923 707.390943,1681.40857 C707.311025,1682.10785 707.191149,1682.80712 707.091252,1683.48642 C706.971376,1684.1857 706.871479,1684.88498 706.751603,1685.58426 C706.611747,1686.36345 706.471891,1687.10269 706.332036,1687.86191 C706.19218,1688.66108 706.032345,1689.46026 705.87251,1690.25943 C705.692696,1691.11854 705.512881,1691.99764 705.313087,1692.85675 C705.093314,1693.7758 704.89352,1694.69485 704.653768,1695.6139 C704.394036,1696.69279 704.114325,1697.77168 703.834613,1698.83058 C703.494964,1700.06931 703.135335,1701.28805 702.775706,1702.50679 C702.296201,1704.10514 701.796717,1705.68351 701.257274,1707.2419 C701.017521,1707.94118 700.777769,1708.62048 700.538016,1709.29978 C700.218346,1710.17887 699.898676,1711.05796 699.579006,1711.91708 C698.959645,1713.51543 698.320305,1715.0938 697.660986,1716.65219 C696.981687,1718.23056 696.282409,1719.78895 695.563151,1721.32736 C694.803935,1722.92571 694.024739,1724.50409 693.205584,1726.08246 C693.145646,1726.22231 693.065729,1726.36217 692.985811,1726.522 C682.876246,1728.63982 672.307155,1729.75866 661.358456,1729.75866 M1376.52029,1607.66468 C1014.97347,1607.66468 696.322367,1524.89012 696.322367,1153.49346 C696.322367,962.710383 778.13792,760.539058 906.745176,609.015456 C1009.81879,522.984254 1131.87281,469.079892 1260.57996,469.079892 C1613.23596,469.079892 1882.45808,873.402564 1882.45808,1235.54877 C1882.45808,1261.78169 1881.09948,1286.49618 1878.42224,1309.8321 C1866.15491,1417.04144 1826.39594,1494.7812 1765.37892,1550.36383 C1660.14754,1593.43937 1526.40558,1607.66468 1376.52029,1607.66468 M802.253029,1591.32155 C795.000515,1587.36564 787.887857,1583.2299 780.974992,1578.93434 C769.626705,1571.9016 758.737944,1564.42931 748.308709,1556.47752 C709.988262,1527.22771 678.141133,1491.52456 654.305736,1448.24923 C656.643323,1448.14933 658.98091,1448.08939 661.358456,1448.08939 C741.915308,1448.08939 802.253029,1508.48705 802.253029,1588.96399 C802.253029,1589.74318 802.253029,1590.54236 802.253029,1591.32155" id="Fill-415" fill="#0C1216"></path>
        <text id="Leave-a-testimonial" font-family="LucidaGrande, Lucida Grande" font-size="135" font-weight="normal" line-spacing="150" fill="#FFFFFF">
            <tspan x="915.741722" y="810.487006">Leave</tspan>
            <tspan x="1411.2819" y="851.743414" font-family="AlBayan, Al Bayan"> </tspan>
            <tspan x="1309.57522" y="810.487006">a</tspan>
            <tspan x="1512.83512" y="851.743414" font-family="AlBayan, Al Bayan"> </tspan>
            <tspan x="785.243919" y="960.487006">testimonial</tspan>
        </text>
        <text id="Leaving-your-feedbac" font-family="LucidaGrande, Lucida Grande" font-size="52" font-weight="normal" fill="#FFFFFF">
            <tspan x="920.751556" y="1092.86167">Leaving your feedback is an </tspan>
            <tspan x="931.771087" y="1153.86167">invaluable step in paying it</tspan>
            <tspan x="883.109954" y="1214.86167">forward so others may benefit.</tspan>
            <tspan x="1271.40878" y="1275.86167"></tspan>
            <tspan x="857.655853" y="1336.86167">Its also a appreciated to provide </tspan>
            <tspan x="938.385345" y="1397.86167">feedback or comments for </tspan>
            <tspan x="1095.858" y="1458.86167">improvement.</tspan>
        </text>
    </g>
</svg>