<svg xmlns="http://www.w3.org/2000/svg" xmlns:xlink="http://www.w3.org/1999/xlink" viewBox="0 0 399.29 399.29"><defs><style>.cls-1{isolation:isolate;}.cls-2{fill:#010e36;}.cls-3,.cls-66{mix-blend-mode:color-dodge;}.cls-10,.cls-11,.cls-12,.cls-13,.cls-14,.cls-15,.cls-16,.cls-17,.cls-18,.cls-19,.cls-20,.cls-21,.cls-22,.cls-23,.cls-24,.cls-25,.cls-26,.cls-27,.cls-28,.cls-29,.cls-30,.cls-31,.cls-32,.cls-33,.cls-34,.cls-35,.cls-36,.cls-37,.cls-38,.cls-39,.cls-4,.cls-40,.cls-41,.cls-42,.cls-43,.cls-44,.cls-45,.cls-46,.cls-47,.cls-48,.cls-49,.cls-5,.cls-50,.cls-51,.cls-52,.cls-53,.cls-54,.cls-55,.cls-56,.cls-57,.cls-58,.cls-59,.cls-6,.cls-60,.cls-61,.cls-62,.cls-63,.cls-64,.cls-65,.cls-7,.cls-8,.cls-9{stroke:#c7c7c7;stroke-miterlimit:10;}.cls-4{fill:url(#radial-gradient);}.cls-5{fill:url(#radial-gradient-2);}.cls-6{fill:url(#radial-gradient-3);}.cls-7{fill:url(#radial-gradient-4);}.cls-8{fill:url(#radial-gradient-5);}.cls-9{fill:url(#radial-gradient-6);}.cls-10{fill:url(#radial-gradient-7);}.cls-11{fill:url(#radial-gradient-8);}.cls-12{fill:url(#radial-gradient-9);}.cls-13{fill:url(#radial-gradient-10);}.cls-14{fill:url(#radial-gradient-11);}.cls-15{fill:url(#radial-gradient-12);}.cls-16{fill:url(#radial-gradient-13);}.cls-17{fill:url(#radial-gradient-14);}.cls-18{fill:url(#radial-gradient-15);}.cls-19{fill:url(#radial-gradient-16);}.cls-20{fill:url(#radial-gradient-17);}.cls-21{fill:url(#radial-gradient-18);}.cls-22{fill:url(#radial-gradient-19);}.cls-23{fill:url(#radial-gradient-20);}.cls-24{fill:url(#radial-gradient-22);}.cls-25{fill:url(#radial-gradient-23);}.cls-26{fill:url(#radial-gradient-24);}.cls-27{fill:url(#radial-gradient-25);}.cls-28{fill:url(#radial-gradient-26);}.cls-29{fill:url(#radial-gradient-27);}.cls-30{fill:url(#radial-gradient-28);}.cls-31{fill:url(#radial-gradient-29);}.cls-32{fill:url(#radial-gradient-30);}.cls-33{fill:url(#radial-gradient-31);}.cls-34{fill:url(#radial-gradient-33);}.cls-35{fill:url(#radial-gradient-34);}.cls-36{fill:url(#radial-gradient-35);}.cls-37{fill:url(#radial-gradient-36);}.cls-38{fill:url(#radial-gradient-37);}.cls-39{fill:url(#radial-gradient-38);}.cls-40{fill:url(#radial-gradient-39);}.cls-41{fill:url(#radial-gradient-40);}.cls-42{fill:url(#radial-gradient-41);}.cls-43{fill:url(#radial-gradient-42);}.cls-44{fill:url(#radial-gradient-43);}.cls-45{fill:url(#radial-gradient-44);}.cls-46{fill:url(#radial-gradient-45);}.cls-47{fill:url(#radial-gradient-46);}.cls-48{fill:url(#radial-gradient-47);}.cls-49{fill:url(#radial-gradient-48);}.cls-50{fill:url(#radial-gradient-49);}.cls-51{fill:url(#radial-gradient-50);}.cls-52{fill:url(#radial-gradient-51);}.cls-53{fill:url(#radial-gradient-52);}.cls-54{fill:url(#radial-gradient-53);}.cls-55{fill:url(#radial-gradient-54);}.cls-56{fill:url(#radial-gradient-55);}.cls-57{fill:url(#radial-gradient-56);}.cls-58{fill:url(#radial-gradient-57);}.cls-59{fill:url(#radial-gradient-58);}.cls-60{fill:url(#radial-gradient-59);}.cls-61{fill:url(#radial-gradient-60);}.cls-62{fill:url(#radial-gradient-61);}.cls-63{fill:url(#radial-gradient-62);}.cls-64{fill:url(#radial-gradient-63);}.cls-65{fill:url(#radial-gradient-64);}.cls-66{opacity:0.2;}.cls-67{fill:url(#radial-gradient-65);}.cls-68{fill:url(#radial-gradient-66);}.cls-69{fill:url(#radial-gradient-67);}.cls-70{fill:url(#radial-gradient-68);}.cls-71{fill:url(#radial-gradient-69);}.cls-72{fill:url(#radial-gradient-70);}.cls-73{fill:url(#radial-gradient-71);}.cls-74{fill:url(#radial-gradient-72);}.cls-75{fill:url(#radial-gradient-73);}.cls-76{fill:url(#radial-gradient-74);}.cls-77{fill:url(#radial-gradient-75);}.cls-78{fill:url(#radial-gradient-76);}.cls-79{fill:url(#radial-gradient-77);}.cls-80{fill:url(#radial-gradient-78);}.cls-81{fill:url(#radial-gradient-79);}.cls-82{fill:url(#radial-gradient-80);}.cls-83{fill:url(#radial-gradient-81);}.cls-84{fill:url(#radial-gradient-83);}.cls-85{fill:url(#radial-gradient-84);}.cls-86{fill:url(#radial-gradient-85);}.cls-87{fill:url(#radial-gradient-86);}.cls-88{fill:url(#radial-gradient-87);}.cls-89{fill:url(#radial-gradient-88);}.cls-90{fill:url(#radial-gradient-89);}.cls-91{fill:url(#radial-gradient-91);}.cls-92{fill:url(#radial-gradient-92);}.cls-93{fill:url(#radial-gradient-93);}.cls-94{fill:url(#radial-gradient-94);}.cls-95{fill:url(#radial-gradient-95);}.cls-96{fill:url(#radial-gradient-96);}.cls-97{fill:url(#radial-gradient-97);}.cls-98{fill:url(#radial-gradient-98);}.cls-99{fill:url(#radial-gradient-99);}.cls-100{fill:url(#radial-gradient-100);}.cls-101{fill:url(#radial-gradient-101);}.cls-102{fill:url(#radial-gradient-102);}.cls-103{fill:url(#radial-gradient-103);}.cls-104{fill:url(#radial-gradient-104);}.cls-105{fill:url(#radial-gradient-105);}.cls-106{fill:url(#radial-gradient-106);}.cls-107{fill:url(#radial-gradient-107);}.cls-108{fill:url(#radial-gradient-108);}.cls-109{fill:url(#radial-gradient-109);}.cls-110{fill:url(#radial-gradient-110);}.cls-111{fill:url(#radial-gradient-111);}.cls-112{fill:url(#radial-gradient-112);}.cls-113{fill:url(#radial-gradient-113);}.cls-114{fill:url(#radial-gradient-114);}.cls-115{fill:url(#radial-gradient-115);}.cls-116{fill:url(#radial-gradient-116);}.cls-117{fill:url(#radial-gradient-117);}.cls-118{fill:url(#radial-gradient-118);}.cls-119{fill:url(#radial-gradient-119);}.cls-120{fill:url(#radial-gradient-120);}.cls-121{fill:url(#radial-gradient-121);}.cls-122{fill:url(#radial-gradient-122);}.cls-123{fill:url(#radial-gradient-123);}.cls-124{fill:url(#radial-gradient-124);}.cls-125{fill:url(#radial-gradient-125);}.cls-126{fill:url(#radial-gradient-126);}.cls-127{fill:url(#radial-gradient-127);}.cls-128{fill:url(#radial-gradient-128);}.cls-129,.cls-130{mix-blend-mode:screen;}.cls-129{fill:url(#radial-gradient-129);}.cls-130{fill:url(#radial-gradient-130);}</style><radialGradient id="radial-gradient" cx="206.44" cy="207.65" r="185.03" gradientUnits="userSpaceOnUse"><stop offset="0.71"/><stop offset="0.72" stop-color="#171717"/><stop offset="0.75" stop-color="#3e3e3e"/><stop offset="0.78" stop-color="#5f5f5f"/><stop offset="0.81" stop-color="#797979"/><stop offset="0.84" stop-color="#8e8e8e"/><stop offset="0.88" stop-color="#9d9d9d"/><stop offset="0.93" stop-color="#a5a5a5"/><stop offset="1" stop-color="#a8a8a8"/></radialGradient><radialGradient id="radial-gradient-2" cx="206.44" cy="207.65" r="185.03" xlink:href="#radial-gradient"/><radialGradient id="radial-gradient-3" cx="207.64" cy="208.25" r="162.6" gradientUnits="userSpaceOnUse"><stop offset="0.51"/><stop offset="0.56" stop-color="#252525"/><stop offset="0.63" stop-color="#4d4d4d"/><stop offset="0.7" stop-color="#6e6e6e"/><stop offset="0.77" stop-color="#878787"/><stop offset="0.84" stop-color="#9a9a9a"/><stop offset="0.91" stop-color="#a4a4a4"/><stop offset="1" stop-color="#a8a8a8"/></radialGradient><radialGradient id="radial-gradient-4" cx="206.44" cy="207.65" r="185.03" xlink:href="#radial-gradient"/><radialGradient id="radial-gradient-5" cx="207.64" cy="208.25" r="162.6" xlink:href="#radial-gradient-3"/><radialGradient id="radial-gradient-6" cx="206.04" cy="209.47" r="119.97" gradientUnits="userSpaceOnUse"><stop offset="0.32"/><stop offset="0.5" stop-color="#383838"/><stop offset="0.71" stop-color="#747474"/><stop offset="0.86" stop-color="#9a9a9a"/><stop offset="0.94" stop-color="#a8a8a8"/></radialGradient><radialGradient id="radial-gradient-7" cx="206.44" cy="207.65" r="185.03" xlink:href="#radial-gradient"/><radialGradient id="radial-gradient-8" cx="207.64" cy="208.25" r="162.6" xlink:href="#radial-gradient-3"/><radialGradient id="radial-gradient-9" cx="206.04" cy="209.45" r="119.97" xlink:href="#radial-gradient-6"/><radialGradient id="radial-gradient-10" cx="206.8" cy="208.09" r="66.07" gradientUnits="userSpaceOnUse"><stop offset="0.19"/><stop offset="0.62" stop-color="#606060"/><stop offset="0.94" stop-color="#a8a8a8"/></radialGradient><radialGradient id="radial-gradient-11" cx="206.44" cy="207.65" r="185.03" xlink:href="#radial-gradient"/><radialGradient id="radial-gradient-12" cx="207.64" cy="208.25" r="162.6" xlink:href="#radial-gradient-3"/><radialGradient id="radial-gradient-13" cx="206.04" cy="209.47" r="119.97" xlink:href="#radial-gradient-6"/><radialGradient id="radial-gradient-14" cx="206.8" cy="208.09" r="66.07" xlink:href="#radial-gradient-10"/><radialGradient id="radial-gradient-15" cx="206.44" cy="207.65" r="185.03" xlink:href="#radial-gradient"/><radialGradient id="radial-gradient-16" cx="207.64" cy="208.25" r="162.6" xlink:href="#radial-gradient-3"/><radialGradient id="radial-gradient-17" cx="206.04" cy="209.47" r="119.97" xlink:href="#radial-gradient-6"/><radialGradient id="radial-gradient-18" cx="206.8" cy="208.09" r="66.07" xlink:href="#radial-gradient-10"/><radialGradient id="radial-gradient-19" cx="206.44" cy="207.65" r="185.03" xlink:href="#radial-gradient"/><radialGradient id="radial-gradient-20" cx="207.64" cy="208.25" r="162.6" xlink:href="#radial-gradient-3"/><radialGradient id="radial-gradient-22" cx="206.8" cy="208.09" r="66.07" xlink:href="#radial-gradient-10"/><radialGradient id="radial-gradient-23" cx="206.44" cy="207.65" r="185.03" xlink:href="#radial-gradient"/><radialGradient id="radial-gradient-24" cx="207.64" cy="208.25" r="162.6" xlink:href="#radial-gradient-3"/><radialGradient id="radial-gradient-25" cx="206.04" cy="209.47" r="119.97" xlink:href="#radial-gradient-6"/><radialGradient id="radial-gradient-26" cx="206.8" cy="208.09" r="66.07" xlink:href="#radial-gradient-10"/><radialGradient id="radial-gradient-27" cx="207.64" cy="208.25" r="162.6" xlink:href="#radial-gradient-3"/><radialGradient id="radial-gradient-28" cx="206.04" cy="209.47" r="119.97" xlink:href="#radial-gradient-6"/><radialGradient id="radial-gradient-29" cx="206.8" cy="208.09" r="66.07" xlink:href="#radial-gradient-10"/><radialGradient id="radial-gradient-30" cx="206.04" cy="209.45" r="120.08" xlink:href="#radial-gradient-6"/><radialGradient id="radial-gradient-31" cx="206.8" cy="208.09" r="66.07" xlink:href="#radial-gradient-10"/><radialGradient id="radial-gradient-33" cx="161.16" cy="174.57" r="185.03" gradientTransform="translate(105.89 -7.44) rotate(17.52)" xlink:href="#radial-gradient"/><radialGradient id="radial-gradient-34" cx="161.16" cy="174.57" r="185.03" gradientTransform="translate(105.89 -7.44) rotate(17.52)" xlink:href="#radial-gradient"/><radialGradient id="radial-gradient-35" cx="162.36" cy="175.17" r="162.6" gradientTransform="translate(105.89 -7.44) rotate(17.52)" xlink:href="#radial-gradient-3"/><radialGradient id="radial-gradient-36" cx="161.15" cy="174.57" r="185.03" gradientTransform="translate(105.89 -7.44) rotate(17.52)" xlink:href="#radial-gradient"/><radialGradient id="radial-gradient-37" cx="162.35" cy="175.17" r="162.6" gradientTransform="translate(105.89 -7.44) rotate(17.52)" xlink:href="#radial-gradient-3"/><radialGradient id="radial-gradient-38" cx="160.75" cy="176.39" r="119.97" gradientTransform="translate(105.89 -7.44) rotate(17.52)" xlink:href="#radial-gradient-6"/><radialGradient id="radial-gradient-39" cx="161.15" cy="174.57" r="185.03" gradientTransform="translate(105.89 -7.44) rotate(17.52)" xlink:href="#radial-gradient"/><radialGradient id="radial-gradient-40" cx="162.35" cy="175.17" r="162.6" gradientTransform="translate(105.89 -7.44) rotate(17.52)" xlink:href="#radial-gradient-3"/><radialGradient id="radial-gradient-41" cx="160.75" cy="176.36" r="119.97" gradientTransform="translate(105.89 -7.44) rotate(17.52)" xlink:href="#radial-gradient-6"/><radialGradient id="radial-gradient-42" cx="161.52" cy="175" r="66.07" gradientTransform="translate(105.89 -7.44) rotate(17.52)" xlink:href="#radial-gradient-10"/><radialGradient id="radial-gradient-43" cx="161.15" cy="174.57" r="185.03" gradientTransform="translate(105.89 -7.44) rotate(17.52)" xlink:href="#radial-gradient"/><radialGradient id="radial-gradient-44" cx="162.35" cy="175.16" r="162.6" gradientTransform="translate(105.89 -7.44) rotate(17.52)" xlink:href="#radial-gradient-3"/><radialGradient id="radial-gradient-45" cx="160.75" cy="176.39" r="119.97" gradientTransform="translate(105.89 -7.44) rotate(17.52)" xlink:href="#radial-gradient-6"/><radialGradient id="radial-gradient-46" cx="161.52" cy="175" r="66.07" gradientTransform="translate(105.89 -7.44) rotate(17.52)" xlink:href="#radial-gradient-10"/><radialGradient id="radial-gradient-47" cx="161.15" cy="174.56" r="185.04" gradientTransform="translate(105.89 -7.44) rotate(17.52)" xlink:href="#radial-gradient"/><radialGradient id="radial-gradient-48" cx="162.35" cy="175.16" r="162.6" gradientTransform="translate(105.89 -7.44) rotate(17.52)" xlink:href="#radial-gradient-3"/><radialGradient id="radial-gradient-49" cx="160.75" cy="176.39" r="119.97" gradientTransform="translate(105.89 -7.44) rotate(17.52)" xlink:href="#radial-gradient-6"/><radialGradient id="radial-gradient-50" cx="161.52" cy="175" r="66.07" gradientTransform="translate(105.89 -7.44) rotate(17.52)" xlink:href="#radial-gradient-10"/><radialGradient id="radial-gradient-51" cx="161.15" cy="174.56" r="185.03" gradientTransform="translate(105.89 -7.44) rotate(17.52)" xlink:href="#radial-gradient"/><radialGradient id="radial-gradient-52" cx="162.35" cy="175.16" r="162.6" gradientTransform="translate(105.89 -7.44) rotate(17.52)" xlink:href="#radial-gradient-3"/><radialGradient id="radial-gradient-53" cx="160.75" cy="176.39" r="119.96" gradientTransform="translate(105.89 -7.44) rotate(17.52)" xlink:href="#radial-gradient-6"/><radialGradient id="radial-gradient-54" cx="161.52" cy="175" r="66.06" gradientTransform="translate(105.89 -7.44) rotate(17.52)" xlink:href="#radial-gradient-10"/><radialGradient id="radial-gradient-55" cx="161.16" cy="174.56" r="185.03" gradientTransform="translate(105.89 -7.44) rotate(17.52)" xlink:href="#radial-gradient"/><radialGradient id="radial-gradient-56" cx="162.36" cy="175.16" r="162.6" gradientTransform="translate(105.89 -7.44) rotate(17.52)" xlink:href="#radial-gradient-3"/><radialGradient id="radial-gradient-57" cx="160.75" cy="176.39" r="119.97" gradientTransform="translate(105.89 -7.44) rotate(17.52)" xlink:href="#radial-gradient-6"/><radialGradient id="radial-gradient-58" cx="161.52" cy="175" r="66.07" gradientTransform="translate(105.89 -7.44) rotate(17.52)" xlink:href="#radial-gradient-10"/><radialGradient id="radial-gradient-59" cx="162.35" cy="175.16" r="162.6" gradientTransform="translate(105.89 -7.44) rotate(17.52)" xlink:href="#radial-gradient-3"/><radialGradient id="radial-gradient-60" cx="160.75" cy="176.39" r="119.97" gradientTransform="translate(105.89 -7.44) rotate(17.52)" xlink:href="#radial-gradient-6"/><radialGradient id="radial-gradient-61" cx="161.52" cy="175" r="66.07" gradientTransform="translate(105.89 -7.44) rotate(17.52)" xlink:href="#radial-gradient-10"/><radialGradient id="radial-gradient-62" cx="160.75" cy="176.36" r="120.08" gradientTransform="translate(105.89 -7.44) rotate(17.52)" xlink:href="#radial-gradient-6"/><radialGradient id="radial-gradient-63" cx="161.52" cy="175" r="66.07" gradientTransform="translate(105.89 -7.44) rotate(17.52)" xlink:href="#radial-gradient-10"/><radialGradient id="radial-gradient-64" cx="161.52" cy="175" r="66.06" gradientTransform="translate(105.89 -7.44) rotate(17.52)" xlink:href="#radial-gradient-10"/><radialGradient id="radial-gradient-65" cx="206.35" cy="207.38" r="212.73" gradientUnits="userSpaceOnUse"><stop offset="0.71"/><stop offset="0.71" stop-color="#020303"/><stop offset="0.73" stop-color="#252b2f"/><stop offset="0.76" stop-color="#444e56"/><stop offset="0.79" stop-color="#5f6c77"/><stop offset="0.82" stop-color="#748591"/><stop offset="0.85" stop-color="#8497a6"/><stop offset="0.89" stop-color="#90a5b5"/><stop offset="0.93" stop-color="#97adbd"/><stop offset="1" stop-color="#99afc0"/></radialGradient><radialGradient id="radial-gradient-66" cx="206.35" cy="207.38" r="212.73" xlink:href="#radial-gradient"/><radialGradient id="radial-gradient-67" cx="207.73" cy="208.07" r="186.94" xlink:href="#radial-gradient-3"/><radialGradient id="radial-gradient-68" cx="206.35" cy="207.38" r="212.73" xlink:href="#radial-gradient-65"/><radialGradient id="radial-gradient-69" cx="207.73" cy="208.07" r="186.94" xlink:href="#radial-gradient-3"/><radialGradient id="radial-gradient-70" cx="205.89" cy="209.47" r="137.93" xlink:href="#radial-gradient-6"/><radialGradient id="radial-gradient-71" cx="206.35" cy="207.38" r="212.73" xlink:href="#radial-gradient-65"/><radialGradient id="radial-gradient-72" cx="207.73" cy="208.07" r="186.94" xlink:href="#radial-gradient-3"/><radialGradient id="radial-gradient-73" cx="205.89" cy="209.45" r="137.93" xlink:href="#radial-gradient-6"/><radialGradient id="radial-gradient-74" cx="206.76" cy="207.88" r="75.96" xlink:href="#radial-gradient-10"/><radialGradient id="radial-gradient-75" cx="206.35" cy="207.38" r="212.73" xlink:href="#radial-gradient-65"/><radialGradient id="radial-gradient-76" cx="207.73" cy="208.07" r="186.94" xlink:href="#radial-gradient-3"/><radialGradient id="radial-gradient-77" cx="205.89" cy="209.47" r="137.93" xlink:href="#radial-gradient-6"/><radialGradient id="radial-gradient-78" cx="206.76" cy="207.88" r="75.96" xlink:href="#radial-gradient-10"/><radialGradient id="radial-gradient-79" cx="206.35" cy="207.38" r="212.73" xlink:href="#radial-gradient-65"/><radialGradient id="radial-gradient-80" cx="207.73" cy="208.07" r="186.94" xlink:href="#radial-gradient-3"/><radialGradient id="radial-gradient-81" cx="205.89" cy="209.47" r="137.93" xlink:href="#radial-gradient-6"/><radialGradient id="radial-gradient-83" cx="206.35" cy="207.38" r="212.73" xlink:href="#radial-gradient-65"/><radialGradient id="radial-gradient-84" cx="207.73" cy="208.07" r="186.94" xlink:href="#radial-gradient-3"/><radialGradient id="radial-gradient-85" cx="205.89" cy="209.47" r="137.93" xlink:href="#radial-gradient-6"/><radialGradient id="radial-gradient-86" cx="206.76" cy="207.88" r="75.96" xlink:href="#radial-gradient-10"/><radialGradient id="radial-gradient-87" cx="206.35" cy="207.38" r="212.73" xlink:href="#radial-gradient-65"/><radialGradient id="radial-gradient-88" cx="207.73" cy="208.07" r="186.94" xlink:href="#radial-gradient-3"/><radialGradient id="radial-gradient-89" cx="205.89" cy="209.47" r="137.93" xlink:href="#radial-gradient-6"/><radialGradient id="radial-gradient-91" cx="207.73" cy="208.07" r="186.94" xlink:href="#radial-gradient-3"/><radialGradient id="radial-gradient-92" cx="205.89" cy="209.47" r="137.93" xlink:href="#radial-gradient-6"/><radialGradient id="radial-gradient-93" cx="206.76" cy="207.88" r="75.96" xlink:href="#radial-gradient-10"/><radialGradient id="radial-gradient-94" cx="205.89" cy="209.45" r="138.06" xlink:href="#radial-gradient-6"/><radialGradient id="radial-gradient-95" cx="206.76" cy="207.88" r="75.96" xlink:href="#radial-gradient-10"/><radialGradient id="radial-gradient-96" cx="206.76" cy="207.88" r="75.96" xlink:href="#radial-gradient-10"/><radialGradient id="radial-gradient-97" cx="161.07" cy="174.3" r="212.73" gradientTransform="translate(105.89 -7.44) rotate(17.52)" xlink:href="#radial-gradient"/><radialGradient id="radial-gradient-98" cx="161.07" cy="174.31" r="212.72" gradientTransform="translate(105.89 -7.44) rotate(17.52)" xlink:href="#radial-gradient"/><radialGradient id="radial-gradient-99" cx="162.45" cy="174.99" r="186.94" gradientTransform="translate(105.89 -7.44) rotate(17.52)" xlink:href="#radial-gradient-3"/><radialGradient id="radial-gradient-100" cx="161.06" cy="174.3" r="212.73" gradientTransform="translate(105.89 -7.44) rotate(17.52)" xlink:href="#radial-gradient"/><radialGradient id="radial-gradient-101" cx="162.44" cy="174.99" r="186.94" gradientTransform="translate(105.89 -7.44) rotate(17.52)" xlink:href="#radial-gradient-3"/><radialGradient id="radial-gradient-102" cx="160.6" cy="176.39" r="137.93" gradientTransform="translate(105.89 -7.44) rotate(17.52)" xlink:href="#radial-gradient-6"/><radialGradient id="radial-gradient-103" cx="161.06" cy="174.3" r="212.73" gradientTransform="translate(105.89 -7.44) rotate(17.52)" xlink:href="#radial-gradient"/><radialGradient id="radial-gradient-104" cx="162.44" cy="174.99" r="186.94" gradientTransform="translate(105.89 -7.44) rotate(17.52)" xlink:href="#radial-gradient-3"/><radialGradient id="radial-gradient-105" cx="160.6" cy="176.36" r="137.93" gradientTransform="translate(105.89 -7.44) rotate(17.52)" xlink:href="#radial-gradient-6"/><radialGradient id="radial-gradient-106" cx="161.48" cy="174.8" r="75.96" gradientTransform="translate(105.89 -7.44) rotate(17.52)" xlink:href="#radial-gradient-10"/><radialGradient id="radial-gradient-107" cx="161.06" cy="174.3" r="212.73" gradientTransform="translate(105.89 -7.44) rotate(17.52)" xlink:href="#radial-gradient"/><radialGradient id="radial-gradient-108" cx="162.44" cy="174.99" r="186.94" gradientTransform="translate(105.89 -7.44) rotate(17.52)" xlink:href="#radial-gradient-3"/><radialGradient id="radial-gradient-109" cx="160.6" cy="176.39" r="137.93" gradientTransform="translate(105.89 -7.44) rotate(17.52)" xlink:href="#radial-gradient-6"/><radialGradient id="radial-gradient-110" cx="161.48" cy="174.8" r="75.96" gradientTransform="translate(105.89 -7.44) rotate(17.52)" xlink:href="#radial-gradient-10"/><radialGradient id="radial-gradient-111" cx="161.06" cy="174.29" r="212.74" gradientTransform="translate(105.89 -7.44) rotate(17.52)" xlink:href="#radial-gradient"/><radialGradient id="radial-gradient-112" cx="162.44" cy="174.99" r="186.94" gradientTransform="translate(105.89 -7.44) rotate(17.52)" xlink:href="#radial-gradient-3"/><radialGradient id="radial-gradient-113" cx="160.6" cy="176.39" r="137.93" gradientTransform="translate(105.89 -7.44) rotate(17.52)" xlink:href="#radial-gradient-6"/><radialGradient id="radial-gradient-114" cx="161.48" cy="174.8" r="75.95" gradientTransform="translate(105.89 -7.44) rotate(17.52)" xlink:href="#radial-gradient-10"/><radialGradient id="radial-gradient-115" cx="161.07" cy="174.29" r="212.73" gradientTransform="translate(105.89 -7.44) rotate(17.52)" xlink:href="#radial-gradient"/><radialGradient id="radial-gradient-116" cx="162.44" cy="174.98" r="186.94" gradientTransform="translate(105.89 -7.44) rotate(17.52)" xlink:href="#radial-gradient-3"/><radialGradient id="radial-gradient-117" cx="160.6" cy="176.39" r="137.92" gradientTransform="translate(105.89 -7.44) rotate(17.52)" xlink:href="#radial-gradient-6"/><radialGradient id="radial-gradient-118" cx="161.48" cy="174.8" r="75.95" gradientTransform="translate(105.89 -7.44) rotate(17.52)" xlink:href="#radial-gradient-10"/><radialGradient id="radial-gradient-119" cx="161.07" cy="174.29" r="212.73" gradientTransform="translate(105.89 -7.44) rotate(17.52)" xlink:href="#radial-gradient"/><radialGradient id="radial-gradient-120" cx="162.45" cy="174.98" r="186.94" gradientTransform="translate(105.89 -7.44) rotate(17.52)" xlink:href="#radial-gradient-3"/><radialGradient id="radial-gradient-121" cx="160.61" cy="176.39" r="137.93" gradientTransform="translate(105.89 -7.44) rotate(17.52)" xlink:href="#radial-gradient-6"/><radialGradient id="radial-gradient-122" cx="161.48" cy="174.8" r="75.96" gradientTransform="translate(105.89 -7.44) rotate(17.52)" xlink:href="#radial-gradient-10"/><radialGradient id="radial-gradient-123" cx="162.44" cy="174.98" r="186.94" gradientTransform="translate(105.89 -7.44) rotate(17.52)" xlink:href="#radial-gradient-3"/><radialGradient id="radial-gradient-124" cx="160.6" cy="176.39" r="137.93" gradientTransform="translate(105.89 -7.44) rotate(17.52)" xlink:href="#radial-gradient-6"/><radialGradient id="radial-gradient-125" cx="161.48" cy="174.8" r="75.96" gradientTransform="translate(105.89 -7.44) rotate(17.52)" xlink:href="#radial-gradient-10"/><radialGradient id="radial-gradient-126" cx="160.6" cy="176.36" r="138.06" gradientTransform="translate(105.89 -7.44) rotate(17.52)" xlink:href="#radial-gradient-6"/><radialGradient id="radial-gradient-127" cx="161.48" cy="174.8" r="75.96" gradientTransform="translate(105.89 -7.44) rotate(17.52)" xlink:href="#radial-gradient-10"/><radialGradient id="radial-gradient-128" cx="161.48" cy="174.8" r="75.95" gradientTransform="translate(105.89 -7.44) rotate(17.52)" xlink:href="#radial-gradient-10"/><radialGradient id="radial-gradient-129" cx="200.77" cy="203.18" r="220.45" gradientTransform="translate(41.46 39.14) scale(0.79 0.79)" gradientUnits="userSpaceOnUse"><stop offset="0" stop-color="#d8bfdc"/><stop offset="0" stop-color="#d6b6df"/><stop offset="0.02" stop-color="#cb81f0"/><stop offset="0.03" stop-color="#c460fb"/><stop offset="0.03" stop-color="#c154ff"/><stop offset="0.07" stop-color="#b14dea"/><stop offset="0.15" stop-color="#8e3ebd"/><stop offset="0.21" stop-color="#7934a0"/><stop offset="0.25" stop-color="#713196"/><stop offset="0.35" stop-color="#582774"/><stop offset="0.49" stop-color="#3a1b4d"/><stop offset="0.63" stop-color="#23112d"/><stop offset="0.76" stop-color="#120a17"/><stop offset="0.89" stop-color="#08060a"/><stop offset="1" stop-color="#050505"/></radialGradient><radialGradient id="radial-gradient-130" cx="200.77" cy="203.18" r="220.45" gradientTransform="translate(41.51 39.09) scale(0.79 0.79)" xlink:href="#radial-gradient-129"/></defs><title>flower-of-life-clear</title><g class="cls-1"><g id="Flower_of_Life" data-name="Flower of Life"><circle id="background_-_010E36" data-name="background - 010E36" class="cls-2" cx="199.63" cy="199.65" r="174.15"/><g id="flower"><g class="cls-3"><path class="cls-4" d="M268.43,61.23a86.8,86.8,0,0,0-122.79,0A86.55,86.55,0,0,1,207,86.66,86.51,86.51,0,0,1,268.43,61.23Z" transform="translate(-7.39 -9.8)"/><path class="cls-5" d="M293.86,122.62a86.56,86.56,0,0,1,61.4,25.43,86.82,86.82,0,0,0-86.83-86.82A86.5,86.5,0,0,1,293.86,122.62Z" transform="translate(-7.39 -9.8)"/><path class="cls-6" d="M232.47,148.05a86.56,86.56,0,0,1,61.39-25.43,86.5,86.5,0,0,0-25.43-61.39A86.51,86.51,0,0,0,207,86.66,86.55,86.55,0,0,1,232.47,148.05Z" transform="translate(-7.39 -9.8)"/><path class="cls-7" d="M355.26,148.05a86.59,86.59,0,0,1-25.43,61.4,86.55,86.55,0,0,1,25.43,61.39,86.83,86.83,0,0,0,0-122.79Z" transform="translate(-7.39 -9.8)"/><path class="cls-8" d="M268.43,184a86.55,86.55,0,0,1,61.4,25.43,86.59,86.59,0,0,0,25.43-61.4,86.56,86.56,0,0,0-61.4-25.43A86.54,86.54,0,0,1,268.43,184Z" transform="translate(-7.39 -9.8)"/><path class="cls-9" d="M207,209.45A86.51,86.51,0,0,1,268.43,184a86.54,86.54,0,0,0,25.43-61.4,86.56,86.56,0,0,0-61.39,25.43A86.59,86.59,0,0,1,207,209.45Z" transform="translate(-7.39 -9.8)"/><path class="cls-10" d="M268.43,357.67a86.82,86.82,0,0,0,86.83-86.83,86.56,86.56,0,0,1-61.4,25.43A86.52,86.52,0,0,1,268.43,357.67Z" transform="translate(-7.39 -9.8)"/><path class="cls-11" d="M268.43,234.88a86.52,86.52,0,0,1,25.43,61.39,86.56,86.56,0,0,0,61.4-25.43,86.55,86.55,0,0,0-25.43-61.39A86.59,86.59,0,0,1,268.43,234.88Z" transform="translate(-7.39 -9.8)"/><path class="cls-12" d="M207,209.45a86.56,86.56,0,0,1,61.39,25.43,86.59,86.59,0,0,0,61.4-25.43A86.55,86.55,0,0,0,268.43,184,86.56,86.56,0,0,1,207,209.45Z" transform="translate(-7.39 -9.8)"/><path class="cls-13" d="M268.43,184A86.51,86.51,0,0,0,207,209.45,86.56,86.56,0,0,0,268.43,184Z" transform="translate(-7.39 -9.8)"/><path class="cls-14" d="M145.64,357.67a86.83,86.83,0,0,0,122.79,0A86.55,86.55,0,0,1,207,332.24,86.59,86.59,0,0,1,145.64,357.67Z" transform="translate(-7.39 -9.8)"/><path class="cls-15" d="M232.47,270.84A86.59,86.59,0,0,1,207,332.24a86.55,86.55,0,0,0,61.39,25.43,86.52,86.52,0,0,0,25.43-61.4A86.56,86.56,0,0,1,232.47,270.84Z" transform="translate(-7.39 -9.8)"/><path class="cls-16" d="M232.47,270.84a86.56,86.56,0,0,0,61.39,25.43,86.52,86.52,0,0,0-25.43-61.39A86.55,86.55,0,0,1,207,209.45,86.55,86.55,0,0,1,232.47,270.84Z" transform="translate(-7.39 -9.8)"/><path class="cls-17" d="M268.43,234.88A86.56,86.56,0,0,0,207,209.45,86.55,86.55,0,0,0,268.43,234.88Z" transform="translate(-7.39 -9.8)"/><path class="cls-18" d="M58.82,270.84a86.82,86.82,0,0,0,86.82,86.83,86.56,86.56,0,0,1-25.43-61.4A86.56,86.56,0,0,1,58.82,270.84Z" transform="translate(-7.39 -9.8)"/><path class="cls-19" d="M207,332.24a86.55,86.55,0,0,1-25.43-61.4,86.58,86.58,0,0,1-61.4,25.43,86.56,86.56,0,0,0,25.43,61.4A86.59,86.59,0,0,0,207,332.24Z" transform="translate(-7.39 -9.8)"/><path class="cls-20" d="M207,209.45a86.56,86.56,0,0,1-25.43,61.39A86.55,86.55,0,0,0,207,332.24a86.59,86.59,0,0,0,25.43-61.4A86.56,86.56,0,0,1,207,209.45Z" transform="translate(-7.39 -9.8)"/><path class="cls-21" d="M207,209.45a86.56,86.56,0,0,0,25.43,61.39A86.55,86.55,0,0,0,207,209.45Z" transform="translate(-7.39 -9.8)"/><path class="cls-22" d="M58.82,148.05a86.83,86.83,0,0,0,0,122.79,86.51,86.51,0,0,1,25.43-61.39A86.55,86.55,0,0,1,58.82,148.05Z" transform="translate(-7.39 -9.8)"/><path class="cls-23" d="M145.64,234.88a86.55,86.55,0,0,1-61.39-25.43,86.51,86.51,0,0,0-25.43,61.39,86.56,86.56,0,0,0,61.39,25.43A86.56,86.56,0,0,1,145.64,234.88Z" transform="translate(-7.39 -9.8)"/><path class="cls-9" d="M145.64,234.88a86.56,86.56,0,0,0-25.43,61.39,86.58,86.58,0,0,0,61.4-25.43A86.51,86.51,0,0,1,207,209.45,86.59,86.59,0,0,1,145.64,234.88Z" transform="translate(-7.39 -9.8)"/><path class="cls-24" d="M181.61,270.84A86.56,86.56,0,0,0,207,209.45,86.51,86.51,0,0,0,181.61,270.84Z" transform="translate(-7.39 -9.8)"/><path class="cls-25" d="M145.64,61.23a86.82,86.82,0,0,0-86.82,86.82,86.56,86.56,0,0,1,61.39-25.43A86.54,86.54,0,0,1,145.64,61.23Z" transform="translate(-7.39 -9.8)"/><path class="cls-26" d="M120.21,122.62a86.58,86.58,0,0,1,61.4,25.43A86.51,86.51,0,0,1,207,86.66a86.55,86.55,0,0,0-61.4-25.43A86.54,86.54,0,0,0,120.21,122.62Z" transform="translate(-7.39 -9.8)"/><path class="cls-27" d="M232.47,148.05A86.55,86.55,0,0,0,207,86.66a86.51,86.51,0,0,0-25.43,61.39A86.56,86.56,0,0,1,207,209.45,86.56,86.56,0,0,1,232.47,148.05Z" transform="translate(-7.39 -9.8)"/><path class="cls-28" d="M207,209.45a86.59,86.59,0,0,0,25.43-61.4A86.56,86.56,0,0,0,207,209.45Z" transform="translate(-7.39 -9.8)"/><path class="cls-29" d="M145.64,184a86.58,86.58,0,0,1-25.43-61.4,86.56,86.56,0,0,0-61.39,25.43,86.55,86.55,0,0,0,25.43,61.4A86.51,86.51,0,0,1,145.64,184Z" transform="translate(-7.39 -9.8)"/><path class="cls-30" d="M207,209.45a86.55,86.55,0,0,1-25.43-61.4,86.58,86.58,0,0,0-61.4-25.43A86.58,86.58,0,0,0,145.64,184,86.55,86.55,0,0,1,207,209.45Z" transform="translate(-7.39 -9.8)"/><path class="cls-31" d="M181.61,148.05A86.55,86.55,0,0,0,207,209.45,86.56,86.56,0,0,0,181.61,148.05Z" transform="translate(-7.39 -9.8)"/><path class="cls-32" d="M145.64,184a86.51,86.51,0,0,0-61.39,25.43,86.55,86.55,0,0,0,61.39,25.43A86.56,86.56,0,0,1,207,209.45,86.56,86.56,0,0,1,145.64,184Z" transform="translate(-7.39 -9.8)"/><path class="cls-33" d="M145.64,184A86.56,86.56,0,0,0,207,209.45,86.55,86.55,0,0,0,145.64,184Z" transform="translate(-7.39 -9.8)"/><path class="cls-13" d="M207,209.45a86.56,86.56,0,0,0-61.4,25.43A86.59,86.59,0,0,0,207,209.45Z" transform="translate(-7.39 -9.8)"/></g><g class="cls-3"><path class="cls-34" d="M310.22,86.59a86.81,86.81,0,0,0-117.09-37A86.5,86.5,0,0,1,244,92.36,86.54,86.54,0,0,1,310.22,86.59Z" transform="translate(-7.39 -9.8)"/><path class="cls-35" d="M316,152.8a86.55,86.55,0,0,1,50.89,42.74A86.83,86.83,0,0,0,310.22,86.59,86.58,86.58,0,0,1,316,152.8Z" transform="translate(-7.39 -9.8)"/><path class="cls-36" d="M249.78,158.56A86.55,86.55,0,0,1,316,152.8a86.58,86.58,0,0,0-5.76-66.21A86.54,86.54,0,0,0,244,92.36,86.52,86.52,0,0,1,249.78,158.56Z" transform="translate(-7.39 -9.8)"/><path class="cls-37" d="M366.87,195.54a86.57,86.57,0,0,1-42.74,50.88,86.59,86.59,0,0,1,5.76,66.21,86.83,86.83,0,0,0,37-117.09Z" transform="translate(-7.39 -9.8)"/><path class="cls-38" d="M273.24,203.68a86.59,86.59,0,0,1,50.89,42.74,86.57,86.57,0,0,0,42.74-50.88A86.55,86.55,0,0,0,316,152.8,86.53,86.53,0,0,1,273.24,203.68Z" transform="translate(-7.39 -9.8)"/><path class="cls-39" d="M207,209.45a86.56,86.56,0,0,1,66.2-5.77A86.53,86.53,0,0,0,316,152.8a86.55,86.55,0,0,0-66.2,5.76A86.56,86.56,0,0,1,207,209.45Z" transform="translate(-7.39 -9.8)"/><path class="cls-40" d="M221,369.28a86.84,86.84,0,0,0,108.94-56.65,86.55,86.55,0,0,1-66.2,5.76A86.58,86.58,0,0,1,221,369.28Z" transform="translate(-7.39 -9.8)"/><path class="cls-41" d="M257.93,252.19a86.55,86.55,0,0,1,5.76,66.2,86.55,86.55,0,0,0,66.2-5.76,86.59,86.59,0,0,0-5.76-66.21A86.56,86.56,0,0,1,257.93,252.19Z" transform="translate(-7.39 -9.8)"/><path class="cls-42" d="M207,209.45a86.58,86.58,0,0,1,50.89,42.74,86.56,86.56,0,0,0,66.2-5.77,86.59,86.59,0,0,0-50.89-42.74A86.51,86.51,0,0,1,207,209.45Z" transform="translate(-7.39 -9.8)"/><path class="cls-43" d="M273.24,203.68a86.56,86.56,0,0,0-66.2,5.77A86.51,86.51,0,0,0,273.24,203.68Z" transform="translate(-7.39 -9.8)"/><path class="cls-44" d="M103.86,332.3a86.83,86.83,0,0,0,117.09,37,86.56,86.56,0,0,1-50.89-42.74A86.56,86.56,0,0,1,103.86,332.3Z" transform="translate(-7.39 -9.8)"/><path class="cls-45" d="M212.8,275.65a86.56,86.56,0,0,1-42.74,50.89A86.56,86.56,0,0,0,221,369.28a86.58,86.58,0,0,0,42.74-50.89A86.52,86.52,0,0,1,212.8,275.65Z" transform="translate(-7.39 -9.8)"/><path class="cls-46" d="M212.8,275.65a86.52,86.52,0,0,0,50.89,42.74,86.55,86.55,0,0,0-5.76-66.2A86.59,86.59,0,0,1,207,209.45,86.56,86.56,0,0,1,212.8,275.65Z" transform="translate(-7.39 -9.8)"/><path class="cls-47" d="M257.93,252.19A86.58,86.58,0,0,0,207,209.45,86.59,86.59,0,0,0,257.93,252.19Z" transform="translate(-7.39 -9.8)"/><path class="cls-48" d="M47.21,223.36A86.82,86.82,0,0,0,103.86,332.3a86.55,86.55,0,0,1-5.76-66.2A86.55,86.55,0,0,1,47.21,223.36Z" transform="translate(-7.39 -9.8)"/><path class="cls-49" d="M170.06,326.54a86.58,86.58,0,0,1-5.76-66.21,86.51,86.51,0,0,1-66.2,5.77,86.55,86.55,0,0,0,5.76,66.2A86.56,86.56,0,0,0,170.06,326.54Z" transform="translate(-7.39 -9.8)"/><path class="cls-50" d="M207,209.45a86.56,86.56,0,0,1-42.74,50.88,86.58,86.58,0,0,0,5.76,66.21,86.56,86.56,0,0,0,42.74-50.89A86.55,86.55,0,0,1,207,209.45Z" transform="translate(-7.39 -9.8)"/><path class="cls-51" d="M207,209.45a86.55,86.55,0,0,0,5.76,66.2A86.56,86.56,0,0,0,207,209.45Z" transform="translate(-7.39 -9.8)"/><path class="cls-52" d="M84.18,106.27a86.83,86.83,0,0,0-37,117.09A86.52,86.52,0,0,1,90,172.47,86.52,86.52,0,0,1,84.18,106.27Z" transform="translate(-7.39 -9.8)"/><path class="cls-53" d="M140.83,215.21A86.54,86.54,0,0,1,90,172.47a86.52,86.52,0,0,0-42.74,50.89A86.55,86.55,0,0,0,98.1,266.1,86.54,86.54,0,0,1,140.83,215.21Z" transform="translate(-7.39 -9.8)"/><path class="cls-54" d="M140.83,215.21A86.54,86.54,0,0,0,98.1,266.1a86.51,86.51,0,0,0,66.2-5.77A86.57,86.57,0,0,1,207,209.45,86.58,86.58,0,0,1,140.83,215.21Z" transform="translate(-7.39 -9.8)"/><path class="cls-55" d="M164.3,260.33A86.56,86.56,0,0,0,207,209.45,86.57,86.57,0,0,0,164.3,260.33Z" transform="translate(-7.39 -9.8)"/><path class="cls-56" d="M193.13,49.62A86.83,86.83,0,0,0,84.18,106.27a86.58,86.58,0,0,1,66.21-5.77A86.53,86.53,0,0,1,193.13,49.62Z" transform="translate(-7.39 -9.8)"/><path class="cls-57" d="M150.39,100.5a86.61,86.61,0,0,1,50.89,42.74A86.52,86.52,0,0,1,244,92.36a86.5,86.5,0,0,0-50.88-42.74A86.53,86.53,0,0,0,150.39,100.5Z" transform="translate(-7.39 -9.8)"/><path class="cls-58" d="M249.78,158.56A86.52,86.52,0,0,0,244,92.36a86.52,86.52,0,0,0-42.73,50.88A86.58,86.58,0,0,1,207,209.45,86.52,86.52,0,0,1,249.78,158.56Z" transform="translate(-7.39 -9.8)"/><path class="cls-59" d="M207,209.45a86.56,86.56,0,0,0,42.74-50.89A86.52,86.52,0,0,0,207,209.45Z" transform="translate(-7.39 -9.8)"/><path class="cls-60" d="M156.15,166.71a86.58,86.58,0,0,1-5.76-66.21,86.58,86.58,0,0,0-66.21,5.77A86.52,86.52,0,0,0,90,172.47,86.56,86.56,0,0,1,156.15,166.71Z" transform="translate(-7.39 -9.8)"/><path class="cls-61" d="M207,209.45a86.54,86.54,0,0,1-5.76-66.21,86.61,86.61,0,0,0-50.89-42.74,86.58,86.58,0,0,0,5.76,66.21A86.52,86.52,0,0,1,207,209.45Z" transform="translate(-7.39 -9.8)"/><path class="cls-62" d="M201.28,143.24A86.54,86.54,0,0,0,207,209.45,86.58,86.58,0,0,0,201.28,143.24Z" transform="translate(-7.39 -9.8)"/><path class="cls-63" d="M156.15,166.71A86.56,86.56,0,0,0,90,172.47a86.54,86.54,0,0,0,50.88,42.74A86.58,86.58,0,0,1,207,209.45,86.55,86.55,0,0,1,156.15,166.71Z" transform="translate(-7.39 -9.8)"/><path class="cls-64" d="M156.15,166.71A86.55,86.55,0,0,0,207,209.45,86.52,86.52,0,0,0,156.15,166.71Z" transform="translate(-7.39 -9.8)"/><path class="cls-65" d="M207,209.45a86.58,86.58,0,0,0-66.21,5.76A86.58,86.58,0,0,0,207,209.45Z" transform="translate(-7.39 -9.8)"/></g><g class="cls-66"><path class="cls-67" d="M277.62,39a99.82,99.82,0,0,0-141.17,0A99.48,99.48,0,0,1,207,68.28,99.47,99.47,0,0,1,277.62,39Z" transform="translate(-7.39 -9.8)"/><path class="cls-68" d="M306.86,109.62a99.54,99.54,0,0,1,70.59,29.24A99.83,99.83,0,0,0,277.62,39,99.48,99.48,0,0,1,306.86,109.62Z" transform="translate(-7.39 -9.8)"/><path class="cls-69" d="M236.28,138.86a99.52,99.52,0,0,1,70.58-29.24A99.48,99.48,0,0,0,277.62,39,99.47,99.47,0,0,0,207,68.28,99.5,99.5,0,0,1,236.28,138.86Z" transform="translate(-7.39 -9.8)"/><path class="cls-70" d="M377.45,138.86a99.52,99.52,0,0,1-29.24,70.59A99.52,99.52,0,0,1,377.45,280a99.84,99.84,0,0,0,0-141.17Z" transform="translate(-7.39 -9.8)"/><path class="cls-71" d="M277.62,180.21a99.52,99.52,0,0,1,70.59,29.24,99.52,99.52,0,0,0,29.24-70.59,99.54,99.54,0,0,0-70.59-29.24A99.5,99.5,0,0,1,277.62,180.21Z" transform="translate(-7.39 -9.8)"/><path class="cls-72" d="M207,209.45a99.52,99.52,0,0,1,70.58-29.24,99.5,99.5,0,0,0,29.24-70.59,99.52,99.52,0,0,0-70.58,29.24A99.52,99.52,0,0,1,207,209.45Z" transform="translate(-7.39 -9.8)"/><path class="cls-73" d="M277.62,379.86A99.83,99.83,0,0,0,377.45,280a99.5,99.5,0,0,1-70.59,29.24A99.5,99.5,0,0,1,277.62,379.86Z" transform="translate(-7.39 -9.8)"/><path class="cls-74" d="M277.62,238.68a99.5,99.5,0,0,1,29.24,70.59A99.5,99.5,0,0,0,377.45,280a99.52,99.52,0,0,0-29.24-70.58A99.51,99.51,0,0,1,277.62,238.68Z" transform="translate(-7.39 -9.8)"/><path class="cls-75" d="M207,209.45a99.51,99.51,0,0,1,70.58,29.23,99.51,99.51,0,0,0,70.59-29.23,99.52,99.52,0,0,0-70.59-29.24A99.52,99.52,0,0,1,207,209.45Z" transform="translate(-7.39 -9.8)"/><path class="cls-76" d="M277.62,180.21A99.52,99.52,0,0,0,207,209.45,99.52,99.52,0,0,0,277.62,180.21Z" transform="translate(-7.39 -9.8)"/><path class="cls-77" d="M136.45,379.86a99.84,99.84,0,0,0,141.17,0A99.52,99.52,0,0,1,207,350.62,99.52,99.52,0,0,1,136.45,379.86Z" transform="translate(-7.39 -9.8)"/><path class="cls-78" d="M236.28,280A99.52,99.52,0,0,1,207,350.62a99.52,99.52,0,0,0,70.58,29.24,99.5,99.5,0,0,0,29.24-70.59A99.48,99.48,0,0,1,236.28,280Z" transform="translate(-7.39 -9.8)"/><path class="cls-79" d="M236.28,280a99.48,99.48,0,0,0,70.58,29.24,99.5,99.5,0,0,0-29.24-70.59A99.51,99.51,0,0,1,207,209.45,99.52,99.52,0,0,1,236.28,280Z" transform="translate(-7.39 -9.8)"/><path class="cls-80" d="M277.62,238.68A99.51,99.51,0,0,0,207,209.45,99.51,99.51,0,0,0,277.62,238.68Z" transform="translate(-7.39 -9.8)"/><path class="cls-81" d="M36.63,280a99.83,99.83,0,0,0,99.82,99.83,99.54,99.54,0,0,1-29.24-70.59A99.48,99.48,0,0,1,36.63,280Z" transform="translate(-7.39 -9.8)"/><path class="cls-82" d="M207,350.62A99.52,99.52,0,0,1,177.8,280a99.48,99.48,0,0,1-70.59,29.24,99.54,99.54,0,0,0,29.24,70.59A99.52,99.52,0,0,0,207,350.62Z" transform="translate(-7.39 -9.8)"/><path class="cls-83" d="M207,209.45A99.52,99.52,0,0,1,177.8,280,99.52,99.52,0,0,0,207,350.62,99.52,99.52,0,0,0,236.28,280,99.48,99.48,0,0,1,207,209.45Z" transform="translate(-7.39 -9.8)"/><path class="cls-76" d="M207,209.45A99.48,99.48,0,0,0,236.28,280,99.52,99.52,0,0,0,207,209.45Z" transform="translate(-7.39 -9.8)"/><path class="cls-84" d="M36.63,138.86a99.82,99.82,0,0,0,0,141.17,99.47,99.47,0,0,1,29.24-70.58A99.48,99.48,0,0,1,36.63,138.86Z" transform="translate(-7.39 -9.8)"/><path class="cls-85" d="M136.45,238.68a99.51,99.51,0,0,1-70.58-29.23A99.47,99.47,0,0,0,36.63,280a99.48,99.48,0,0,0,70.58,29.24A99.54,99.54,0,0,1,136.45,238.68Z" transform="translate(-7.39 -9.8)"/><path class="cls-86" d="M136.45,238.68a99.54,99.54,0,0,0-29.24,70.59A99.48,99.48,0,0,0,177.8,280,99.52,99.52,0,0,1,207,209.45,99.51,99.51,0,0,1,136.45,238.68Z" transform="translate(-7.39 -9.8)"/><path class="cls-87" d="M177.8,280A99.52,99.52,0,0,0,207,209.45,99.52,99.52,0,0,0,177.8,280Z" transform="translate(-7.39 -9.8)"/><path class="cls-88" d="M136.45,39a99.83,99.83,0,0,0-99.82,99.82,99.52,99.52,0,0,1,70.58-29.24A99.52,99.52,0,0,1,136.45,39Z" transform="translate(-7.39 -9.8)"/><path class="cls-89" d="M107.21,109.62a99.53,99.53,0,0,1,70.59,29.24A99.5,99.5,0,0,1,207,68.28,99.48,99.48,0,0,0,136.45,39,99.52,99.52,0,0,0,107.21,109.62Z" transform="translate(-7.39 -9.8)"/><path class="cls-90" d="M236.28,138.86A99.5,99.5,0,0,0,207,68.28a99.5,99.5,0,0,0-29.24,70.58A99.54,99.54,0,0,1,207,209.45,99.5,99.5,0,0,1,236.28,138.86Z" transform="translate(-7.39 -9.8)"/><path class="cls-87" d="M207,209.45a99.52,99.52,0,0,0,29.24-70.59A99.5,99.5,0,0,0,207,209.45Z" transform="translate(-7.39 -9.8)"/><path class="cls-91" d="M136.45,180.21a99.54,99.54,0,0,1-29.24-70.59,99.52,99.52,0,0,0-70.58,29.24,99.48,99.48,0,0,0,29.24,70.59A99.52,99.52,0,0,1,136.45,180.21Z" transform="translate(-7.39 -9.8)"/><path class="cls-92" d="M207,209.45a99.52,99.52,0,0,1-29.24-70.59,99.53,99.53,0,0,0-70.59-29.24,99.54,99.54,0,0,0,29.24,70.59A99.52,99.52,0,0,1,207,209.45Z" transform="translate(-7.39 -9.8)"/><path class="cls-93" d="M177.8,138.86A99.52,99.52,0,0,0,207,209.45,99.54,99.54,0,0,0,177.8,138.86Z" transform="translate(-7.39 -9.8)"/><path class="cls-94" d="M136.45,180.21a99.52,99.52,0,0,0-70.58,29.24,99.51,99.51,0,0,0,70.58,29.23A99.53,99.53,0,0,1,207,209.45,99.54,99.54,0,0,1,136.45,180.21Z" transform="translate(-7.39 -9.8)"/><path class="cls-95" d="M136.45,180.21A99.54,99.54,0,0,0,207,209.45,99.52,99.52,0,0,0,136.45,180.21Z" transform="translate(-7.39 -9.8)"/><path class="cls-96" d="M207,209.45a99.53,99.53,0,0,0-70.59,29.23A99.51,99.51,0,0,0,207,209.45Z" transform="translate(-7.39 -9.8)"/></g><g class="cls-66"><path class="cls-97" d="M325.66,68.2A99.83,99.83,0,0,0,191,25.69a99.55,99.55,0,0,1,58.51,49.14A99.51,99.51,0,0,1,325.66,68.2Z" transform="translate(-7.39 -9.8)"/><path class="cls-98" d="M332.29,144.32a99.51,99.51,0,0,1,58.5,49.13A99.82,99.82,0,0,0,325.66,68.2,99.51,99.51,0,0,1,332.29,144.32Z" transform="translate(-7.39 -9.8)"/><path class="cls-99" d="M256.17,150.94a99.56,99.56,0,0,1,76.12-6.62,99.51,99.51,0,0,0-6.63-76.12,99.51,99.51,0,0,0-76.11,6.63A99.46,99.46,0,0,1,256.17,150.94Z" transform="translate(-7.39 -9.8)"/><path class="cls-100" d="M390.79,193.45A99.53,99.53,0,0,1,341.66,252a99.55,99.55,0,0,1,6.62,76.11,99.81,99.81,0,0,0,42.51-134.62Z" transform="translate(-7.39 -9.8)"/><path class="cls-101" d="M283.15,202.82A99.52,99.52,0,0,1,341.66,252a99.53,99.53,0,0,0,49.13-58.51,99.51,99.51,0,0,0-58.5-49.13A99.49,99.49,0,0,1,283.15,202.82Z" transform="translate(-7.39 -9.8)"/><path class="cls-102" d="M207,209.45a99.5,99.5,0,0,1,76.11-6.63,99.49,99.49,0,0,0,49.14-58.5,99.56,99.56,0,0,0-76.12,6.62A99.53,99.53,0,0,1,207,209.45Z" transform="translate(-7.39 -9.8)"/><path class="cls-103" d="M223,393.2a99.81,99.81,0,0,0,125.25-65.13,99.49,99.49,0,0,1-76.11,6.63A99.49,99.49,0,0,1,223,393.2Z" transform="translate(-7.39 -9.8)"/><path class="cls-104" d="M265.54,258.58a99.51,99.51,0,0,1,6.63,76.12,99.49,99.49,0,0,0,76.11-6.63A99.55,99.55,0,0,0,341.66,252,99.48,99.48,0,0,1,265.54,258.58Z" transform="translate(-7.39 -9.8)"/><path class="cls-105" d="M207,209.45a99.51,99.51,0,0,1,58.5,49.13A99.48,99.48,0,0,0,341.66,252a99.52,99.52,0,0,0-58.51-49.14A99.49,99.49,0,0,1,207,209.45Z" transform="translate(-7.39 -9.8)"/><path class="cls-106" d="M283.15,202.82A99.5,99.5,0,0,0,207,209.45,99.49,99.49,0,0,0,283.15,202.82Z" transform="translate(-7.39 -9.8)"/><path class="cls-107" d="M88.41,350.69A99.82,99.82,0,0,0,223,393.2a99.49,99.49,0,0,1-58.5-49.13A99.57,99.57,0,0,1,88.41,350.69Z" transform="translate(-7.39 -9.8)"/><path class="cls-108" d="M213.66,285.56a99.53,99.53,0,0,1-49.13,58.51A99.49,99.49,0,0,0,223,393.2a99.49,99.49,0,0,0,49.14-58.5A99.51,99.51,0,0,1,213.66,285.56Z" transform="translate(-7.39 -9.8)"/><path class="cls-109" d="M213.66,285.56a99.51,99.51,0,0,0,58.51,49.14,99.51,99.51,0,0,0-6.63-76.12A99.51,99.51,0,0,1,207,209.45,99.46,99.46,0,0,1,213.66,285.56Z" transform="translate(-7.39 -9.8)"/><path class="cls-110" d="M265.54,258.58A99.51,99.51,0,0,0,207,209.45,99.51,99.51,0,0,0,265.54,258.58Z" transform="translate(-7.39 -9.8)"/><path class="cls-111" d="M23.28,225.44A99.84,99.84,0,0,0,88.41,350.69a99.53,99.53,0,0,1-6.62-76.11A99.51,99.51,0,0,1,23.28,225.44Z" transform="translate(-7.39 -9.8)"/><path class="cls-112" d="M164.53,344.07A99.53,99.53,0,0,1,157.9,268a99.49,99.49,0,0,1-76.11,6.63,99.53,99.53,0,0,0,6.62,76.11A99.57,99.57,0,0,0,164.53,344.07Z" transform="translate(-7.39 -9.8)"/><path class="cls-113" d="M207,209.45A99.49,99.49,0,0,1,157.9,268a99.53,99.53,0,0,0,6.63,76.12,99.53,99.53,0,0,0,49.13-58.51A99.54,99.54,0,0,1,207,209.45Z" transform="translate(-7.39 -9.8)"/><path class="cls-114" d="M207,209.45a99.54,99.54,0,0,0,6.62,76.11A99.46,99.46,0,0,0,207,209.45Z" transform="translate(-7.39 -9.8)"/><path class="cls-115" d="M65.79,90.82A99.84,99.84,0,0,0,23.28,225.44a99.5,99.5,0,0,1,49.14-58.5A99.53,99.53,0,0,1,65.79,90.82Z" transform="translate(-7.39 -9.8)"/><path class="cls-116" d="M130.92,216.07a99.51,99.51,0,0,1-58.5-49.13,99.5,99.5,0,0,0-49.14,58.5,99.51,99.51,0,0,0,58.51,49.14A99.53,99.53,0,0,1,130.92,216.07Z" transform="translate(-7.39 -9.8)"/><path class="cls-117" d="M130.92,216.07a99.53,99.53,0,0,0-49.13,58.51A99.49,99.49,0,0,0,157.9,268,99.47,99.47,0,0,1,207,209.45,99.57,99.57,0,0,1,130.92,216.07Z" transform="translate(-7.39 -9.8)"/><path class="cls-118" d="M157.9,268A99.49,99.49,0,0,0,207,209.45,99.47,99.47,0,0,0,157.9,268Z" transform="translate(-7.39 -9.8)"/><path class="cls-119" d="M191,25.69A99.84,99.84,0,0,0,65.79,90.82a99.56,99.56,0,0,1,76.12-6.62A99.53,99.53,0,0,1,191,25.69Z" transform="translate(-7.39 -9.8)"/><path class="cls-120" d="M141.91,84.2a99.51,99.51,0,0,1,58.5,49.13,99.53,99.53,0,0,1,49.14-58.5A99.55,99.55,0,0,0,191,25.69,99.53,99.53,0,0,0,141.91,84.2Z" transform="translate(-7.39 -9.8)"/><path class="cls-121" d="M256.17,150.94a99.46,99.46,0,0,0-6.62-76.11,99.53,99.53,0,0,0-49.14,58.5A99.51,99.51,0,0,1,207,209.45,99.53,99.53,0,0,1,256.17,150.94Z" transform="translate(-7.39 -9.8)"/><path class="cls-122" d="M207,209.45a99.53,99.53,0,0,0,49.13-58.51A99.53,99.53,0,0,0,207,209.45Z" transform="translate(-7.39 -9.8)"/><path class="cls-123" d="M148.53,160.31a99.53,99.53,0,0,1-6.62-76.11,99.56,99.56,0,0,0-76.12,6.62,99.53,99.53,0,0,0,6.63,76.12A99.51,99.51,0,0,1,148.53,160.31Z" transform="translate(-7.39 -9.8)"/><path class="cls-124" d="M207,209.45a99.53,99.53,0,0,1-6.63-76.12,99.51,99.51,0,0,0-58.5-49.13,99.53,99.53,0,0,0,6.62,76.11A99.52,99.52,0,0,1,207,209.45Z" transform="translate(-7.39 -9.8)"/><path class="cls-125" d="M200.41,133.33A99.53,99.53,0,0,0,207,209.45,99.51,99.51,0,0,0,200.41,133.33Z" transform="translate(-7.39 -9.8)"/><path class="cls-126" d="M148.53,160.31a99.51,99.51,0,0,0-76.11,6.63,99.51,99.51,0,0,0,58.5,49.13A99.56,99.56,0,0,1,207,209.45,99.51,99.51,0,0,1,148.53,160.31Z" transform="translate(-7.39 -9.8)"/><path class="cls-127" d="M148.53,160.31A99.51,99.51,0,0,0,207,209.45,99.52,99.52,0,0,0,148.53,160.31Z" transform="translate(-7.39 -9.8)"/><path class="cls-128" d="M207,209.45a99.56,99.56,0,0,0-76.12,6.62A99.57,99.57,0,0,0,207,209.45Z" transform="translate(-7.39 -9.8)"/></g></g><g id="gradient"><ellipse class="cls-129" cx="199.83" cy="199.63" rx="173.89" ry="174.13"/><ellipse class="cls-130" cx="199.86" cy="199.14" rx="173.86" ry="173.66"/></g><path class="cls-2" d="M133.88,51.36" transform="translate(-7.39 -9.8)"/></g></g></svg>