<svg width="512" height="512" xmlns="http://www.w3.org/2000/svg" xmlns:svg="http://www.w3.org/2000/svg">
 <style type="text/css">.st0{fill:none;stroke:url(#SVGID_1_);stroke-width:16;stroke-miterlimit:10;}
	.st1{fill:url(#SVGID_2_);}
	.st2{fill:url(#SVGID_3_);}
	.st3{fill:url(#SVGID_4_);}</style>
 <linearGradient gradientUnits="userSpaceOnUse" id="SVGID_1_" x1="49.6399" x2="474.3601" y1="250" y2="250">
  <stop offset="0" stop-color="#00FF99"/>
  <stop offset="1" stop-color="#33CCFF"/>
 </linearGradient>
 <linearGradient gradientUnits="userSpaceOnUse" id="SVGID_2_" x1="154" x2="370" y1="250" y2="250">
  <stop offset="0" stop-color="#00FF99"/>
  <stop offset="1" stop-color="#33CCFF"/>
 </linearGradient>
 <linearGradient gradientUnits="userSpaceOnUse" id="SVGID_3_" x1="364.5626" x2="445.0897" y1="104.0135" y2="104.0135">
  <stop offset="0" stop-color="#00FF99"/>
  <stop offset="1" stop-color="#33CCFF"/>
 </linearGradient>
 <linearGradient gradientUnits="userSpaceOnUse" id="SVGID_4_" x1="35.9629" x2="85.673" y1="289.5217" y2="289.5217">
  <stop offset="0" stop-color="#00FF99"/>
  <stop offset="1" stop-color="#33CCFF"/>
 </linearGradient>
 <g class="layer">
  <title>Layer 1</title>
  <circle class="st0" cx="262" cy="250" fill="black" id="svg_1" r="204.4"/>
  <circle class="st2" cx="400.40062" cy="104" fill="black" id="svg_3" r="40.3"/>
  <path d="m400.79753,63.85936c11.03467,0 19.98663,8.99711 19.98663,20.07677c0,11.07967 -8.95196,20.06812 -19.98663,20.06812c-11.03468,0 -19.98663,8.99712 -19.98663,20.07678c0,11.07966 8.95196,20.06812 19.98663,20.06812c22.06934,0 39.98187,-17.98558 39.98187,-40.1449c0,-22.15933 -17.91253,-40.14489 -39.98187,-40.14489l0,0zm0,13.80278c-3.45011,0 -6.24852,2.80981 -6.24852,6.27399c0,3.46419 2.7984,6.27399 6.24852,6.27399c3.45011,0 6.24851,-2.80981 6.24851,-6.27399c0,-3.46418 -2.7984,-6.27399 -6.24851,-6.27399zm0,40.1449c3.44833,0 6.24851,2.81159 6.24851,6.27399c0,3.46239 -2.80018,6.274 -6.24851,6.274c-3.44833,0 -6.24852,-2.8116 -6.24852,-6.274c0,-3.46239 2.80019,-6.27399 6.24852,-6.27399zm39.08511,-13.77721c0,22.14286 -17.87744,40.0932 -39.9304,40.0932c-22.05295,0 -39.9304,-17.95034 -39.9304,-40.0932c0,-22.14287 17.87745,-40.09321 39.9304,-40.09321c22.05296,0 39.9304,17.95034 39.9304,40.09321z" fill="black" id="svg_12" opacity="0.15" stroke-dasharray="null" stroke-linecap="null" stroke-linejoin="null" stroke-width="3" transform="rotate(115.341 400.401 104.004)"/>
  <circle class="st1" cx="262" cy="250" id="svg_2" r="108"/>
  <circle class="st3" cx="68.5" cy="263.2" fill="black" id="svg_4" r="43.2"/>
  <path d="m69.02139,219.94281c11.82597,0 21.41989,9.65199 21.41989,21.5381c0,11.88612 -9.59392,21.52881 -21.41989,21.52881c-11.82599,0 -21.4199,9.65199 -21.4199,21.5381c0,11.88611 9.59392,21.52881 21.4199,21.52881c23.65195,0 42.84901,-19.29469 42.84901,-43.06691c0,-23.77222 -19.19705,-43.06691 -42.84901,-43.06691l0,0zm0,14.80744c-3.69753,0 -6.69661,3.01433 -6.69661,6.73065c0,3.71632 2.99907,6.73065 6.69661,6.73065c3.69753,0 6.6966,-3.01433 6.6966,-6.73065c0,-3.71632 -2.99907,-6.73065 -6.6966,-6.73065zm0,43.06691c3.69561,0 6.6966,3.01623 6.6966,6.73065c0,3.7144 -3.00098,6.73066 -6.6966,6.73066c-3.69562,0 -6.69661,-3.01626 -6.69661,-6.73066c0,-3.7144 3.00098,-6.73065 6.69661,-6.73065zm41.88794,-14.78001c0,23.75457 -19.15944,43.01144 -42.79383,43.01144c-23.63439,0 -42.79385,-19.25688 -42.79385,-43.01144c0,-23.75457 19.15945,-43.01145 42.79385,-43.01145c23.6344,0 42.79383,19.25688 42.79383,43.01145z" fill="black" id="svg_14" opacity="0.15" stroke-dasharray="null" stroke-linecap="null" stroke-linejoin="null" stroke-width="3" transform="rotate(34.856 68.596 263.01)"/>
  <circle class="st2" cx="400.40062" cy="400" fill="black" id="svg_15" r="40.3" transform="rotate(-69.846 400.401 400.004)"/>
  <path d="m400.79753,359.85936c11.03467,0 19.98663,8.99712 19.98663,20.07678c0,11.07967 -8.95196,20.06812 -19.98663,20.06812c-11.03468,0 -19.98664,8.99712 -19.98664,20.07678c0,11.07966 8.95196,20.06812 19.98664,20.06812c22.06934,0 39.98187,-17.98558 39.98187,-40.1449c0,-22.15933 -17.91253,-40.1449 -39.98187,-40.1449l0,0zm0,13.80279c-3.45011,0 -6.24852,2.80981 -6.24852,6.27399c0,3.46418 2.7984,6.27399 6.24852,6.27399c3.45011,0 6.24851,-2.80981 6.24851,-6.27399c0,-3.46418 -2.7984,-6.27399 -6.24851,-6.27399zm0,40.1449c3.44833,0 6.24851,2.81159 6.24851,6.27399c0,3.46239 -2.80018,6.274 -6.24851,6.274c-3.44834,0 -6.24852,-2.81161 -6.24852,-6.274c0,-3.46239 2.80018,-6.27399 6.24852,-6.27399zm39.0851,-13.77721c0,22.14286 -17.87743,40.0932 -39.93039,40.0932c-22.05295,0 -39.9304,-17.95034 -39.9304,-40.0932c0,-22.14287 17.87745,-40.09321 39.9304,-40.09321c22.05296,0 39.93039,17.95034 39.93039,40.09321z" fill="black" id="svg_16" opacity="0.15" stroke-dasharray="null" stroke-linecap="null" stroke-linejoin="null" stroke-width="3" transform="rotate(-69.846 400.401 400.004)"/>
  <path d="m263.10814,142.03442c29.44216,0 53.32737,24.22682 53.32737,54.06137c0,29.83457 -23.88521,54.03805 -53.32737,54.03805c-29.44221,0 -53.3274,24.22682 -53.3274,54.06137c0,29.83454 23.88521,54.03805 53.3274,54.03805c58.88435,0 106.67772,-48.43033 106.67772,-108.09942c0,-59.66908 -47.79335,-108.09942 -106.67772,-108.09942l0,0zm0,37.16718c-9.20544,0 -16.67201,7.56607 -16.67201,16.89416c0,9.32809 7.46654,16.89416 16.67201,16.89416c9.20544,0 16.67198,-7.56607 16.67198,-16.89416c0,-9.32809 -7.46654,-16.89416 -16.67198,-16.89416zm0,108.09942c9.20066,0 16.67198,7.57084 16.67198,16.89416c0,9.32327 -7.4713,16.89419 -16.67198,16.89419c-9.20069,0 -16.67201,-7.57092 -16.67201,-16.89419c0,-9.32327 7.4713,-16.89416 16.67201,-16.89416zm104.28502,-37.09833c0,59.62478 -47.69971,107.96018 -106.54035,107.96018c-58.84063,0 -106.5404,-48.33543 -106.5404,-107.96018c0,-59.62478 47.69974,-107.96021 106.5404,-107.96021c58.84066,0 106.54035,48.33543 106.54035,107.96021z" fill="black" id="svg_6" opacity="0.15" stroke-dasharray="null" stroke-linecap="null" stroke-linejoin="null" stroke-width="3" transform="rotate(-3.40216 262.049 250.134)"/>
 </g>
</svg>