<?xml version="1.0" encoding="UTF-8"?>
<svg width="184px" height="185px" viewBox="0 0 184 185" version="1.1" xmlns="http://www.w3.org/2000/svg" xmlns:xlink="http://www.w3.org/1999/xlink">
    <!-- Generator: Sketch 50.2 (55047) - http://www.bohemiancoding.com/sketch -->
    <title>Vecteezy-16-1949</title>
    <desc>Created with Sketch.</desc>
    <defs>
        <linearGradient x1="50%" y1="0%" x2="50%" y2="100%" id="linearGradient-1">
            <stop stop-color="#FFFFFF" offset="0%"></stop>
            <stop stop-color="#DCFFF5" offset="100%"></stop>
        </linearGradient>
        <linearGradient x1="0%" y1="0%" x2="101.999998%" y2="100.999999%" id="linearGradient-2">
            <stop stop-color="#3023AE" offset="0%"></stop>
            <stop stop-color="#C86DD7" offset="100%"></stop>
        </linearGradient>
        <linearGradient x1="0.25781251%" y1="49.7500002%" x2="101.257813%" y2="49.7500002%" id="linearGradient-3">
            <stop stop-color="#3023AE" offset="0%"></stop>
            <stop stop-color="#53A0FD" offset="47.5247532%"></stop>
            <stop stop-color="#B4EC51" offset="100%"></stop>
        </linearGradient>
    </defs>
    <g id="Vecteezy-16-1949" stroke="none" stroke-width="1" fill="none" fill-rule="evenodd">
        <path d="M121.501495,160 C114.156247,160 107.251456,158.082745 101.259464,154.720573 C101.698923,154.219337 102.126424,153.708135 102.542964,153.185972 C108.174221,156.276101 114.63756,158.034913 121.501495,158.034913 C123.796449,158.034913 126.048553,157.838604 128.237877,157.460933 C127.587158,158.244177 126.905548,159.004502 126.199025,159.735929 C124.656433,159.910316 123.089926,160 121.501495,160 M129.280222,159.268573 C129.957847,158.480346 130.608565,157.663221 131.225403,156.825169 C147.520272,152.688722 159.812177,138.404973 160.951183,121.125762 C161.661692,120.385367 162.345295,119.619063 163,118.827847 C162.844545,138.908202 148.355345,155.637348 129.280222,159.268573 M99.5394941,153.70116 C92.2859253,149.160135 86.5301053,142.440775 83.1938025,134.466828 C83.6900626,133.923738 84.1723716,133.365701 84.6387365,132.796703 C87.7866996,140.884251 93.5245825,147.68931 100.825984,152.187485 C100.409444,152.702673 99.9819428,153.206899 99.5394941,153.70116 M82.397594,132.409067 C80.8450373,128.059369 80,123.375846 80,118.5 C80,114.919596 80.4554033,111.443824 81.3123987,108.127491 C82.405566,107.0732 83.440936,105.960116 84.4145226,104.792225 C82.8300777,109.065192 81.9641138,113.683943 81.9641138,118.5 C81.9641138,122.725136 82.6307764,126.796811 83.8634546,130.616374 C83.3921072,131.228221 82.9028226,131.826118 82.397594,132.409067 M161.03489,118.112364 C160.947197,108.978497 157.746419,100.577054 152.44401,93.9174831 C152.887455,93.4212289 153.320935,92.9130169 153.740464,92.3948398 C158.989062,98.8640806 162.332341,106.935684 162.911311,115.750672 C162.3154,116.561819 161.689594,117.350046 161.03489,118.112364 M82.6925598,103.788755 C83.8495035,100.747455 85.3552245,97.8745618 87.1589007,95.2218941 C87.6262621,95.0096408 88.086648,94.790412 88.5450409,94.5622149 C87.0223794,97.9134251 85.045311,101.014515 82.6925598,103.788755 M151.169478,92.3948398 C145.523274,85.9853888 137.836225,81.4134731 129.136725,79.7044854 C129.622024,79.1454521 130.090382,78.5764539 130.545785,77.9925083 C139.154603,79.9127527 146.760935,84.5145632 152.44401,90.8731931 C152.031456,91.3913701 151.605948,91.8985857 151.169478,92.3948398 M92.3168169,90.0720117 C92.4583208,89.5956875 92.5918527,89.1143807 92.7174124,88.631081 C95.0173488,86.4128848 97.5733873,84.4577631 100.33371,82.814544 C98.007864,85.5808121 95.3083286,88.0272055 92.3168169,90.0720117 M101.61422,84.3391802 C102.60973,83.1752749 103.540467,81.9565625 104.404437,80.6870288 C109.620151,78.3193584 115.410849,77 121.501495,77 C123.841291,77 126.136245,77.1943164 128.371409,77.5680017 C127.878138,78.1688878 127.368923,78.7538299 126.842768,79.3238246 C125.095893,79.086659 123.312147,78.9640902 121.501495,78.9640902 C114.256895,78.9640902 107.459726,80.9231979 101.61422,84.3391802" id="Fill-65" fill="url(#linearGradient-1)"></path>
        <path d="M97.5768015,174 C97.0246779,174 96.4745439,173.989038 95.9273944,173.968111 L95.9273944,172.001981 C96.4745439,172.023904 97.0246779,172.035863 97.5768015,172.035863 C97.8235162,172.035863 98.0722205,172.032873 98.3179404,172.028887 C98.1090288,172.58893 98.0055678,173.21574 98.0055678,173.907324 C98.0055678,173.937219 98.0055678,173.968111 98.0055678,173.998007 C97.8623141,174 97.7200552,174 97.5768015,174 M98.652199,173.987045 C98.652199,173.964125 98.652199,173.941205 98.652199,173.918286 C98.652199,173.186841 98.7685927,172.551063 98.9993903,172.009953 C102.616546,171.881402 106.114324,171.261568 109.422091,170.217217 C108.980392,170.609845 108.759543,171.105115 108.759543,171.706015 C108.759543,171.973082 108.795356,172.216232 108.865988,172.43447 C105.605972,173.361232 102.183801,173.896362 98.652199,173.987045 M95.3324936,173.940209 C94.4083083,173.890383 93.4900919,173.810662 92.5818237,173.700048 C92.6614091,173.626306 92.733036,173.547581 92.7967043,173.462877 C93.0981339,173.070249 93.2493461,172.586937 93.2493461,172.014936 C93.2493461,171.941193 93.2473565,171.869444 93.2433772,171.798691 C93.9337805,171.874427 94.6321422,171.933221 95.3324936,171.972085 L95.3324936,173.940209 M91.8456589,173.604382 C90.7891629,173.457894 89.7446047,173.270549 88.7149688,173.044339 L88.7149688,171.031372 C89.9833609,171.323352 91.2766234,171.554544 92.5887874,171.720963 C92.6017201,171.828587 92.6086838,171.94219 92.6086838,172.061772 C92.6086838,172.688582 92.4107151,173.162925 92.013783,173.483804 C91.9610577,173.526654 91.9043531,173.567511 91.8456589,173.604382 M88.120068,172.909809 C86.7074274,172.577969 85.3196573,172.173382 83.9657109,171.700036 L83.9657109,170.2222 L85.7484235,170.2222 C86.5293551,170.46834 87.3192401,170.690563 88.120068,170.88887 L88.120068,172.909809 M109.463874,172.260079 C109.410154,172.097647 109.383293,171.909305 109.383293,171.694057 C109.383293,171.191812 109.570319,170.795198 109.943376,170.503218 C110.316432,170.211238 110.81782,170.06475 111.447539,170.06475 C112.092181,170.06475 112.768657,170.213231 113.475972,170.5082 L113.690852,169.994993 C112.987517,169.691055 112.235435,169.539585 111.435602,169.539585 C111.41869,169.539585 111.401778,169.539585 111.384866,169.539585 C116.929978,167.458855 121.887152,164.163369 125.93208,159.976996 C126.637405,159.245552 127.31786,158.485208 127.967476,157.701945 C133.406142,151.133894 136.766635,142.779085 137.030262,133.660944 C137.691815,133.559299 138.349389,133.442706 139,133.310169 C138.828891,142.18516 135.864336,150.386505 130.949938,157.066166 C130.334146,157.904238 129.684531,158.721383 129.008055,159.509629 C125.410795,163.703974 120.996791,167.170861 116.010766,169.662156 L115.839658,169.662156 L115.839658,169.74686 C113.802272,170.753344 111.671373,171.596398 109.463874,172.260079 M83.365836,171.484788 C82.1143559,171.02639 80.8897357,170.507204 79.6969498,169.933209 L79.6969498,169.662156 L79.1438313,169.662156 C78.4156251,169.298427 77.702341,168.914768 77,168.510181 C78.001781,168.335791 78.9936139,168.125525 79.9695297,167.880382 C81.3045746,168.549046 82.6843862,169.144963 84.1000112,169.662156 L80.5972594,169.662156 L80.5972594,170.2222 L83.365836,170.2222 L83.365836,171.484788 M137.03822,131.670897 C136.84821,122.49994 133.52552,114.084344 128.099787,107.461484 C128.829983,107.338912 129.555204,107.197407 130.271473,107.036967 C135.515155,113.778413 138.731399,122.178065 138.991047,131.305175 C138.34541,131.442694 137.6948,131.565266 137.03822,131.670897 M126.573737,105.705619 C120.917206,99.5680634 113.346646,95.2232441 104.823051,93.6328011 C106.278469,93.3747028 107.705037,93.0408693 109.10375,92.6342898 C116.866309,94.890407 123.698715,99.3657702 128.864801,105.324949 C128.107745,105.474427 127.345715,105.600985 126.573737,105.705619 M97.5768015,92.3034458 C96.0457776,92.3034458 94.5346501,92.2157522 93.048393,92.0443511 C93.4881023,91.7463921 93.9228375,91.4394645 94.3506089,91.1245648 C95.4150635,91.0428503 96.4924506,91 97.5768015,91 C100.047928,91 102.469313,91.2182375 104.823051,91.6357786 C102.473292,92.0742466 100.051907,92.3034458 97.5768015,92.3034458" id="Fill-66" fill="url(#linearGradient-2)"></path>
        <path d="M79.7072451,169.922431 C79.5212451,169.833431 79.3352451,169.742431 79.1512451,169.650431 L79.7072451,169.650431 L79.7072451,169.922431" id="Fill-67" fill="#8D50C7"></path>
        <path d="M83.9934043,171.716919 C83.7918159,171.646183 83.5892247,171.573427 83.3886393,171.498649 L83.3886393,170.218336 L80.5974935,170.218336 L80.5974935,169.650431 L84.1287994,169.650431 C84.6774005,169.851522 85.2310162,170.041498 85.7906494,170.218336 L83.9934043,170.218336 L83.9934043,171.716919" id="Fill-68" fill="#9253C9"></path>
        <path d="M92.5777209,173.716512 C92.3310378,173.686239 92.0873388,173.654957 91.8416503,173.619638 C91.9003371,173.582301 91.9570344,173.540928 92.009753,173.497537 C92.4066342,173.172606 92.6045775,172.692272 92.6045775,172.057547 C92.6045775,171.936454 92.5976147,171.821417 92.5846837,171.712433 C92.8035155,171.740688 93.0193633,171.766925 93.2391897,171.791143 C93.2431685,171.86279 93.2451579,171.935445 93.2451579,172.010119 C93.2451579,172.589344 93.093965,173.078759 92.7925739,173.476346 C92.7289138,173.562119 92.6572961,173.641838 92.5777209,173.716512 M88.7113611,173.052522 C88.5124231,173.009131 88.3144798,172.963721 88.1165365,172.916293 L88.1165365,170.869832 C88.3144798,170.919278 88.5124231,170.967715 88.7113611,171.014134 L88.7113611,173.052522" id="Fill-69" fill="#9B57CB"></path>
        <path d="M95.9320251,174 C95.7320251,173.992012 95.5330251,173.983025 95.3340251,173.972042 L95.3340251,172 C95.5330251,172.011982 95.7320251,172.020969 95.9320251,172.029955 L95.9320251,174" id="Fill-70" fill="#A35BCD"></path>
        <path d="M98,174 C98,173.969925 98,173.938847 98,173.908772 C98,173.213033 98.104,172.582456 98.314,172.019048 C98.544,172.015038 98.77,172.00802 98.999,172 C98.767,172.544361 98.65,173.18396 98.65,173.919799 C98.65,173.942857 98.65,173.965915 98.65,173.988972 C98.435,173.993985 98.217,173.997995 98,174" id="Fill-71" fill="#A35BCD"></path>
        <path d="M108.858579,172.446452 C108.786963,172.224327 108.750651,171.976845 108.750651,171.705021 C108.750651,171.093417 108.974577,170.589325 109.422428,170.189703 C110.094206,169.976706 110.755896,169.747482 111.412543,169.5 C111.429691,169.5 111.446838,169.5 111.463986,169.5 C112.27496,169.5 113.037518,169.654169 113.750651,169.963521 L113.532777,170.48587 C112.81561,170.185646 112.129711,170.03452 111.47609,170.03452 C110.837599,170.03452 110.329227,170.183617 109.950974,170.480798 C109.572721,170.777979 109.38309,171.181658 109.38309,171.69285 C109.38309,171.911932 109.410324,172.103629 109.464793,172.268955 C109.263058,172.329811 109.061323,172.388638 108.858579,172.446452" id="Fill-72" fill="#AB5FD0"></path>
        <path d="M116,170.085 L116,170 L116.172,170 C116.115,170.028 116.056,170.057 116,170.085" id="Fill-73" fill="#626767"></path>
        <path d="M74.6509296,167 C67.6342408,162.296083 62.1130782,155.559237 58.9514563,147.649934 C59.6256108,147.541242 60.2946887,147.417455 60.957675,147.277565 C64.2746367,155.349905 70.1816105,162.110905 77.6521353,166.5441 C76.6642553,166.732297 75.6631766,166.88527 74.6509296,167 M58.2468431,145.751862 C56.7898978,141.516928 56,136.979067 56,132.262067 C56,127.711123 56.735072,123.328248 58.0935339,119.223139 C58.8489117,119.117467 59.5981979,118.991667 60.3403769,118.847752 C58.8265753,123.041423 58.0011422,127.559156 58.0011422,132.262067 C58.0011422,136.863331 58.7900247,141.283443 60.2408782,145.399622 C59.5819532,145.533473 58.9169364,145.651222 58.2468431,145.751862 M58.8631258,117.097621 C61.8084904,109.598929 66.8707405,103.143875 73.3188654,98.4530413 C74.8539882,98.3352925 76.3708357,98.1350187 77.8562092,97.8582585 C70.4811219,102.17773 64.6076528,108.759591 61.2155594,116.63367 C60.4398756,116.810797 59.6550543,116.965782 58.8631258,117.097621 M77.14855,95.9712572 C80.0685323,94.2935872 83.2128942,92.9510487 86.5186877,92 C87.0100895,92.1408961 87.5014912,92.2727346 88,92.3965219 C84.6241513,94.0721791 80.97925,95.2909303 77.14855,95.9712572" id="Fill-74" fill="url(#linearGradient-2)"></path>
        <path d="M70.5019931,169 C52.825329,169 37.6938334,157.892078 31.7235496,142.289968 C32.6224306,142.827078 33.5432355,143.332301 34.4849678,143.802646 C40.7063803,157.492484 54.5114782,167.034913 70.5019931,167.034913 C72.0366679,167.034913 73.5524085,166.947222 75.0412424,166.775825 C76.0347949,166.662224 77.0173855,166.510757 77.9870209,166.324413 C86.6519547,164.658275 94.3193497,160.153124 99.9807055,153.820403 C100.42317,153.326142 100.850687,152.821916 101.267241,152.306728 C106.646576,145.64915 109.913241,137.216816 110.035815,128.039103 C110.670613,128.42375 111.316372,128.791457 111.972097,129.142223 C111.616331,138.25018 108.309805,146.616746 102.984283,153.305215 C102.567729,153.827378 102.140212,154.33858 101.700737,154.839817 C96.2217486,161.08385 88.9031433,165.674699 80.5989578,167.758368 C79.62135,168.003506 78.6277975,168.213766 77.6242796,168.388153 C75.3093123,168.790736 72.9295697,169 70.5019931,169 M33.3210066,140.95068 C32.4291014,140.437485 31.5591202,139.89041 30.7130559,139.312443 C29.5989218,135.566621 29,131.602567 29,127.5 C29,122.692912 29.8211507,118.075157 31.3319086,113.778274 C31.8999376,114.126051 32.477932,114.461869 33.0638988,114.783737 C31.7036188,118.775693 30.9651811,123.053643 30.9651811,127.5 C30.9651811,132.220393 31.7972937,136.750456 33.3210066,140.95068 M112,126.914061 C111.321355,126.528418 110.652675,126.121848 109.998943,125.697342 C109.595344,116.733876 106.192153,108.539704 100.772956,102.093382 C102.084406,102.874634 103.445682,103.587127 104.844828,104.221894 C109.259509,110.714054 111.883405,118.516604 112,126.914061 M33.7515128,112.919296 C33.1725219,112.595435 32.6024998,112.257624 32.0414465,111.906858 C35.3021324,103.895044 40.9953775,97.1228689 48.2013735,92.514083 C48.8192297,92.9096912 49.4500408,93.290352 50.0888243,93.6530759 C42.7472985,98.0964438 36.961375,104.858654 33.7515128,112.919296 M102.05451,100.568746 C98.9163985,98.7351967 96.0503434,96.4801301 93.5380607,93.8832661 C94.0233767,93.9390698 94.5136754,93.9849085 95.0039742,94.0237718 C97.5989698,95.9280723 99.9657574,98.1263387 102.05451,100.568746 M52.0998463,92.5150795 C51.4162184,92.1543486 50.7475387,91.7756807 50.0888243,91.3760865 C56.1198972,87.9551217 63.0867232,86 70.5019931,86 C71.5902171,86 72.6664826,86.0418528 73.7337792,86.1245618 C74.9395951,87.0094487 76.1962348,87.8315565 77.4947291,88.5839096 C75.2246062,88.17734 72.8877149,87.9650867 70.5019931,87.9650867 C63.8630295,87.9650867 57.5987657,89.6102987 52.0998463,92.5150795 M88.5095092,90.9725064 C84.8372515,90.0407842 81.371278,88.5938746 78.1863294,86.7134899 C81.4769114,87.3313163 84.6309672,88.3397685 87.5996662,89.6870288 C87.8946427,90.1215003 88.198588,90.5499928 88.5095092,90.9725064" id="Fill-75" fill="url(#linearGradient-3)"></path>
        <path d="M52.5009965,148 C45.8641854,148 39.5861208,146.43447 34.0165806,143.652191 C33.0748709,143.181835 32.1540881,142.6766 31.2552287,142.139477 C19.1325849,134.885821 11,121.625153 11,106.500997 C11,101.538336 11.874943,96.7779685 13.4793373,92.3623964 C13.8251291,93.3140713 14.205799,94.2527915 14.6183575,95.1705847 C13.5431144,98.7610397 12.9641374,102.56475 12.9641374,106.500997 C12.9641374,120.053644 19.819186,132.035779 30.2447593,139.16188 C31.0908032,139.739861 31.9607636,140.286949 32.8526474,140.800156 C38.6444111,144.13052 45.3549646,146.035863 52.5009965,146.035863 C54.5299076,146.035863 56.5229439,145.882399 58.471137,145.586433 C59.128839,145.486781 59.7815584,145.370188 60.4282987,145.237652 C69.1119582,143.463849 76.7662144,138.835022 82.3686397,132.377584 C82.8738744,131.794621 83.3631648,131.19671 83.8345179,130.584848 C88.9466563,123.949033 92.001981,115.65003 92.0358626,106.651471 C92.548073,108.0456 93.1340257,109.403854 93.7877416,110.724241 C92.9436907,119.036199 89.6362468,126.630664 84.6098091,132.76523 C84.1434386,133.334242 83.6611238,133.892292 83.1648577,134.435394 C77.4219234,140.734386 69.7696602,145.263561 61.1318406,147.097155 C60.4811142,147.235671 59.8244087,147.358242 59.1627206,147.465866 C56.9933005,147.817637 54.7680754,148 52.5009965,148 M94,106.29671 C92.6566935,102.741133 91.8126426,98.9443991 91.5515548,94.9892184 C91.9232561,95.3748709 92.3029295,95.7555409 92.6885821,96.1272422 C93.5286469,99.3808741 93.9830592,102.78797 94,106.29671 M15.577008,92.3623964 C15.2232441,91.4426102 14.9033617,90.5058831 14.6183575,89.5542082 C18.0593349,81.8919798 23.7574259,75.4564654 30.8635971,71.0986913 C31.0848241,71.7304839 31.3209989,72.3523112 31.5721215,72.9701525 C24.3433786,77.4983311 18.6751831,84.2995678 15.577008,92.3623964 M89.590407,89.6139993 C87.4349382,86.6792532 85.673094,83.4355865 84.3855925,79.9647137 C86.465326,82.4589987 88.2590587,85.2014167 89.7139753,88.1391524 C89.6641494,88.6294393 89.6232921,89.1197263 89.590407,89.6139993 M82.6636091,80.9682075 C77.2415536,74.5725537 69.8254652,69.9168207 61.3849562,67.9716172 C61.0770321,67.2511346 60.7910313,66.5196902 60.5259575,65.7782807 C68.4931204,67.3458038 75.6521071,71.2013327 81.2834314,76.6293673 C81.6650979,78.1101933 82.1264858,79.5571377 82.6636091,80.9682075 M33.2831432,71.95769 C33.0379998,71.3438348 32.8088006,70.7210109 32.5945492,70.0932045 C38.5078881,66.8465482 45.2921839,65 52.5009965,65 C54.4760956,65 56.419306,65.138516 58.3206627,65.4065794 C58.553848,66.1161004 58.8059671,66.8196422 59.0760235,67.5112258 C56.936499,67.1514828 54.7401729,66.9651339 52.5009965,66.9651339 C45.5303518,66.9651339 38.9752551,68.7778005 33.2831432,71.95769" id="Fill-76" fill="url(#linearGradient-1)"></path>
        <path d="M52.5009965,119 C45.2921839,119 38.5088846,117.153452 32.5955457,113.907792 C32.009593,113.585917 31.4316124,113.25009 30.8635971,112.902305 C23.7584224,108.543535 18.0593349,102.10802 14.6183575,94.4457918 C14.205799,93.5279986 13.8251291,92.5892784 13.4793373,91.6376036 C11.874943,87.223028 11,82.4626606 11,77.5 C11,62.3748469 19.1335815,49.1141794 31.2562252,41.8605235 C30.8825309,42.8371113 30.5447112,43.8286469 30.2447593,44.8381198 C19.819186,51.9652179 12.9641374,63.9473526 12.9641374,77.5 C12.9641374,81.4362468 13.5431144,85.2399568 14.6183575,88.8294153 C14.9033617,89.7810902 15.2232441,90.7178173 15.577008,91.6376036 C18.6751831,99.7014287 24.3443751,106.501669 31.573118,111.030844 C32.1341578,111.381618 32.7041662,111.719438 33.2831432,112.043307 C38.9762517,115.223196 45.5303518,117.034866 52.5009965,117.034866 C54.7401729,117.034866 56.936499,116.848517 59.0760235,116.488774 C59.8533077,116.35823 60.6236163,116.204766 61.3849562,116.029379 C69.8254652,114.083179 77.2415536,109.428443 82.6636091,103.031793 C85.0163885,100.257486 86.9934806,97.1563213 88.5161604,93.8050306 C88.8569696,93.634626 89.1967823,93.4582423 89.532609,93.278869 C89.5664906,94.1468364 89.6272782,95.0078281 89.7139753,95.8608476 C88.2590587,98.7985833 86.465326,101.541001 84.3855925,104.035286 C83.4119942,105.203206 82.3766118,106.316316 81.2834314,107.370633 C75.6521071,112.797671 68.4931204,116.654196 60.5259575,118.221719 C59.7975027,118.364221 59.0620723,118.488786 58.3206627,118.593421 C56.419306,118.861484 54.4760956,119 52.5009965,119 M91.5067115,89.8358987 C91.698043,85.5847521 92.5640173,81.5060031 94,77.7042862 C93.9830592,81.2130268 93.5286469,84.6201225 92.6885821,87.8737544 C92.5630208,88.3570657 92.4294873,88.838384 92.2879818,89.3147197 C92.028887,89.4920999 91.7697923,89.6644975 91.5067115,89.8358987 M92.0358626,77.3495258 C92.001981,68.351963 88.9466563,60.051963 83.8345179,53.4161484 C84.0716893,52.6797215 84.330784,51.9522632 84.6098091,51.2347701 C89.6362468,57.3693361 92.9436907,64.9647977 93.7877416,73.2767559 C93.1340257,74.5971425 92.548073,75.9553968 92.0358626,77.3495258 M82.3676432,51.6234122 C76.7662144,45.1649778 69.1119582,40.5371473 60.4292952,38.7623484 C60.6485292,38.1355385 60.882711,37.5147076 61.1318406,36.9028455 C69.7696602,38.7364389 77.4219234,43.2656141 83.1648577,49.5646056 C82.8818466,50.242238 82.6157762,50.9278425 82.3676432,51.6234122 M32.8536439,43.2008404 C33.2044183,42.2312282 33.5940569,41.2795534 34.0175771,40.3478089 C39.5871173,37.5655301 45.8641854,36 52.5009965,36 C54.7680754,36 56.9933005,36.1823628 59.1627206,36.5341337 C58.9165806,37.1539681 58.6873814,37.778785 58.471137,38.4135671 C56.5229439,38.1176012 54.5299076,37.9641374 52.5009965,37.9641374 C45.3549646,37.9641374 38.6444111,39.8694801 32.8536439,43.2008404" id="Fill-77" fill="url(#linearGradient-3)"></path>
        <path d="M70.5019931,99 C63.0867232,99 56.1198972,97.0458513 50.0888243,93.6248454 C49.4500408,93.2621172 48.8192297,92.8814518 48.2013735,92.4858388 C40.9953775,87.877994 35.3011358,81.1057377 32.04045,73.0938277 C31.7893214,72.4759938 31.5531409,71.8541739 31.3319086,71.222389 C29.8221472,66.9254541 29,62.3066478 29,57.5014948 C29,53.3988786 29.5989218,49.4327839 30.7130559,45.686917 C31.0130151,44.6774561 31.3508429,43.6859325 31.7245462,42.7093564 C37.6958265,27.1080549 52.8273221,16 70.5019931,16 C72.9295697,16 75.3083157,16.2092663 77.6222865,16.6108583 C76.7413433,17.1170835 75.8803309,17.6551968 75.0412424,18.2232054 C73.5524085,18.0518063 72.0366679,17.9641138 70.5019931,17.9641138 C54.5114782,17.9641138 40.7073768,27.5056609 34.4859644,41.1966599 C34.062434,42.1283932 33.672786,43.0800567 33.3220032,44.0496572 C31.7972937,48.249931 30.9651811,52.7800483 30.9651811,57.5014948 C30.9651811,61.9479055 31.7026222,66.2239137 33.0629022,70.2169142 C33.2771588,70.8447131 33.5063635,71.4675295 33.7515128,72.0813773 C36.9603784,80.1401232 42.7482951,86.9044074 50.0888243,91.3478287 C50.7475387,91.7474277 51.4162184,92.1261001 52.0998463,92.4868353 C57.5987657,95.3906545 63.8630295,97.0358862 70.5019931,97.0358862 C72.8867184,97.0358862 75.2226131,96.8236304 77.492736,96.4180524 C81.2526895,95.7444142 84.8302757,94.5376451 88.1437782,92.8784623 C88.7496758,93.0309277 89.3625492,93.1694421 89.9784123,93.2940054 C89.983395,93.5740236 89.9913673,93.8490593 90.0023293,94.1270846 C89.6664946,94.3064557 89.3266737,94.4828373 88.9858563,94.6532398 C88.5274469,94.8814398 88.0670445,95.1006711 87.5996662,95.312927 C84.6309672,96.6602034 81.4769114,97.6686677 78.1873259,98.2865015 C76.7293848,98.5605408 75.2405509,98.7588455 73.7337792,98.8754367 C72.6664826,98.9581467 71.5902171,99 70.5019931,99 M93.7004971,91.8959071 C93.1115407,91.8291412 92.5245774,91.7484242 91.9435933,91.6547526 C91.9505691,91.3298916 91.9615311,91.0070236 91.9764792,90.6841556 C92.2395663,90.5127565 92.4986673,90.3403609 92.7577682,90.1629828 C95.7493877,88.118152 98.4490203,85.6717292 100.77495,82.905428 C106.194146,76.4590292 109.595344,68.265755 109.998943,59.303178 C110.652675,58.8796629 111.321355,58.4720918 112,58.0864439 C111.883405,66.4840019 109.260506,74.2856491 104.845824,80.7778872 C103.981822,82.0474361 103.051052,83.2661632 102.055506,84.4300825 C99.9677505,86.8735157 97.6009629,89.0718085 95.0049707,90.9761319 C94.5764576,91.2910278 94.1409687,91.5979518 93.7004971,91.8959071 M110.035815,56.9613884 C109.913241,47.7835661 106.646576,39.3521269 101.267241,32.6934723 C101.831284,32.3466881 102.401306,32.013855 102.983287,31.694973 C108.308808,38.3835228 111.616331,46.7501891 111.972097,55.858256 C111.316372,56.2090262 110.670613,56.576737 110.035815,56.9613884 M99.9807055,31.1797793 C94.3203463,24.8469823 86.6509581,20.3417776 77.9870209,18.6746227 C78.8380679,18.165408 79.7080492,17.6880815 80.5979613,17.2416468 C88.9021468,19.3253413 96.2207521,23.9162455 101.700737,30.1603535 C101.11776,30.4872075 100.545745,30.8260196 99.9807055,31.1797793" id="Fill-78" fill="url(#linearGradient-1)"></path>
        <path d="M97.503488,94 C96.4152248,94 95.337924,93.9571497 94.2705889,93.8754352 C93.7802726,93.836571 93.2899562,93.7907312 92.8046227,93.7349262 C92.253515,93.1659143 91.7203458,92.5809581 91.2041184,91.9790611 C91.205115,91.8305799 91.2071081,91.6830952 91.2100979,91.534614 C91.7911028,91.6282867 92.3780873,91.7090047 92.9670649,91.7757714 C94.4559525,91.9471725 95.9697545,92.0348661 97.503488,92.0348661 C99.9829741,92.0348661 102.408645,91.8056669 104.762562,91.3671989 C113.301243,89.7767559 120.885201,85.4319366 126.552741,79.2943811 C127.078934,78.7243727 127.588185,78.1394165 128.081491,77.538516 C133.515831,70.9156561 136.844402,62.5010565 137.034748,53.3300997 C137.69249,53.4357306 138.344252,53.5583023 138.991031,53.6958218 C138.730924,62.8229319 135.508987,71.2215872 130.256024,77.9630328 C129.800588,78.5469924 129.332197,79.1160043 128.846863,79.675051 C123.671634,85.6342298 116.827136,90.109593 109.050837,92.3657102 C107.649649,92.7722896 106.220556,93.1061232 104.762562,93.3642214 C102.404659,93.7817625 99.9789878,94 97.503488,94 M89.244846,93.1738864 C88.6289608,93.0493216 88.0160653,92.9108056 87.4101459,92.7583383 C86.9208261,92.6357666 86.4384823,92.5052227 85.9561386,92.3657102 C82.7112805,91.4240005 79.6278682,90.0966383 76.7607132,88.4354424 C75.4621721,87.6830712 74.2054872,86.8609437 72.9996278,85.9760355 C66.6703608,81.3312643 61.7014228,74.9395966 58.81035,67.5145396 C58.5402774,66.8229559 58.2881431,66.1194141 58.0549439,65.4098931 C56.7215225,61.3450954 56,57.0052587 56,52.4990035 C56,47.8283227 56.7753377,43.3350222 58.2054271,39.1416737 C58.4216846,38.5068916 58.6508975,37.8820747 58.8970523,37.2622404 C62.0003962,29.4316004 67.4197875,22.7599112 74.3071381,18.1021851 C75.1462568,17.5341698 76.0073002,16.9960499 76.8882752,16.4898187 C82.2468752,13.411574 88.3549018,11.4932765 94.8645494,11.082711 C94.9452723,11.1375195 95.0329711,11.1833593 95.1266495,11.219234 C95.2940746,11.2840077 95.4784415,11.3168928 95.6757639,11.3168928 C95.8322267,11.3168928 95.9777271,11.2969624 96.1112685,11.2561052 C96.2438134,11.2162444 96.3673891,11.1554568 96.4819956,11.0737423 L96.4819956,11.0119582 C96.8218287,11.0039861 97.1616618,11 97.503488,11 C99.0202798,11 100.52013,11.0817145 101.995065,11.2411574 C102.111665,11.2919798 102.248196,11.3168928 102.403662,11.3168928 C102.460467,11.3168928 102.515279,11.3139032 102.567101,11.3069276 C113.090965,12.5924361 122.411959,17.8321287 128.991367,25.4913675 C127.976851,25.298043 126.948382,25.1415896 125.908951,25.0240005 C118.715651,17.5909713 108.640247,12.9641374 97.503488,12.9641374 C91.1692382,12.9641374 85.1768146,14.4619042 79.8640572,17.1206147 C78.974113,17.5670549 78.1041004,18.0443871 77.2530228,18.5536079 C69.9221949,22.942274 64.1231074,29.6398727 60.8662904,37.6309521 C60.6171459,38.2428143 60.3829501,38.8636451 60.1637029,39.490455 C58.7385964,43.5662144 57.9642553,47.9439188 57.9642553,52.4990035 C57.9642553,57.1567295 58.7744732,61.6291031 60.260371,65.7815944 C60.5254608,66.523004 60.8114787,67.2544483 61.1194213,67.974931 C64.4479918,75.7706928 70.2141922,82.2879217 77.4523384,86.5649778 C80.6374017,88.4454076 84.1035,89.892352 87.77589,90.8240965 C88.2462748,91.4618682 88.7336015,92.0856886 89.23787,92.6955577 C89.2398631,92.8540041 89.2418563,93.01544 89.244846,93.1738864 M139,51.6908272 C138.348238,51.5582903 137.6895,51.4416977 137.026776,51.3400528 C136.763679,42.2229079 133.395245,33.8680994 127.94795,27.2990515 C128.957483,27.4734422 129.954061,27.6857006 130.936687,27.9348301 C135.858786,34.6154881 138.829585,42.8158362 139,51.6908272" id="Fill-79" fill="url(#linearGradient-2)"></path>
        <path d="M96.0030807,11.306 C95.7590881,11.306 95.5311152,11.273 95.3240912,11.208 C95.2082563,11.172 95.0998152,11.126 95,11.071 C95.6629698,11.037 96.3296365,11.013 97,11 L97,11.062 C96.8582871,11.144 96.7054837,11.205 96.5415896,11.245 C96.3764633,11.286 96.1965496,11.306 96.0030807,11.306" id="Fill-80" fill="#626767"></path>
        <path d="M103.41,11.076 C103.254,11.076 103.117,11.051 103,11 C103.193,11.021 103.382,11.042 103.574,11.066 C103.522,11.073 103.467,11.076 103.41,11.076" id="Fill-81" fill="#626767"></path>
        <path d="M121.501495,107 C115.408856,107 109.620151,105.681622 104.403441,103.312927 C103.004346,102.678153 101.643119,101.965651 100.331717,101.18439 C97.5703978,99.5411509 95.0173488,97.5879987 92.7174124,95.3697758 C92.3317645,94.998079 91.9520957,94.6174136 91.5803988,94.2317657 C91.523598,93.3638088 91.4946993,92.4868833 91.4946993,91.6049753 C91.4946993,91.476426 91.4946993,91.3468802 91.4966923,91.2183309 C92.0128825,91.8202207 92.5460134,92.4051698 93.0970813,92.9741749 C95.6092735,95.5710701 98.4752254,97.8261637 101.613224,99.6597351 C107.458729,103.076755 114.254901,105.035886 121.501495,105.035886 C123.312147,105.035886 125.094896,104.913316 126.841772,104.676147 C127.61506,104.571514 128.378384,104.444958 129.136725,104.295482 C137.836225,102.586474 145.523274,98.0145034 151.169478,91.6049753 C151.605948,91.1087152 152.031456,90.6014936 152.44401,90.0833103 C157.745423,83.4246557 160.946201,75.0211187 161.03489,65.8881392 C161.689594,66.6504664 162.3154,67.4387029 162.911311,68.2498589 C162.331344,77.064953 158.988066,85.1376499 153.740464,91.6049753 C153.320935,92.1231586 152.887455,92.6313767 152.44401,93.1276368 C146.760935,99.4863431 139.154603,104.087212 130.545785,106.00748 C129.828301,106.167917 129.101848,106.309421 128.370412,106.431991 C126.136245,106.805681 123.841291,107 121.501495,107 M89.5305855,91.9348189 C89.0263534,91.3249571 88.5390618,90.7011442 88.0687109,90.0633802 C87.757801,89.6408616 87.4538666,89.2123639 87.1589007,88.7778872 C85.3542279,86.1251876 83.8495035,83.2532567 82.6925598,80.2109231 C82.155443,78.7998703 81.6940606,77.3529433 81.3123987,75.872135 C80.4554033,72.5567588 80,69.0789521 80,65.4995017 C80,60.6235968 80.8450373,55.9400175 82.3965975,51.5912644 C82.6447275,50.895703 82.9107947,50.2101067 83.1938025,49.5324825 C86.5301053,41.5594362 92.2879183,34.8399947 99.5394941,30.2989158 C100.104513,29.9451561 100.676508,29.606344 101.259464,29.27949 C107.250459,25.9182745 114.156247,24 121.501495,24 C123.089926,24 124.656433,24.0896856 126.199025,24.2640741 C127.238381,24.3816619 128.266776,24.5381134 129.281219,24.7314356 C148.356341,28.3627043 162.844545,45.0930473 163,65.1726477 C162.345295,64.3824183 161.661692,63.6151085 160.951183,62.8757009 C159.812177,45.5952864 147.521269,31.3113662 131.226399,27.1748688 C130.243844,26.9257423 129.247338,26.7134865 128.237877,26.5390979 C126.048553,26.161422 123.796449,25.9651103 121.501495,25.9651103 C114.63756,25.9651103 108.174221,27.7239438 102.541967,30.8141096 C101.960008,31.1329916 101.390006,31.4658246 100.825984,31.8126088 C93.523586,36.3108379 87.7866996,43.1159789 84.6387365,51.2026269 C84.3597147,51.9201114 84.1006231,52.647561 83.8634546,53.3839791 C82.6307764,57.2035874 81.9641138,61.2743154 81.9641138,65.4995017 C81.9641138,70.3166128 82.8300777,74.9344227 84.4145226,79.2074414 C85.7020086,82.6782726 87.4638316,85.9219003 89.6192746,88.8566112 C89.5604807,89.7654248 89.529589,90.6822106 89.529589,91.6049753 C89.529589,91.7155875 89.5305855,91.8242067 89.5305855,91.9348189" id="Fill-82" fill="url(#linearGradient-3)"></path>
        <path d="M131.501495,134 C124.457192,134 117.818468,132.236226 112.000864,129.127202 C111.345163,128.77644 110.699427,128.408738 110.064653,128.024096 C103.310334,123.933536 97.8086228,117.969589 94.2869698,110.860685 C93.6332617,109.540346 93.047316,108.18214 92.5351118,106.788061 C91.3612275,103.598322 90.5690051,100.223236 90.2132523,96.7225937 C90.1265563,95.8696049 90.0657694,95.0086442 90.0318882,94.1407081 C90.0209266,93.8626895 90.0129546,93.5876604 90.007972,93.3076489 C90.0049825,93.1492082 90.0029895,92.9877781 90.0009965,92.8293374 C90.0009965,92.7187279 90,92.6101113 90,92.4995018 C90,91.5767592 90.0308917,90.6599954 90.0896856,89.7512036 C90.1225703,89.2569484 90.163427,88.7666791 90.2132523,88.2764098 C90.5690051,84.776764 91.3612275,81.4016784 92.5351118,78.2119386 C93.047316,76.8178598 93.6332617,75.4596545 94.2869698,74.1393154 C97.8086228,67.0304107 103.310334,61.0674607 110.064653,56.9759043 C110.699427,56.5912622 111.345163,56.2235602 112.000864,55.8727984 C117.817471,52.7637737 124.457192,51 131.501495,51 C133.638004,51 135.73565,51.1624266 137.78646,51.4753221 C138.449136,51.5769633 139.107827,51.6935517 139.759542,51.8260838 C148.179023,53.533058 155.683711,57.7980022 161.421594,63.7709171 C162.132103,64.510307 162.815706,65.2775984 163.470411,66.0678088 C169.42055,73.2514497 173,82.464925 173,92.4995018 C173,102.535075 169.42055,111.74855 163.470411,118.932191 C162.815706,119.723398 162.132103,120.489693 161.421594,121.230079 C155.683711,127.201998 148.179023,131.466942 139.759542,133.173916 C139.107827,133.306448 138.449136,133.423037 137.78646,133.524678 C135.73565,133.837573 133.638004,134 131.501495,134 M112.028767,126.899067 C117.780601,130.167529 124.426301,132.034937 131.501495,132.034937 C133.64199,132.034937 135.745615,131.863542 137.794432,131.534703 C138.452126,131.429076 139.103841,131.306508 139.750573,131.168994 C148.371349,129.332477 155.96074,124.676912 161.505301,118.216717 C162.160005,117.454408 162.785811,116.66619 163.381722,115.855054 C168.191857,109.307169 171.035886,101.229683 171.035886,92.4995018 C171.035886,83.7703168 168.191857,75.6928313 163.381722,69.1449462 C162.785811,68.3338096 162.160005,67.5455921 161.505301,66.7832831 C155.96074,60.3240849 148.371349,55.6675231 139.750573,53.8310062 C139.103841,53.6934916 138.452126,53.5709243 137.794432,53.4652972 C135.745615,53.136458 133.64199,52.9650631 131.501495,52.9650631 C124.426301,52.9650631 117.780601,54.8324709 112.028767,58.1009329 C111.350146,58.4865715 110.68149,58.8941328 110.027782,59.3176377 C102.998427,63.8825231 97.5026954,70.617747 94.4992256,78.5666863 C93.0632601,82.3682662 92.1972962,86.4468683 92.005967,90.6978618 C91.9910194,91.020722 91.9800579,91.3435823 91.9730823,91.6684355 C91.9700928,91.8169114 91.9680998,91.9643908 91.9671033,92.1128666 C91.9651103,92.2414128 91.9651103,92.3709555 91.9651103,92.4995018 C91.9651103,93.3813886 91.994009,94.258293 92.0508098,95.1262291 C92.3118944,99.0812673 93.1559352,102.877865 94.4992256,106.433314 C97.5026954,114.382253 102.998427,121.117477 110.027782,125.682362 C110.68149,126.106864 111.350146,126.513428 112.028767,126.899067" id="Fill-83" fill="url(#linearGradient-2)"></path>
        <path d="M121.000999,62.4668644 C104.716606,62.4668644 91.4678636,75.7156073 91.4678636,92 C91.4678636,108.285392 104.716606,121.533136 121.000999,121.533136 C137.285392,121.533136 150.532136,108.285392 150.532136,92 C150.532136,75.7156073 137.285392,62.4668644 121.000999,62.4668644 Z M121.000999,123 C103.906234,123 90,109.093766 90,92 C90,74.9072331 103.906234,61 121.000999,61 C138.093766,61 152,74.9072331 152,92 C152,109.093766 138.093766,123 121.000999,123 Z" id="Fill-84" fill="#626767"></path>
        <path d="M114.000999,82.4678399 C97.7171313,82.4678399 84.4678163,95.7163693 84.4678163,112.0005 C84.4678163,128.28463 97.7171313,141.53216 114.000999,141.53216 C130.284867,141.53216 143.532184,128.28463 143.532184,112.0005 C143.532184,95.7163693 130.284867,82.4678399 114.000999,82.4678399 Z M114.000999,143 C96.9067849,143 83,129.09399 83,112.0005 C83,94.907009 96.9067849,81 114.000999,81 C131.094214,81 145,94.907009 145,112.0005 C145,129.09399 131.094214,143 114.000999,143 Z" id="Fill-85" fill="#8770B7"></path>
        <path d="M95.9995004,92.4678636 C79.7153701,92.4678636 66.4668407,105.716606 66.4668407,122.000999 C66.4668407,138.285392 79.7153701,151.532136 95.9995004,151.532136 C112.28463,151.532136 125.533159,138.285392 125.533159,122.000999 C125.533159,105.716606 112.28463,92.4678636 95.9995004,92.4678636 Z M95.9995004,153 C78.907009,153 65,139.093766 65,122.000999 C65,104.906234 78.907009,91 95.9995004,91 C113.092991,91 127,104.906234 127,122.000999 C127,139.093766 113.092991,153 95.9995004,153 Z" id="Fill-86" fill="#8770B7"></path>
        <path d="M76.0004996,88.4678399 C59.7173685,88.4678399 46.4678399,101.716369 46.4678399,118.0005 C46.4678399,134.28463 59.7173685,147.53216 76.0004996,147.53216 C92.2856291,147.53216 105.53216,134.28463 105.53216,118.0005 C105.53216,101.716369 92.2856291,88.4678399 76.0004996,88.4678399 Z M76.0004996,149 C58.907009,149 45,135.09399 45,118.0005 C45,100.908008 58.907009,87 76.0004996,87 C93.092991,87 107,100.908008 107,118.0005 C107,135.09399 93.092991,149 76.0004996,149 Z" id="Fill-87" fill="#8770B7"></path>
        <path d="M63,73.4678636 C46.7156073,73.4678636 33.4668644,86.7156073 33.4668644,103 C33.4668644,119.284393 46.7156073,132.532136 63,132.532136 C79.2843927,132.532136 92.5321364,119.284393 92.5321364,103 C92.5321364,86.7156073 79.2843927,73.4678636 63,73.4678636 Z M63,134 C45.9062339,134 32,120.093766 32,103 C32,85.9062339 45.9062339,72 63,72 C80.0937661,72 94,85.9062339 94,103 C94,120.093766 80.0937661,134 63,134 Z" id="Fill-88" fill="#8770B7"></path>
        <path d="M63,52.4678636 C46.7156073,52.4678636 33.4668644,65.7166065 33.4668644,82.0009992 C33.4668644,98.285392 46.7156073,111.532136 63,111.532136 C79.2843927,111.532136 92.5321364,98.285392 92.5321364,82.0009992 C92.5321364,65.7166065 79.2843927,52.4678636 63,52.4678636 Z M63,113 C45.9062339,113 32,99.0937661 32,82.0009992 C32,64.9062339 45.9062339,51 63,51 C80.0937661,51 94,64.9062339 94,82.0009992 C94,99.0937661 80.0937661,113 63,113 Z" id="Fill-89" fill="#8770B7"></path>
        <path d="M76.0004996,36.4678399 C59.7173685,36.4678399 46.4678399,49.7163693 46.4678399,66.0014988 C46.4678399,82.2856291 59.7173685,95.5321601 76.0004996,95.5321601 C92.2856291,95.5321601 105.53216,82.2856291 105.53216,66.0014988 C105.53216,49.7163693 92.2856291,36.4678399 76.0004996,36.4678399 Z M76.0004996,97 C58.907009,97 45,83.0939902 45,66.0014988 C45,48.907009 58.907009,35 76.0004996,35 C93.092991,35 107,48.907009 107,66.0014988 C107,83.0939902 93.092991,97 76.0004996,97 Z" id="Fill-90" fill="#8770B7"></path>
        <path d="M95.9995004,33.4678636 C79.7153701,33.4678636 66.4668407,46.7156073 66.4668407,62.9990008 C66.4668407,79.2843927 79.7153701,92.5321364 95.9995004,92.5321364 C112.28463,92.5321364 125.533159,79.2843927 125.533159,62.9990008 C125.533159,46.7156073 112.28463,33.4678636 95.9995004,33.4678636 Z M95.9995004,94 C78.907009,94 65,80.0937661 65,62.9990008 C65,45.9062339 78.907009,32 95.9995004,32 C113.092991,32 127,45.9062339 127,62.9990008 C127,80.0937661 113.092991,94 95.9995004,94 Z" id="Fill-91" fill="#8770B7"></path>
        <path d="M114.000999,43.4678636 C97.7171313,43.4678636 84.4678163,56.7156073 84.4678163,72.9990008 C84.4678163,89.2843927 97.7171313,102.532136 114.000999,102.532136 C130.284867,102.532136 143.532184,89.2843927 143.532184,72.9990008 C143.532184,56.7156073 130.284867,43.4678636 114.000999,43.4678636 Z M114.000999,104 C96.9067849,104 83,90.0937661 83,72.9990008 C83,55.9062339 96.9067849,42 114.000999,42 C131.094214,42 145,55.9062339 145,72.9990008 C145,90.0937661 131.094214,104 114.000999,104 Z" id="Fill-92" fill="#8770B7"></path>
        <path d="M121.000999,62.4668644 C104.716606,62.4668644 91.4678636,75.7156073 91.4678636,92 C91.4678636,108.285392 104.716606,121.533136 121.000999,121.533136 C137.285392,121.533136 150.532136,108.285392 150.532136,92 C150.532136,75.7156073 137.285392,62.4668644 121.000999,62.4668644 Z M121.000999,123 C103.906234,123 90,109.093766 90,92 C90,74.9072331 103.906234,61 121.000999,61 C138.093766,61 152,74.9072331 152,92 C152,109.093766 138.093766,123 121.000999,123 Z" id="Fill-93" fill="#8770B7"></path>
    </g>
</svg>