<?xml version="1.0" encoding="UTF-8"?>
<svg width="164px" height="180px" viewBox="0 0 164 180" version="1.1" xmlns="http://www.w3.org/2000/svg" xmlns:xlink="http://www.w3.org/1999/xlink">
    <!-- Generator: Sketch 51.2 (57519) - http://www.bohemiancoding.com/sketch -->
    <title>Vecteezy-16-1938</title>
    <desc>Created with Sketch.</desc>
    <defs>
        <linearGradient x1="0%" y1="0%" x2="101.999998%" y2="100.999999%" id="linearGradient-1">
            <stop stop-color="#3023AE" offset="0%"></stop>
            <stop stop-color="#C86DD7" offset="100%"></stop>
        </linearGradient>
        <linearGradient x1="49.8616979%" y1="129.055802%" x2="46.1404391%" y2="3.36880859%" id="linearGradient-2">
            <stop stop-color="#3023AE" offset="0%"></stop>
            <stop stop-color="#C86DD7" offset="100%"></stop>
        </linearGradient>
        <linearGradient x1="19.5613898%" y1="104.891817%" x2="71.5521653%" y2="32.3468889%" id="linearGradient-3">
            <stop stop-color="#3023AE" offset="0%"></stop>
            <stop stop-color="#C86DD7" offset="100%"></stop>
        </linearGradient>
        <linearGradient x1="50%" y1="0%" x2="50%" y2="100%" id="linearGradient-4">
            <stop stop-color="#FAD961" offset="0%"></stop>
            <stop stop-color="#F76E1E" offset="97.2430571%"></stop>
            <stop stop-color="#F76B1C" offset="100%"></stop>
        </linearGradient>
        <linearGradient x1="50%" y1="117.625292%" x2="50%" y2="-1.41620653%" id="linearGradient-5">
            <stop stop-color="#FAD961" offset="0%"></stop>
            <stop stop-color="#F76B1C" offset="100%"></stop>
        </linearGradient>
        <radialGradient cx="1.19095951%" cy="100%" fx="1.19095951%" fy="100%" r="195.270823%" gradientTransform="translate(0.011910,1.000000),scale(0.577467,1.000000),rotate(-30.001472),translate(-0.011910,-1.000000)" id="radialGradient-6">
            <stop stop-color="#C86DD7" offset="0%"></stop>
            <stop stop-color="#B4EC51" offset="100%"></stop>
        </radialGradient>
        <radialGradient cx="100%" cy="100%" fx="100%" fy="100%" r="197.354634%" gradientTransform="translate(1.000000,1.000000),scale(0.577467,1.000000),rotate(-149.555596),translate(-1.000000,-1.000000)" id="radialGradient-7">
            <stop stop-color="#C86DD7" offset="0%"></stop>
            <stop stop-color="#B4EC51" offset="100%"></stop>
        </radialGradient>
        <linearGradient x1="0.25781251%" y1="49.7500002%" x2="101.257813%" y2="49.7500002%" id="linearGradient-8">
            <stop stop-color="#3023AE" offset="0%"></stop>
            <stop stop-color="#53A0FD" offset="47.5247532%"></stop>
            <stop stop-color="#B4EC51" offset="100%"></stop>
        </linearGradient>
        <radialGradient cx="50%" cy="0%" fx="50%" fy="0%" r="113.325077%" gradientTransform="translate(0.500000,0.000000),scale(0.869764,1.000000),rotate(90.000000),scale(1.000000,1.141884),translate(-0.500000,-0.000000)" id="radialGradient-9">
            <stop stop-color="#3023AE" offset="0%"></stop>
            <stop stop-color="#C86DD7" offset="100%"></stop>
        </radialGradient>
    </defs>
    <g id="Vecteezy-16-1938" stroke="none" stroke-width="1" fill="none" fill-rule="evenodd">
        <path d="M83.033,171.593 L82.854,171.292 C82.97,171.259 83.081,171.223 83.186,171.183 C83.825,171.123 84.396,170.76 84.721,170.198 L85.332,169.14 C85.453,169.195 85.558,169.287 85.631,169.412 C85.812,169.727 85.705,170.134 85.389,170.316 L83.33,171.506 C83.239,171.558 83.135,171.587 83.033,171.593 M81.764,170.946 L81.699,170.946 L81.285,170.707 C80.967,170.525 80.857,170.117 81.041,169.803 C81.043,169.8 81.044,169.797 81.046,169.794 L81.279,170.198 C81.461,170.514 81.723,170.767 82.029,170.939 C81.943,170.944 81.855,170.946 81.764,170.946" id="Fill-65" fill="#EBEBE7"></path>
        <path d="M82.998,171.594 C82.885,171.594 82.77,171.564 82.668,171.506 L81.699,170.946 L81.764,170.946 C81.855,170.946 81.943,170.944 82.029,170.939 C82.321,171.102 82.654,171.191 83,171.191 C83.062,171.191 83.125,171.188 83.186,171.183 C83.081,171.223 82.97,171.259 82.854,171.292 L83.033,171.593 C83.021,171.593 83.01,171.594 82.998,171.594" id="Fill-66" fill="#626767"></path>
        <path d="M83.496,6.97 C83.359,6.935 83.217,6.914 83.072,6.909 L83.072,6.514 C83.162,6.524 83.25,6.552 83.33,6.599 L83.496,6.694 L83.496,6.97" id="Fill-70" fill="#626767"></path>
        <path d="M79.531,167.17 L58.479,130.707 L63.068,130.707 L82.338,164.082 L82.338,166.667 C82.101,166.641 81.845,166.628 81.57,166.628 L79.531,166.628 L79.531,167.17" id="Fill-71" fill="url(#linearGradient-1)"></path>
        <path d="M80.129,168.206 L79.531,167.17 L79.531,166.628 L81.57,166.628 C81.845,166.628 82.101,166.641 82.338,166.667 L82.338,167.215 C82.101,167.183 81.837,167.167 81.547,167.167 L80.129,167.167 L80.129,168.206" id="Fill-72" fill="#C86DD7"></path>
        <polyline id="Fill-73" fill="#626767" points="86.781 166.629 86.781 166.628 86.782 166.628 86.781 166.629"></polyline>
        <path d="M83.186,171.183 C83.638,171.009 83.987,170.762 84.232,170.442 C84.535,170.048 84.687,169.563 84.687,168.989 C84.687,168.2 84.434,167.609 83.926,167.217 C83.845,167.154 83.757,167.097 83.662,167.044 L83.662,164.082 L102.932,130.707 L107.521,130.707 L86.782,166.628 L86.781,166.628 L86.781,166.629 L84.721,170.198 C84.396,170.76 83.825,171.123 83.186,171.183 M82.029,170.939 C81.723,170.767 81.461,170.514 81.279,170.198 L81.046,169.794 L80.129,168.206 L80.129,167.167 L81.547,167.167 C81.837,167.167 82.101,167.183 82.338,167.215 L82.338,169.204 C82.338,169.572 82.635,169.867 83,169.867 C83.367,169.867 83.662,169.572 83.662,169.204 L83.662,167.805 C83.916,168.1 84.043,168.51 84.043,169.036 C84.043,169.665 83.844,170.141 83.445,170.463 C83.097,170.744 82.625,170.903 82.029,170.939" id="Fill-74" fill="url(#linearGradient-1)"></path>
        <path d="M83,171.191 C82.654,171.191 82.321,171.102 82.029,170.939 C82.625,170.903 83.097,170.744 83.445,170.463 C83.844,170.141 84.043,169.665 84.043,169.036 C84.043,168.51 83.916,168.1 83.662,167.805 L83.662,167.044 C83.757,167.097 83.845,167.154 83.926,167.217 C84.434,167.609 84.687,168.2 84.687,168.989 C84.687,169.563 84.535,170.048 84.232,170.442 C83.987,170.762 83.638,171.009 83.186,171.183 C83.125,171.188 83.062,171.191 83,171.191" id="Fill-75" fill="#9454C9"></path>
        <path d="M109.816,126.732 L105.227,126.732 L115.712,108.571 L119.16,110.548 L109.816,126.732 M60.773,126.732 L56.184,126.732 L46.841,110.55 L50.288,108.572 L60.773,126.732 M46.178,109.401 L36.722,93.024 L39.016,89.05 L49.625,107.424 L46.178,109.401 M119.823,109.4 L116.375,107.423 L126.984,89.05 L129.278,93.024 L119.823,109.4 M131.572,89.05 L129.278,85.076 L148.093,52.489 L152.512,49.955 C152.83,49.774 152.939,49.368 152.756,49.052 C152.634,48.837 152.412,48.718 152.183,48.718 C152.071,48.718 151.958,48.746 151.854,48.806 L147.385,51.368 L109.816,51.368 L107.521,47.393 L152.182,47.393 C152.893,47.393 153.549,47.773 153.902,48.387 C153.975,48.512 154.033,48.643 154.076,48.778 C154.245,49.305 154.187,49.885 153.902,50.374 L131.572,89.05 M34.428,89.05 L12.098,50.374 C11.744,49.761 11.744,49.002 12.098,48.387 C12.154,48.289 12.218,48.198 12.289,48.113 C12.663,47.662 13.223,47.393 13.818,47.393 L58.479,47.393 L56.184,51.368 L18.618,51.368 L14.15,48.806 C14.045,48.746 13.932,48.718 13.819,48.718 C13.589,48.718 13.366,48.837 13.244,49.052 C13.064,49.368 13.172,49.774 13.49,49.955 L17.906,52.487 L36.722,85.076 L34.428,89.05 M105.227,51.368 L83.662,51.368 L83.662,47.393 L102.932,47.393 L105.227,51.368 M82.338,51.368 L60.773,51.368 L63.068,47.393 L82.338,47.393 L82.338,51.368" id="Fill-76" fill="url(#linearGradient-2)"></path>
        <path d="M152.182,130.707 L83.662,130.707 L83.662,126.732 L147.385,126.732 L151.854,129.295 C151.957,129.353 152.07,129.383 152.182,129.383 C152.412,129.383 152.633,129.264 152.756,129.049 C152.939,128.732 152.83,128.328 152.512,128.144 L148.092,125.61 L116.375,70.676 L119.823,68.7 L153.248,126.593 L153.902,127.727 C154.007,127.907 154.081,128.099 154.124,128.296 C154.201,128.644 154.182,129.006 154.069,129.346 C154.026,129.472 153.971,129.595 153.902,129.713 C153.549,130.329 152.893,130.707 152.182,130.707 M82.338,130.707 L13.818,130.707 C13.207,130.707 12.633,130.425 12.258,129.95 C12.2,129.876 12.146,129.796 12.098,129.713 C11.744,129.1 11.744,128.342 12.098,127.727 L12.269,127.43 L12.752,126.593 L46.178,68.699 L49.625,70.675 L17.907,125.612 L13.49,128.144 C13.172,128.328 13.064,128.732 13.244,129.049 C13.367,129.264 13.592,129.383 13.818,129.383 C13.932,129.383 14.045,129.353 14.15,129.295 L18.619,126.732 L82.338,126.732 L82.338,130.707 M115.713,69.529 L83.662,14.017 L83.662,8.895 C83.662,8.53 83.367,8.233 83,8.233 C82.635,8.233 82.338,8.53 82.338,8.895 L82.338,14.017 L50.288,69.528 L46.841,67.551 L81.074,8.258 L81.279,7.902 C81.635,7.288 82.291,6.908 83,6.908 C83.024,6.908 83.048,6.908 83.072,6.909 L83.072,7.93 L83.496,7.93 L83.496,6.97 C84.007,7.102 84.45,7.434 84.721,7.902 L85.354,8.999 L119.16,67.552 L115.713,69.529" id="Fill-77" fill="url(#linearGradient-3)"></path>
        <path d="M83.496,7.93 L83.072,7.93 L83.072,6.909 C83.217,6.914 83.359,6.935 83.496,6.97 L83.496,7.93" id="Fill-78" fill="#626767"></path>
        <path d="M82.338,120.197 C81.238,120.173 80.188,120.096 79.158,119.967 C78.793,119.923 78.537,119.592 78.58,119.228 C78.623,118.897 78.91,118.645 79.226,118.645 C79.257,118.645 79.289,118.647 79.32,118.652 C80.316,118.776 81.328,118.849 82.338,118.872 L82.338,120.197 M83.662,119.959 L83.662,119.214 C83.73,119.31 83.771,119.421 83.771,119.539 C83.772,119.698 83.735,119.844 83.662,119.959 M87.164,119.914 C86.84,119.914 86.557,119.676 86.51,119.344 C86.461,118.98 86.713,118.646 87.076,118.598 C88.352,118.42 89.635,118.158 90.881,117.816 C90.94,117.801 90.998,117.794 91.056,117.794 C91.35,117.794 91.614,117.985 91.697,118.279 C91.791,118.633 91.586,118.996 91.23,119.095 C89.93,119.451 88.59,119.727 87.258,119.91 L87.164,119.914 M75.334,119.227 L75.168,119.205 C73.861,118.867 72.566,118.437 71.316,117.929 C70.977,117.79 70.813,117.404 70.953,117.066 C71.055,116.809 71.303,116.652 71.564,116.652 C71.648,116.652 71.732,116.668 71.814,116.701 C73.014,117.187 74.252,117.599 75.502,117.924 C75.853,118.016 76.068,118.377 75.977,118.732 C75.898,119.03 75.629,119.227 75.334,119.227 M94.811,117.821 C94.555,117.821 94.307,117.668 94.201,117.415 C94.061,117.078 94.217,116.689 94.555,116.549 C95.746,116.049 96.916,115.466 98.031,114.816 C98.135,114.755 98.25,114.726 98.363,114.726 C98.591,114.726 98.815,114.843 98.937,115.055 C99.123,115.37 99.016,115.776 98.699,115.961 C97.535,116.64 96.311,117.249 95.068,117.769 L94.811,117.821 M67.992,116.248 C67.881,116.248 67.768,116.219 67.664,116.16 L67.5,116.068 C66.377,115.424 65.293,114.711 64.27,113.941 C63.979,113.723 63.918,113.307 64.137,113.014 C64.267,112.84 64.468,112.749 64.669,112.749 C64.807,112.749 64.947,112.792 65.064,112.881 C66.047,113.617 67.084,114.302 68.152,114.915 L68.318,115.008 C68.637,115.189 68.748,115.596 68.566,115.912 C68.445,116.126 68.221,116.248 67.992,116.248 M101.66,113.833 C101.461,113.833 101.266,113.744 101.135,113.574 C100.912,113.285 100.963,112.871 101.254,112.644 C102.279,111.853 103.26,110.987 104.164,110.073 C104.294,109.942 104.465,109.877 104.636,109.877 C104.805,109.877 104.974,109.94 105.102,110.068 C105.361,110.326 105.363,110.746 105.107,111.006 C104.158,111.961 103.135,112.865 102.064,113.693 C101.945,113.787 101.803,113.833 101.66,113.833 M61.65,111.486 C61.486,111.486 61.318,111.424 61.187,111.297 C60.227,110.352 59.314,109.335 58.48,108.271 C58.256,107.984 58.309,107.567 58.596,107.342 C58.716,107.247 58.86,107.201 59.002,107.201 C59.199,107.201 59.393,107.289 59.523,107.456 C60.32,108.472 61.193,109.446 62.115,110.349 C62.377,110.605 62.381,111.025 62.125,111.286 C61.996,111.418 61.824,111.486 61.65,111.486 M107.244,108.204 C107.105,108.204 106.963,108.16 106.844,108.069 C106.551,107.847 106.494,107.433 106.717,107.14 C107.367,106.285 107.978,105.385 108.537,104.456 L109.686,105.116 C109.099,106.095 108.457,107.043 107.773,107.942 C107.641,108.113 107.445,108.204 107.244,108.204 M56.766,105.246 C56.614,105.246 56.465,105.194 56.347,105.098 L57.419,104.484 C57.459,104.743 57.342,105.012 57.102,105.154 C56.996,105.216 56.879,105.246 56.766,105.246 M55.654,103.967 C55.185,103.102 54.751,102.208 54.359,101.299 C54.219,100.963 54.375,100.575 54.711,100.429 C54.796,100.393 54.884,100.375 54.971,100.375 C55.228,100.375 55.473,100.527 55.58,100.779 C55.949,101.641 56.359,102.489 56.803,103.308 L55.654,103.967 M110.346,103.966 L109.195,103.306 C109.207,103.283 109.22,103.26 109.232,103.237 C109.354,103.017 109.581,102.893 109.815,102.893 C109.922,102.893 110.03,102.919 110.131,102.974 C110.451,103.146 110.57,103.551 110.398,103.872 C110.381,103.903 110.363,103.934 110.346,103.966 M111.477,100.61 L111.238,100.567 C110.896,100.435 110.729,100.051 110.857,99.71 C111.32,98.503 111.709,97.254 112.012,95.999 C112.085,95.697 112.344,95.49 112.65,95.49 C112.703,95.49 112.757,95.496 112.813,95.509 C113.168,95.595 113.387,95.952 113.301,96.309 C112.986,97.621 112.58,98.924 112.094,100.185 C111.994,100.448 111.744,100.61 111.477,100.61 M53.65,97.954 C53.361,97.954 53.096,97.764 53.012,97.472 C52.646,96.167 52.363,94.83 52.172,93.498 C52.119,93.136 52.371,92.801 52.732,92.748 C52.764,92.743 52.795,92.741 52.826,92.741 C53.148,92.741 53.436,92.98 53.482,93.31 C53.668,94.585 53.939,95.864 54.289,97.112 C54.387,97.463 54.184,97.831 53.83,97.93 L53.65,97.954 M113.33,92.902 L113.26,92.898 C112.895,92.861 112.631,92.535 112.67,92.171 C112.775,91.149 112.83,90.108 112.83,89.079 C112.83,88.814 112.826,88.551 112.82,88.29 C112.809,87.924 113.098,87.619 113.461,87.608 C113.463,87.608 113.464,87.608 113.466,87.608 C113.835,87.608 114.135,87.886 114.145,88.251 C114.152,88.529 114.156,88.805 114.156,89.082 C114.156,90.155 114.098,91.24 113.986,92.308 C113.951,92.65 113.664,92.902 113.33,92.902 M52.525,90.108 L52.516,90.108 C52.152,90.108 51.859,89.819 51.853,89.458 L51.85,89.016 C51.85,87.818 51.92,86.599 52.061,85.402 C52.1,85.066 52.377,84.816 52.713,84.816 C52.741,84.816 52.769,84.818 52.797,84.821 C53.16,84.864 53.418,85.194 53.377,85.556 C53.242,86.702 53.176,87.868 53.176,89.023 L53.18,89.433 C53.184,89.8 52.895,90.1 52.525,90.108 M113.117,84.977 C112.797,84.977 112.514,84.745 112.463,84.418 C112.262,83.14 111.973,81.864 111.611,80.627 C111.508,80.276 111.707,79.908 112.059,79.805 C112.122,79.786 112.186,79.778 112.249,79.778 C112.536,79.778 112.798,79.965 112.883,80.253 C113.262,81.544 113.562,82.877 113.771,84.211 C113.83,84.573 113.582,84.912 113.221,84.969 L113.117,84.977 M53.441,82.235 L53.279,82.215 C52.924,82.124 52.709,81.765 52.801,81.41 C53.133,80.098 53.553,78.798 54.053,77.548 C54.157,77.289 54.405,77.131 54.669,77.131 C54.751,77.131 54.835,77.146 54.916,77.179 C55.254,77.315 55.42,77.701 55.283,78.04 C54.807,79.236 54.402,80.48 54.084,81.735 C54.01,82.035 53.738,82.235 53.441,82.235 M110.879,77.373 C110.625,77.373 110.381,77.225 110.273,76.977 C109.947,76.236 109.588,75.505 109.201,74.791 L110.35,74.131 C110.761,74.886 111.14,75.659 111.484,76.443 C111.635,76.777 111.482,77.168 111.148,77.315 L110.879,77.373 M56.375,74.872 C56.264,74.872 56.154,74.844 56.055,74.787 C55.822,74.66 55.696,74.414 55.712,74.166 L56.746,74.759 C56.636,74.832 56.506,74.872 56.375,74.872 M57.466,73.644 L56.318,72.985 C56.836,72.122 57.4,71.281 57.994,70.477 C58.123,70.301 58.324,70.208 58.527,70.208 C58.664,70.208 58.803,70.25 58.92,70.338 C59.215,70.556 59.279,70.971 59.059,71.265 C58.495,72.028 57.961,72.825 57.466,73.644 M108.543,73.641 C108.521,73.604 108.499,73.568 108.477,73.532 C108.285,73.22 108.383,72.812 108.697,72.622 C108.804,72.557 108.923,72.525 109.041,72.525 C109.264,72.525 109.482,72.638 109.607,72.843 C109.636,72.889 109.664,72.936 109.691,72.982 L108.543,73.641 M106.762,70.598 C106.568,70.598 106.377,70.514 106.244,70.351 C105.436,69.345 104.553,68.383 103.617,67.491 C103.35,67.238 103.34,66.819 103.594,66.554 C103.725,66.418 103.899,66.349 104.074,66.349 C104.238,66.349 104.402,66.41 104.529,66.532 C105.508,67.463 106.434,68.47 107.277,69.52 C107.506,69.805 107.459,70.222 107.174,70.452 C107.053,70.551 106.906,70.598 106.762,70.598 M61.096,68.503 C60.93,68.503 60.764,68.441 60.635,68.317 C60.373,68.063 60.365,67.644 60.619,67.38 C61.559,66.41 62.57,65.491 63.625,64.653 C63.748,64.556 63.893,64.509 64.038,64.509 C64.234,64.509 64.427,64.595 64.559,64.761 C64.787,65.048 64.736,65.465 64.449,65.692 C63.439,66.494 62.469,67.372 61.57,68.302 C61.441,68.436 61.268,68.503 61.096,68.503 M101.027,65.126 C100.889,65.126 100.752,65.084 100.633,64.996 C99.75,64.35 98.813,63.741 97.85,63.187 L97.355,62.91 C97.035,62.735 96.918,62.33 97.094,62.011 C97.217,61.791 97.443,61.668 97.676,61.668 C97.783,61.668 97.893,61.694 97.994,61.749 L98.51,62.038 C99.518,62.619 100.496,63.252 101.416,63.928 C101.713,64.145 101.775,64.559 101.561,64.854 C101.43,65.031 101.229,65.126 101.027,65.126 M67.303,63.574 C67.078,63.574 66.859,63.459 66.734,63.252 C66.547,62.939 66.648,62.532 66.961,62.344 C68.123,61.647 69.338,61.024 70.572,60.488 C70.658,60.452 70.747,60.435 70.834,60.435 C71.091,60.435 71.335,60.583 71.445,60.834 C71.59,61.168 71.434,61.559 71.102,61.704 C69.918,62.217 68.756,62.814 67.643,63.479 C67.537,63.544 67.42,63.574 67.303,63.574 M94.08,61.308 L93.836,61.262 C92.633,60.791 91.389,60.395 90.133,60.087 C89.779,59.999 89.561,59.639 89.648,59.285 C89.725,58.984 89.986,58.78 90.286,58.78 C90.34,58.78 90.395,58.787 90.451,58.801 C91.76,59.123 93.062,59.536 94.32,60.028 C94.662,60.162 94.83,60.547 94.695,60.887 C94.596,61.148 94.344,61.308 94.08,61.308 M74.576,60.415 C74.287,60.415 74.023,60.227 73.939,59.937 C73.838,59.585 74.041,59.217 74.393,59.116 C75.689,58.744 77.023,58.453 78.355,58.252 C78.388,58.248 78.42,58.245 78.452,58.245 C78.774,58.245 79.062,58.477 79.111,58.807 C79.164,59.168 78.916,59.507 78.555,59.561 C77.277,59.754 76.002,60.033 74.76,60.39 L74.576,60.415 M86.383,59.409 L86.311,59.405 C85.434,59.308 84.545,59.249 83.662,59.23 L83.662,57.905 C84.594,57.924 85.531,57.985 86.455,58.087 C86.816,58.127 87.082,58.456 87.041,58.819 C87.004,59.158 86.717,59.409 86.383,59.409 M82.338,59.226 C82.014,59.187 81.757,58.914 81.752,58.579 C81.745,58.235 82.003,57.948 82.338,57.909 L82.338,59.226" id="Fill-79" fill="#EBEBE7"></path>
        <path d="M82.338,102.993 C80.126,102.894 78.014,102.276 76.057,101.149 C74.073,100.01 72.434,98.437 71.239,96.559 L72.391,95.898 C73.469,97.575 74.94,98.98 76.717,99.999 C78.473,101.009 80.359,101.568 82.338,101.666 L82.338,102.993 M83.662,102.99 L83.662,101.663 C87.704,101.442 91.42,99.288 93.611,95.897 L94.761,96.557 C92.335,100.359 88.178,102.768 83.662,102.99 M95.421,95.407 L94.27,94.748 C96.135,91.061 96.017,86.834 94.265,83.355 L95.416,82.695 C97.391,86.57 97.526,91.297 95.421,95.407 M70.582,95.407 C70.146,94.551 69.796,93.643 69.539,92.694 C68.623,89.308 68.996,85.784 70.582,82.692 L71.734,83.353 C70.321,86.136 69.994,89.304 70.818,92.347 C71.046,93.185 71.353,93.988 71.734,94.747 L70.582,95.407 M93.607,82.204 C92.551,80.561 91.097,79.14 89.289,78.102 C87.566,77.114 85.634,76.545 83.662,76.444 L83.662,75.118 C85.865,75.22 88.025,75.848 89.949,76.954 C91.968,78.113 93.588,79.704 94.758,81.544 L93.607,82.204 M72.394,82.203 L71.242,81.543 C73.67,77.746 77.825,75.342 82.338,75.12 L82.338,76.446 C78.298,76.665 74.583,78.815 72.394,82.203" id="Fill-80" fill="#8770B7"></path>
        <path d="M83,169.867 C82.635,169.867 82.338,169.572 82.338,169.204 L82.338,167.215 C82.822,167.281 83.195,167.413 83.457,167.612 C83.533,167.67 83.601,167.734 83.662,167.805 L83.662,169.204 C83.662,169.572 83.367,169.867 83,169.867 M83.662,167.044 C83.315,166.852 82.873,166.726 82.338,166.667 L82.338,90.194 L83.001,89.814 L83.662,90.193 L83.662,167.044" id="Fill-81" fill="url(#linearGradient-4)"></path>
        <path d="M83.662,167.805 C83.601,167.734 83.533,167.67 83.457,167.612 C83.195,167.413 82.822,167.281 82.338,167.215 L82.338,166.667 C82.873,166.726 83.315,166.852 83.662,167.044 L83.662,167.805" id="Fill-82" fill="#F76B1C"></path>
        <path d="M83.001,88.286 L82.338,87.906 L82.338,8.895 C82.338,8.53 82.635,8.233 83,8.233 C83.367,8.233 83.662,8.53 83.662,8.895 L83.662,87.907 L83.001,88.286" id="Fill-83" fill="url(#linearGradient-5)"></path>
        <path d="M13.818,129.383 C13.592,129.383 13.367,129.264 13.244,129.049 C13.064,128.732 13.172,128.328 13.49,128.144 L70.582,95.407 L71.734,94.747 L81.669,89.05 L83.001,89.814 L82.338,90.194 L72.391,95.898 L71.239,96.559 L57.419,104.484 L56.347,105.098 L50.288,108.572 L46.841,110.55 L14.15,129.295 C14.045,129.353 13.932,129.383 13.818,129.383 M84.334,89.05 L83.001,88.286 L108.543,73.641 L109.691,72.982 L151.854,48.806 C151.958,48.746 152.071,48.718 152.183,48.718 C152.412,48.718 152.634,48.837 152.756,49.052 C152.939,49.368 152.83,49.774 152.512,49.955 L119.823,68.7 L116.375,70.676 L110.35,74.131 L109.201,74.791 L84.334,89.05" id="Fill-84" fill="url(#radialGradient-6)"></path>
        <path d="M152.182,129.383 C152.07,129.383 151.957,129.353 151.854,129.295 L109.686,105.116 L108.537,104.456 L94.761,96.557 L93.611,95.897 L83.001,89.814 L71.734,83.353 L70.582,82.692 L13.49,49.955 C13.172,49.774 13.064,49.368 13.244,49.052 C13.366,48.837 13.589,48.718 13.819,48.718 C13.932,48.718 14.045,48.746 14.15,48.806 L56.318,72.985 L57.466,73.644 L71.242,81.543 L72.394,82.203 L82.338,87.906 L84.334,89.05 L94.27,94.748 L95.421,95.407 L152.512,128.144 C152.83,128.328 152.939,128.732 152.756,129.049 C152.633,129.264 152.412,129.383 152.182,129.383" id="Fill-85" fill="url(#radialGradient-7)"></path>
        <path d="M36.375,62.325 L83,143.08 L129.625,62.325 L36.375,62.325 Z M83,147.309 C82.498,147.309 82.031,147.041 81.779,146.603 L32.715,61.62 C32.463,61.185 32.463,60.647 32.715,60.21 C32.965,59.775 33.432,59.505 33.934,59.505 L132.066,59.505 C132.57,59.505 133.035,59.775 133.287,60.21 C133.541,60.647 133.541,61.185 133.287,61.62 L84.221,146.603 C83.969,147.041 83.506,147.309 83,147.309 Z" id="Fill-87" fill="url(#linearGradient-8)"></path>
        <path d="M36.375,115.775 L129.625,115.775 L83,35.021 L36.375,115.775 Z M132.066,118.596 L33.934,118.596 C33.432,118.596 32.965,118.327 32.715,117.891 C32.463,117.455 32.463,116.918 32.715,116.48 L81.779,31.497 C82.031,31.062 82.498,30.792 83,30.792 C83.506,30.792 83.969,31.062 84.221,31.497 L133.287,116.48 C133.541,116.918 133.541,117.455 133.287,117.891 C133.035,118.327 132.57,118.596 132.066,118.596 Z" id="Fill-88" fill="url(#radialGradient-9)"></path>
        <path d="M83.018,80.098 C79.809,80.098 76.826,81.82 75.234,84.594 C74.045,86.664 73.734,89.078 74.361,91.389 C74.986,93.7 76.471,95.627 78.543,96.816 C79.922,97.609 81.414,98.01 82.982,98.01 L82.982,98.479 L82.992,98.01 C86.197,98.006 89.176,96.282 90.768,93.511 C93.225,89.227 91.742,83.744 87.461,81.286 C86.107,80.51 84.572,80.098 83.018,80.098 Z M82.982,98.95 C81.25,98.95 79.598,98.507 78.076,97.631 C75.787,96.317 74.145,94.188 73.453,91.635 C72.762,89.081 73.105,86.415 74.42,84.125 C76.178,81.062 79.473,79.159 83.018,79.159 C84.734,79.159 86.434,79.612 87.93,80.471 C92.658,83.186 94.299,89.246 91.582,93.979 C89.824,97.04 86.533,98.946 82.994,98.95 L82.982,98.95 Z" id="Fill-90" fill="#8770B7"></path>
    </g>
</svg>