<svg xmlns="http://www.w3.org/2000/svg" xmlns:xlink="http://www.w3.org/1999/xlink" viewBox="0 0 612.14 591.78"><defs><style>.cls-1,.cls-10,.cls-11,.cls-12,.cls-13,.cls-14,.cls-15,.cls-16,.cls-18,.cls-19,.cls-20,.cls-21,.cls-22,.cls-23,.cls-24,.cls-25,.cls-4,.cls-5,.cls-6,.cls-7,.cls-8,.cls-9{fill:none;}.cls-2{isolation:isolate;}.cls-3{clip-path:url(#clip-path);}.cls-10,.cls-11,.cls-12,.cls-13,.cls-14,.cls-15,.cls-16,.cls-18,.cls-19,.cls-20,.cls-21,.cls-22,.cls-23,.cls-24,.cls-25,.cls-4,.cls-5,.cls-6,.cls-7,.cls-8,.cls-9{stroke:#fff;stroke-miterlimit:10;}.cls-4{opacity:0.2;}.cls-5{opacity:0.27;}.cls-6{opacity:0.33;}.cls-7{opacity:0.4;}.cls-8{opacity:0.47;}.cls-9{opacity:0.53;}.cls-10{opacity:0.6;}.cls-11{opacity:0.67;}.cls-12{opacity:0.73;}.cls-13{opacity:0.8;}.cls-14{opacity:0.87;}.cls-15{opacity:0.93;}.cls-17{clip-path:url(#clip-path-2);}.cls-18{opacity:0.88;}.cls-19,.cls-30{opacity:0.75;}.cls-20{opacity:0.63;}.cls-21,.cls-31{opacity:0.5;}.cls-22{opacity:0.38;}.cls-23,.cls-32{opacity:0.25;}.cls-24{opacity:0.13;}.cls-25,.cls-33{opacity:0;}.cls-26{clip-path:url(#clip-path-3);}.cls-27{clip-path:url(#clip-path-4);}.cls-28{mix-blend-mode:color-dodge;}.cls-29{fill:#fff;}.cls-30{fill:#bfbfbf;}.cls-31{fill:gray;}.cls-32{fill:#404040;}.cls-34{clip-path:url(#clip-path-5);}.cls-35{clip-path:url(#clip-path-6);}.cls-36{clip-path:url(#clip-path-7);}.cls-37{clip-path:url(#clip-path-8);}.cls-38{clip-path:url(#clip-path-9);}.cls-39{clip-path:url(#clip-path-10);}.cls-40{clip-path:url(#clip-path-11);}.cls-41{clip-path:url(#clip-path-12);}.cls-42{clip-path:url(#clip-path-13);}.cls-43{clip-path:url(#clip-path-14);}.cls-44{clip-path:url(#clip-path-15);}.cls-45{fill:#2b2b2b;opacity:0.17;}.cls-46{fill:#555;opacity:0.33;}.cls-47{fill:#aaa;opacity:0.67;}.cls-48{fill:#d4d4d4;opacity:0.83;}</style><clipPath id="clip-path"><path class="cls-1" d="M479.94,296.79a100,100,0,0,0-86.61-150,100,100,0,0,0-173.22,0,100,100,0,0,0-86.61,150,100,100,0,0,0,86.61,150,100,100,0,0,0,173.22,0,100,100,0,0,0,86.61-150Zm101.78,0c0,151.88-123.12,275-275,275s-275-123.12-275-275,123.12-275,275-275S581.72,144.91,581.72,296.79Z"/></clipPath><clipPath id="clip-path-2"><path class="cls-1" d="M306.72,86.79c-116,0-210,94-210,210s94,210,210,210,210-94,210-210S422.7,86.79,306.72,86.79Zm0,10s13.5,22.39,13.5,50-13.5,50-13.5,50-13.5-22.39-13.5-50S306.72,96.79,306.72,96.79ZM183.57,210.1c23.37,13.5,36,35.65,36.52,36.65v0c-.79,0-26.48.29-50-13.31-23.92-13.81-36.56-36.69-36.56-36.69S159.65,196.29,183.57,210.1Zm36.52,136.73c-.56,1-13.15,23.15-36.52,36.65-23.92,13.81-50.06,13.31-50.06,13.31s12.64-22.88,36.56-36.69c23.54-13.6,49.22-13.33,50-13.31Zm86.63,150A95.66,95.66,0,0,1,300,482.14a102.84,102.84,0,0,1-6.75-35.35c0-27.62,13.5-50,13.5-50s13.5,22.38,13.5,50S306.72,496.79,306.72,496.79Zm173.2-100s-26.14.49-50.05-13.31c-23.74-13.71-36.36-36.35-36.54-36.68a100,100,0,1,1,0-100c.18-.33,12.8-23,36.54-36.68,23.91-13.8,50-13.31,50.05-13.31h0s-12.65,22.89-36.56,36.69c-23.75,13.72-49.69,13.32-50,13.31h0a100.13,100.13,0,0,1,0,100h0c.34,0,26.28-.41,50,13.31,23.91,13.8,36.54,36.67,36.56,36.69Z"/></clipPath><clipPath id="clip-path-3"><circle class="cls-1" cx="306.72" cy="296.79" r="100"/></clipPath><clipPath id="clip-path-4"><path class="cls-1" d="M335.37,247H393L364.19,296.9H306.55Zm57.84-.11s-26.1-.5-50,13.29-36.5,36.63-36.5,36.63,26.1.5,50-13.28S393.21,246.87,393.21,246.87Z"/></clipPath><clipPath id="clip-path-5"><path class="cls-1" d="M248.89,296.9h57.65l-28.82,49.92H220.07Zm57.84-.11s-26.1-.49-50,13.29-36.49,36.64-36.49,36.64,26.1.5,50-13.29S306.73,296.79,306.73,296.79Z"/></clipPath><clipPath id="clip-path-6"><path class="cls-1" d="M277.81,247l28.83-49.92L335.46,247,306.64,297Zm28.83-50.14s-13.48,22.35-13.48,49.93,13.48,49.92,13.48,49.92,13.48-22.35,13.48-49.92S306.64,196.89,306.64,196.89Z"/></clipPath><clipPath id="clip-path-7"><path class="cls-1" d="M277.82,346.89,306.64,297l28.82,49.93-28.82,49.92Zm28.82-50.15s-13.48,22.35-13.48,49.93,13.48,49.92,13.48,49.92,13.48-22.35,13.48-49.92S306.64,296.74,306.64,296.74Z"/></clipPath><clipPath id="clip-path-8"><path class="cls-1" d="M249.09,296.9,220.27,247h57.64l28.82,49.92Zm-29-50s12.62,22.85,36.5,36.64,50,13.29,50,13.29-12.62-22.86-36.5-36.64S220.07,246.87,220.07,246.87Z"/></clipPath><clipPath id="clip-path-9"><path class="cls-1" d="M335.56,346.83,306.74,296.9h57.65l28.82,49.93Zm-29-50s12.61,22.85,36.49,36.63,50,13.29,50,13.29-12.61-22.85-36.49-36.64S306.55,296.8,306.55,296.8Z"/></clipPath><clipPath id="clip-path-10"><path class="cls-1" d="M248.94,196.92h57.65l-28.83,49.92H220.12Zm57.84-.11s-26.1-.5-50,13.29-36.5,36.64-36.5,36.64,26.1.49,50-13.29S306.78,196.81,306.78,196.81Z"/></clipPath><clipPath id="clip-path-11"><path class="cls-1" d="M335.51,346.86h57.64l-28.82,49.92H306.69Zm57.83-.11s-26.09-.5-50,13.29-36.5,36.63-36.5,36.63,26.1.5,50-13.28S393.34,346.75,393.34,346.75Z"/></clipPath><clipPath id="clip-path-12"><path class="cls-1" d="M191.34,296.91,220.17,247,249,296.91l-28.82,49.92Zm28.82-50.15s-13.48,22.35-13.48,49.93,13.48,49.93,13.48,49.93,13.48-22.36,13.48-49.93S220.16,246.76,220.16,246.76Z"/></clipPath><clipPath id="clip-path-13"><path class="cls-1" d="M364.47,296.91,393.3,247l28.82,49.93L393.3,346.83Zm28.83-50.15s-13.48,22.36-13.48,49.93,13.48,49.93,13.48,49.93,13.48-22.36,13.48-49.93S393.3,246.76,393.3,246.76Z"/></clipPath><clipPath id="clip-path-14"><path class="cls-1" d="M249.13,396.78l-28.82-49.92H278l28.82,49.92Zm-29-50s12.62,22.85,36.5,36.64,50,13.28,50,13.28S294,373.83,270.1,360,220.12,346.75,220.12,346.75Z"/></clipPath><clipPath id="clip-path-15"><path class="cls-1" d="M335.7,246.84l-28.82-49.92h57.64l28.83,49.92Zm-29-50s12.61,22.85,36.49,36.64,50,13.29,50,13.29-12.62-22.85-36.5-36.64S306.69,196.81,306.69,196.81Z"/></clipPath></defs><title>Artboard 2</title><g class="cls-2"><g id="_ÎÓÈ_2" data-name="—ÎÓÈ_2"><g id="_ÌÂ_ÌËÂ_Í_Û_Ë" data-name="¬ÌÂ¯ÌËÂ_ÍÛ„Ë"><g class="cls-3"><path class="cls-4" d="M133.52,196.79a100,100,0,1,1-100,100A100,100,0,0,1,133.52,196.79Z"/><path class="cls-5" d="M233.52,296.78c0,52.93-42.17,95.84-92.79,95.84s-92.8-42.91-92.8-95.84S90.1,201,140.73,201,233.52,243.86,233.52,296.78Z"/><path class="cls-6" d="M233.52,296.77c0,50.63-39.56,91.67-85.59,91.67s-85.58-41-85.58-91.67,39.56-91.66,85.59-91.66S233.52,246.15,233.52,296.77Z"/><path class="cls-7" d="M233.52,296.77c0,48.32-37,87.5-78.38,87.5s-78.37-39.18-78.37-87.5,37-87.5,78.37-87.5S233.52,248.44,233.52,296.77Z"/><path class="cls-8" d="M233.52,296.76c0,46-34.35,83.33-71.17,83.33s-71.16-37.31-71.16-83.33,34.34-83.34,71.16-83.34S233.52,250.73,233.52,296.76Z"/><path class="cls-9" d="M233.52,296.75c0,43.72-31.74,79.16-64,79.16s-64-35.44-64-79.16,31.75-79.17,64-79.17S233.52,253,233.52,296.75Z"/><path class="cls-10" d="M233.52,296.74c0,41.42-29.13,75-56.75,75S120,338.16,120,296.74s29.14-75,56.75-75S233.52,255.32,233.52,296.74Z"/><path class="cls-11" d="M233.52,296.73c0,39.12-26.53,70.83-49.54,70.83s-49.54-31.71-49.54-70.83S161,225.9,184,225.9,233.52,257.61,233.52,296.73Z"/><path class="cls-12" d="M233.52,296.72c0,36.82-23.92,66.67-42.33,66.67s-42.33-29.85-42.33-66.67,23.92-66.67,42.33-66.67S233.52,259.9,233.52,296.72Z"/><path class="cls-13" d="M233.52,296.71c0,34.52-21.31,62.5-35.12,62.5s-35.13-28-35.13-62.5,21.32-62.5,35.13-62.5S233.52,262.19,233.52,296.71Z"/><path class="cls-14" d="M233.53,296.7c0,32.22-18.72,58.34-27.92,58.34s-27.92-26.12-27.92-58.34,18.71-58.33,27.92-58.33S233.53,264.49,233.53,296.7Z"/><path class="cls-15" d="M233.53,296.69c0,29.92-16.11,54.17-20.71,54.17s-20.71-24.25-20.71-54.17,16.11-54.16,20.71-54.16S233.53,266.78,233.53,296.69Z"/><path class="cls-16" d="M233.53,296.69c0,27.61-13.5,50-13.5,50s-13.5-22.39-13.5-50,13.5-50,13.5-50S233.53,269.07,233.53,296.69Z"/><circle class="cls-4" cx="479.94" cy="296.79" r="100"/><ellipse class="cls-5" cx="472.73" cy="296.78" rx="92.79" ry="95.83"/><ellipse class="cls-6" cx="465.52" cy="296.77" rx="85.58" ry="91.67"/><ellipse class="cls-7" cx="458.31" cy="296.77" rx="78.37" ry="87.5"/><ellipse class="cls-8" cx="451.11" cy="296.76" rx="71.17" ry="83.33"/><ellipse class="cls-9" cx="443.9" cy="296.75" rx="63.96" ry="79.17"/><ellipse class="cls-10" cx="436.69" cy="296.74" rx="56.75" ry="75"/><ellipse class="cls-11" cx="429.48" cy="296.73" rx="49.54" ry="70.83"/><ellipse class="cls-12" cx="422.27" cy="296.72" rx="42.33" ry="66.67"/><ellipse class="cls-13" cx="415.06" cy="296.71" rx="35.12" ry="62.5"/><ellipse class="cls-14" cx="407.85" cy="296.7" rx="27.92" ry="58.33"/><ellipse class="cls-15" cx="400.64" cy="296.69" rx="20.71" ry="54.17"/><path class="cls-16" d="M379.93,296.69c0,27.61,13.5,50,13.5,50s13.5-22.39,13.5-50-13.5-50-13.5-50S379.93,269.07,379.93,296.69Z"/><path class="cls-4" d="M133.52,396.8a100,100,0,1,1,36.6,136.6A100,100,0,0,1,133.52,396.8Z"/><path class="cls-5" d="M270.12,360.19C316,386.65,332,444.62,306.71,488.47s-83.55,58.9-129.39,32.44-61.91-84.43-36.59-128.28S224.28,333.73,270.12,360.19Z"/><path class="cls-6" d="M270.11,360.19c43.84,25.31,59.6,80.09,36.59,120s-78.33,53.59-122.17,28.28-59.61-80.09-36.6-119.95S226.27,334.87,270.11,360.19Z"/><path class="cls-7" d="M270.1,360.18c41.85,24.16,57.3,75.75,36.59,111.63s-73.11,48.28-115,24.12-57.3-75.75-36.59-111.63S228.25,336,270.1,360.18Z"/><path class="cls-8" d="M270.09,360.18c39.86,23,55,71.41,36.59,103.29s-67.9,43-107.75,20-55-71.41-36.59-103.3S230.24,337.16,270.09,360.18Z"/><path class="cls-9" d="M270.09,360.17c37.86,21.86,52.69,67.07,36.58,95S244,492.81,206.13,471s-52.69-67.07-36.58-95S232.22,338.31,270.09,360.17Z"/><path class="cls-10" d="M270.08,360.17c35.87,20.71,50.38,62.73,36.58,86.64s-57.46,32.36-93.33,11.65S163,395.73,176.75,371.81,234.21,339.45,270.08,360.17Z"/><path class="cls-11" d="M270.07,360.16c33.88,19.56,48.08,58.39,36.57,78.32s-52.23,27-86.11,7.49S172.45,387.58,184,367.65,236.19,340.6,270.07,360.16Z"/><path class="cls-12" d="M270.07,360.15c31.88,18.41,45.77,54.06,36.56,70s-47,21.74-78.9,3.33-45.77-54.05-36.57-70S238.18,341.74,270.07,360.15Z"/><path class="cls-13" d="M270.06,360.15c29.89,17.26,43.47,49.71,36.56,61.67s-41.79,16.43-71.69-.83-43.46-49.71-36.56-61.67S240.16,342.89,270.06,360.15Z"/><path class="cls-14" d="M270.05,360.14c27.9,16.11,41.16,45.38,36.56,53.35s-36.58,11.12-64.48-5S201,363.13,205.57,355.15,242.15,344,270.05,360.14Z"/><path class="cls-15" d="M270,360.14c25.91,15,38.86,41,36.56,45S275.24,411,249.34,396s-38.86-41-36.56-45S244.14,345.18,270,360.14Z"/><path class="cls-16" d="M270,360.13c23.91,13.81,36.55,36.7,36.55,36.7s-26.14.49-50-13.31S220,346.83,220,346.83,246.12,346.33,270,360.13Z"/><circle class="cls-4" cx="393.34" cy="146.79" r="100" transform="translate(245.21 539.62) rotate(-89.81)"/><ellipse class="cls-5" cx="389.72" cy="153.02" rx="92.79" ry="95.83" transform="translate(62.33 414.01) rotate(-60)"/><ellipse class="cls-6" cx="386.11" cy="159.26" rx="85.58" ry="91.67" transform="translate(55.12 414.01) rotate(-60)"/><ellipse class="cls-7" cx="382.5" cy="165.5" rx="78.37" ry="87.5" transform="matrix(0.5, -0.87, 0.87, 0.5, 47.92, 414)"/><ellipse class="cls-8" cx="378.89" cy="171.74" rx="71.17" ry="83.33" transform="translate(40.71 413.99) rotate(-60)"/><ellipse class="cls-9" cx="375.27" cy="177.98" rx="63.96" ry="79.17" transform="translate(33.5 413.99) rotate(-60)"/><ellipse class="cls-10" cx="371.66" cy="184.22" rx="56.75" ry="75" transform="translate(26.29 413.98) rotate(-60)"/><ellipse class="cls-11" cx="368.05" cy="190.46" rx="49.54" ry="70.83" transform="matrix(0.5, -0.87, 0.87, 0.5, 19.08, 413.97)"/><ellipse class="cls-12" cx="364.44" cy="196.7" rx="42.33" ry="66.67" transform="translate(11.87 413.96) rotate(-60)"/><ellipse class="cls-13" cx="360.83" cy="202.94" rx="35.12" ry="62.5" transform="translate(4.66 413.95) rotate(-60)"/><ellipse class="cls-14" cx="357.21" cy="209.17" rx="27.92" ry="58.33" transform="translate(-2.54 413.94) rotate(-60)"/><ellipse class="cls-15" cx="353.6" cy="215.41" rx="20.71" ry="54.17" transform="translate(-9.75 413.93) rotate(-60)"/><path class="cls-16" d="M343.24,233.34c23.91,13.81,50.05,13.31,50.05,13.31S380.65,223.77,356.74,210s-50.05-13.31-50.05-13.31S319.32,219.54,343.24,233.34Z"/><path class="cls-4" d="M306.73,496.8a100,100,0,1,1,136.61,36.6A100,100,0,0,1,306.73,496.8Z"/><path class="cls-5" d="M343.33,360.2c45.83-26.46,104.07-11.4,129.39,32.44s9.24,101.82-36.6,128.28S332,532.32,306.73,488.48,297.49,386.66,343.33,360.2Z"/><path class="cls-6" d="M343.32,360.2c43.84-25.31,99.17-11.57,122.18,28.29s7.25,94.64-36.6,120S329.74,520,306.72,480.15,299.48,385.52,343.32,360.2Z"/><path class="cls-7" d="M343.31,360.21c41.85-24.17,94.26-11.75,115,24.12s5.26,87.46-36.59,111.63-94.26,11.74-115-24.13S301.46,384.37,343.31,360.21Z"/><path class="cls-8" d="M343.3,360.21c39.86-23,89.35-11.92,107.76,20s3.27,80.28-36.59,103.3-89.34,11.92-107.75-20S303.45,383.22,343.3,360.21Z"/><path class="cls-9" d="M343.3,360.21c37.86-21.86,84.43-12.09,100.53,15.81s1.29,73.11-36.58,95-84.43,12.1-100.54-15.8S305.43,382.08,343.3,360.21Z"/><path class="cls-10" d="M343.29,360.22c35.87-20.71,79.52-12.27,93.32,11.65s-.7,65.93-36.57,86.64-79.52,12.27-93.33-11.64S307.41,380.93,343.29,360.22Z"/><ellipse class="cls-11" cx="368.05" cy="403.13" rx="70.83" ry="49.54" transform="translate(-152.25 238.03) rotate(-30)"/><ellipse class="cls-12" cx="364.44" cy="396.89" rx="66.67" ry="42.33" transform="translate(-149.62 235.39) rotate(-30)"/><ellipse class="cls-13" cx="360.83" cy="390.65" rx="62.5" ry="35.13" transform="translate(-146.98 232.75) rotate(-30)"/><path class="cls-14" d="M343.25,360.23c27.9-16.11,59.88-13,64.48-5s-8.66,37.24-36.56,53.35-59.87,13-64.48,5S315.35,376.34,343.25,360.23Z"/><path class="cls-15" d="M343.25,360.24c25.9-15,55-13.14,57.26-9.15s-10.65,30.06-36.56,45-55,13.14-57.26,9.15S317.34,375.19,343.25,360.24Z"/><path class="cls-16" d="M343.24,360.24c23.91-13.81,50.05-13.31,50.05-13.31s-12.64,22.89-36.55,36.69-50.05,13.31-50.05,13.31S319.32,374.05,343.24,360.24Z"/><circle class="cls-4" cx="220.12" cy="146.79" r="100"/><ellipse class="cls-5" cx="223.72" cy="153.03" rx="95.83" ry="92.79" transform="translate(-46.54 132.36) rotate(-30)"/><ellipse class="cls-6" cx="227.32" cy="159.28" rx="91.67" ry="85.58" transform="translate(-49.19 134.99) rotate(-30)"/><ellipse class="cls-7" cx="230.91" cy="165.53" rx="87.5" ry="78.37" transform="translate(-51.83 137.63) rotate(-30)"/><ellipse class="cls-8" cx="234.51" cy="171.78" rx="83.33" ry="71.17" transform="translate(-54.47 140.27) rotate(-30)"/><ellipse class="cls-9" cx="238.11" cy="178.02" rx="79.17" ry="63.96" transform="translate(-57.11 142.9) rotate(-30)"/><ellipse class="cls-10" cx="241.7" cy="184.27" rx="75" ry="56.75" transform="translate(-59.75 145.54) rotate(-30)"/><path class="cls-11" d="M270.07,233.42C304,213.86,318.15,175,306.65,155.1s-52.24-27-86.12-7.48S172.45,206,184,225.94,236.19,253,270.07,233.42Z"/><path class="cls-12" d="M270.07,233.43c31.88-18.41,45.77-54.05,36.56-70s-47-21.73-78.9-3.32-45.77,54-36.57,70S238.18,251.84,270.07,233.43Z"/><path class="cls-13" d="M270.06,233.44c29.89-17.26,43.47-49.72,36.56-61.67s-41.79-16.43-71.69.83-43.46,49.71-36.56,61.67S240.16,250.69,270.06,233.44Z"/><path class="cls-14" d="M270.05,233.44c27.9-16.11,41.16-45.37,36.56-53.34s-36.58-11.12-64.48,5S201,230.46,205.57,238.43,242.15,249.55,270.05,233.44Z"/><path class="cls-15" d="M270,233.45c25.91-15,38.86-41,36.56-45s-31.36-5.81-57.27,9.15-38.85,41-36.55,45S244.14,248.4,270,233.45Z"/><path class="cls-16" d="M270,233.45c23.91-13.81,36.55-36.69,36.55-36.69s-26.14-.5-50,13.31S220,246.76,220,246.76,246.12,247.26,270,233.45Z"/></g></g></g><g id="_ÎÓÈ_3" data-name="—ÎÓÈ_3"><g id="__1_" data-name="¬_1¡"><g class="cls-17"><circle class="cls-16" cx="306.72" cy="196.79" r="100"/><ellipse class="cls-18" cx="306.72" cy="203.04" rx="89.19" ry="93.75"/><ellipse class="cls-19" cx="306.72" cy="209.29" rx="78.38" ry="87.5"/><ellipse class="cls-20" cx="306.72" cy="215.54" rx="67.56" ry="81.25"/><path class="cls-21" d="M363.47,221.79c0,41.42-29.13,75-56.75,75S250,263.21,250,221.79s29.14-75,56.75-75S363.47,180.37,363.47,221.79Z"/><path class="cls-22" d="M352.66,228c0,38-25.23,68.75-45.94,68.75S260.78,266,260.78,228s25.23-68.75,45.94-68.75S352.66,190.07,352.66,228Z"/><path class="cls-23" d="M341.85,234.29c0,34.52-21.32,62.5-35.13,62.5s-35.12-28-35.12-62.5,21.31-62.5,35.12-62.5S341.85,199.77,341.85,234.29Z"/><path class="cls-24" d="M331,240.54c0,31.07-17.4,56.25-24.31,56.25s-24.31-25.18-24.31-56.25,17.41-56.25,24.31-56.25S331,209.48,331,240.54Z"/><path class="cls-25" d="M320.22,246.79c0,27.62-13.5,50-13.5,50s-13.5-22.38-13.5-50,13.5-50,13.5-50S320.22,219.18,320.22,246.79Z"/><circle class="cls-16" cx="306.72" cy="396.79" r="100"/><ellipse class="cls-18" cx="306.72" cy="390.54" rx="89.19" ry="93.75"/><ellipse class="cls-19" cx="306.72" cy="384.29" rx="78.38" ry="87.5"/><ellipse class="cls-20" cx="306.72" cy="378.04" rx="67.56" ry="81.25"/><path class="cls-21" d="M363.47,371.79c0-41.42-29.13-75-56.75-75S250,330.37,250,371.79s29.14,75,56.75,75S363.47,413.21,363.47,371.79Z"/><path class="cls-22" d="M352.66,365.54c0-38-25.23-68.75-45.94-68.75s-45.94,30.78-45.94,68.75,25.23,68.75,45.94,68.75S352.66,403.51,352.66,365.54Z"/><path class="cls-23" d="M341.85,359.29c0-34.52-21.32-62.5-35.13-62.5s-35.12,28-35.12,62.5,21.31,62.5,35.12,62.5S341.85,393.81,341.85,359.29Z"/><path class="cls-24" d="M331,353c0-31.06-17.4-56.25-24.31-56.25S282.41,322,282.41,353s17.41,56.25,24.31,56.25S331,384.11,331,353Z"/><path class="cls-25" d="M320.22,346.79c0-27.61-13.5-50-13.5-50s-13.5,22.39-13.5,50,13.5,50,13.5,50S320.22,374.41,320.22,346.79Z"/><circle class="cls-16" cx="220.12" cy="246.79" r="100" transform="translate(-99.54 162.06) rotate(-33.42)"/><ellipse class="cls-18" cx="225.53" cy="249.92" rx="89.19" ry="93.75" transform="translate(-103.67 320.28) rotate(-60)"/><ellipse class="cls-19" cx="230.94" cy="253.04" rx="78.38" ry="87.5" transform="translate(-103.67 326.53) rotate(-60)"/><ellipse class="cls-20" cx="236.36" cy="256.17" rx="67.56" ry="81.25" transform="translate(-103.67 332.78) rotate(-60)"/><ellipse class="cls-21" cx="241.77" cy="259.29" rx="56.75" ry="75" transform="translate(-103.67 339.03) rotate(-60)"/><ellipse class="cls-22" cx="247.18" cy="262.42" rx="45.94" ry="68.75" transform="translate(-103.67 345.28) rotate(-60)"/><path class="cls-23" d="M270.16,235.12c29.89,17.26,43.47,49.71,36.56,61.67S264.93,313.22,235,296s-43.46-49.71-36.56-61.67S240.26,217.86,270.16,235.12Z"/><path class="cls-24" d="M270.16,247.61c26.91,15.53,40,43.2,36.56,49.18s-34,8.46-60.87-7.07-40-43.2-36.56-49.18S243.26,232.08,270.16,247.61Z"/><path class="cls-25" d="M270.17,260.1c23.92,13.81,36.55,36.69,36.55,36.69s-26.13.5-50.05-13.31-36.55-36.69-36.55-36.69S246.26,246.29,270.17,260.1Z"/><path class="cls-16" d="M443.32,260.19a100,100,0,1,0,36.61,136.6A100,100,0,0,0,443.32,260.19Z"/><path class="cls-18" d="M432.51,266.43c-44.84-25.89-101.63-11.49-125.79,30.36s-8.24,98.23,36.6,124.12,101.62,11.48,125.78-30.37S477.35,292.32,432.51,266.43Z"/><path class="cls-19" d="M421.69,272.67c-41.85-24.17-94.26-11.75-115,24.12s-5.26,87.46,36.59,111.63,94.26,11.74,115-24.13S463.54,296.83,421.69,272.67Z"/><path class="cls-20" d="M410.87,278.91C372,256.47,324,266.9,306.72,296.79s-2.28,76.7,36.59,99.14,86.88,12,104.14-17.89S449.73,301.34,410.87,278.91Z"/><path class="cls-21" d="M400.05,285.14c-35.87-20.71-79.52-12.26-93.33,11.65s.71,65.94,36.58,86.65,79.52,12.27,93.33-11.65S435.92,305.86,400.05,285.14Z"/><path class="cls-22" d="M389.23,291.38c-32.88-19-72.15-12.52-82.51,5.41S310.41,352,343.29,371s72.15,12.53,82.51-5.41S422.11,310.37,389.23,291.38Z"/><path class="cls-23" d="M378.41,297.62c-29.89-17.26-64.78-12.79-71.69-.83s6.67,44.41,36.57,61.67,64.78,12.79,71.68.83S408.31,314.88,378.41,297.62Z"/><path class="cls-24" d="M367.59,303.86c-26.9-15.53-57.42-13.05-60.87-7.07s9.66,33.65,36.56,49.18,57.42,13,60.87,7.07S394.5,319.39,367.59,303.86Z"/><path class="cls-25" d="M356.77,310.1c-23.91-13.81-50-13.31-50-13.31s12.64,22.89,36.55,36.69,50.05,13.31,50.05,13.31S380.69,323.91,356.77,310.1Z"/><path class="cls-16" d="M170.12,260.19a100,100,0,1,1-36.6,136.6A100,100,0,0,1,170.12,260.19Z"/><ellipse class="cls-18" cx="225.53" cy="343.67" rx="93.75" ry="89.19" transform="matrix(0.87, -0.5, 0.5, 0.87, -141.63, 158.82)"/><ellipse class="cls-19" cx="230.94" cy="340.54" rx="87.5" ry="78.37" transform="matrix(0.87, -0.5, 0.5, 0.87, -139.33, 161.1)"/><ellipse class="cls-20" cx="236.36" cy="337.42" rx="81.25" ry="67.56" transform="translate(-137.04 163.39) rotate(-30)"/><ellipse class="cls-21" cx="241.77" cy="334.29" rx="75" ry="56.75" transform="translate(-134.76 165.67) rotate(-30)"/><path class="cls-22" d="M224.21,291.38c32.89-19,72.16-12.52,82.51,5.41S303,352,270.15,371s-72.15,12.53-82.51-5.41S191.33,310.37,224.21,291.38Z"/><path class="cls-23" d="M235,297.62c29.9-17.26,64.79-12.79,71.69-.83s-6.67,44.41-36.56,61.67-64.79,12.79-71.69.83S205.14,314.88,235,297.62Z"/><path class="cls-24" d="M245.85,303.86c26.91-15.53,57.42-13.05,60.87-7.07s-9.65,33.65-36.56,49.18-57.41,13-60.87,7.07S219,319.39,245.85,303.86Z"/><path class="cls-25" d="M256.67,310.1c23.92-13.81,50.05-13.31,50.05-13.31s-12.64,22.88-36.55,36.69-50.05,13.31-50.05,13.31S232.75,323.91,256.67,310.1Z"/><path class="cls-16" d="M343.32,160.19a100,100,0,1,0,136.61,36.6A100,100,0,0,0,343.32,160.19Z"/><path class="cls-18" d="M343.32,172.68c-44.84,25.89-60.76,82.26-36.6,124.11S387.67,353,432.51,327.16,493.26,244.89,469.1,203,388.16,146.79,343.32,172.68Z"/><path class="cls-19" d="M343.31,185.17c-41.85,24.16-57.3,75.75-36.59,111.62s73.12,48.29,115,24.13,57.3-75.76,36.59-111.63S385.16,161,343.31,185.17Z"/><path class="cls-20" d="M343.3,197.66c-38.86,22.43-53.84,69.24-36.58,99.13S372,337.11,410.87,314.68s53.84-69.24,36.58-99.14S382.17,175.22,343.3,197.66Z"/><path class="cls-21" d="M343.3,210.14c-35.87,20.72-50.39,62.74-36.58,86.65s57.46,32.36,93.33,11.65,50.38-62.73,36.58-86.65S379.17,189.43,343.3,210.14Z"/><path class="cls-22" d="M343.29,222.63c-32.88,19-46.92,56.23-36.57,74.16s49.63,24.39,82.51,5.41S436.16,246,425.8,228,376.18,203.65,343.29,222.63Z"/><path class="cls-23" d="M343.29,235.12c-29.9,17.26-43.47,49.71-36.57,61.67s41.8,16.43,71.69-.83,43.47-49.71,36.56-61.67S373.18,217.86,343.29,235.12Z"/><path class="cls-24" d="M343.28,247.61c-26.9,15.53-40,43.2-36.56,49.18s34,8.46,60.87-7.07,40-43.2,36.56-49.18S370.18,232.08,343.28,247.61Z"/><path class="cls-25" d="M343.27,260.1c-23.91,13.81-36.55,36.69-36.55,36.69s26.14.5,50-13.31,36.55-36.69,36.55-36.69S367.19,246.29,343.27,260.1Z"/></g></g></g><g id="_ÎÓÈ_4" data-name="—ÎÓÈ_4"><g class="cls-26"><g id="_1" data-name="1"><g class="cls-27"><g class="cls-28"><polygon class="cls-29" points="306.55 296.9 364.19 296.9 393.01 246.98 335.37 246.98 306.55 296.9"/><path class="cls-30" d="M362.32,293.55c-6,3.45-55.73,3.33-55.73,3.33s24.77-43.16,30.74-46.61S393.06,247,393.06,247,368.29,290.11,362.32,293.55Z"/><path class="cls-31" d="M360.45,290.21c-11.94,6.89-53.81,6.64-53.81,6.64s20.72-36.39,32.66-43.28,53.81-6.64,53.81-6.64S372.39,283.31,360.45,290.21Z"/><path class="cls-32" d="M358.58,286.86c-17.91,10.34-51.89,10-51.89,10s16.66-29.62,34.57-40,51.9-10,51.9-10S376.49,276.52,358.58,286.86Z"/><path class="cls-33" d="M356.71,283.51c-23.88,13.78-50,13.29-50,13.29s12.62-22.86,36.5-36.64,50-13.29,50-13.29S380.59,269.72,356.71,283.51Z"/></g><path class="cls-29" d="M392.86,246.87h.35s-12.62,22.85-36.5,36.64c-22.27,12.85-46.47,13.29-49.63,13.29h-.35s12.62-22.85,36.5-36.63c22.27-12.86,46.47-13.29,49.63-13.29m0-1c-2.75,0-27.53.37-50.13,13.42-23.85,13.77-36.75,36.79-36.87,37l-.81,1.45,1.66,0h.37c2.75,0,27.53-.38,50.13-13.43,23.84-13.76,36.74-36.79,36.87-37l.8-1.45-1.66,0Z"/></g><g class="cls-28"><path class="cls-33" d="M356.71,283.51c-23.88,13.78-50,13.28-50,13.28s12.62-22.85,36.5-36.63,50-13.29,50-13.29S380.59,269.72,356.71,283.51Z"/><path class="cls-32" d="M355.36,281.17c-19.1,11-40,10.63-40,10.63s10.09-18.28,29.2-29.31,40-10.63,40-10.63S374.47,270.14,355.36,281.17Z"/><path class="cls-31" d="M354,278.84c-14.32,8.27-30,8-30,8s7.57-13.71,21.89-22,30-8,30-8S368.34,270.56,354,278.84Z"/><path class="cls-30" d="M352.67,276.5a43,43,0,0,1-20,5.32,39.65,39.65,0,0,1,34.59-20A42.85,42.85,0,0,1,352.67,276.5Z"/><path class="cls-29" d="M351.32,274.17a21.53,21.53,0,0,1-10,2.65,19.86,19.86,0,0,1,17.3-10A21.56,21.56,0,0,1,351.32,274.17Z"/></g></g><g id="_1-2" data-name="1"><g class="cls-34"><g class="cls-28"><polygon class="cls-29" points="220.07 346.83 277.72 346.83 306.54 296.91 248.89 296.9 220.07 346.83"/><path class="cls-30" d="M275.85,343.48c-6,3.45-55.73,3.32-55.73,3.32s24.77-43.15,30.74-46.6,55.73-3.32,55.73-3.32S281.82,340,275.85,343.48Z"/><path class="cls-31" d="M274,340.13c-11.94,6.89-53.81,6.64-53.81,6.64s20.71-36.38,32.65-43.28,53.82-6.64,53.82-6.64S285.92,333.24,274,340.13Z"/><path class="cls-32" d="M272.11,336.78c-17.91,10.34-51.9,10-51.9,10s16.67-29.62,34.58-40,51.89-10,51.89-10S290,326.44,272.11,336.78Z"/><path class="cls-33" d="M270.23,333.43c-23.87,13.79-50,13.29-50,13.29s12.61-22.85,36.49-36.64,50-13.28,50-13.28S294.11,319.64,270.23,333.43Z"/></g><path class="cls-29" d="M306.39,296.79h.34s-12.62,22.85-36.5,36.64c-22.26,12.86-46.46,13.29-49.63,13.29h-.34s12.61-22.85,36.49-36.64c22.28-12.85,46.48-13.29,49.64-13.29m0-1h0c-2.76,0-27.53.38-50.14,13.43-23.84,13.76-36.74,36.78-36.87,37l-.8,1.45,1.66,0h.36c2.75,0,27.54-.37,50.13-13.42,23.85-13.77,36.75-36.79,36.88-37l.8-1.45-1.66,0Z"/></g><g class="cls-28"><path class="cls-33" d="M270.23,333.43c-23.87,13.79-50,13.29-50,13.29s12.61-22.85,36.49-36.64,50-13.29,50-13.29S294.11,319.64,270.23,333.43Z"/><path class="cls-32" d="M268.89,331.1c-19.11,11-40,10.63-40,10.63s10.1-18.28,29.2-29.31,40-10.63,40-10.63S288,320.07,268.89,331.1Z"/><path class="cls-31" d="M267.54,328.76c-14.33,8.27-30,8-30,8s7.57-13.71,21.9-22,30-8,30-8S281.87,320.49,267.54,328.76Z"/><path class="cls-30" d="M266.19,326.43a43,43,0,0,1-20,5.31,39.71,39.71,0,0,1,34.59-20A43,43,0,0,1,266.19,326.43Z"/><path class="cls-29" d="M264.84,324.09a21.42,21.42,0,0,1-10,2.66,19.81,19.81,0,0,1,17.29-10A21.37,21.37,0,0,1,264.84,324.09Z"/></g></g><g id="_1-3" data-name="1"><g class="cls-35"><g class="cls-28"><polygon class="cls-29" points="306.64 296.95 335.46 247.03 306.64 197.11 277.81 247.03 306.64 296.95"/><path class="cls-30" d="M331.63,247c0,6.89-25,49.92-25,49.92s-25-43-25-49.92,25-49.92,25-49.92S331.63,240.09,331.63,247Z"/><path class="cls-31" d="M327.79,246.92c0,13.79-21.15,49.93-21.15,49.93s-21.15-36.14-21.15-49.93S306.64,197,306.64,197,327.79,233.14,327.79,246.92Z"/><path class="cls-32" d="M324,246.87c0,20.68-17.32,49.92-17.32,49.92s-17.32-29.24-17.32-49.92S306.64,197,306.64,197,324,226.19,324,246.87Z"/><path class="cls-33" d="M320.12,246.82c0,27.57-13.48,49.92-13.48,49.92s-13.48-22.35-13.48-49.92,13.48-49.93,13.48-49.93S320.12,219.24,320.12,246.82Z"/></g><path class="cls-29" d="M306.64,196.89s13.48,22.35,13.48,49.93-13.48,49.92-13.48,49.92-13.48-22.35-13.48-49.92,13.48-49.93,13.48-49.93m0-1.94-.86,1.42c-.13.23-13.62,22.91-13.62,50.45s13.49,50.21,13.62,50.44l.86,1.42.86-1.42c.13-.23,13.62-22.91,13.62-50.44s-13.49-50.22-13.62-50.45l-.86-1.42Z"/></g><g class="cls-28"><path class="cls-33" d="M320.12,246.82c0,27.57-13.48,49.92-13.48,49.92s-13.48-22.35-13.48-49.92,13.48-49.93,13.48-49.93S320.12,219.24,320.12,246.82Z"/><path class="cls-32" d="M317.42,246.82c0,22.05-10.78,39.94-10.78,39.94s-10.78-17.89-10.78-39.94,10.78-39.95,10.78-39.95S317.42,224.76,317.42,246.82Z"/><path class="cls-31" d="M314.73,246.82c0,16.54-8.09,29.95-8.09,29.95s-8.09-13.41-8.09-29.95,8.09-30,8.09-30S314.73,230.27,314.73,246.82Z"/><path class="cls-30" d="M312,246.82a43,43,0,0,1-5.39,20,39.69,39.69,0,0,1,0-39.94A43,43,0,0,1,312,246.82Z"/><path class="cls-29" d="M309.34,246.82a21.44,21.44,0,0,1-2.7,10,19.81,19.81,0,0,1,0-20A21.45,21.45,0,0,1,309.34,246.82Z"/></g></g><g id="_1-4" data-name="1"><g class="cls-36"><g class="cls-28"><polygon class="cls-29" points="306.64 396.81 335.46 346.89 306.64 296.96 277.82 346.89 306.64 396.81"/><path class="cls-30" d="M331.63,346.83c0,6.89-25,49.92-25,49.92s-25-43-25-49.92,25-49.92,25-49.92S331.63,339.94,331.63,346.83Z"/><path class="cls-31" d="M327.79,346.78c0,13.78-21.15,49.92-21.15,49.92s-21.15-36.14-21.15-49.92,21.15-49.93,21.15-49.93S327.79,333,327.79,346.78Z"/><path class="cls-32" d="M324,346.72c0,20.68-17.32,49.93-17.32,49.93s-17.32-29.25-17.32-49.93,17.32-49.92,17.32-49.92S324,326,324,346.72Z"/><path class="cls-33" d="M320.12,346.67c0,27.57-13.48,49.92-13.48,49.92s-13.48-22.35-13.48-49.92,13.48-49.93,13.48-49.93S320.12,319.09,320.12,346.67Z"/></g><path class="cls-29" d="M306.64,296.74s13.48,22.35,13.48,49.93-13.48,49.92-13.48,49.92-13.48-22.35-13.48-49.92,13.48-49.93,13.48-49.93m0-1.93-.86,1.42c-.13.22-13.62,22.9-13.62,50.44s13.49,50.21,13.62,50.44l.86,1.42.86-1.42c.13-.23,13.62-22.91,13.62-50.44s-13.49-50.22-13.62-50.44l-.86-1.42Z"/></g><g class="cls-28"><path class="cls-33" d="M320.12,346.67c0,27.57-13.48,49.92-13.48,49.92s-13.48-22.35-13.48-49.92,13.48-49.93,13.48-49.93S320.12,319.09,320.12,346.67Z"/><path class="cls-32" d="M317.42,346.67c0,22.06-10.78,39.94-10.78,39.94s-10.78-17.88-10.78-39.94,10.78-39.94,10.78-39.94S317.42,324.61,317.42,346.67Z"/><path class="cls-31" d="M314.73,346.67c0,16.54-8.09,29.95-8.09,29.95s-8.09-13.41-8.09-29.95,8.09-30,8.09-30S314.73,330.12,314.73,346.67Z"/><path class="cls-30" d="M312,346.67a43,43,0,0,1-5.39,20,39.69,39.69,0,0,1,0-39.94A43,43,0,0,1,312,346.67Z"/><path class="cls-29" d="M309.34,346.67a21.44,21.44,0,0,1-2.7,10,19.81,19.81,0,0,1,0-20A21.45,21.45,0,0,1,309.34,346.67Z"/></g></g><g id="_1-5" data-name="1"><g class="cls-37"><g class="cls-28"><polygon class="cls-29" points="306.73 296.9 277.91 246.98 220.27 246.98 249.09 296.9 306.73 296.9"/><path class="cls-30" d="M276,250.27c6,3.45,30.74,46.6,30.74,46.6s-49.76.13-55.73-3.32S220.22,247,220.22,247,270,246.83,276,250.27Z"/><path class="cls-31" d="M274,253.57c11.94,6.89,32.66,43.28,32.66,43.28s-41.87.25-53.81-6.64-32.66-43.29-32.66-43.29S262,246.67,274,253.57Z"/><path class="cls-32" d="M272,256.86c17.91,10.34,34.57,40,34.57,40s-34,.38-51.89-10-34.58-40-34.58-40S254.11,246.52,272,256.86Z"/><path class="cls-33" d="M270.05,260.16c23.88,13.78,36.5,36.64,36.5,36.64s-26.1.49-50-13.29-36.5-36.64-36.5-36.64S246.17,246.37,270.05,260.16Z"/></g><path class="cls-29" d="M220.42,246.87c3.15,0,27.36.43,49.63,13.29,23.88,13.78,36.5,36.64,36.5,36.64h-.35c-3.16,0-27.36-.44-49.63-13.29-23.88-13.79-36.5-36.64-36.5-36.64h.35m0-1h-.37l-1.65,0,.8,1.45c.12.23,13,23.26,36.87,37,22.6,13.05,47.38,13.43,50.13,13.43h.37l1.65,0-.8-1.45c-.12-.23-13-23.25-36.87-37-22.6-13.05-47.38-13.42-50.13-13.42Z"/></g><g class="cls-28"><path class="cls-33" d="M270.05,260.16c23.88,13.78,36.5,36.64,36.5,36.64s-26.1.49-50-13.29-36.5-36.64-36.5-36.64S246.17,246.37,270.05,260.16Z"/><path class="cls-32" d="M268.7,262.49c19.11,11,29.2,29.31,29.2,29.31s-20.88.4-40-10.63-29.2-29.31-29.2-29.31S249.6,251.46,268.7,262.49Z"/><path class="cls-31" d="M267.35,264.83c14.33,8.27,21.9,22,21.9,22s-15.66.3-30-8-21.9-22-21.9-22S253,256.56,267.35,264.83Z"/><path class="cls-30" d="M266,267.16a43,43,0,0,1,14.6,14.66,39.68,39.68,0,0,1-34.59-20A43,43,0,0,1,266,267.16Z"/><path class="cls-29" d="M264.66,269.5a21.49,21.49,0,0,1,7.3,7.32,19.81,19.81,0,0,1-17.3-10A21.47,21.47,0,0,1,264.66,269.5Z"/></g></g><g id="_1-6" data-name="1"><g class="cls-38"><g class="cls-28"><polygon class="cls-29" points="393.21 346.82 364.39 296.9 306.74 296.9 335.56 346.83 393.21 346.82"/><path class="cls-30" d="M362.42,300.2c6,3.45,30.74,46.6,30.74,46.6s-49.76.13-55.73-3.32-30.74-46.6-30.74-46.6S356.45,296.75,362.42,300.2Z"/><path class="cls-31" d="M360.46,303.49c11.94,6.9,32.65,43.28,32.65,43.28s-41.87.26-53.81-6.64-32.66-43.28-32.66-43.28S348.52,296.6,360.46,303.49Z"/><path class="cls-32" d="M358.49,306.79c17.91,10.34,34.58,40,34.58,40s-34,.37-51.9-10-34.57-40-34.57-40S340.58,296.45,358.49,306.79Z"/><path class="cls-33" d="M356.53,310.08C380.41,323.87,393,346.72,393,346.72s-26.09.5-50-13.29-36.49-36.63-36.49-36.63S332.65,296.3,356.53,310.08Z"/></g><path class="cls-29" d="M306.89,296.79c3.16,0,27.37.44,49.64,13.29C380.41,323.87,393,346.72,393,346.72h-.34c-3.16,0-27.36-.43-49.64-13.29-23.88-13.78-36.49-36.63-36.49-36.63h.34m0-1h-.36l-1.66,0,.8,1.45c.13.23,13,23.25,36.87,37,22.61,13.05,47.39,13.42,50.14,13.42H393l1.66,0-.8-1.45c-.13-.23-13-23.25-36.87-37-22.6-13.05-47.38-13.43-50.14-13.43Z"/></g><g class="cls-28"><path class="cls-33" d="M356.53,310.08C380.41,323.87,393,346.72,393,346.72s-26.09.5-50-13.29-36.49-36.63-36.49-36.63S332.65,296.3,356.53,310.08Z"/><path class="cls-32" d="M355.18,312.42c19.1,11,29.19,29.31,29.19,29.31s-20.87.4-40-10.63-29.2-29.31-29.2-29.31S336.07,301.39,355.18,312.42Z"/><path class="cls-31" d="M353.83,314.75c14.33,8.28,21.9,22,21.9,22s-15.66.3-30-8-21.9-22-21.9-22S339.5,306.48,353.83,314.75Z"/><path class="cls-30" d="M352.48,317.09a42.94,42.94,0,0,1,14.6,14.65,39.65,39.65,0,0,1-34.59-20A42.9,42.9,0,0,1,352.48,317.09Z"/><path class="cls-29" d="M351.13,319.42a21.45,21.45,0,0,1,7.3,7.33,19.86,19.86,0,0,1-17.29-10A21.48,21.48,0,0,1,351.13,319.42Z"/></g></g><g id="_1-7" data-name="1"><g class="cls-39"><g class="cls-28"><polygon class="cls-29" points="220.12 246.84 277.76 246.84 306.59 196.92 248.94 196.92 220.12 246.84"/><path class="cls-30" d="M275.89,243.5c-6,3.44-55.72,3.32-55.72,3.32s24.77-43.16,30.73-46.61,55.73-3.32,55.73-3.32S281.86,240.05,275.89,243.5Z"/><path class="cls-31" d="M274,240.15c-11.94,6.89-53.81,6.64-53.81,6.64s20.72-36.39,32.66-43.28,53.81-6.64,53.81-6.64S286,233.25,274,240.15Z"/><path class="cls-32" d="M272.15,236.8c-17.91,10.34-51.89,10-51.89,10s16.67-29.62,34.58-40,51.89-10,51.89-10S290.06,226.46,272.15,236.8Z"/><path class="cls-33" d="M270.28,233.45c-23.88,13.78-50,13.29-50,13.29s12.62-22.85,36.5-36.64,50-13.29,50-13.29S294.16,219.66,270.28,233.45Z"/></g><path class="cls-29" d="M306.43,196.81h.35s-12.62,22.85-36.5,36.64c-22.27,12.85-46.47,13.29-49.63,13.29h-.35s12.62-22.85,36.5-36.64c22.27-12.86,46.47-13.29,49.63-13.29m0-1c-2.75,0-27.53.37-50.13,13.42-23.84,13.77-36.75,36.79-36.87,37l-.8,1.45,1.65,0h.37c2.75,0,27.53-.38,50.13-13.43,23.84-13.76,36.75-36.79,36.87-37l.8-1.45-1.65,0Z"/></g><g class="cls-28"><path class="cls-33" d="M270.28,233.45c-23.88,13.78-50,13.29-50,13.29s12.62-22.85,36.5-36.64,50-13.29,50-13.29S294.16,219.66,270.28,233.45Z"/><path class="cls-32" d="M268.93,231.11c-19.1,11-40,10.63-40,10.63s10.09-18.28,29.2-29.31,40-10.63,40-10.63S288,220.08,268.93,231.11Z"/><path class="cls-31" d="M267.58,228.78c-14.32,8.27-30,8-30,8s7.57-13.71,21.9-22,30-8,30-8S281.91,220.51,267.58,228.78Z"/><path class="cls-30" d="M266.24,226.44a42.9,42.9,0,0,1-20,5.32,39.62,39.62,0,0,1,34.59-20A42.94,42.94,0,0,1,266.24,226.44Z"/><path class="cls-29" d="M264.89,224.11a21.62,21.62,0,0,1-10,2.66,19.84,19.84,0,0,1,17.3-10A21.56,21.56,0,0,1,264.89,224.11Z"/></g></g><g id="_1-8" data-name="1"><g class="cls-40"><g class="cls-28"><polygon class="cls-29" points="306.69 396.78 364.33 396.78 393.15 346.86 335.51 346.86 306.69 396.78"/><path class="cls-30" d="M362.46,393.43c-6,3.45-55.73,3.33-55.73,3.33s24.77-43.16,30.74-46.61,55.73-3.32,55.73-3.32S368.43,390,362.46,393.43Z"/><path class="cls-31" d="M360.59,390.08c-11.94,6.9-53.81,6.65-53.81,6.65s20.72-36.39,32.66-43.28,53.81-6.65,53.81-6.65S372.53,383.19,360.59,390.08Z"/><path class="cls-32" d="M358.72,386.74c-17.91,10.34-51.9,10-51.9,10s16.67-29.62,34.58-40,51.9-10,51.9-10S376.63,376.39,358.72,386.74Z"/><path class="cls-33" d="M356.85,383.39c-23.88,13.78-50,13.28-50,13.28s12.62-22.85,36.5-36.63,50-13.29,50-13.29S380.73,369.6,356.85,383.39Z"/></g><path class="cls-29" d="M393,346.75h.34s-12.61,22.85-36.49,36.64c-22.27,12.85-46.47,13.29-49.63,13.29h-.35s12.62-22.85,36.5-36.63c22.27-12.86,46.47-13.29,49.63-13.29m0-1c-2.75,0-27.53.37-50.13,13.42C319,372.94,306.12,396,306,396.19l-.8,1.45,1.66,0h.37c2.75,0,27.53-.38,50.13-13.43,23.84-13.77,36.74-36.79,36.87-37l.8-1.45-1.66,0Z"/></g><g class="cls-28"><path class="cls-33" d="M356.85,383.39c-23.88,13.78-50,13.28-50,13.28s12.62-22.85,36.5-36.63,50-13.29,50-13.29S380.73,369.6,356.85,383.39Z"/><path class="cls-32" d="M355.5,381.05c-19.11,11-40,10.63-40,10.63s10.09-18.28,29.19-29.31,40-10.63,40-10.63S374.6,370,355.5,381.05Z"/><path class="cls-31" d="M354.15,378.72c-14.33,8.27-30,8-30,8s7.58-13.71,21.9-22,30-8,30-8S368.48,370.44,354.15,378.72Z"/><path class="cls-30" d="M352.8,376.38a42.9,42.9,0,0,1-20,5.32,39.65,39.65,0,0,1,34.59-20A42.94,42.94,0,0,1,352.8,376.38Z"/><path class="cls-29" d="M351.45,374.05a21.57,21.57,0,0,1-10,2.66,19.84,19.84,0,0,1,17.29-10A21.45,21.45,0,0,1,351.45,374.05Z"/></g></g><g id="_1-9" data-name="1"><g class="cls-41"><g class="cls-28"><polygon class="cls-29" points="220.17 346.83 248.99 296.91 220.17 246.99 191.34 296.91 220.17 346.83"/><path class="cls-30" d="M245.15,296.85c0,6.9-25,49.92-25,49.92s-25-43-25-49.92,25-49.92,25-49.92S245.15,290,245.15,296.85Z"/><path class="cls-31" d="M241.32,296.8c0,13.78-21.15,49.92-21.15,49.92S199,310.58,199,296.8s21.15-49.93,21.15-49.93S241.32,283,241.32,296.8Z"/><path class="cls-32" d="M237.48,296.74c0,20.68-17.32,49.93-17.32,49.93s-17.31-29.25-17.31-49.93,17.31-49.92,17.31-49.92S237.48,276.06,237.48,296.74Z"/><path class="cls-33" d="M233.64,296.69c0,27.57-13.48,49.93-13.48,49.93s-13.48-22.36-13.48-49.93,13.48-49.93,13.48-49.93S233.65,269.12,233.64,296.69Z"/></g><path class="cls-29" d="M220.16,246.76s13.49,22.36,13.48,49.93-13.48,49.93-13.48,49.93-13.48-22.36-13.48-49.93,13.48-49.93,13.48-49.93m0-1.93-.85,1.42c-.14.22-13.63,22.9-13.63,50.44s13.49,50.22,13.63,50.44l.85,1.42.86-1.42c.14-.22,13.62-22.91,13.62-50.44S221.16,246.47,221,246.25l-.86-1.42Z"/></g><g class="cls-28"><path class="cls-33" d="M233.64,296.69c0,27.57-13.48,49.93-13.48,49.93s-13.48-22.36-13.48-49.93,13.48-49.93,13.48-49.93S233.65,269.12,233.64,296.69Z"/><path class="cls-32" d="M231,296.69c0,22.06-10.79,39.94-10.79,39.94s-10.78-17.88-10.78-39.94,10.78-39.94,10.78-39.94S231,274.63,231,296.69Z"/><path class="cls-31" d="M228.25,296.69c0,16.54-8.09,30-8.09,30s-8.08-13.42-8.08-30,8.08-30,8.08-30S228.25,280.14,228.25,296.69Z"/><path class="cls-30" d="M225.56,296.69a42.89,42.89,0,0,1-5.4,20,39.69,39.69,0,0,1,0-39.94A42.89,42.89,0,0,1,225.56,296.69Z"/><path class="cls-29" d="M222.86,296.69a21.44,21.44,0,0,1-2.7,10,19.88,19.88,0,0,1,0-20A21.45,21.45,0,0,1,222.86,296.69Z"/></g></g><g id="_1-10" data-name="1"><g class="cls-42"><g class="cls-28"><polygon class="cls-29" points="393.3 346.83 422.12 296.91 393.3 246.98 364.47 296.91 393.3 346.83"/><path class="cls-30" d="M418.29,296.85c0,6.9-25,49.92-25,49.92s-25-43-25-49.92,25-49.92,25-49.92S418.29,290,418.29,296.85Z"/><path class="cls-31" d="M414.45,296.8c0,13.78-21.15,49.92-21.15,49.92s-21.15-36.14-21.15-49.92,21.15-49.93,21.15-49.93S414.45,283,414.45,296.8Z"/><path class="cls-32" d="M410.61,296.74c0,20.68-17.31,49.93-17.31,49.93S376,317.42,376,296.74s17.32-49.92,17.32-49.92S410.61,276.06,410.61,296.74Z"/><path class="cls-33" d="M406.78,296.69c0,27.57-13.48,49.93-13.48,49.93s-13.48-22.36-13.48-49.93,13.48-49.93,13.48-49.93S406.78,269.12,406.78,296.69Z"/></g><path class="cls-29" d="M393.3,246.76s13.48,22.36,13.48,49.93-13.48,49.93-13.48,49.93-13.48-22.36-13.48-49.93,13.48-49.93,13.48-49.93m0-1.93-.86,1.42c-.13.22-13.62,22.91-13.62,50.44s13.49,50.22,13.62,50.44l.86,1.42.85-1.42c.14-.22,13.63-22.91,13.63-50.44s-13.49-50.22-13.63-50.44l-.85-1.42Z"/></g><g class="cls-28"><path class="cls-33" d="M406.78,296.69c0,27.57-13.48,49.93-13.48,49.93s-13.48-22.36-13.48-49.93,13.48-49.93,13.48-49.93S406.78,269.12,406.78,296.69Z"/><path class="cls-32" d="M404.08,296.69c0,22.06-10.78,39.94-10.78,39.94s-10.79-17.88-10.79-39.94,10.79-39.94,10.79-39.94S404.08,274.63,404.08,296.69Z"/><path class="cls-31" d="M401.39,296.69c0,16.54-8.09,30-8.09,30s-8.09-13.42-8.09-30,8.09-30,8.09-30S401.39,280.14,401.39,296.69Z"/><path class="cls-30" d="M398.69,296.69a43,43,0,0,1-5.39,20,39.69,39.69,0,0,1,0-39.94A43,43,0,0,1,398.69,296.69Z"/><path class="cls-29" d="M396,296.69a21.5,21.5,0,0,1-2.69,10,19.81,19.81,0,0,1,0-20A21.51,21.51,0,0,1,396,296.69Z"/></g></g><g id="_1-11" data-name="1"><g class="cls-43"><g class="cls-28"><polygon class="cls-29" points="306.78 396.78 277.96 346.86 220.31 346.86 249.13 396.78 306.78 396.78"/><path class="cls-30" d="M276,350.15c6,3.45,30.74,46.6,30.74,46.6s-49.76.13-55.73-3.32-30.74-46.6-30.74-46.6S270,346.71,276,350.15Z"/><path class="cls-31" d="M274,353.45c11.94,6.89,32.66,43.28,32.66,43.28s-41.88.25-53.82-6.64-32.65-43.29-32.65-43.29S262.09,346.55,274,353.45Z"/><path class="cls-32" d="M272.06,356.74c17.91,10.34,34.58,40,34.58,40s-34,.38-51.89-10-34.58-40-34.58-40S254.15,346.4,272.06,356.74Z"/><path class="cls-33" d="M270.1,360c23.87,13.79,36.49,36.63,36.49,36.63s-26.1.5-50-13.28-36.5-36.64-36.5-36.64S246.22,346.25,270.1,360Z"/></g><path class="cls-29" d="M220.46,346.75c3.16,0,27.36.43,49.64,13.29,23.87,13.79,36.49,36.63,36.49,36.63h-.34c-3.16,0-27.36-.44-49.63-13.29-23.88-13.79-36.5-36.64-36.5-36.64h.34m0-1h-.36l-1.66,0,.8,1.45c.13.23,13,23.25,36.88,37,22.6,13.05,47.37,13.43,50.13,13.43h.36l1.66,0-.8-1.45c-.13-.23-13-23.25-36.87-37-22.61-13.05-47.38-13.42-50.14-13.42Z"/></g><g class="cls-28"><path class="cls-33" d="M270.1,360c23.87,13.79,36.49,36.63,36.49,36.63s-26.1.5-50-13.28-36.5-36.64-36.5-36.64S246.22,346.25,270.1,360Z"/><path class="cls-32" d="M268.75,362.37c19.1,11,29.2,29.31,29.2,29.31s-20.88.4-40-10.63-29.19-29.31-29.19-29.31S249.64,351.34,268.75,362.37Z"/><path class="cls-31" d="M267.4,364.71c14.33,8.27,21.9,22,21.9,22s-15.66.3-30-8-21.9-22-21.9-22S253.07,356.43,267.4,364.71Z"/><path class="cls-30" d="M266.05,367a43,43,0,0,1,14.6,14.66,39.71,39.71,0,0,1-34.59-20A43,43,0,0,1,266.05,367Z"/><path class="cls-29" d="M264.7,369.38a21.36,21.36,0,0,1,7.3,7.33,19.84,19.84,0,0,1-17.29-10A21.42,21.42,0,0,1,264.7,369.38Z"/></g></g><g id="_1-12" data-name="1"><g class="cls-44"><g class="cls-28"><polygon class="cls-29" points="393.35 246.84 364.52 196.92 306.88 196.92 335.7 246.84 393.35 246.84"/><path class="cls-30" d="M362.56,200.21c6,3.45,30.74,46.61,30.74,46.61s-49.76.12-55.73-3.32-30.74-46.61-30.74-46.61S356.59,196.77,362.56,200.21Z"/><path class="cls-31" d="M360.59,203.51c11.94,6.89,32.66,43.28,32.66,43.28s-41.87.25-53.81-6.64-32.66-43.29-32.66-43.29S348.65,196.62,360.59,203.51Z"/><path class="cls-32" d="M358.63,206.8c17.91,10.34,34.58,40,34.58,40s-34,.38-51.9-10-34.58-40-34.58-40S340.72,196.46,358.63,206.8Z"/><path class="cls-33" d="M356.66,210.1c23.88,13.79,36.5,36.64,36.5,36.64s-26.1.49-50-13.29-36.5-36.64-36.5-36.64S332.78,196.31,356.66,210.1Z"/></g><path class="cls-29" d="M307,196.81c3.17,0,27.37.43,49.63,13.29,23.88,13.79,36.5,36.64,36.5,36.64h-.34c-3.16,0-27.36-.43-49.64-13.29-23.88-13.79-36.49-36.64-36.49-36.64H307m0-1h-.37l-1.66,0,.8,1.45c.13.24,13,23.26,36.87,37,22.6,13.05,47.38,13.43,50.14,13.43h.36l1.66,0-.81-1.46c-.12-.23-13-23.25-36.87-37-22.59-13-47.37-13.42-50.12-13.42Z"/></g><g class="cls-28"><path class="cls-33" d="M356.66,210.1c23.88,13.79,36.5,36.64,36.5,36.64s-26.1.49-50-13.29-36.49-36.64-36.49-36.64S332.78,196.31,356.66,210.1Z"/><path class="cls-32" d="M355.32,212.43c19.1,11,29.19,29.31,29.19,29.31s-20.88.4-40-10.63-29.2-29.31-29.2-29.31S336.21,201.4,355.32,212.43Z"/><path class="cls-31" d="M354,214.77c14.32,8.27,21.9,22,21.9,22s-15.66.3-30-8-21.9-22-21.9-22S339.64,206.5,354,214.77Z"/><path class="cls-30" d="M352.62,217.1a43,43,0,0,1,14.6,14.66,39.71,39.71,0,0,1-34.59-20A43,43,0,0,1,352.62,217.1Z"/><path class="cls-29" d="M351.27,219.44a21.45,21.45,0,0,1,7.3,7.33,19.81,19.81,0,0,1-17.29-10A21.45,21.45,0,0,1,351.27,219.44Z"/></g></g></g><path class="cls-29" d="M306.72,196.79a100,100,0,1,1-100,100,100,100,0,0,1,100-100m0-1a101,101,0,1,0,101,101,101.12,101.12,0,0,0-101-101Z"/></g><g id="_ÎÓÈ_5" data-name="—ÎÓÈ_5"><g id="ÀÂÔÂÒÚÍË"><g class="cls-28"><path class="cls-33" d="M320.22,146.79c0,27.62-13.5,50-13.5,50s-13.5-22.38-13.5-50,13.5-50,13.5-50S320.22,119.18,320.22,146.79Z"/><path class="cls-45" d="M318.42,153.46c0,23.93-11.7,43.33-11.7,43.33S295,177.39,295,153.46s11.7-43.33,11.7-43.33S318.42,129.53,318.42,153.46Z"/><path class="cls-46" d="M316.62,160.13c0,20.25-9.9,36.66-9.9,36.66s-9.9-16.41-9.9-36.66,9.9-36.67,9.9-36.67S316.62,139.87,316.62,160.13Z"/><path class="cls-31" d="M314.82,166.79c0,16.57-8.1,30-8.1,30s-8.1-13.43-8.1-30,8.1-30,8.1-30S314.82,150.22,314.82,166.79Z"/><path class="cls-47" d="M313,173.46a50.13,50.13,0,0,1-6.3,23.33,50.13,50.13,0,0,1-6.3-23.33,50.13,50.13,0,0,1,6.3-23.33A50.13,50.13,0,0,1,313,173.46Z"/><path class="cls-48" d="M311.22,180.13a35.82,35.82,0,0,1-4.5,16.66,33.11,33.11,0,0,1,0-33.33A35.83,35.83,0,0,1,311.22,180.13Z"/><path class="cls-29" d="M309.42,186.79a21.52,21.52,0,0,1-2.7,10,19.87,19.87,0,0,1,0-20A21.52,21.52,0,0,1,309.42,186.79Z"/></g><g class="cls-28"><path class="cls-33" d="M320.22,446.79c0-27.61-13.5-50-13.5-50s-13.5,22.39-13.5,50,13.5,50,13.5,50S320.22,474.41,320.22,446.79Z"/><path class="cls-45" d="M318.42,440.13c0-23.94-11.7-43.34-11.7-43.34S295,416.19,295,440.13s11.7,43.33,11.7,43.33S318.42,464.06,318.42,440.13Z"/><path class="cls-46" d="M316.62,433.46c0-20.25-9.9-36.67-9.9-36.67s-9.9,16.42-9.9,36.67,9.9,36.67,9.9,36.67S316.62,453.71,316.62,433.46Z"/><path class="cls-31" d="M314.82,426.79c0-16.57-8.1-30-8.1-30s-8.1,13.43-8.1,30,8.1,30,8.1,30S314.82,443.36,314.82,426.79Z"/><path class="cls-47" d="M313,420.13a50.2,50.2,0,0,0-6.3-23.34,46.37,46.37,0,0,0,0,46.67A50.18,50.18,0,0,0,313,420.13Z"/><path class="cls-48" d="M311.22,413.46a35.83,35.83,0,0,0-4.5-16.67,33.13,33.13,0,0,0,0,33.34A35.88,35.88,0,0,0,311.22,413.46Z"/><path class="cls-29" d="M309.42,406.79a21.52,21.52,0,0,0-2.7-10,19.87,19.87,0,0,0,0,20A21.47,21.47,0,0,0,309.42,406.79Z"/></g><g class="cls-28"><path class="cls-33" d="M183.57,210.1c23.91,13.81,36.55,36.69,36.55,36.69s-26.14.5-50.05-13.31-36.55-36.69-36.55-36.69S159.65,196.29,183.57,210.1Z"/><path class="cls-45" d="M188.44,215c20.73,12,31.68,31.8,31.68,31.8s-22.65.43-43.38-11.53-31.68-31.8-31.68-31.8S167.72,203,188.44,215Z"/><path class="cls-46" d="M193.32,219.89c17.53,10.12,26.8,26.9,26.8,26.9s-19.17.37-36.7-9.76-26.81-26.9-26.81-26.9S175.78,209.76,193.32,219.89Z"/><path class="cls-31" d="M198.19,224.78c14.35,8.28,21.93,22,21.93,22s-15.68.3-30-8-21.93-22-21.93-22S183.84,216.49,198.19,224.78Z"/><path class="cls-47" d="M203.06,229.67a50.17,50.17,0,0,1,17.06,17.12,46.37,46.37,0,0,1-40.42-23.33A50.22,50.22,0,0,1,203.06,229.67Z"/><path class="cls-48" d="M207.94,234.56a35.8,35.8,0,0,1,12.18,12.23,33.11,33.11,0,0,1-28.87-16.66A35.86,35.86,0,0,1,207.94,234.56Z"/><path class="cls-29" d="M212.81,239.45a21.61,21.61,0,0,1,7.31,7.34,19.86,19.86,0,0,1-17.32-10A21.5,21.5,0,0,1,212.81,239.45Z"/></g><g class="cls-28"><path class="cls-33" d="M443.38,360.1c-23.92-13.81-50.06-13.31-50.06-13.31s12.64,22.89,36.56,36.69,50.05,13.31,50.05,13.31S467.29,373.91,443.38,360.1Z"/><path class="cls-45" d="M436.7,358.33c-20.72-12-43.38-11.54-43.38-11.54s11,19.84,31.68,31.8,43.38,11.54,43.38,11.54S457.43,370.29,436.7,358.33Z"/><path class="cls-46" d="M430,356.55c-17.54-10.12-36.71-9.76-36.71-9.76s9.27,16.78,26.81,26.91,36.7,9.76,36.7,9.76S447.57,366.68,430,356.55Z"/><path class="cls-31" d="M423.36,354.78c-14.35-8.29-30-8-30-8s7.59,13.73,21.94,22,30,8,30,8S437.71,363.06,423.36,354.78Z"/><path class="cls-47" d="M416.68,353a50.22,50.22,0,0,0-23.36-6.21,46.35,46.35,0,0,0,40.42,23.34A50.25,50.25,0,0,0,416.68,353Z"/><path class="cls-48" d="M410,351.23a35.92,35.92,0,0,0-16.69-4.44,33.15,33.15,0,0,0,28.87,16.67A35.8,35.8,0,0,0,410,351.23Z"/><path class="cls-29" d="M403.34,349.45a21.55,21.55,0,0,0-10-2.66,19.89,19.89,0,0,0,17.33,10A21.61,21.61,0,0,0,403.34,349.45Z"/></g><g class="cls-28"><path class="cls-33" d="M170.07,360.1c23.91-13.81,50.05-13.31,50.05-13.31s-12.64,22.89-36.55,36.69-50,13.31-50,13.31S146.15,373.91,170.07,360.1Z"/><path class="cls-45" d="M176.74,358.33c20.73-12,43.38-11.54,43.38-11.54s-11,19.84-31.68,31.8-43.38,11.54-43.38,11.54S156,370.29,176.74,358.33Z"/><path class="cls-46" d="M183.42,356.55c17.53-10.12,36.7-9.76,36.7-9.76s-9.27,16.78-26.8,26.91-36.71,9.76-36.71,9.76S165.88,366.68,183.42,356.55Z"/><path class="cls-31" d="M190.09,354.78c14.35-8.29,30-8,30-8s-7.58,13.73-21.93,22-30,8-30,8S175.74,363.06,190.09,354.78Z"/><path class="cls-47" d="M196.76,353a50.22,50.22,0,0,1,23.36-6.21,50.25,50.25,0,0,1-17.06,17.13,50.19,50.19,0,0,1-23.35,6.21A50.16,50.16,0,0,1,196.76,353Z"/><path class="cls-48" d="M203.44,351.23a35.89,35.89,0,0,1,16.68-4.44,33.12,33.12,0,0,1-28.87,16.67A35.78,35.78,0,0,1,203.44,351.23Z"/><path class="cls-29" d="M210.11,349.45a21.5,21.5,0,0,1,10-2.66,19.86,19.86,0,0,1-17.32,10A21.61,21.61,0,0,1,210.11,349.45Z"/></g><g class="cls-28"><path class="cls-33" d="M429.88,210.1c-23.92,13.81-36.55,36.69-36.55,36.69s26.13.5,50.05-13.31,36.55-36.69,36.55-36.69S453.79,196.29,429.88,210.1Z"/><path class="cls-45" d="M425,215c-20.72,12-31.67,31.8-31.67,31.8s22.65.43,43.37-11.53,31.68-31.8,31.68-31.8S445.73,203,425,215Z"/><path class="cls-46" d="M420.13,219.89c-17.54,10.12-26.8,26.9-26.8,26.9s19.16.37,36.7-9.76,26.8-26.9,26.8-26.9S437.67,209.76,420.13,219.89Z"/><path class="cls-31" d="M415.26,224.78c-14.35,8.28-21.93,22-21.93,22s15.68.3,30-8,21.93-22,21.93-22S429.61,216.49,415.26,224.78Z"/><path class="cls-47" d="M410.38,229.67a50.09,50.09,0,0,0-17.05,17.12,46.37,46.37,0,0,0,40.41-23.33A50.22,50.22,0,0,0,410.38,229.67Z"/><path class="cls-48" d="M405.51,234.56a35.8,35.8,0,0,0-12.18,12.23,33.08,33.08,0,0,0,28.86-16.66A35.81,35.81,0,0,0,405.51,234.56Z"/><path class="cls-29" d="M400.64,239.45a21.58,21.58,0,0,0-7.32,7.34,19.86,19.86,0,0,0,17.33-10A21.5,21.5,0,0,0,400.64,239.45Z"/></g></g><path class="cls-29" d="M306.72,98.84c2.95,5.48,12.5,25,12.5,47.95s-9.55,42.47-12.5,48c-3-5.48-12.5-25-12.5-48s9.55-42.47,12.5-47.95m0-2s-13.5,22.39-13.5,50,13.5,50,13.5,50,13.5-22.38,13.5-50-13.5-50-13.5-50Z"/><path class="cls-29" d="M306.72,398.84c2.95,5.48,12.5,25,12.5,48s-9.55,42.47-12.5,47.95c-3-5.48-12.5-25-12.5-47.95s9.55-42.47,12.5-48m0-2s-13.5,22.39-13.5,50,13.5,50,13.5,50,13.5-22.38,13.5-50-13.5-50-13.5-50Z"/><path class="cls-29" d="M135.29,197.81c6.09.18,27.8,1.62,47.78,13.16s32,29.51,35.28,34.8c-6.1-.17-27.81-1.62-47.78-13.15s-32-29.52-35.28-34.81m-1.43-1h-.34s12.63,22.89,36.55,36.69c22.3,12.88,46.54,13.31,49.7,13.31h.35s-12.64-22.88-36.55-36.69c-22.31-12.88-46.54-13.31-49.71-13.31Z"/><path class="cls-29" d="M395.1,347.81c6.09.18,27.8,1.62,47.78,13.16s32,29.51,35.28,34.8c-6.1-.17-27.81-1.62-47.78-13.15s-32-29.52-35.28-34.81m-1.43-1h-.35s12.64,22.89,36.56,36.69c22.3,12.88,46.54,13.31,49.7,13.31h.35s-12.64-22.88-36.55-36.69c-22.31-12.87-46.54-13.31-49.71-13.31Z"/><path class="cls-29" d="M218.35,347.81c-3.27,5.29-15.39,23.32-35.28,34.81s-41.69,13-47.78,13.15c3.27-5.29,15.4-23.33,35.28-34.8s41.69-13,47.78-13.16m1.42-1c-3.17,0-27.4.44-49.7,13.31-23.92,13.81-36.55,36.69-36.55,36.69h.34c3.17,0,27.4-.43,49.71-13.31,23.91-13.8,36.55-36.69,36.55-36.69Z"/><path class="cls-29" d="M478.16,197.81c-3.27,5.29-15.41,23.33-35.28,34.81s-41.69,13-47.78,13.15c3.26-5.29,15.38-23.32,35.28-34.8s41.68-13,47.78-13.16m1.42-1c-3.17,0-27.4.43-49.7,13.31-23.92,13.81-36.55,36.69-36.55,36.69h.34c3.16,0,27.4-.44,49.71-13.32,23.91-13.8,36.55-36.69,36.55-36.69Z"/></g><g id="_ÎÓÈ_6" data-name="—ÎÓÈ_6"><g class="cls-28"><circle class="cls-33" cx="306.72" cy="296.79" r="8"/><circle class="cls-32" cx="306.72" cy="296.79" r="6.38"/><circle class="cls-31" cx="306.72" cy="296.79" r="4.75"/><circle class="cls-30" cx="306.72" cy="296.79" r="3.13"/><circle class="cls-29" cx="306.72" cy="296.79" r="1.5"/></g><g class="cls-28"><circle class="cls-33" cx="306.72" cy="96.79" r="8"/><circle class="cls-32" cx="306.72" cy="96.79" r="6.38"/><circle class="cls-31" cx="306.72" cy="96.79" r="4.75"/><circle class="cls-30" cx="306.72" cy="96.79" r="3.13"/><circle class="cls-29" cx="306.72" cy="96.79" r="1.5"/></g><g class="cls-28"><circle class="cls-33" cx="306.72" cy="496.79" r="8"/><circle class="cls-32" cx="306.72" cy="496.79" r="6.38"/><circle class="cls-31" cx="306.72" cy="496.79" r="4.75"/><circle class="cls-30" cx="306.72" cy="496.79" r="3.13"/><circle class="cls-29" cx="306.72" cy="496.79" r="1.5"/></g><g class="cls-28"><circle class="cls-33" cx="133.52" cy="196.79" r="8"/><circle class="cls-32" cx="133.52" cy="196.79" r="6.37"/><circle class="cls-31" cx="133.52" cy="196.79" r="4.75"/><circle class="cls-30" cx="133.52" cy="196.79" r="3.12"/><circle class="cls-29" cx="133.52" cy="196.79" r="1.5"/></g><g class="cls-28"><circle class="cls-33" cx="479.93" cy="396.79" r="8"/><circle class="cls-32" cx="479.93" cy="396.79" r="6.37"/><circle class="cls-31" cx="479.93" cy="396.79" r="4.75"/><circle class="cls-30" cx="479.93" cy="396.79" r="3.12"/><circle class="cls-29" cx="479.93" cy="396.79" r="1.5"/></g><g class="cls-28"><circle class="cls-33" cx="133.52" cy="396.79" r="8"/><circle class="cls-32" cx="133.52" cy="396.79" r="6.37"/><circle class="cls-31" cx="133.52" cy="396.79" r="4.75"/><circle class="cls-30" cx="133.52" cy="396.79" r="3.12"/><circle class="cls-29" cx="133.52" cy="396.79" r="1.5"/></g><g class="cls-28"><circle class="cls-33" cx="479.93" cy="196.79" r="8"/><circle class="cls-32" cx="479.93" cy="196.79" r="6.37"/><circle class="cls-31" cx="479.93" cy="196.79" r="4.75"/><circle class="cls-30" cx="479.93" cy="196.79" r="3.12"/><circle class="cls-29" cx="479.93" cy="196.79" r="1.5"/></g><g class="cls-28"><circle class="cls-33" cx="306.72" cy="76.79" r="7"/><circle class="cls-32" cx="306.72" cy="76.79" r="5.63"/><circle class="cls-31" cx="306.72" cy="76.79" r="4.25"/><circle class="cls-30" cx="306.72" cy="76.79" r="2.88"/><circle class="cls-29" cx="306.72" cy="76.79" r="1.5"/></g><g class="cls-28"><circle class="cls-33" cx="306.72" cy="58.79" r="5"/><circle class="cls-32" cx="306.72" cy="58.79" r="4.13"/><circle class="cls-31" cx="306.72" cy="58.79" r="3.25"/><circle class="cls-30" cx="306.72" cy="58.79" r="2.38"/><circle class="cls-29" cx="306.72" cy="58.79" r="1.5"/></g><g class="cls-28"><circle class="cls-33" cx="306.72" cy="516.79" r="7"/><circle class="cls-32" cx="306.72" cy="516.79" r="5.63"/><circle class="cls-31" cx="306.72" cy="516.79" r="4.25"/><circle class="cls-30" cx="306.72" cy="516.79" r="2.88"/><circle class="cls-29" cx="306.72" cy="516.79" r="1.5"/></g><g class="cls-28"><circle class="cls-33" cx="306.72" cy="534.79" r="5"/><circle class="cls-32" cx="306.72" cy="534.79" r="4.13"/><circle class="cls-31" cx="306.72" cy="534.79" r="3.25"/><circle class="cls-30" cx="306.72" cy="534.79" r="2.38"/><circle class="cls-29" cx="306.72" cy="534.79" r="1.5"/></g><g class="cls-28"><path class="cls-33" d="M119.7,180.73a7,7,0,1,1-9.57,2.56A7,7,0,0,1,119.7,180.73Z"/><path class="cls-32" d="M119,181.92a5.63,5.63,0,1,1-7.69,2.06A5.62,5.62,0,0,1,119,181.92Z"/><path class="cls-31" d="M118.32,183.11a4.25,4.25,0,1,1-5.8,1.56A4.26,4.26,0,0,1,118.32,183.11Z"/><path class="cls-30" d="M117.63,184.3a2.87,2.87,0,1,1-3.92,1A2.88,2.88,0,0,1,117.63,184.3Z"/><path class="cls-29" d="M117,185.49a1.5,1.5,0,0,1,.54,2,1.5,1.5,0,1,1-2.59-1.5A1.5,1.5,0,0,1,117,185.49Z"/></g><g class="cls-28"><path class="cls-33" d="M103.11,173.46a5,5,0,1,1-6.83,1.83A5,5,0,0,1,103.11,173.46Z"/><path class="cls-32" d="M102.67,174.22A4.12,4.12,0,1,1,97,175.73,4.12,4.12,0,0,1,102.67,174.22Z"/><path class="cls-31" d="M102.23,175a3.25,3.25,0,1,1-4.44,1.19A3.24,3.24,0,0,1,102.23,175Z"/><path class="cls-30" d="M101.79,175.74a2.37,2.37,0,1,1-3.24.86A2.36,2.36,0,0,1,101.79,175.74Z"/><path class="cls-29" d="M101.36,176.49a1.51,1.51,0,0,1,.55,2,1.5,1.5,0,1,1-.55-2Z"/></g><g class="cls-28"><path class="cls-33" d="M500.75,400.73a7,7,0,1,0,2.56,9.56A7,7,0,0,0,500.75,400.73Z"/><path class="cls-32" d="M500.06,401.92a5.63,5.63,0,1,0,2.06,7.68A5.62,5.62,0,0,0,500.06,401.92Z"/><path class="cls-31" d="M499.37,403.11a4.25,4.25,0,1,0,1.56,5.81A4.24,4.24,0,0,0,499.37,403.11Z"/><path class="cls-30" d="M498.68,404.3a2.87,2.87,0,1,0,1.06,3.93A2.87,2.87,0,0,0,498.68,404.3Z"/><path class="cls-29" d="M498,405.49a1.5,1.5,0,1,0,.55,2.05A1.5,1.5,0,0,0,498,405.49Z"/></g><g class="cls-28"><path class="cls-33" d="M515.34,411.46a5,5,0,1,0,1.83,6.83A5,5,0,0,0,515.34,411.46Z"/><path class="cls-32" d="M514.9,412.22a4.12,4.12,0,1,0,1.51,5.63A4.13,4.13,0,0,0,514.9,412.22Z"/><path class="cls-31" d="M514.46,413a3.25,3.25,0,1,0,1.19,4.44A3.25,3.25,0,0,0,514.46,413Z"/><path class="cls-30" d="M514,413.74a2.37,2.37,0,1,0,.87,3.24A2.37,2.37,0,0,0,514,413.74Z"/><path class="cls-29" d="M513.59,414.49a1.5,1.5,0,1,0,.54,2.05A1.5,1.5,0,0,0,513.59,414.49Z"/></g><g class="cls-28"><path class="cls-33" d="M112.7,400.73a7,7,0,1,1-2.57,9.56A7,7,0,0,1,112.7,400.73Z"/><path class="cls-32" d="M113.38,401.92a5.63,5.63,0,1,1-2.06,7.68A5.64,5.64,0,0,1,113.38,401.92Z"/><path class="cls-31" d="M114.07,403.11a4.25,4.25,0,1,1-1.55,5.81A4.26,4.26,0,0,1,114.07,403.11Z"/><path class="cls-30" d="M114.76,404.3a2.87,2.87,0,1,1,2.87,5,2.87,2.87,0,0,1-2.87-5Z"/><path class="cls-29" d="M115.45,405.49a1.5,1.5,0,1,1-.55,2.05A1.49,1.49,0,0,1,115.45,405.49Z"/></g><g class="cls-28"><path class="cls-33" d="M98.11,411.46a5,5,0,1,1-1.83,6.83A5,5,0,0,1,98.11,411.46Z"/><path class="cls-32" d="M98.54,412.22A4.12,4.12,0,1,1,97,417.85,4.13,4.13,0,0,1,98.54,412.22Z"/><path class="cls-31" d="M99,413a3.25,3.25,0,1,1-1.19,4.44A3.24,3.24,0,0,1,99,413Z"/><path class="cls-30" d="M99.42,413.74a2.37,2.37,0,1,1-.87,3.24A2.37,2.37,0,0,1,99.42,413.74Z"/><path class="cls-29" d="M99.86,414.49a1.5,1.5,0,1,1-.55,2.05A1.51,1.51,0,0,1,99.86,414.49Z"/></g><g class="cls-28"><path class="cls-33" d="M493.75,180.73a7,7,0,1,0,9.56,2.56A7,7,0,0,0,493.75,180.73Z"/><path class="cls-32" d="M494.44,181.92a5.62,5.62,0,1,0,7.68,2.06A5.61,5.61,0,0,0,494.44,181.92Z"/><path class="cls-31" d="M495.12,183.11a4.25,4.25,0,1,0,5.81,1.56A4.25,4.25,0,0,0,495.12,183.11Z"/><path class="cls-30" d="M495.81,184.3a2.87,2.87,0,1,0,3.93,1A2.87,2.87,0,0,0,495.81,184.3Z"/><path class="cls-29" d="M496.5,185.49a1.5,1.5,0,1,0,1.5,2.6,1.5,1.5,0,0,0-1.5-2.6Z"/></g><g class="cls-28"><path class="cls-33" d="M510.34,173.46a5,5,0,1,0,6.83,1.83A5,5,0,0,0,510.34,173.46Z"/><path class="cls-32" d="M510.77,174.22a4.12,4.12,0,1,0,5.64,1.51A4.12,4.12,0,0,0,510.77,174.22Z"/><path class="cls-31" d="M511.21,175a3.25,3.25,0,1,0,4.44,1.19A3.25,3.25,0,0,0,511.21,175Z"/><path class="cls-30" d="M511.65,175.74a2.37,2.37,0,1,0,3.24.86A2.36,2.36,0,0,0,511.65,175.74Z"/><path class="cls-29" d="M512.09,176.49a1.5,1.5,0,1,0,2,.55A1.49,1.49,0,0,0,512.09,176.49Z"/></g></g></g></svg>