<?xml version="1.0" encoding="UTF-8"?>
<svg width="131px" height="147px" viewBox="0 0 131 147" version="1.1" xmlns="http://www.w3.org/2000/svg" xmlns:xlink="http://www.w3.org/1999/xlink">
    <!-- Generator: Sketch 51.2 (57519) - http://www.bohemiancoding.com/sketch -->
    <title>reiki-token</title>
    <desc>Created with Sketch.</desc>
    <defs>
        <linearGradient x1="-0.0352419755%" y1="49.9741955%" x2="99.9604688%" y2="49.9741955%" id="linearGradient-1">
            <stop stop-color="#4F3E90" offset="0%"></stop>
            <stop stop-color="#171A31" offset="100%"></stop>
        </linearGradient>
        <linearGradient x1="-0.0364274254%" y1="49.917245%" x2="99.9750305%" y2="49.917245%" id="linearGradient-2">
            <stop stop-color="#463780" offset="0%"></stop>
            <stop stop-color="#382E68" offset="14.33%"></stop>
            <stop stop-color="#292550" offset="33.08%"></stop>
            <stop stop-color="#1F1F3F" offset="52.89%"></stop>
            <stop stop-color="#191B34" offset="74.26%"></stop>
            <stop stop-color="#171A31" offset="100%"></stop>
        </linearGradient>
        <linearGradient x1="42.9638804%" y1="95.365439%" x2="57.0815924%" y2="4.4427147%" id="linearGradient-3">
            <stop stop-color="#4F3E90" stop-opacity="0.6" offset="0%"></stop>
            <stop stop-color="#171ABF" stop-opacity="0.4" offset="100%"></stop>
        </linearGradient>
        <linearGradient x1="-0.004%" y1="49.9372372%" x2="100.039176%" y2="49.9372372%" id="linearGradient-4">
            <stop stop-color="#463780" offset="0%"></stop>
            <stop stop-color="#382E68" offset="14.33%"></stop>
            <stop stop-color="#292550" offset="33.08%"></stop>
            <stop stop-color="#1F1F3F" offset="52.89%"></stop>
            <stop stop-color="#191B34" offset="74.26%"></stop>
            <stop stop-color="#171A31" offset="100%"></stop>
        </linearGradient>
        <linearGradient x1="-0.00829268293%" y1="50.1624473%" x2="99.9234146%" y2="50.1624473%" id="linearGradient-5">
            <stop stop-color="#7F00FF" offset="1.916698e-05%"></stop>
            <stop stop-color="#7D00FF" offset="48.89%"></stop>
            <stop stop-color="#7600FF" offset="66.5%"></stop>
            <stop stop-color="#6B00FF" offset="79.05%"></stop>
            <stop stop-color="#5A00FF" offset="89.2%"></stop>
            <stop stop-color="#4400FF" offset="97.79%"></stop>
            <stop stop-color="#3D00FF" offset="100%"></stop>
        </linearGradient>
        <linearGradient x1="-0.173507463%" y1="50.1442308%" x2="100.053731%" y2="50.1442308%" id="linearGradient-6">
            <stop stop-color="#3F00FC" offset="2.945171e-05%"></stop>
            <stop stop-color="#3F02F7" offset="20.77%"></stop>
            <stop stop-color="#3E09E7" offset="46.72%"></stop>
            <stop stop-color="#3E14CE" offset="75.31%"></stop>
            <stop stop-color="#3D20B2" offset="100%"></stop>
        </linearGradient>
        <linearGradient x1="42.3056261%" y1="-23.0033333%" x2="59.66951%" y2="109.242593%" id="linearGradient-7">
            <stop stop-color="#851CB7" offset="2.945171e-05%"></stop>
            <stop stop-color="#3D20B7" offset="100%"></stop>
        </linearGradient>
        <linearGradient x1="0.139037433%" y1="50.0243028%" x2="100.157219%" y2="50.0243028%" id="linearGradient-8">
            <stop stop-color="#3F00FC" offset="2.945171e-05%"></stop>
            <stop stop-color="#3F02F7" offset="20.77%"></stop>
            <stop stop-color="#3E09E7" offset="46.72%"></stop>
            <stop stop-color="#3E14CE" offset="75.31%"></stop>
            <stop stop-color="#3D20B2" offset="100%"></stop>
        </linearGradient>
        <linearGradient x1="0.0796344648%" y1="49.8755869%" x2="99.878329%" y2="49.8755869%" id="linearGradient-9">
            <stop stop-color="#7F00FF" offset="1.916698e-05%"></stop>
            <stop stop-color="#7A00FF" offset="22.24%"></stop>
            <stop stop-color="#6A00FF" offset="50.03%"></stop>
            <stop stop-color="#5100FF" offset="80.64%"></stop>
            <stop stop-color="#3D00FF" offset="100%"></stop>
        </linearGradient>
        <linearGradient x1="43.8828125%" y1="19.559596%" x2="56.4398437%" y2="80.1525253%" id="linearGradient-10">
            <stop stop-color="#3F00FC" offset="2.945171e-05%"></stop>
            <stop stop-color="#3D01F7" offset="12%"></stop>
            <stop stop-color="#3804E7" offset="27%"></stop>
            <stop stop-color="#2F08CE" offset="43.6%"></stop>
            <stop stop-color="#230EAA" offset="61.36%"></stop>
            <stop stop-color="#14167C" offset="80.05%"></stop>
            <stop stop-color="#012045" offset="99.23%"></stop>
            <stop stop-color="#002043" offset="100%"></stop>
        </linearGradient>
        <linearGradient x1="44.4350711%" y1="21.0422819%" x2="55.442654%" y2="79.2167785%" id="linearGradient-11">
            <stop stop-color="#3F00FC" offset="2.945171e-05%"></stop>
            <stop stop-color="#3D01F7" offset="12%"></stop>
            <stop stop-color="#3804E7" offset="27%"></stop>
            <stop stop-color="#2F08CE" offset="43.6%"></stop>
            <stop stop-color="#230EAA" offset="61.36%"></stop>
            <stop stop-color="#14167C" offset="80.05%"></stop>
            <stop stop-color="#012045" offset="99.23%"></stop>
            <stop stop-color="#002043" offset="100%"></stop>
        </linearGradient>
    </defs>
    <g id="Page-1" stroke="none" stroke-width="1" fill="none" fill-rule="evenodd">
        <g id="reiki-token" fill-rule="nonzero">
            <path d="M1.8,103.8 C1.8,103.8 -0.7,105.1 2.2,108.2 C5.1,111.4 66,144.9 66,144.9 C66,144.9 71,147.5 74.8,144.9 L130.3,112.4 C130.3,112.4 131.7,110.3 128.8,108.8 L65,71.9 C65,71.9 61.8,69.4 57.5,71.9 C53.2,74.4 1.8,103.8 1.8,103.8 Z" id="Shape" fill="#1E1A21" opacity="0.2"></path>
            <path d="M1.8,87.3 C1.8,87.3 -0.7,88.6 2.2,91.7 C5.1,94.9 66,128.4 66,128.4 C66,128.4 71,131 74.8,128.4 L130.3,95.9 C130.3,95.9 131.7,93.8 128.8,92.3 L65,55.4 C65,55.4 61.8,52.9 57.5,55.4 C53.2,57.9 1.8,87.3 1.8,87.3 Z" id="Shape" fill="url(#linearGradient-1)"></path>
            <path d="M0.8,96.4 L0.8,88.8 C0.8,88.8 0.8,90.8 3,92.4 C5.3,93.9 20.7,103.1 20.7,103.1 L43.8,116.1 L65.7,128.3 C65.7,128.3 70.6,131 74.5,128.7 C78.4,126.4 130.3,96 130.3,96 C130.3,96 130.8,95.3 130.6,94.2 L130.6,102.4 C130.6,103.1 130.2,103.8 129.6,104.1 L75.2,135.8 C75.2,135.8 69.7,139.9 64.3,134.9 L1.8,98.3 C1.2,97.9 0.8,97.1 0.8,96.4 Z" id="Shape" fill="url(#linearGradient-2)"></path>
            <path d="M1.8,69.3 C1.8,69.3 -0.7,70.6 2.2,73.7 C5.1,76.9 66,110.4 66,110.4 C66,110.4 71,113 74.8,110.4 L130.3,77.9 C130.3,77.9 131.7,75.8 128.8,74.3 L65,37.4 C65,37.4 61.8,34.9 57.5,37.4 C53.2,39.9 1.8,69.3 1.8,69.3 Z" id="Shape" fill="url(#linearGradient-1)"></path>
            <path d="M0.8,78.4 L0.8,70.8 C0.8,70.8 0.8,72.8 3,74.4 C5.2,76 20.7,85.1 20.7,85.1 L43.8,98.1 L65.7,110.3 C65.7,110.3 70.6,113 74.5,110.7 C78.4,108.4 130.3,78 130.3,78 C130.3,78 130.8,77.3 130.6,76.2 L130.6,84.4 C130.6,85.1 130.2,85.8 129.6,86.1 L75.2,117.8 C75.2,117.8 69.7,121.9 64.3,116.9 L1.8,80.3 C1.2,79.9 0.8,79.1 0.8,78.4 Z" id="Shape" fill="url(#linearGradient-2)"></path>
            <path d="M1.8,51.3 C1.8,51.3 -0.7,52.6 2.2,55.7 C5.1,58.9 66,92.4 66,92.4 C66,92.4 71,95 74.8,92.4 L130.3,59.9 C130.3,59.9 131.7,57.8 128.8,56.3 L65,19.4 C65,19.4 61.8,16.9 57.5,19.4 C53.2,21.9 1.8,51.3 1.8,51.3 Z" id="Shape" fill="url(#linearGradient-1)"></path>
            <path d="M0.8,60.4 L0.8,52.8 C0.8,52.8 0.8,54.8 3,56.4 C5.2,58 20.7,67.1 20.7,67.1 L43.8,80.1 L65.7,92.3 C65.7,92.3 70.6,95 74.5,92.7 C78.4,90.4 130.3,60 130.3,60 C130.3,60 130.8,59.3 130.6,58.2 L130.6,66.4 C130.6,67.1 130.2,67.8 129.6,68.1 L75.2,99.8 C75.2,99.8 69.7,103.9 64.3,98.9 L1.8,62.3 C1.2,61.9 0.8,61.1 0.8,60.4 Z" id="Shape" fill="url(#linearGradient-2)"></path>
            <path d="M8.6,51.6 C8.6,51.6 6.3,52.7 9,55.7 C11.7,58.6 67.6,89.4 67.6,89.4 C67.6,89.4 72.2,91.8 75.6,89.4 L126.6,59.6 C126.6,59.6 127.9,57.6 125.2,56.3 L66.6,22.4 C66.6,22.4 63.7,20.1 59.7,22.4 C55.8,24.6 8.6,51.6 8.6,51.6 Z" id="Shape" fill="url(#linearGradient-3)" opacity="0.25"></path>
            <g id="Group">
                <path d="M1.8,33.3 C1.8,33.3 -0.7,34.6 2.2,37.7 C5.1,40.9 66,74.4 66,74.4 C66,74.4 71,77 74.8,74.4 L130.3,41.9 C130.3,41.9 131.7,39.8 128.8,38.3 L65,1.4 C65,1.4 61.8,-1.1 57.5,1.4 C53.2,3.9 1.8,33.3 1.8,33.3 Z" id="Shape" fill="url(#linearGradient-1)"></path>
                <path d="M0.8,42.4 L0.8,34.8 C0.8,34.8 0.8,36.8 3,38.4 C5.2,40 20.7,49.1 20.7,49.1 L43.8,62.1 L65.7,74.3 C65.7,74.3 70.6,77 74.5,74.7 C78.4,72.4 130.3,42 130.3,42 C130.3,42 130.8,41.3 130.6,40.2 L130.6,48.4 C130.6,49.1 130.2,49.8 129.6,50.1 L75.2,81.8 C75.2,81.8 69.7,85.9 64.3,80.9 L1.8,44.3 C1.2,43.9 0.8,43.1 0.8,42.4 Z" id="Shape" fill="url(#linearGradient-2)"></path>
            </g>
            <polygon id="Shape" fill="url(#linearGradient-4)" opacity="0.6" points="29.8 33.4 73.5 59.8 114.8 37.7 110.7 37.3 67.8 26.5"></polygon>
            <g id="Group" transform="translate(29.000000, 9.000000)">
                <polygon id="Shape" fill="url(#linearGradient-5)" points="0.8 21.8 13.5 14.4 41.8 30.7 29.1 38.1"></polygon>
                <polygon id="Shape" fill="url(#linearGradient-6)" points="55.9 38.9 41.8 30.7 29.1 38.1 43.2 46.3"></polygon>
                <polygon id="Shape" fill="url(#linearGradient-7)" points="0.8 21.8 0.8 24 43.1 48.8 55.9 41.3 55.9 38.9 43.2 46.3"></polygon>
                <polygon id="Shape" fill="url(#linearGradient-8)" points="19.3 15.1 21.2 10 36.9 0.8 38 25.9"></polygon>
                <polygon id="Shape" fill="url(#linearGradient-9)" points="41 27.6 41.1 16.3 79.3 25.3 58.2 37.6"></polygon>
                <polygon id="Shape" fill="#3D20B7" points="41 27.6 58.2 37.6 79.3 25.3 79.3 27.6 58.2 40.2 41 30.3"></polygon>
                <polygon id="Shape" fill="#3D20B7" points="19.3 15.1 19.3 17.8 38 28.6 38 25.9"></polygon>
                <polygon id="Shape" fill="url(#linearGradient-10)" points="43.2 46.3 43.1 48.8 55.9 41.3 55.9 38.9"></polygon>
                <polygon id="Shape" fill="url(#linearGradient-11)" points="58.2 37.6 58.2 40.2 79.3 27.6 79.3 25.3"></polygon>
            </g>
        </g>
    </g>
</svg>