<?xml version="1.0" encoding="UTF-8"?>
<svg width="809px" height="809px" viewBox="0 0 809 809" version="1.1" xmlns="http://www.w3.org/2000/svg" xmlns:xlink="http://www.w3.org/1999/xlink">
    <!-- Generator: Sketch 51.2 (57519) - http://www.bohemiancoding.com/sketch -->
    <title>reiki-white</title>
    <desc>Created with Sketch.</desc>
    <defs>
        <linearGradient x1="50%" y1="0%" x2="50%" y2="100%" id="linearGradient-1">
            <stop stop-color="#F8F8F8" stop-opacity="0.973731884" offset="0%"></stop>
            <stop stop-color="#F3F3F3" stop-opacity="0.958446558" offset="100%"></stop>
        </linearGradient>
        <linearGradient x1="50%" y1="0%" x2="50%" y2="96.8208092%" id="linearGradient-2">
            <stop stop-color="#F8F8F8" stop-opacity="0.954483696" offset="0%"></stop>
            <stop stop-color="#F3F3F3" stop-opacity="0.995103034" offset="100%"></stop>
        </linearGradient>
        <linearGradient x1="77.4978874%" y1="73.9614309%" x2="50%" y2="96.9811236%" id="linearGradient-3">
            <stop stop-color="#FFFFFF" stop-opacity="0.958276721" offset="0%"></stop>
            <stop stop-color="#F3F3F3" stop-opacity="0.97022192" offset="100%"></stop>
        </linearGradient>
        <linearGradient x1="28.6450502%" y1="50%" x2="50%" y2="100%" id="linearGradient-4">
            <stop stop-color="#FFFFFF" offset="0%"></stop>
            <stop stop-color="#F3F3F3" stop-opacity="0.967136549" offset="100%"></stop>
        </linearGradient>
        <linearGradient x1="50%" y1="0%" x2="50%" y2="96.2405166%" id="linearGradient-5">
            <stop stop-color="#FFFFFF" stop-opacity="0.930281929" offset="0%"></stop>
            <stop stop-color="#F3F3F3" stop-opacity="0.954993207" offset="100%"></stop>
        </linearGradient>
    </defs>
    <g id="reiki-white" stroke="none" stroke-width="1" fill="none" fill-rule="evenodd">
        <g id="reiki" transform="translate(73.500000, 14.500000)" fill-rule="nonzero">
            <g id="Group" transform="translate(0.000000, 148.000000)" fill="url(#linearGradient-1)">
                <path d="M181.865,631.806 C180.225,622.441 177.567,613.318 174.561,604.384 C171.676,595.408 168.001,586.739 164.099,578.238 C159.922,569.875 155.767,561.521 150.636,553.78 C148.253,549.803 145.553,546.039 142.8,542.326 C140.211,538.508 137.115,535.07 134.22,531.515 C128.335,524.47 121.912,517.92 115.04,511.94 C108.227,505.812 100.607,499.769 93.419,493.578 C86.147,487.388 79.002,480.985 71.893,474.426 C64.842,467.771 57.839,460.957 51.258,453.458 C44.766,445.906 38.428,437.923 33.307,428.989 C28.192,420.066 24.052,410.564 20.841,400.85 C17.909,391.094 15.578,381.211 14.154,371.371 C13.954,370.042 13.754,369.145 13.548,367.447 L13.142,363.903 L12.33,356.837 L10.748,342.684 L4.847,286.047 C3.766,276.65 3.102,267.052 2.347,257.491 L0.296,228.787 L0.212,227.574 L0.386,226.329 L11.94,145.361 L24.364,64.509 L25.139,59.457 L26.136,54.131 C27.08,50.065 27.723,46.474 30.476,41.222 C31.431,39.213 35.027,33.955 41.693,33.016 C43.201,32.869 45.089,32.869 46.239,33.163 C47.346,33.448 48.459,33.817 49.519,34.26 C51.513,35.151 52.398,35.974 53.807,36.933 C57.841,40.392 59.955,43.504 62.249,46.631 C66.552,52.875 69.864,58.802 73.302,65.172 L78.053,74.274 L82.446,84.61 C83.701,88.08 84.677,91.587 85.784,95.062 C86.754,98.584 87.387,102.223 88.178,105.788 C88.69,109.427 89.159,113.076 89.454,116.736 C89.485,120.427 89.85,124.087 89.48,127.773 C89.248,135.129 87.824,142.439 85.709,149.473 C83.362,156.571 80.599,163.036 75.837,169.607 L76.718,165.325 C79.333,180.396 81.29,195.352 82.16,210.529 C82.603,218.091 82.93,225.674 82.545,233.268 C82.466,235.166 82.413,237.055 82.207,238.948 C82.018,240.841 81.938,242.729 81.659,244.607 L80.81,250.217 L79.529,255.728 L80.035,250.123 L80.098,244.518 C80.114,242.656 79.94,240.784 79.871,238.923 C79.808,237.067 79.607,235.205 79.423,233.354 C79.107,229.642 78.558,225.939 78.131,222.248 C77.567,218.562 77.045,214.881 76.359,211.211 C73.701,196.577 70.379,181.938 66.508,167.7 L65.991,165.802 L67.388,163.413 C70.188,158.63 72.44,152.217 73.721,146.216 C75.024,140.088 75.82,133.823 75.519,127.537 C75.624,124.41 75.029,121.278 74.796,118.166 C74.3,115.065 73.662,111.975 73.008,108.911 C72.064,105.889 71.32,102.836 70.256,99.862 C69.053,96.93 67.983,93.924 66.712,91.076 L62.667,82.791 L57.478,74.032 C54.156,68.579 50.454,62.789 46.741,58.011 C44.932,55.712 42.844,53.381 41.599,52.5 C41.557,52.59 41.135,52.236 41.546,52.516 C41.805,52.674 42.11,52.769 42.416,52.78 C42.749,52.833 43.761,53.065 44.425,52.885 C47.779,52.516 48.66,49.99 48.259,51.066 C47.162,53.487 46.208,60.712 45.453,67.472 L35.655,148.641 L24.99,229.696 L25.08,227.238 L27.158,255.335 C27.796,264.701 28.329,274.045 29.32,283.537 L34.614,340.237 L35.832,354.423 L36.417,361.522 L36.712,365.065 C36.754,365.73 36.981,367.174 37.102,368.187 C38.099,377.184 39.902,385.875 42.138,394.385 C44.627,402.781 47.833,410.849 51.909,418.548 C56.065,426.194 61.032,433.557 66.58,440.654 C77.839,454.808 91.233,467.981 104.781,481.133 C111.51,487.852 118.344,494.127 125.163,501.215 C132.119,508.238 138.484,515.79 144.2,523.764 C146.99,527.803 149.853,531.769 152.232,536.051 C154.758,540.239 157.21,544.447 159.319,548.844 C163.843,557.45 167.514,566.457 170.741,575.549 C173.752,584.725 176.463,593.964 178.345,603.371 C180.135,612.801 181.522,622.282 181.865,631.806 Z" id="Shape"></path>
                <path d="M142.071,287.988 L131.176,241.244 L128.328,229.722 C127.352,225.909 126.514,222.038 125.338,218.347 C124.214,214.635 123.186,210.848 122,207.231 L118.224,196.742 L117.037,193.435 L118.709,189.438 C121.256,183.352 123.914,177.33 126.308,171.223 C128.676,165.117 131.191,159.073 133.258,152.914 C135.505,146.797 137.466,140.648 139.423,134.499 C141.106,128.303 143.035,122.18 144.338,115.979 C145.145,112.889 145.741,109.788 146.252,106.698 C146.764,103.613 147.576,100.523 147.818,97.448 L148.883,88.215 L149.294,79.076 C149.22,73.059 149.109,67.011 148.023,61.284 L147.422,56.918 L146.267,52.757 C145.502,49.984 144.917,47.12 143.609,44.599 L141.984,40.654 C141.494,39.304 140.924,37.996 140.107,36.836 C138.594,34.442 137.254,31.921 135.656,29.559 C133.789,27.397 132.007,25.15 130.193,22.893 L129.518,22.049 L129.434,21.944 C129.329,21.839 130.178,22.614 129.793,22.26 L129.735,22.207 L129.508,21.991 L129.05,21.559 L128.591,21.126 C128.475,21.021 128.628,21.184 128.644,21.189 C128.749,21.289 128.86,21.257 129.013,21.374 C129.229,21.448 129.836,21.722 131.117,21.806 C132.372,21.88 134.096,21.384 134.898,20.799 C136.538,19.528 135.821,19.639 135.473,20.356 C135.019,21.047 134.455,22.149 133.949,23.431 C132.905,25.962 131.95,28.978 131.043,32.058 C129.161,38.239 127.441,44.82 125.379,51.375 C123.27,57.935 120.976,64.559 118.038,71.071 C116.372,74.588 115.001,77.23 113.355,80.305 C111.836,83.263 109.774,86.343 108.018,89.317 C104.358,95.271 100.351,100.781 96.026,106.097 C91.734,111.402 87.188,116.502 82.178,121.095 C85.543,115.21 88.475,109.156 91.37,103.165 C94.149,97.122 96.807,90.983 99.122,84.95 C100.192,81.844 101.411,79.054 102.344,75.774 L105.265,66.403 C106.926,60.322 108.081,53.968 109.094,47.503 L112.279,27.601 C112.927,24.168 113.618,20.677 114.731,16.859 C115.279,14.961 115.96,12.946 117.046,10.657 C118.248,8.453 119.393,5.589 123.933,2.557 C126.153,1.112 129.57,0.121 132.497,0.363 C135.455,0.537 137.654,1.444 139.342,2.304 C140.27,2.747 141.009,3.295 141.821,3.844 L142.897,4.635 L143.387,5.026 L143.877,5.422 L144.12,5.617 L144.653,6.097 L144.779,6.229 L145.776,7.252 C148.429,9.994 151.108,12.747 153.708,15.574 C156.065,18.601 158.138,21.876 160.336,25.055 C161.496,26.626 162.387,28.325 163.189,30.076 L165.699,35.297 C167.518,38.746 168.504,42.426 169.643,46.076 L171.31,51.56 L172.328,57.118 C173.889,64.543 174.068,71.968 174.232,79.325 L173.784,90.267 L172.439,100.993 C172.081,104.6 171.168,108.017 170.535,111.529 C169.897,115.041 169.048,118.48 168.073,121.86 C166.327,128.715 164.155,135.355 161.866,141.957 C159.356,148.443 156.972,154.982 154.082,161.248 C151.33,167.597 148.303,173.767 145.181,179.879 C142.006,185.96 138.763,191.982 135.32,197.872 L135.805,190.579 L138.647,203.077 C139.074,205.155 139.237,207.18 139.543,209.231 L140.36,215.348 C140.982,219.424 141.225,223.469 141.61,227.514 C141.985,231.553 142.354,235.593 142.427,239.638 C143.21,255.778 143.226,271.883 142.071,287.988 Z" id="Shape"></path>
                <path d="M313.115,473.055 C304.625,461.717 295.665,450.864 286.183,440.591 C276.854,430.202 266.74,420.647 256.246,411.903 C245.72,403.223 234.324,395.799 222.501,390.651 C219.553,389.333 216.552,388.299 213.557,387.318 C210.535,386.496 207.529,385.663 204.508,385.252 C203.005,384.936 201.502,384.798 199.999,384.714 C198.501,384.598 197.009,384.418 195.527,384.524 C192.548,384.44 189.636,384.851 186.747,385.2 L181.79,385.79 L177.819,382.015 L155.186,360.468 C154.258,359.529 153.25,358.833 152.286,357.999 L149.375,355.595 L143.559,350.796 L140.659,348.392 C139.715,347.696 138.818,347.189 137.906,346.578 L135.206,344.785 L134.537,344.332 C134.284,344.152 134.041,343.994 134.221,344.131 C134.363,344.227 134.558,344.258 134.759,344.194 L127.139,337.898 C126.338,336.4 125.067,334.216 123.901,332.381 C122.678,330.483 121.428,328.573 120.088,326.738 C117.441,323.036 114.593,319.503 111.566,316.213 C105.565,309.6 98.82,303.968 91.617,300.097 C89.803,299.18 87.978,298.315 86.138,297.598 C84.287,296.902 82.442,296.195 80.554,295.805 C78.682,295.267 76.773,295.045 74.88,294.75 C72.966,294.634 71.057,294.465 69.127,294.603 C67.202,294.55 65.267,294.961 63.326,295.183 C61.39,295.625 59.439,295.931 57.504,296.596 C55.548,297.081 53.623,297.904 51.682,298.653 C49.742,299.402 47.859,300.488 45.929,301.363 L47.654,300.203 C47.818,300.193 47.928,300.077 47.928,299.897 C48.033,299.771 48.255,299.591 48.218,299.349 C48.255,299.18 48.381,299.18 48.297,299.053 C48.228,298.969 48.35,299.285 48.276,299.369 C48.308,300.245 48.582,302.322 49.568,304.684 C50.438,307.015 51.72,309.579 53.149,312.141 C54.615,314.725 56.212,317.33 57.937,319.935 C61.396,325.145 65.12,330.429 69.017,335.671 L72.213,339.995 L75.003,344.129 C76.875,346.903 78.721,349.54 80.482,352.704 L85.797,361.848 L90.644,370.813 C93.887,376.751 96.867,382.752 99.915,388.743 C102.968,394.713 105.716,400.83 108.553,406.894 L116.822,425.225 L115.145,423.105 C117.882,425.689 120.329,428.146 122.755,430.804 C125.17,433.419 127.538,436.067 129.827,438.787 C134.41,444.219 138.849,449.766 142.847,455.652 C144.851,458.584 146.739,461.6 148.537,464.67 C150.346,467.729 152.023,470.86 153.536,474.077 C154.375,475.639 154.96,477.347 155.63,478.981 C156.295,480.627 156.954,482.261 157.418,483.98 C157.893,485.7 158.525,487.334 158.853,489.075 L159.776,494.254 L157.767,489.444 C157.129,487.84 156.19,486.364 155.426,484.835 C154.672,483.306 153.722,481.861 152.784,480.427 C151.846,478.993 150.97,477.537 149.931,476.176 C147.98,473.371 145.887,470.682 143.687,468.066 C141.493,465.462 139.231,462.909 136.863,460.452 C132.233,455.463 127.307,450.727 122.229,446.192 C119.698,443.924 117.098,441.72 114.472,439.569 C111.856,437.449 109.183,435.223 106.625,433.314 L105.812,432.703 L104.947,431.194 C98.387,419.761 91.421,408.445 84.592,397.18 C81.154,391.57 77.768,385.906 74.193,380.432 L68.893,372.237 L63.567,364.517 C61.927,361.964 59.728,359.317 57.761,356.67 L54.744,352.704 L51.807,349.171 C47.509,343.961 43.159,338.666 39.072,332.94 C37.015,330.082 35.011,327.096 33.071,323.975 C31.141,320.811 29.274,317.498 27.639,313.681 C26.01,309.937 24.486,305.496 24.243,299.748 C24.29,298.187 24.19,296.806 24.522,295.107 C24.902,293.388 25.224,291.701 25.93,290.023 C26.737,288.357 27.618,286.617 28.704,285.171 C29.853,283.8 31.119,282.482 32.437,281.279 L33.144,280.635 L34.167,280.118 C36.746,278.81 39.224,277.376 41.924,276.216 C44.63,275.077 47.308,273.896 50.198,273.052 C53.003,272.05 55.988,271.428 58.957,270.806 C61.974,270.363 65,269.815 68.102,269.793 C71.187,269.582 74.282,269.772 77.378,269.982 C80.447,270.373 83.527,270.784 86.501,271.564 C89.522,272.218 92.413,273.242 95.25,274.306 C98.098,275.382 100.782,276.711 103.435,278.082 C113.881,283.819 122.593,291.413 129.981,299.714 C133.656,303.89 137,308.267 140.09,312.802 C141.646,315.06 143.101,317.39 144.53,319.742 C145.975,322.179 147.214,324.35 148.691,327.314 L141.071,321.028 C142.468,321.535 143.861,322.146 145.195,322.821 C145.996,323.212 146.292,323.433 146.582,323.655 L147.547,324.33 L151.391,327.093 C152.641,328.011 153.991,328.939 155.141,329.878 L158.263,332.693 L164.486,338.336 L167.592,341.152 C168.594,342.101 169.728,342.998 170.619,344 L193.068,367.53 L184.146,364.334 C188.275,364.112 192.394,363.944 196.464,364.345 C198.516,364.408 200.509,364.767 202.507,365.083 C204.516,365.368 206.494,365.737 208.419,366.274 C212.332,367.15 216.05,368.479 219.731,369.818 C223.338,371.316 226.882,372.877 230.246,374.712 C233.616,376.516 236.928,378.403 240.007,380.566 C243.15,382.655 246.103,384.933 249.035,387.221 C254.809,391.894 260.204,396.882 265.314,402.072 C270.435,407.26 275.107,412.808 279.589,418.44 C284.066,424.083 288.285,429.883 292.277,435.822 C300.127,447.773 307.314,460.092 313.115,473.055 Z" id="Shape"></path>
                <path d="M156.272,115.826 C156.272,115.826 162.384,107.573 171.549,95.202 C173.822,92.302 175.937,88.905 178.431,85.657 C180.635,82.166 183.193,78.722 185.466,75.005 C186.542,73.111 187.718,71.261 188.91,69.394 C190.218,67.327 191.536,65.239 192.87,63.129 C196.198,58.325 199.378,53.853 205.442,48.981 C207.256,47.742 209.086,46.507 212.113,45.442 C213.415,44.915 215.683,44.525 217.518,44.398 C219.843,44.414 222.148,44.651 224.4,45.622 C228.887,47.415 231.561,50.643 232.827,52.726 C234.235,54.946 235.005,56.876 235.506,58.226 C236.624,61.39 237.146,62.882 237.905,65.862 C238.538,68.668 239.45,71.421 239.667,74.152 C240.574,79.52 240.526,84.921 240.215,89.899 C239.477,94.941 238.722,99.57 236.993,103.599 C236.165,105.603 235.643,107.565 234.641,109.252 C233.629,110.934 232.716,112.511 231.783,113.935 C230.828,115.353 230.069,116.709 229.13,117.827 C228.118,118.887 227.184,119.857 226.34,120.738 C222.97,124.166 220.893,125.78 220.893,125.78 C220.893,125.78 221.151,122.927 221.879,118.534 C222.058,117.453 222.259,116.256 222.475,114.958 C222.533,113.65 222.596,112.237 222.664,110.724 C222.748,109.285 222.844,107.75 222.938,106.131 C223.049,104.554 222.769,102.846 222.701,101.153 C222.748,97.778 221.921,94.176 221.388,90.543 C220.465,86.889 219.537,83.16 218.092,79.353 C217.501,77.402 216.573,75.672 215.887,73.795 C215.197,72.134 213.751,69.091 213.124,67.614 C212.686,66.659 212.386,66.322 212.412,66.465 C212.444,66.554 212.449,66.544 212.544,66.686 C212.67,66.892 212.824,67.082 213.008,67.229 C213.509,67.751 214.189,68.173 215.291,68.7 C216.404,69.069 217.416,69.365 218.497,69.243 C219.109,69.359 220.074,69.006 220.227,69 C220.854,68.763 220.575,68.937 220.301,69.105 C218.397,70.466 215.28,74.025 212.649,77.137 L210.366,80.064 L207.988,82.848 C206.259,84.878 204.55,86.877 202.794,88.76 C199.324,92.557 195.459,95.674 191.936,98.685 C188.139,101.395 184.674,104.032 181.136,105.994 C174.201,110.092 167.974,112.618 163.465,114.01 C161.298,114.817 159.367,115.139 158.181,115.471 C156.958,115.747 156.272,115.826 156.272,115.826 Z" id="Shape"></path>
            </g>
            <g id="Group" transform="translate(348.000000, 148.000000)" fill="url(#linearGradient-2)">
                <path d="M131.402,631.806 C133.043,622.441 135.7,613.318 138.706,604.384 C141.591,595.408 145.267,586.739 149.169,578.238 C153.346,569.875 157.501,561.521 162.632,553.78 C165.016,549.803 167.716,546.039 170.468,542.326 C173.058,538.508 176.154,535.07 179.048,531.515 C184.934,524.47 191.357,517.92 198.228,511.94 C205.041,505.812 212.662,499.769 219.849,493.578 C227.121,487.388 234.267,480.985 241.375,474.426 C248.426,467.771 255.429,460.957 262.01,453.458 C268.501,445.906 274.84,437.923 279.961,428.989 C285.076,420.066 289.216,410.564 292.427,400.85 C295.36,391.094 297.69,381.211 299.114,371.371 C299.315,370.042 299.515,369.145 299.72,367.447 L300.126,363.903 L300.939,356.837 L302.521,342.684 L308.421,286.047 C309.502,276.65 310.167,267.052 310.921,257.491 L312.973,228.787 L313.057,227.574 L312.883,226.329 L301.328,145.361 L288.904,64.509 L288.129,59.457 L287.133,54.131 C286.189,50.065 285.545,46.474 282.792,41.222 C281.838,39.213 278.241,33.955 271.576,33.016 C270.067,32.869 268.18,32.869 267.03,33.163 C265.923,33.448 264.809,33.817 263.75,34.26 C261.757,35.151 260.871,35.974 259.463,36.933 C255.429,40.392 253.314,43.504 251.02,46.631 C246.717,52.875 243.406,58.802 239.967,65.172 L235.216,74.274 L230.822,84.61 C229.567,88.08 228.592,91.587 227.484,95.062 C226.514,98.584 225.881,102.223 225.09,105.788 C224.578,109.427 224.109,113.076 223.814,116.736 C223.782,120.427 223.418,124.087 223.788,127.773 C224.019,135.129 225.443,142.439 227.559,149.473 C229.906,156.571 232.668,163.036 237.431,169.607 L236.55,165.325 C233.934,180.396 231.978,195.352 231.108,210.529 C230.665,218.091 230.338,225.674 230.723,233.268 C230.802,235.166 230.855,237.055 231.06,238.948 C231.25,240.841 231.33,242.729 231.609,244.607 L232.458,250.217 L233.74,255.728 L233.233,250.123 L233.17,244.518 C233.154,242.656 233.328,240.784 233.398,238.923 C233.461,237.067 233.662,235.205 233.846,233.354 C234.162,229.642 234.71,225.939 235.138,222.248 C235.701,218.562 236.224,214.881 236.909,211.211 C239.567,196.577 242.889,181.938 246.76,167.7 L247.277,165.802 L245.88,163.413 C243.08,158.63 240.828,152.217 239.547,146.216 C238.244,140.088 237.448,133.823 237.749,127.537 C237.644,124.41 238.239,121.278 238.471,118.166 C238.967,115.065 239.605,111.975 240.259,108.911 C241.203,105.889 241.947,102.836 243.012,99.862 C244.214,96.93 245.284,93.924 246.556,91.076 L250.6,82.791 L255.789,74.032 C259.111,68.579 262.813,62.789 266.525,58.011 C268.335,55.712 270.422,53.381 271.667,52.5 C271.71,52.59 272.132,52.236 271.72,52.516 C271.462,52.674 271.157,52.769 270.85,52.78 C270.518,52.833 269.505,53.065 268.841,52.885 C265.487,52.516 264.607,49.99 265.007,51.066 C266.104,53.487 267.059,60.712 267.813,67.472 L277.611,148.641 L288.279,229.694 L288.19,227.236 L286.112,255.333 C285.474,264.699 284.941,274.043 283.95,283.535 L278.655,340.235 L277.437,354.421 L276.852,361.52 L276.556,365.063 C276.514,365.728 276.287,367.172 276.166,368.185 C275.169,377.182 273.365,385.873 271.13,394.383 C268.641,402.779 265.435,410.847 261.358,418.546 C257.203,426.192 252.235,433.555 246.688,440.652 C235.429,454.806 222.035,467.979 208.487,481.131 C201.758,487.85 194.924,494.125 188.105,501.213 C181.149,508.236 174.785,515.788 169.068,523.762 C166.278,527.801 163.415,531.767 161.037,536.049 C158.511,540.237 156.058,544.445 153.949,548.842 C149.425,557.448 145.755,566.455 142.527,575.547 C139.515,584.723 136.805,593.962 134.923,603.369 C133.132,612.801 131.745,622.282 131.402,631.806 Z" id="Shape"></path>
                <path d="M171.196,287.988 L182.091,241.244 L184.939,229.722 C185.915,225.909 186.753,222.038 187.929,218.347 C189.052,214.635 190.08,210.848 191.267,207.231 L195.042,196.742 L196.229,193.435 L194.558,189.438 C192.01,183.352 189.353,177.33 186.958,171.223 C184.591,165.117 182.075,159.073 180.008,152.914 C177.762,146.797 175.8,140.648 173.843,134.499 C172.161,128.303 170.231,122.18 168.929,115.979 C168.121,112.889 167.526,109.788 167.014,106.698 C166.503,103.613 165.691,100.523 165.449,97.448 L164.384,88.215 L163.973,79.076 C164.046,73.059 164.158,67.011 165.244,61.284 L165.846,56.918 L167,52.757 C167.765,49.984 168.351,47.12 169.658,44.599 L171.282,40.654 C171.772,39.304 172.342,37.996 173.159,36.836 C174.673,34.442 176.013,31.921 177.61,29.559 C179.477,27.397 181.259,25.15 183.073,22.893 L183.749,22.049 L183.833,21.944 C183.938,21.839 183.09,22.614 183.475,22.26 L183.533,22.207 L183.76,21.991 L184.219,21.559 L184.678,21.126 C184.794,21.021 184.641,21.184 184.625,21.189 C184.52,21.289 184.409,21.257 184.256,21.374 C184.04,21.448 183.434,21.722 182.152,21.806 C180.897,21.88 179.173,21.384 178.372,20.799 C176.731,19.528 177.449,19.639 177.797,20.356 C178.25,21.047 178.815,22.149 179.321,23.431 C180.365,25.962 181.319,28.978 182.226,32.058 C184.109,38.239 185.828,44.82 187.89,51.375 C189.999,57.935 192.293,64.559 195.23,71.071 C196.897,74.588 198.268,77.23 199.914,80.305 C201.433,83.263 203.494,86.343 205.25,89.317 C208.91,95.271 212.918,100.781 217.242,106.097 C221.535,111.402 226.08,116.502 231.09,121.095 C227.726,115.21 224.794,109.156 221.899,103.165 C219.12,97.122 216.462,90.983 214.147,84.95 C213.077,81.844 211.859,79.054 210.925,75.774 L208.003,66.403 C206.342,60.322 205.188,53.968 204.175,47.503 L200.989,27.601 C200.341,24.168 199.65,20.677 198.537,16.859 C197.989,14.961 197.308,12.946 196.223,10.657 C195.02,8.453 193.876,5.589 189.335,2.557 C187.115,1.112 183.698,0.121 180.772,0.363 C177.813,0.537 175.614,1.444 173.926,2.304 C172.998,2.747 172.26,3.295 171.447,3.844 L170.372,4.635 L169.882,5.026 L169.391,5.422 L169.149,5.617 L168.617,6.097 L168.49,6.229 L167.493,7.252 C164.841,9.994 162.162,12.747 159.562,15.574 C157.205,18.601 155.132,21.876 152.933,25.055 C151.773,26.626 150.881,28.325 150.08,30.076 L147.569,35.297 C145.75,38.746 144.763,42.426 143.625,46.076 L141.959,51.56 L140.94,57.118 C139.379,64.543 139.2,71.968 139.037,79.325 L139.485,90.267 L140.83,100.993 C141.188,104.6 142.101,108.017 142.733,111.529 C143.372,115.041 144.22,118.48 145.196,121.86 C146.942,128.715 149.114,135.355 151.403,141.957 C153.913,148.443 156.297,154.982 159.186,161.248 C161.939,167.597 164.966,173.767 168.088,179.879 C171.262,185.96 174.505,191.982 177.949,197.872 L177.464,190.579 L174.621,203.077 C174.194,205.155 174.03,207.18 173.725,209.231 L172.908,215.348 C172.286,219.424 172.044,223.469 171.658,227.514 C171.284,231.553 170.915,235.593 170.841,239.638 C170.057,255.778 170.041,271.883 171.196,287.988 Z" id="Shape"></path>
                <path d="M0.152,473.055 C8.642,461.717 17.601,450.864 27.083,440.591 C36.412,430.202 46.526,420.647 57.021,411.903 C67.547,403.223 78.943,395.799 90.766,390.651 C93.713,389.333 96.714,388.299 99.709,387.318 C102.73,386.496 105.736,385.663 108.759,385.252 C110.262,384.936 111.765,384.798 113.268,384.714 C114.765,384.598 116.257,384.418 117.74,384.524 C120.719,384.44 123.631,384.851 126.52,385.2 L131.477,385.79 L135.448,382.015 L158.082,360.468 C159.01,359.529 160.018,358.833 160.982,357.999 L163.893,355.595 L169.709,350.796 L172.609,348.392 C173.552,347.696 174.449,347.189 175.362,346.578 L178.061,344.785 L178.731,344.332 C178.984,344.152 179.227,343.994 179.047,344.131 C178.904,344.227 178.71,344.258 178.509,344.194 L186.129,337.898 C186.931,336.4 188.202,334.216 189.367,332.381 C190.591,330.483 191.841,328.573 193.18,326.738 C195.827,323.036 198.675,319.503 201.702,316.213 C207.703,309.6 214.447,303.968 221.651,300.097 C223.464,299.18 225.29,298.315 227.13,297.598 C228.982,296.902 230.827,296.195 232.715,295.805 C234.587,295.267 236.496,295.045 238.389,294.75 C240.304,294.634 242.212,294.465 244.143,294.603 C246.068,294.55 248.003,294.961 249.944,295.183 C251.88,295.625 253.831,295.931 255.765,296.596 C257.722,297.081 259.647,297.904 261.587,298.653 C263.527,299.402 265.41,300.488 267.34,301.363 L265.616,300.203 C265.452,300.193 265.342,300.077 265.342,299.897 C265.237,299.771 265.015,299.591 265.052,299.349 C265.015,299.18 264.888,299.18 264.973,299.053 C265.041,298.969 264.92,299.285 264.994,299.369 C264.963,300.245 264.688,302.322 263.702,304.684 C262.832,307.015 261.551,309.579 260.122,312.141 C258.656,314.725 257.058,317.33 255.334,319.935 C251.874,325.145 248.151,330.429 244.254,335.671 L241.059,339.995 L238.269,344.129 C236.397,346.903 234.551,349.54 232.79,352.704 L227.474,361.848 L222.628,370.813 C219.385,376.751 216.405,382.752 213.357,388.743 C210.303,394.713 207.556,400.83 204.718,406.894 L196.449,425.225 L198.126,423.105 C195.39,425.689 192.942,428.146 190.517,430.804 C188.102,433.419 185.734,436.067 183.446,438.787 C178.863,444.219 174.423,449.766 170.425,455.652 C168.421,458.584 166.533,461.6 164.736,464.67 C162.926,467.729 161.25,470.86 159.736,474.077 C158.898,475.639 158.312,477.347 157.643,478.981 C156.978,480.627 156.319,482.261 155.855,483.98 C155.38,485.7 154.748,487.334 154.42,489.075 L153.497,494.254 L155.507,489.444 C156.145,487.84 157.083,486.364 157.848,484.835 C158.602,483.306 159.551,481.861 160.491,480.427 C161.429,478.992 162.304,477.537 163.344,476.176 C165.295,473.371 167.389,470.682 169.588,468.066 C171.781,465.462 174.044,462.909 176.411,460.452 C181.041,455.463 185.967,450.727 191.045,446.192 C193.576,443.924 196.176,441.72 198.803,439.569 C201.418,437.449 204.092,435.223 206.65,433.314 L207.462,432.703 L208.327,431.194 C214.888,419.761 221.853,408.445 228.682,397.18 C232.12,391.57 235.506,385.906 239.081,380.432 L244.381,372.237 L249.707,364.517 C251.347,361.964 253.546,359.317 255.513,356.67 L258.53,352.704 L261.468,349.171 C265.766,343.961 270.116,338.666 274.203,332.94 C276.26,330.082 278.264,327.096 280.204,323.975 C282.134,320.811 284.001,317.498 285.636,313.681 C287.266,309.937 288.789,305.496 289.032,299.748 C288.984,298.187 289.085,296.806 288.752,295.107 C288.373,293.388 288.051,291.701 287.345,290.023 C286.537,288.357 285.657,286.617 284.571,285.171 C283.422,283.8 282.156,282.482 280.838,281.279 L280.131,280.635 L279.109,280.118 C276.53,278.81 274.051,277.376 271.351,276.216 C268.646,275.077 265.967,273.896 263.078,273.052 C260.272,272.05 257.288,271.428 254.318,270.806 C251.302,270.363 248.275,269.815 245.174,269.793 C242.089,269.582 238.993,269.772 235.898,269.982 C232.829,270.373 229.75,270.784 226.775,271.564 C223.754,272.218 220.864,273.242 218.027,274.306 C215.179,275.382 212.495,276.711 209.842,278.082 C199.395,283.819 190.684,291.413 183.295,299.714 C179.619,303.89 176.276,308.267 173.186,312.802 C171.63,315.06 170.175,317.39 168.747,319.742 C167.302,322.179 166.062,324.35 164.586,327.314 L172.206,321.028 C170.809,321.535 169.416,322.146 168.082,322.821 C167.28,323.212 166.985,323.433 166.695,323.655 L165.73,324.33 L161.885,327.093 C160.635,328.011 159.285,328.939 158.136,329.878 L155.014,332.693 L148.791,338.336 L145.685,341.152 C144.683,342.101 143.549,342.998 142.659,344 L120.21,367.53 L129.133,364.334 C125.004,364.112 120.885,363.944 116.814,364.345 C114.763,364.408 112.77,364.767 110.771,365.083 C108.762,365.368 106.785,365.737 104.86,366.274 C100.947,367.15 97.229,368.479 93.548,369.818 C89.941,371.316 86.397,372.877 83.032,374.712 C79.662,376.516 76.35,378.403 73.271,380.566 C70.127,382.655 67.174,384.933 64.243,387.221 C58.469,391.894 53.074,396.882 47.964,402.072 C42.844,407.26 38.171,412.808 33.689,418.44 C29.212,424.083 24.994,429.883 21.001,435.822 C13.141,447.773 5.953,460.092 0.152,473.055 Z" id="Shape"></path>
                <path d="M156.994,115.826 C156.994,115.826 150.883,107.573 141.718,95.202 C139.445,92.302 137.33,88.905 134.836,85.657 C132.631,82.166 130.073,78.722 127.801,75.005 C126.725,73.111 125.549,71.261 124.358,69.394 C123.05,67.327 121.732,65.239 120.397,63.129 C117.07,58.325 113.89,53.853 107.826,48.981 C106.012,47.742 104.181,46.507 101.155,45.442 C99.852,44.915 97.585,44.525 95.75,44.398 C93.424,44.414 91.12,44.651 88.868,45.622 C84.38,47.415 81.707,50.643 80.441,52.726 C79.033,54.946 78.262,56.876 77.761,58.226 C76.644,61.39 76.121,62.882 75.362,65.862 C74.729,68.668 73.817,71.421 73.601,74.152 C72.694,79.52 72.742,84.921 73.052,89.899 C73.79,94.941 74.544,99.57 76.275,103.599 C77.102,105.603 77.625,107.565 78.627,109.252 C79.64,110.934 80.552,112.511 81.485,113.935 C82.439,115.353 83.199,116.709 84.137,117.827 C85.15,118.887 86.083,119.857 86.927,120.738 C90.296,124.166 92.374,125.78 92.374,125.78 C92.374,125.78 92.115,122.927 91.388,118.534 C91.208,117.453 91.008,116.256 90.792,114.958 C90.733,113.65 90.671,112.237 90.602,110.724 C90.518,109.285 90.423,107.75 90.329,106.131 C90.218,104.554 90.497,102.846 90.566,101.153 C90.518,97.778 91.346,94.176 91.879,90.543 C92.802,86.889 93.731,83.16 95.175,79.353 C95.766,77.402 96.694,75.672 97.379,73.795 C98.07,72.134 99.515,69.091 100.143,67.614 C100.581,66.659 100.881,66.322 100.855,66.465 C100.824,66.554 100.818,66.544 100.723,66.686 C100.596,66.892 100.444,67.082 100.259,67.229 C99.758,67.751 99.077,68.173 97.976,68.7 C96.863,69.069 95.85,69.365 94.769,69.243 C94.158,69.359 93.193,69.006 93.04,69 C92.413,68.763 92.692,68.937 92.967,69.105 C94.87,70.466 97.987,74.025 100.618,77.137 L102.901,80.064 L105.28,82.848 C107.009,84.878 108.718,86.877 110.474,88.76 C113.944,92.557 117.809,95.674 121.331,98.685 C125.128,101.395 128.593,104.032 132.131,105.994 C139.066,110.092 145.294,112.618 149.803,114.01 C151.97,114.817 153.901,115.139 155.087,115.471 C156.309,115.747 156.994,115.826 156.994,115.826 Z" id="Shape"></path>
            </g>
            <path d="M398.798,274.326 C398.798,300.894 369.056,322.441 332.368,322.441 C295.686,322.441 265.95,300.894 265.95,274.326 C265.95,247.759 295.687,226.217 332.368,226.217 C369.056,226.216 398.798,247.758 398.798,274.326 Z" id="Shape" fill="url(#linearGradient-3)"></path>
            <path d="M292.042,454.076 C292.042,437.939 310.098,424.861 332.374,424.861 C354.644,424.861 372.7,437.939 372.7,454.076 C372.7,470.202 354.643,483.28 332.374,483.28 C310.099,483.28 292.042,470.202 292.042,454.076 Z" id="Shape" fill="url(#linearGradient-3)"></path>
            <path d="M299.246,522.209 C299.246,508.962 314.075,498.215 332.374,498.215 C350.667,498.215 365.496,508.962 365.496,522.209 C365.496,535.456 350.667,546.203 332.374,546.203 C314.075,546.203 299.246,535.456 299.246,522.209 Z" id="Shape" fill="url(#linearGradient-4)"></path>
            <path d="M282.556,373.161 C282.556,353.227 304.863,337.08 332.379,337.08 C359.891,337.08 382.192,353.227 382.192,373.161 C382.192,393.084 359.89,409.231 332.379,409.231 C304.862,409.23 282.556,393.084 282.556,373.161 Z" id="Shape" fill="url(#linearGradient-4)"></path>
            <path d="M372.716,92.598 C372.716,108.73 354.659,121.808 332.385,121.808 C310.115,121.808 292.059,108.73 292.059,92.598 C292.059,76.467 310.115,63.389 332.385,63.389 C354.659,63.388 372.716,76.466 372.716,92.598 Z" id="Shape" fill="url(#linearGradient-3)"></path>
            <path d="M365.512,24.46 C365.512,37.707 350.684,48.454 332.385,48.454 C314.091,48.454 299.262,37.706 299.262,24.46 C299.262,11.213 314.091,0.466 332.385,0.466 C350.684,0.466 365.512,11.213 365.512,24.46 Z" id="Shape" fill="url(#linearGradient-5)"></path>
            <path d="M382.202,173.519 C382.202,193.442 359.895,209.6 332.379,209.6 C304.868,209.6 282.566,193.442 282.566,173.519 C282.566,153.591 304.867,137.438 332.379,137.438 C359.896,137.438 382.202,153.59 382.202,173.519 Z" id="Shape" fill="url(#linearGradient-4)"></path>
        </g>
    </g>
</svg>