<?xml version="1.0" encoding="UTF-8"?>
<svg width="643px" height="643px" viewBox="0 0 643 643" version="1.1" xmlns="http://www.w3.org/2000/svg" xmlns:xlink="http://www.w3.org/1999/xlink">
    <!-- Generator: Sketch 51.2 (57519) - http://www.bohemiancoding.com/sketch -->
    <title>reiki-love-white</title>
    <desc>Created with Sketch.</desc>
    <defs>
        <linearGradient x1="50%" y1="0%" x2="50%" y2="100%" id="linearGradient-1">
            <stop stop-color="#FFFFFF" stop-opacity="0.986865942" offset="0%"></stop>
            <stop stop-color="#F3F3F3" offset="100%"></stop>
        </linearGradient>
        <linearGradient x1="50%" y1="0%" x2="50%" y2="100%" id="linearGradient-2">
            <stop stop-color="#F1F1F1" offset="0%"></stop>
            <stop stop-color="#F3F3F3" offset="100%"></stop>
        </linearGradient>
        <linearGradient x1="50%" y1="0%" x2="50%" y2="96.7643605%" id="linearGradient-3">
            <stop stop-color="#FFFFFF" offset="0%"></stop>
            <stop stop-color="#F3F3F3" stop-opacity="0.956323596" offset="100%"></stop>
        </linearGradient>
        <linearGradient x1="50%" y1="0%" x2="50%" y2="96.7643605%" id="linearGradient-4">
            <stop stop-color="#F1F1F1" offset="0%"></stop>
            <stop stop-color="#F3F3F3" offset="100%"></stop>
        </linearGradient>
        <linearGradient x1="79.9489681%" y1="38.5459047%" x2="16.5197014%" y2="38.5459047%" id="linearGradient-5">
            <stop stop-color="#F1F1F1" offset="0%"></stop>
            <stop stop-color="#F3F3F3" offset="100%"></stop>
        </linearGradient>
    </defs>
    <g id="reiki-love-white" stroke="none" stroke-width="1" fill="none" fill-rule="evenodd">
        <g transform="translate(34.000000, 93.000000)" stroke-width="10">
            <g id="Group" transform="translate(0.000000, 0.500000)">
                <g id="Shape" transform="translate(301.000000, 0.000000)" stroke="url(#linearGradient-2)">
                    <path d="M109.5,91.8 L109.5,28.1 C109.5,13.1 121.8,0.8 136.8,0.8 C151.8,0.8 164.1,13.1 164.1,28.1 L164.1,82.7"></path>
                    <path d="M54.9,237.4 L54.9,82.7 C54.9,67.7 67.2,55.4 82.2,55.4 C97.2,55.4 109.5,67.7 109.5,82.7 L109.5,219.2"></path>
                    <path d="M164.1,219.2 L164.1,64.5 C164.1,49.5 176.4,37.2 191.4,37.2 C206.4,37.2 218.7,49.5 218.7,64.5 L218.7,219.2"></path>
                    <path d="M218.7,119.1 C218.7,104.1 231,91.8 246,91.8 C261,91.8 273.3,104.1 273.3,119.1 L273.3,319.3 C273.3,394.7 212.2,455.8 136.8,455.8 C61.4,455.8 0.3,394.7 0.3,319.3 L0.3,201 C0.3,190.9 8.4,182.8 18.5,182.8 C38.5,182.8 54.9,199.2 54.9,219.2 L54.9,301.1"></path>
                </g>
                <path d="M355.9,303.8 C360.3,356.4 406.6,395.5 459.2,391.1 C501.3,387.5 532.6,350.5 529,308.4 C526.2,274.7 496.6,249.7 462.9,252.6 C436,254.9 416,278.6 418.2,305.5 C420,327 439,343 460.5,341.2 C477.7,339.7 490.5,324.6 489.1,307.3 C487.9,293.5 475.8,283.3 462,284.4" id="Shape" stroke="url(#linearGradient-2)"></path>
                <g id="Shape" stroke="url(#linearGradient-4)">
                    <path d="M164.7,91.8 L164.7,28.1 C164.7,13.1 152.4,0.8 137.4,0.8 C122.4,0.8 110.1,13.1 110.1,28.1 L110.1,82.7"></path>
                    <path d="M219.3,237.4 L219.3,82.7 C219.3,67.7 207,55.4 192,55.4 C177,55.4 164.7,67.7 164.7,82.7 L164.7,219.2"></path>
                    <path d="M110.1,219.2 L110.1,64.5 C110.1,49.5 97.8,37.2 82.8,37.2 C67.8,37.2 55.5,49.5 55.5,64.5 L55.5,219.2"></path>
                    <path d="M55.5,119.1 C55.5,104.1 43.2,91.8 28.2,91.8 C13.2,91.8 0.9,104.1 0.9,119.1 L0.9,319.3 C0.9,394.7 62,455.8 137.4,455.8 C212.8,455.8 273.9,394.7 273.9,319.3 L273.9,201 C273.9,190.9 265.8,182.8 255.7,182.8 C235.7,182.8 219.3,199.2 219.3,219.2 L219.3,301.1"></path>
                </g>
                <path d="M219.3,303.8 C214.9,356.4 168.6,395.5 116,391.1 C73.9,387.5 42.6,350.5 46.2,308.4 C49,274.7 78.6,249.7 112.3,252.6 C139.2,254.9 159.2,278.6 157,305.5 C155.2,327.1 136.2,343.1 114.7,341.2 C97.5,339.7 84.7,324.6 86.1,307.3 C87.3,293.5 99.4,283.3 113.2,284.4" id="Shape" stroke="url(#linearGradient-4)"></path>
            </g>
            <path d="M287.487437,98.9892828 C350.187437,66.2892828 358.187437,19.1892828 328.787437,4.28928276 C301.087437,-9.7107172 287.487437,19.5892828 287.487437,19.5892828 C287.487437,19.5892828 273.787437,-9.7107172 246.187437,4.28928276 C216.787437,19.1892828 224.887437,66.3892828 287.487437,98.9892828 Z" id="Shape" stroke="url(#linearGradient-5)"></path>
        </g>
    </g>
</svg>