<?xml version="1.0" encoding="utf-8"?>
<!-- Generator: Adobe Illustrator 14.0.0, SVG Export Plug-In . SVG Version: 6.00 Build 43363)  -->
<!DOCTYPE svg PUBLIC "-//W3C//DTD SVG 1.1//EN" "http://www.w3.org/Graphics/SVG/1.1/DTD/svg11.dtd">
<svg version="1.1" id="Layer_1" xmlns="http://www.w3.org/2000/svg" xmlns:xlink="http://www.w3.org/1999/xlink" x="0px" y="0px"
	 width="700px" height="800px" viewBox="0 0 700 800" enable-background="new 0 0 700 800" xml:space="preserve">
<g>
	<g>
		<linearGradient id="SVGID_1_" gradientUnits="userSpaceOnUse" x1="110.0376" y1="792.4395" x2="110.0376" y2="159.5685">
			<stop  offset="0" style="stop-color:#42BA8B"/>
			<stop  offset="0.1643" style="stop-color:#42B98D"/>
			<stop  offset="0.3249" style="stop-color:#42B593"/>
			<stop  offset="0.4841" style="stop-color:#3FB19D"/>
			<stop  offset="0.6424" style="stop-color:#3CABAA"/>
			<stop  offset="0.8001" style="stop-color:#37A4BB"/>
			<stop  offset="0.9553" style="stop-color:#3099CC"/>
			<stop  offset="1" style="stop-color:#2C96D3"/>
		</linearGradient>
		<path fill="url(#SVGID_1_)" d="M200.865,789.806c-1.64-9.365-4.298-18.488-7.304-27.422c-2.885-8.976-6.56-17.645-10.462-26.146
			c-4.177-8.363-8.332-16.717-13.463-24.458c-2.383-3.977-5.083-7.741-7.836-11.454c-2.589-3.818-5.685-7.256-8.58-10.811
			c-5.885-7.045-12.308-13.595-19.18-19.575c-6.813-6.128-14.433-12.171-21.621-18.362c-7.272-6.19-14.417-12.593-21.526-19.152
			c-7.051-6.655-14.054-13.469-20.635-20.968c-6.492-7.552-12.83-15.535-17.951-24.469c-5.115-8.923-9.255-18.425-12.466-28.139
			c-2.932-9.756-5.263-19.639-6.687-29.479c-0.2-1.329-0.4-2.226-0.606-3.924l-0.406-3.544l-0.812-7.066l-1.582-14.153
			l-5.901-56.637c-1.081-9.397-1.745-18.995-2.5-28.556l-2.051-28.704l-0.084-1.213l0.174-1.245l11.554-80.968l12.424-80.852
			l0.775-5.052l0.997-5.326c0.944-4.066,1.587-7.657,4.34-12.909c0.955-2.009,4.551-7.267,11.217-8.206
			c1.508-0.147,3.396-0.147,4.546,0.147c1.107,0.285,2.22,0.654,3.28,1.097c1.994,0.891,2.879,1.714,4.288,2.673
			c4.034,3.459,6.148,6.571,8.442,9.698c4.303,6.244,7.615,12.171,11.053,18.541l4.751,9.102l4.393,10.336
			c1.255,3.47,2.231,6.977,3.338,10.452c0.97,3.522,1.603,7.161,2.394,10.726c0.512,3.639,0.981,7.288,1.276,10.948
			c0.031,3.691,0.396,7.351,0.026,11.037c-0.232,7.356-1.656,14.666-3.771,21.7c-2.347,7.098-5.11,13.563-9.872,20.134l0.881-4.282
			c2.615,15.071,4.572,30.027,5.442,45.204c0.443,7.562,0.77,15.145,0.385,22.739c-0.079,1.898-0.132,3.787-0.338,5.68
			c-0.189,1.893-0.269,3.781-0.548,5.659l-0.849,5.61l-1.281,5.511l0.506-5.605l0.063-5.605c0.016-1.862-0.158-3.734-0.227-5.595
			c-0.063-1.856-0.264-3.718-0.448-5.569c-0.316-3.712-0.865-7.415-1.292-11.106c-0.564-3.686-1.086-7.367-1.772-11.037
			c-2.658-14.634-5.98-29.273-9.851-43.511l-0.517-1.898l1.397-2.389c2.8-4.783,5.052-11.196,6.333-17.197
			c1.303-6.128,2.099-12.393,1.798-18.679c0.105-3.127-0.49-6.259-0.723-9.371c-0.496-3.101-1.134-6.191-1.788-9.255
			c-0.944-3.022-1.688-6.075-2.752-9.049c-1.203-2.932-2.273-5.938-3.544-8.786l-4.045-8.285l-5.189-8.759
			c-3.322-5.453-7.024-11.243-10.737-16.021c-1.809-2.299-3.897-4.63-5.142-5.511c-0.042,0.09-0.464-0.264-0.053,0.016
			c0.259,0.158,0.564,0.253,0.87,0.264c0.333,0.053,1.345,0.285,2.009,0.105c3.354-0.369,4.235-2.895,3.834-1.819
			c-1.097,2.421-2.051,9.646-2.806,16.406l-9.798,81.169L43.99,387.696l0.09-2.458l2.078,28.097
			c0.638,9.366,1.171,18.71,2.162,28.202l5.294,56.7l1.218,14.186l0.585,7.099l0.295,3.543c0.042,0.665,0.269,2.109,0.39,3.122
			c0.997,8.997,2.8,17.688,5.036,26.198c2.489,8.396,5.695,16.464,9.771,24.163c4.156,7.646,9.123,15.009,14.671,22.106
			c11.259,14.154,24.653,27.327,38.201,40.479c6.729,6.719,13.563,12.994,20.382,20.082c6.956,7.023,13.321,14.575,19.037,22.549
			c2.79,4.039,5.653,8.005,8.032,12.287c2.526,4.188,4.978,8.396,7.087,12.793c4.524,8.606,8.195,17.613,11.422,26.705
			c3.011,9.176,5.722,18.415,7.604,27.822C199.135,770.801,200.522,780.282,200.865,789.806z"/>
		<linearGradient id="SVGID_2_" gradientUnits="userSpaceOnUse" x1="147.2075" y1="792.4287" x2="147.2075" y2="159.5707">
			<stop  offset="0" style="stop-color:#42BA8B"/>
			<stop  offset="0.1643" style="stop-color:#42B98D"/>
			<stop  offset="0.3249" style="stop-color:#42B593"/>
			<stop  offset="0.4841" style="stop-color:#3FB19D"/>
			<stop  offset="0.6424" style="stop-color:#3CABAA"/>
			<stop  offset="0.8001" style="stop-color:#37A4BB"/>
			<stop  offset="0.9553" style="stop-color:#3099CC"/>
			<stop  offset="1" style="stop-color:#2C96D3"/>
		</linearGradient>
		<path fill="url(#SVGID_2_)" d="M161.071,445.988l-10.895-46.744l-2.848-11.522c-0.976-3.813-1.814-7.684-2.99-11.375
			c-1.124-3.712-2.152-7.499-3.338-11.116l-3.776-10.489l-1.187-3.307l1.672-3.997c2.547-6.086,5.205-12.108,7.599-18.215
			c2.368-6.106,4.883-12.15,6.95-18.309c2.247-6.117,4.208-12.266,6.165-18.415c1.683-6.196,3.612-12.319,4.915-18.52
			c0.807-3.09,1.403-6.191,1.914-9.281c0.512-3.085,1.324-6.175,1.566-9.25l1.065-9.233l0.411-9.139
			c-0.074-6.017-0.185-12.065-1.271-17.792l-0.601-4.366l-1.155-4.161c-0.765-2.773-1.35-5.637-2.658-8.158l-1.625-3.945
			c-0.49-1.35-1.06-2.658-1.877-3.818c-1.513-2.394-2.853-4.915-4.451-7.277c-1.867-2.162-3.649-4.409-5.463-6.666l-0.675-0.844
			l-0.084-0.105c-0.105-0.105,0.744,0.67,0.359,0.316l-0.058-0.053l-0.227-0.216l-0.458-0.432l-0.459-0.433
			c-0.116-0.105,0.037,0.058,0.053,0.063c0.105,0.1,0.216,0.068,0.369,0.185c0.216,0.074,0.823,0.348,2.104,0.432
			c1.255,0.074,2.979-0.422,3.781-1.007c1.64-1.271,0.923-1.16,0.575-0.443c-0.454,0.691-1.018,1.793-1.524,3.075
			c-1.044,2.531-1.999,5.547-2.906,8.627c-1.882,6.181-3.602,12.762-5.664,19.317c-2.109,6.56-4.403,13.184-7.341,19.696
			c-1.666,3.517-3.037,6.159-4.683,9.234c-1.519,2.958-3.581,6.038-5.337,9.012c-3.66,5.954-7.667,11.464-11.992,16.78
			c-4.292,5.305-8.838,10.405-13.848,14.998c3.365-5.885,6.297-11.939,9.192-17.93c2.779-6.043,5.437-12.182,7.752-18.215
			c1.07-3.106,2.289-5.896,3.222-9.176l2.921-9.371c1.661-6.081,2.816-12.435,3.829-18.9l3.185-19.902
			c0.648-3.433,1.339-6.924,2.452-10.742c0.548-1.898,1.229-3.913,2.315-6.202c1.202-2.204,2.347-5.068,6.887-8.1
			c2.22-1.445,5.637-2.436,8.564-2.194c2.958,0.174,5.157,1.081,6.845,1.941c0.928,0.443,1.667,0.991,2.479,1.54l1.076,0.791
			l0.49,0.391l0.49,0.396l0.243,0.195l0.533,0.48l0.126,0.132l0.997,1.023c2.653,2.742,5.332,5.495,7.932,8.322
			c2.357,3.027,4.43,6.302,6.628,9.481c1.16,1.571,2.051,3.27,2.853,5.021l2.51,5.221c1.819,3.449,2.805,7.129,3.944,10.779
			l1.667,5.484l1.018,5.558c1.561,7.425,1.74,14.85,1.904,22.207l-0.448,10.942l-1.345,10.726
			c-0.358,3.607-1.271,7.024-1.904,10.536c-0.638,3.512-1.487,6.951-2.462,10.331c-1.746,6.855-3.918,13.495-6.207,20.097
			c-2.51,6.486-4.894,13.025-7.784,19.291c-2.752,6.349-5.779,12.519-8.901,18.631c-3.175,6.081-6.418,12.103-9.861,17.993
			l0.485-7.293l2.842,12.498c0.427,2.078,0.59,4.103,0.896,6.154l0.817,6.117c0.622,4.076,0.865,8.121,1.25,12.166
			c0.375,4.039,0.744,8.079,0.817,12.124C162.21,413.778,162.226,429.883,161.071,445.988z"/>
		<linearGradient id="SVGID_3_" gradientUnits="userSpaceOnUse" x1="187.6758" y1="792.4414" x2="187.6758" y2="159.563">
			<stop  offset="0" style="stop-color:#42BA8B"/>
			<stop  offset="0.1643" style="stop-color:#42B98D"/>
			<stop  offset="0.3249" style="stop-color:#42B593"/>
			<stop  offset="0.4841" style="stop-color:#3FB19D"/>
			<stop  offset="0.6424" style="stop-color:#3CABAA"/>
			<stop  offset="0.8001" style="stop-color:#37A4BB"/>
			<stop  offset="0.9553" style="stop-color:#3099CC"/>
			<stop  offset="1" style="stop-color:#2C96D3"/>
		</linearGradient>
		<path fill="url(#SVGID_3_)" d="M332.115,631.055c-8.49-11.338-17.45-22.191-26.932-32.464
			c-9.329-10.389-19.443-19.944-29.937-28.688c-10.526-8.68-21.922-16.104-33.745-21.252c-2.948-1.318-5.949-2.352-8.944-3.333
			c-3.022-0.822-6.028-1.655-9.049-2.066c-1.503-0.316-3.006-0.454-4.509-0.538c-1.498-0.116-2.99-0.296-4.472-0.19
			c-2.979-0.084-5.891,0.327-8.78,0.676l-4.957,0.59l-3.971-3.775l-22.633-21.547c-0.928-0.939-1.936-1.635-2.9-2.469l-2.911-2.404
			l-5.816-4.799l-2.9-2.404c-0.944-0.696-1.841-1.203-2.753-1.814l-2.7-1.793l-0.669-0.453c-0.253-0.18-0.496-0.338-0.316-0.201
			c0.142,0.096,0.337,0.127,0.538,0.063l-7.62-6.296c-0.801-1.498-2.072-3.682-3.238-5.517c-1.223-1.898-2.473-3.808-3.813-5.643
			c-2.647-3.702-5.495-7.235-8.522-10.525c-6.001-6.613-12.746-12.245-19.949-16.116c-1.814-0.917-3.639-1.782-5.479-2.499
			c-1.851-0.696-3.696-1.403-5.584-1.793c-1.872-0.538-3.781-0.76-5.674-1.055c-1.914-0.116-3.823-0.285-5.753-0.147
			c-1.925-0.053-3.86,0.358-5.801,0.58c-1.936,0.442-3.887,0.748-5.822,1.413c-1.956,0.485-3.881,1.308-5.822,2.057
			c-1.94,0.749-3.823,1.835-5.753,2.71l1.725-1.16c0.164-0.01,0.274-0.126,0.274-0.306c0.105-0.126,0.327-0.306,0.29-0.548
			c0.037-0.169,0.163-0.169,0.079-0.296c-0.069-0.084,0.053,0.232-0.021,0.316c0.032,0.876,0.306,2.953,1.292,5.315
			c0.87,2.331,2.152,4.895,3.581,7.457c1.466,2.584,3.063,5.189,4.788,7.794c3.459,5.21,7.183,10.494,11.08,15.736l3.196,4.324
			l2.79,4.134c1.872,2.774,3.718,5.411,5.479,8.575l5.315,9.144l4.847,8.965c3.243,5.938,6.223,11.939,9.271,17.93
			c3.053,5.97,5.801,12.087,8.638,18.151l8.269,18.331l-1.677-2.12c2.737,2.584,5.184,5.041,7.61,7.699
			c2.415,2.615,4.783,5.263,7.072,7.983c4.583,5.432,9.022,10.979,13.02,16.865c2.004,2.932,3.892,5.948,5.69,9.018
			c1.809,3.059,3.486,6.19,4.999,9.407c0.839,1.562,1.424,3.27,2.094,4.904c0.665,1.646,1.324,3.28,1.788,4.999
			c0.475,1.72,1.107,3.354,1.435,5.095l0.923,5.179l-2.009-4.81c-0.638-1.604-1.577-3.08-2.341-4.609
			c-0.754-1.529-1.704-2.974-2.642-4.408s-1.814-2.89-2.853-4.251c-1.951-2.805-4.044-5.494-6.244-8.11
			c-2.194-2.604-4.456-5.157-6.824-7.614c-4.63-4.989-9.556-9.725-14.634-14.26c-2.531-2.268-5.131-4.472-7.757-6.623
			c-2.616-2.12-5.289-4.346-7.847-6.255l-0.813-0.611l-0.865-1.509c-6.56-11.433-13.526-22.749-20.355-34.014
			c-3.438-5.61-6.824-11.274-10.399-16.748l-5.3-8.195l-5.326-7.72c-1.64-2.553-3.839-5.2-5.806-7.847l-3.017-3.966l-2.937-3.533
			c-4.298-5.21-8.648-10.505-12.735-16.231c-2.057-2.858-4.061-5.844-6.001-8.965c-1.93-3.164-3.797-6.477-5.432-10.294
			c-1.629-3.744-3.153-8.185-3.396-13.933c0.047-1.561-0.053-2.942,0.279-4.641c0.38-1.719,0.702-3.406,1.408-5.084
			c0.807-1.666,1.688-3.406,2.774-4.852c1.149-1.371,2.415-2.689,3.733-3.892l0.707-0.644l1.023-0.517
			c2.579-1.308,5.057-2.742,7.757-3.902c2.706-1.139,5.384-2.32,8.274-3.164c2.805-1.002,5.79-1.624,8.759-2.246
			c3.017-0.443,6.043-0.991,9.145-1.013c3.085-0.211,6.18-0.021,9.276,0.189c3.069,0.391,6.149,0.802,9.123,1.582
			c3.021,0.654,5.912,1.678,8.749,2.742c2.848,1.076,5.532,2.405,8.185,3.776c10.446,5.737,19.158,13.331,26.546,21.632
			c3.675,4.176,7.019,8.553,10.109,13.088c1.556,2.258,3.011,4.588,4.44,6.94c1.445,2.437,2.684,4.608,4.161,7.572l-7.62-6.286
			c1.397,0.507,2.79,1.118,4.124,1.793c0.801,0.391,1.097,0.612,1.387,0.834l0.965,0.675l3.844,2.763
			c1.25,0.918,2.6,1.846,3.75,2.785l3.122,2.815l6.223,5.643l3.106,2.816c1.002,0.949,2.136,1.846,3.027,2.848l22.449,23.53
			l-8.922-3.196c4.129-0.222,8.248-0.39,12.318,0.011c2.052,0.063,4.045,0.422,6.043,0.738c2.009,0.285,3.987,0.654,5.912,1.191
			c3.913,0.876,7.631,2.205,11.312,3.544c3.607,1.498,7.151,3.059,10.515,4.894c3.37,1.804,6.682,3.691,9.761,5.854
			c3.143,2.089,6.096,4.367,9.028,6.655c5.774,4.673,11.169,9.661,16.279,14.851c5.121,5.188,9.793,10.736,14.275,16.368
			c4.477,5.643,8.696,11.443,12.688,17.382C319.127,605.773,326.314,618.092,332.115,631.055z"/>
		<linearGradient id="SVGID_4_" gradientUnits="userSpaceOnUse" x1="217.3452" y1="792.4424" x2="217.3452" y2="159.5706">
			<stop  offset="0" style="stop-color:#42BA8B"/>
			<stop  offset="0.1643" style="stop-color:#42B98D"/>
			<stop  offset="0.3249" style="stop-color:#42B593"/>
			<stop  offset="0.4841" style="stop-color:#3FB19D"/>
			<stop  offset="0.6424" style="stop-color:#3CABAA"/>
			<stop  offset="0.8001" style="stop-color:#37A4BB"/>
			<stop  offset="0.9553" style="stop-color:#3099CC"/>
			<stop  offset="1" style="stop-color:#2C96D3"/>
		</linearGradient>
		<path fill="url(#SVGID_4_)" d="M175.272,273.826c0,0,6.112-8.253,15.277-20.624c2.273-2.9,4.388-6.297,6.882-9.545
			c2.204-3.491,4.762-6.935,7.035-10.652c1.076-1.894,2.252-3.744,3.444-5.611c1.308-2.067,2.626-4.155,3.96-6.265
			c3.328-4.804,6.508-9.276,12.572-14.148c1.814-1.239,3.644-2.474,6.671-3.539c1.302-0.527,3.57-0.917,5.405-1.044
			c2.325,0.016,4.63,0.253,6.882,1.224c4.487,1.793,7.161,5.021,8.427,7.104c1.408,2.22,2.178,4.15,2.679,5.5
			c1.118,3.164,1.64,4.656,2.399,7.636c0.633,2.806,1.545,5.559,1.762,8.29c0.907,5.368,0.859,10.769,0.548,15.747
			c-0.738,5.042-1.493,9.671-3.222,13.7c-0.828,2.004-1.35,3.966-2.352,5.653c-1.012,1.682-1.925,3.259-2.858,4.683
			c-0.955,1.418-1.714,2.774-2.653,3.892c-1.012,1.06-1.946,2.03-2.79,2.911c-3.37,3.428-5.447,5.042-5.447,5.042
			s0.258-2.853,0.986-7.246c0.179-1.081,0.38-2.278,0.596-3.576c0.058-1.308,0.121-2.721,0.189-4.234
			c0.084-1.439,0.18-2.974,0.274-4.593c0.111-1.577-0.169-3.285-0.237-4.978c0.047-3.375-0.78-6.977-1.313-10.61
			c-0.923-3.654-1.851-7.383-3.296-11.19c-0.591-1.951-1.519-3.681-2.205-5.558c-0.69-1.661-2.136-4.704-2.763-6.181
			c-0.438-0.955-0.738-1.292-0.712-1.149c0.032,0.089,0.037,0.079,0.132,0.221c0.126,0.206,0.28,0.396,0.464,0.543
			c0.501,0.522,1.181,0.944,2.283,1.471c1.113,0.369,2.125,0.665,3.206,0.543c0.612,0.116,1.577-0.237,1.73-0.243
			c0.627-0.237,0.348-0.063,0.074,0.105c-1.904,1.361-5.021,4.92-7.652,8.032l-2.283,2.927l-2.378,2.784
			c-1.729,2.03-3.438,4.029-5.194,5.912c-3.47,3.797-7.335,6.914-10.858,9.925c-3.797,2.71-7.262,5.347-10.8,7.309
			c-6.935,4.098-13.162,6.624-17.671,8.016c-2.167,0.807-4.098,1.129-5.284,1.461C175.958,273.747,175.272,273.826,175.272,273.826z
			"/>
	</g>
	<g>
		
			<linearGradient id="SVGID_5_" gradientUnits="userSpaceOnUse" x1="1316.458" y1="787.2559" x2="1316.458" y2="168.4587" gradientTransform="matrix(-1 0 0 1 1905.6875 0)">
			<stop  offset="0" style="stop-color:#42BA8B"/>
			<stop  offset="0.1643" style="stop-color:#42B98D"/>
			<stop  offset="0.3249" style="stop-color:#42B593"/>
			<stop  offset="0.4841" style="stop-color:#3FB19D"/>
			<stop  offset="0.6424" style="stop-color:#3CABAA"/>
			<stop  offset="0.8001" style="stop-color:#37A4BB"/>
			<stop  offset="0.9553" style="stop-color:#3099CC"/>
			<stop  offset="1" style="stop-color:#2C96D3"/>
		</linearGradient>
		<path fill="url(#SVGID_5_)" d="M498.402,789.806c1.641-9.365,4.298-18.488,7.304-27.422c2.885-8.976,6.561-17.645,10.463-26.146
			c4.177-8.363,8.332-16.717,13.463-24.458c2.384-3.977,5.084-7.741,7.836-11.454c2.59-3.818,5.686-7.256,8.58-10.811
			c5.886-7.045,12.309-13.595,19.18-19.575c6.813-6.128,14.434-12.171,21.621-18.362c7.272-6.19,14.418-12.593,21.526-19.152
			c7.051-6.655,14.054-13.469,20.635-20.968c6.491-7.552,12.83-15.535,17.951-24.469c5.115-8.923,9.255-18.425,12.466-28.139
			c2.933-9.756,5.263-19.639,6.687-29.479c0.201-1.329,0.401-2.226,0.606-3.924l0.406-3.544l0.813-7.066l1.582-14.153l5.9-56.637
			c1.081-9.397,1.746-18.995,2.5-28.556l2.052-28.704l0.084-1.213l-0.174-1.245l-11.555-80.968l-12.424-80.852l-0.775-5.052
			l-0.996-5.326c-0.944-4.066-1.588-7.657-4.341-12.909c-0.954-2.009-4.551-7.267-11.216-8.206
			c-1.509-0.147-3.396-0.147-4.546,0.147c-1.107,0.285-2.221,0.654-3.28,1.097c-1.993,0.891-2.879,1.714-4.287,2.673
			c-4.034,3.459-6.149,6.571-8.443,9.698c-4.303,6.244-7.614,12.171-11.053,18.541l-4.751,9.102l-4.394,10.336
			c-1.255,3.47-2.23,6.977-3.338,10.452c-0.97,3.522-1.603,7.161-2.394,10.726c-0.512,3.639-0.981,7.288-1.276,10.948
			c-0.032,3.691-0.396,7.351-0.026,11.037c0.231,7.356,1.655,14.666,3.771,21.7c2.347,7.098,5.109,13.563,9.872,20.134l-0.881-4.282
			c-2.616,15.071-4.572,30.027-5.442,45.204c-0.443,7.562-0.77,15.145-0.385,22.739c0.079,1.898,0.132,3.787,0.337,5.68
			c0.19,1.893,0.27,3.781,0.549,5.659l0.849,5.61l1.282,5.511l-0.507-5.605l-0.063-5.605c-0.016-1.862,0.158-3.734,0.228-5.595
			c0.063-1.856,0.264-3.718,0.448-5.569c0.316-3.712,0.864-7.415,1.292-11.106c0.563-3.686,1.086-7.367,1.771-11.037
			c2.658-14.634,5.98-29.273,9.851-43.511l0.517-1.898l-1.397-2.389c-2.8-4.783-5.052-11.196-6.333-17.197
			c-1.303-6.128-2.099-12.393-1.798-18.679c-0.105-3.127,0.49-6.259,0.722-9.371c0.496-3.101,1.134-6.191,1.788-9.255
			c0.944-3.022,1.688-6.075,2.753-9.049c1.202-2.932,2.272-5.938,3.544-8.786l4.044-8.285l5.189-8.759
			c3.322-5.453,7.024-11.243,10.736-16.021c1.81-2.299,3.897-4.63,5.142-5.511c0.043,0.09,0.465-0.264,0.053,0.016
			c-0.258,0.158-0.563,0.253-0.87,0.264c-0.332,0.053-1.345,0.285-2.009,0.105c-3.354-0.369-4.234-2.895-3.834-1.819
			c1.097,2.421,2.052,9.646,2.806,16.406l9.798,81.169l10.668,81.053l-0.089-2.458l-2.078,28.097
			c-0.638,9.366-1.171,18.71-2.162,28.202l-5.295,56.7l-1.218,14.186l-0.585,7.099l-0.296,3.543
			c-0.042,0.665-0.269,2.109-0.39,3.122c-0.997,8.997-2.801,17.688-5.036,26.198c-2.489,8.396-5.695,16.464-9.772,24.163
			c-4.155,7.646-9.123,15.009-14.67,22.106c-11.259,14.154-24.653,27.327-38.201,40.479c-6.729,6.719-13.563,12.994-20.382,20.082
			c-6.956,7.023-13.32,14.575-19.037,22.549c-2.79,4.039-5.653,8.005-8.031,12.287c-2.526,4.188-4.979,8.396-7.088,12.793
			c-4.524,8.606-8.194,17.613-11.422,26.705c-3.012,9.176-5.722,18.415-7.604,27.822
			C500.132,770.801,498.745,780.282,498.402,789.806z"/>
		
			<linearGradient id="SVGID_6_" gradientUnits="userSpaceOnUse" x1="1353.6279" y1="787.2451" x2="1353.6279" y2="168.4594" gradientTransform="matrix(-1 0 0 1 1905.6875 0)">
			<stop  offset="0" style="stop-color:#42BA8B"/>
			<stop  offset="0.1643" style="stop-color:#42B98D"/>
			<stop  offset="0.3249" style="stop-color:#42B593"/>
			<stop  offset="0.4841" style="stop-color:#3FB19D"/>
			<stop  offset="0.6424" style="stop-color:#3CABAA"/>
			<stop  offset="0.8001" style="stop-color:#37A4BB"/>
			<stop  offset="0.9553" style="stop-color:#3099CC"/>
			<stop  offset="1" style="stop-color:#2C96D3"/>
		</linearGradient>
		<path fill="url(#SVGID_6_)" d="M538.196,445.988l10.895-46.744l2.848-11.522c0.976-3.813,1.814-7.684,2.99-11.375
			c1.123-3.712,2.151-7.499,3.338-11.116l3.775-10.489l1.187-3.307l-1.671-3.997c-2.548-6.086-5.205-12.108-7.6-18.215
			c-2.367-6.106-4.883-12.15-6.95-18.309c-2.246-6.117-4.208-12.266-6.165-18.415c-1.682-6.196-3.612-12.319-4.914-18.52
			c-0.808-3.09-1.403-6.191-1.915-9.281c-0.511-3.085-1.323-6.175-1.565-9.25l-1.065-9.233l-0.411-9.139
			c0.073-6.017,0.185-12.065,1.271-17.792l0.602-4.366l1.154-4.161c0.765-2.773,1.351-5.637,2.658-8.158l1.624-3.945
			c0.49-1.35,1.06-2.658,1.877-3.818c1.514-2.394,2.854-4.915,4.451-7.277c1.867-2.162,3.649-4.409,5.463-6.666l0.676-0.844
			l0.084-0.105c0.105-0.105-0.743,0.67-0.358,0.316l0.058-0.053l0.227-0.216l0.459-0.432l0.459-0.433
			c0.116-0.105-0.037,0.058-0.053,0.063c-0.105,0.1-0.216,0.068-0.369,0.185c-0.216,0.074-0.822,0.348-2.104,0.432
			c-1.255,0.074-2.979-0.422-3.78-1.007c-1.641-1.271-0.923-1.16-0.575-0.443c0.453,0.691,1.018,1.793,1.524,3.075
			c1.044,2.531,1.998,5.547,2.905,8.627c1.883,6.181,3.602,12.762,5.664,19.317c2.109,6.56,4.403,13.184,7.34,19.696
			c1.667,3.517,3.038,6.159,4.684,9.234c1.519,2.958,3.58,6.038,5.336,9.012c3.66,5.954,7.668,11.464,11.992,16.78
			c4.293,5.305,8.838,10.405,13.848,14.998c-3.364-5.885-6.296-11.939-9.191-17.93c-2.779-6.043-5.437-12.182-7.752-18.215
			c-1.07-3.106-2.288-5.896-3.222-9.176l-2.922-9.371c-1.661-6.081-2.815-12.435-3.828-18.9l-3.186-19.902
			c-0.648-3.433-1.339-6.924-2.452-10.742c-0.548-1.898-1.229-3.913-2.314-6.202c-1.203-2.204-2.347-5.068-6.888-8.1
			c-2.22-1.445-5.637-2.436-8.563-2.194c-2.959,0.174-5.158,1.081-6.846,1.941c-0.928,0.443-1.666,0.991-2.479,1.54l-1.075,0.791
			l-0.49,0.391l-0.491,0.396l-0.242,0.195l-0.532,0.48l-0.127,0.132l-0.997,1.023c-2.652,2.742-5.331,5.495-7.931,8.322
			c-2.357,3.027-4.43,6.302-6.629,9.481c-1.16,1.571-2.052,3.27-2.853,5.021l-2.511,5.221c-1.819,3.449-2.806,7.129-3.944,10.779
			l-1.666,5.484l-1.019,5.558c-1.561,7.425-1.74,14.85-1.903,22.207l0.448,10.942l1.345,10.726
			c0.358,3.607,1.271,7.024,1.903,10.536c0.639,3.512,1.487,6.951,2.463,10.331c1.746,6.855,3.918,13.495,6.207,20.097
			c2.51,6.486,4.894,13.025,7.783,19.291c2.753,6.349,5.78,12.519,8.902,18.631c3.174,6.081,6.417,12.103,9.861,17.993l-0.485-7.293
			l-2.843,12.498c-0.427,2.078-0.591,4.103-0.896,6.154l-0.817,6.117c-0.622,4.076-0.864,8.121-1.25,12.166
			c-0.374,4.039-0.743,8.079-0.817,12.124C537.057,413.778,537.041,429.883,538.196,445.988z"/>
		
			<linearGradient id="SVGID_7_" gradientUnits="userSpaceOnUse" x1="1394.0957" y1="787.2578" x2="1394.0957" y2="168.4543" gradientTransform="matrix(-1 0 0 1 1905.6875 0)">
			<stop  offset="0" style="stop-color:#42BA8B"/>
			<stop  offset="0.1643" style="stop-color:#42B98D"/>
			<stop  offset="0.3249" style="stop-color:#42B593"/>
			<stop  offset="0.4841" style="stop-color:#3FB19D"/>
			<stop  offset="0.6424" style="stop-color:#3CABAA"/>
			<stop  offset="0.8001" style="stop-color:#37A4BB"/>
			<stop  offset="0.9553" style="stop-color:#3099CC"/>
			<stop  offset="1" style="stop-color:#2C96D3"/>
		</linearGradient>
		<path fill="url(#SVGID_7_)" d="M367.152,631.055c8.49-11.338,17.449-22.191,26.931-32.464
			c9.329-10.389,19.443-19.944,29.938-28.688c10.526-8.68,21.922-16.104,33.745-21.252c2.947-1.318,5.948-2.352,8.943-3.333
			c3.021-0.822,6.027-1.655,9.05-2.066c1.503-0.316,3.006-0.454,4.509-0.538c1.497-0.116,2.989-0.296,4.472-0.19
			c2.979-0.084,5.891,0.327,8.78,0.676l4.957,0.59l3.971-3.775l22.634-21.547c0.928-0.939,1.936-1.635,2.9-2.469l2.911-2.404
			l5.816-4.799l2.9-2.404c0.943-0.696,1.84-1.203,2.753-1.814l2.699-1.793l0.67-0.453c0.253-0.18,0.496-0.338,0.316-0.201
			c-0.143,0.096-0.337,0.127-0.538,0.063l7.62-6.296c0.802-1.498,2.073-3.682,3.238-5.517c1.224-1.898,2.474-3.808,3.813-5.643
			c2.647-3.702,5.495-7.235,8.522-10.525c6.001-6.613,12.745-12.245,19.949-16.116c1.813-0.917,3.639-1.782,5.479-2.499
			c1.852-0.696,3.697-1.403,5.585-1.793c1.872-0.538,3.781-0.76,5.674-1.055c1.915-0.116,3.823-0.285,5.754-0.147
			c1.925-0.053,3.86,0.358,5.801,0.58c1.936,0.442,3.887,0.748,5.821,1.413c1.957,0.485,3.882,1.308,5.822,2.057
			s3.823,1.835,5.753,2.71l-1.724-1.16c-0.164-0.01-0.274-0.126-0.274-0.306c-0.105-0.126-0.327-0.306-0.29-0.548
			c-0.037-0.169-0.164-0.169-0.079-0.296c0.068-0.084-0.053,0.232,0.021,0.316c-0.031,0.876-0.306,2.953-1.292,5.315
			c-0.87,2.331-2.151,4.895-3.58,7.457c-1.466,2.584-3.064,5.189-4.788,7.794c-3.46,5.21-7.183,10.494-11.08,15.736l-3.195,4.324
			l-2.79,4.134c-1.872,2.774-3.718,5.411-5.479,8.575l-5.316,9.144l-4.846,8.965c-3.243,5.938-6.223,11.939-9.271,17.93
			c-3.054,5.97-5.801,12.087-8.639,18.151l-8.269,18.331l1.677-2.12c-2.736,2.584-5.184,5.041-7.609,7.699
			c-2.415,2.615-4.783,5.263-7.071,7.983c-4.583,5.432-9.023,10.979-13.021,16.865c-2.004,2.932-3.892,5.948-5.689,9.018
			c-1.81,3.059-3.486,6.19-5,9.407c-0.838,1.562-1.424,3.27-2.093,4.904c-0.665,1.646-1.324,3.28-1.788,4.999
			c-0.475,1.72-1.107,3.354-1.435,5.095l-0.923,5.179l2.01-4.81c0.638-1.604,1.576-3.08,2.341-4.609
			c0.754-1.529,1.703-2.974,2.643-4.408c0.938-1.435,1.813-2.89,2.853-4.251c1.951-2.805,4.045-5.494,6.244-8.11
			c2.193-2.604,4.456-5.157,6.823-7.614c4.63-4.989,9.556-9.725,14.634-14.26c2.531-2.268,5.131-4.472,7.758-6.623
			c2.615-2.12,5.289-4.346,7.847-6.255l0.812-0.611l0.865-1.509c6.561-11.433,13.526-22.749,20.355-34.014
			c3.438-5.61,6.824-11.274,10.399-16.748l5.3-8.195l5.326-7.72c1.64-2.553,3.839-5.2,5.806-7.847l3.017-3.966l2.938-3.533
			c4.298-5.21,8.648-10.505,12.735-16.231c2.057-2.858,4.061-5.844,6.001-8.965c1.93-3.164,3.797-6.477,5.432-10.294
			c1.63-3.744,3.153-8.185,3.396-13.933c-0.048-1.561,0.053-2.942-0.28-4.641c-0.379-1.719-0.701-3.406-1.407-5.084
			c-0.808-1.666-1.688-3.406-2.774-4.852c-1.149-1.371-2.415-2.689-3.733-3.892l-0.707-0.644l-1.022-0.517
			c-2.579-1.308-5.058-2.742-7.758-3.902c-2.705-1.139-5.384-2.32-8.273-3.164c-2.806-1.002-5.79-1.624-8.76-2.246
			c-3.016-0.443-6.043-0.991-9.144-1.013c-3.085-0.211-6.181-0.021-9.276,0.189c-3.069,0.391-6.148,0.802-9.123,1.582
			c-3.021,0.654-5.911,1.678-8.748,2.742c-2.848,1.076-5.532,2.405-8.185,3.776c-10.447,5.737-19.158,13.331-26.547,21.632
			c-3.676,4.176-7.019,8.553-10.109,13.088c-1.556,2.258-3.011,4.588-4.439,6.94c-1.445,2.437-2.685,4.608-4.161,7.572l7.62-6.286
			c-1.397,0.507-2.79,1.118-4.124,1.793c-0.802,0.391-1.097,0.612-1.387,0.834l-0.965,0.675l-3.845,2.763
			c-1.25,0.918-2.6,1.846-3.749,2.785l-3.122,2.815l-6.223,5.643l-3.106,2.816c-1.002,0.949-2.136,1.846-3.026,2.848l-22.449,23.53
			l8.923-3.196c-4.129-0.222-8.248-0.39-12.319,0.011c-2.051,0.063-4.044,0.422-6.043,0.738c-2.009,0.285-3.986,0.654-5.911,1.191
			c-3.913,0.876-7.631,2.205-11.312,3.544c-3.607,1.498-7.151,3.059-10.516,4.894c-3.37,1.804-6.682,3.691-9.761,5.854
			c-3.144,2.089-6.097,4.367-9.028,6.655c-5.774,4.673-11.169,9.661-16.279,14.851c-5.12,5.188-9.793,10.736-14.275,16.368
			c-4.477,5.643-8.695,11.443-12.688,17.382C380.141,605.773,372.953,618.092,367.152,631.055z"/>
		
			<linearGradient id="SVGID_8_" gradientUnits="userSpaceOnUse" x1="1423.7656" y1="787.2578" x2="1423.7656" y2="168.459" gradientTransform="matrix(-1 0 0 1 1905.6875 0)">
			<stop  offset="0" style="stop-color:#42BA8B"/>
			<stop  offset="0.1643" style="stop-color:#42B98D"/>
			<stop  offset="0.3249" style="stop-color:#42B593"/>
			<stop  offset="0.4841" style="stop-color:#3FB19D"/>
			<stop  offset="0.6424" style="stop-color:#3CABAA"/>
			<stop  offset="0.8001" style="stop-color:#37A4BB"/>
			<stop  offset="0.9553" style="stop-color:#3099CC"/>
			<stop  offset="1" style="stop-color:#2C96D3"/>
		</linearGradient>
		<path fill="url(#SVGID_8_)" d="M523.994,273.826c0,0-6.111-8.253-15.276-20.624c-2.273-2.9-4.388-6.297-6.882-9.545
			c-2.205-3.491-4.763-6.935-7.035-10.652c-1.076-1.894-2.252-3.744-3.443-5.611c-1.308-2.067-2.626-4.155-3.961-6.265
			c-3.327-4.804-6.507-9.276-12.571-14.148c-1.814-1.239-3.645-2.474-6.671-3.539c-1.303-0.527-3.57-0.917-5.405-1.044
			c-2.326,0.016-4.63,0.253-6.882,1.224c-4.488,1.793-7.161,5.021-8.427,7.104c-1.408,2.22-2.179,4.15-2.68,5.5
			c-1.117,3.164-1.64,4.656-2.399,7.636c-0.633,2.806-1.545,5.559-1.761,8.29c-0.907,5.368-0.859,10.769-0.549,15.747
			c0.738,5.042,1.492,9.671,3.223,13.7c0.827,2.004,1.35,3.966,2.352,5.653c1.013,1.682,1.925,3.259,2.858,4.683
			c0.954,1.418,1.714,2.774,2.652,3.892c1.013,1.06,1.946,2.03,2.79,2.911c3.369,3.428,5.447,5.042,5.447,5.042
			s-0.259-2.853-0.986-7.246c-0.18-1.081-0.38-2.278-0.596-3.576c-0.059-1.308-0.121-2.721-0.19-4.234
			c-0.084-1.439-0.179-2.974-0.273-4.593c-0.111-1.577,0.168-3.285,0.237-4.978c-0.048-3.375,0.78-6.977,1.313-10.61
			c0.923-3.654,1.852-7.383,3.296-11.19c0.591-1.951,1.519-3.681,2.204-5.558c0.691-1.661,2.136-4.704,2.764-6.181
			c0.438-0.955,0.738-1.292,0.712-1.149c-0.031,0.089-0.037,0.079-0.132,0.221c-0.127,0.206-0.279,0.396-0.464,0.543
			c-0.501,0.522-1.182,0.944-2.283,1.471c-1.113,0.369-2.126,0.665-3.207,0.543c-0.611,0.116-1.576-0.237-1.729-0.243
			c-0.627-0.237-0.348-0.063-0.073,0.105c1.903,1.361,5.02,4.92,7.651,8.032l2.283,2.927l2.379,2.784
			c1.729,2.03,3.438,4.029,5.194,5.912c3.47,3.797,7.335,6.914,10.857,9.925c3.797,2.71,7.262,5.347,10.8,7.309
			c6.935,4.098,13.163,6.624,17.672,8.016c2.167,0.807,4.098,1.129,5.284,1.461C523.309,273.747,523.994,273.826,523.994,273.826z"
			/>
	</g>
	<path fill="#31A7B4" d="M417.798,284.326c0,26.568-29.742,48.115-66.43,48.115c-36.682,0-66.418-21.547-66.418-48.115
		c0-26.567,29.737-48.109,66.418-48.109C388.056,236.216,417.798,257.758,417.798,284.326z"/>
	<path fill="#36B39A" d="M311.042,464.076c0-16.137,18.056-29.215,40.332-29.215c22.27,0,40.326,13.078,40.326,29.215
		c0,16.126-18.057,29.204-40.326,29.204C329.099,493.28,311.042,480.202,311.042,464.076z"/>
	<path fill="#3ABA8E" d="M318.246,532.209c0-13.247,14.829-23.994,33.128-23.994c18.293,0,33.122,10.747,33.122,23.994
		s-14.829,23.994-33.122,23.994C333.075,556.203,318.246,545.456,318.246,532.209z"/>
	<path fill="#35ABAD" d="M301.556,383.161c0-19.934,22.307-36.081,49.823-36.081c27.512,0,49.813,16.147,49.813,36.081
		c0,19.923-22.302,36.07-49.813,36.07C323.862,419.23,301.556,403.084,301.556,383.161z"/>
	<path fill="#2798D1" d="M391.716,102.598c0,16.132-18.057,29.21-40.331,29.21c-22.27,0-40.326-13.078-40.326-29.21
		c0-16.131,18.056-29.209,40.326-29.209C373.659,73.388,391.716,86.466,391.716,102.598z"/>
	<path fill="#2D9BCB" d="M384.512,34.46c0,13.247-14.828,23.994-33.127,23.994c-18.294,0-33.123-10.748-33.123-23.994
		c0-13.247,14.829-23.994,33.123-23.994C369.684,10.466,384.512,21.213,384.512,34.46z"/>
	<path fill="#2EA2BE" d="M401.202,183.519c0,19.923-22.307,36.081-49.823,36.081c-27.511,0-49.813-16.158-49.813-36.081
		c0-19.928,22.301-36.081,49.813-36.081C378.896,147.438,401.202,163.59,401.202,183.519z"/>
</g>
</svg>
