<?xml version="1.0" encoding="UTF-8"?>
<svg width="1882px" height="1882px" viewBox="0 0 1882 1882" version="1.1" xmlns="http://www.w3.org/2000/svg" xmlns:xlink="http://www.w3.org/1999/xlink">
    <!-- Generator: Sketch 52.5 (67469) - http://www.bohemiancoding.com/sketch -->
    <title>Artboard</title>
    <desc>Created with Sketch.</desc>
    <g id="Artboard" stroke="none" stroke-width="1" fill="none" fill-rule="evenodd" opacity="0.791236979">
        <g id="solar" transform="translate(50.287114, 72.569508)">
            <g id="Group" transform="translate(0.817761, 0.070541)">
                <g stroke="#453E55" stroke-width="2">
                    <path d="M804.6,771.9 C824.3,758.5 848.1,750.7 873.8,750.7 C941.9,750.7 997.1,805.9 997.1,874 C997.1,942.1 941.9,997.3 873.8,997.3 C805.7,997.3 750.5,942.1 750.5,874 C750.5,847 759.2,822 774,801.6" id="Path"></path>
                    <path d="M702.8,853.8 C712.8,768.2 785.5,701.7 873.8,701.7 C968.9,701.7 1046,778.8 1046,873.9 C1046,969 968.9,1046.1 873.8,1046.1 C798,1046.1 733.7,997.1 710.7,929.1" id="Path"></path>
                    <path d="M771.9,1089.2 C691.4,1051 635.7,969 635.7,874 C635.7,742.5 742.3,635.9 873.8,635.9 C1005.3,635.9 1111.9,742.5 1111.9,874 C1111.9,1005.5 1005.3,1112 873.8,1112 C873.3,1112 872.7,1112 872.2,1112" id="Path"></path>
                    <circle id="Oval" cx="873.8" cy="874" r="304.3"></circle>
                    <path d="M503.8,862.2 C510,663.2 673.3,503.8 873.8,503.8 C1078.2,503.8 1244,669.5 1244,874 C1244,1078.5 1078.3,1244.2 873.8,1244.2 C687,1244.2 532.5,1105.8 507.2,925.9" id="Path"></path>
                    <path d="M825.6,1355.6 C580.9,1331.4 389.8,1125 389.8,874 C389.8,606.7 606.5,390 873.8,390 C1141.1,390 1357.8,606.7 1357.8,874 C1357.8,1110.3 1188.5,1307 964.5,1349.5" id="Path"></path>
                    <path d="M322.1,1129.8 C286,1052 265.8,965.4 265.8,874 C265.8,538.2 538,266 873.8,266 C1209.6,266 1481.8,538.2 1481.8,874 C1481.8,1209.8 1209.6,1482 873.8,1482 C675.4,1482 499.2,1387 388.2,1239.9" id="Path"></path>
                    <path d="M462.1,1486.9 C265.1,1354.3 135.6,1129.3 135.6,874 C135.6,466.3 466.1,135.7 873.9,135.7 C1281.7,135.7 1612.2,466.2 1612.2,874 C1612.2,1281.8 1281.7,1612.3 873.9,1612.3 C751.2,1612.3 635.5,1582.4 533.7,1529.4" id="Path"></path>
                    <path d="M165.1,1384.1 C61.6,1240.6 0.7,1064.4 0.7,874 C0.7,391.8 391.6,0.9 873.8,0.9 C1356,0.9 1747,391.7 1747,874 C1747,1356.3 1356.1,1747.1 873.9,1747.1 C626.4,1747.1 402.9,1644.1 244,1478.7" id="Path"></path>
                </g>
                <path d="M874.3,796.3 C917.3,796.3 952.1,831.1 952.1,874.1 C952.1,917.1 917.3,951.9 874.3,951.9 C831.3,951.9 796.5,917.1 796.5,874.1 C796.5,831.1 831.3,796.3 874.3,796.3 Z M874.3,798 C832.1,798 798.1,832.1 798.1,874.2 C798.1,916.4 832.1,950.4 874.3,950.4 C916.3,950.4 950.5,916.4 950.5,874.2 C950.5,832.1 916.3,798 874.3,798 Z" id="Shape" fill="#453E55" fill-rule="nonzero"></path>
                <g transform="translate(771.000000, 767.000000)">
                    <path d="M19.1,2.1 C9.8,2.1 2.1,9.8 2.1,19.1 C2.1,28.4 9.8,36 19.1,36 C28.4,36 36,28.4 36,19.1 C35.9,9.7 28.4,2.1 19.1,2.1 Z" id="Path"></path>
                    <path d="M10.3,11.5 C11.8,11.5 12.9,12 12.9,12.4 C12.9,13 9.7,14.1 8.2,14.1 C6.8,14.1 7.7,13 7.7,12.4 C7.7,12 8.9,11.5 10.3,11.5 Z" id="Path" fill="#554C3E"></path>
                    <path d="M24.4,6.5 C25.9,6.5 27.1,7 27.1,7.6 C27.1,8.2 23.8,9.3 22.4,9.3 C20.9,9.3 14.2,7.8 14.2,7.2 C14.2,6.5 23,6.5 24.4,6.5 Z" id="Path" fill="#554C3E"></path>
                    <path d="M29.2,17.1 C30.7,17.1 31.9,17.6 31.9,18.2 C25.2,25.5 25.3,18.4 23.9,18.4 C22.4,18.4 15.7,20.3 19.1,17.7 C19.1,17.1 24.4,14.8 29.2,17.1 Z" id="Path" fill="#554C3E"></path>
                    <path d="M22.4,12 C23.9,12 23.8,12.6 23.8,13.2 C23.8,13.8 21.8,14.6 20.4,14.6 C18.9,14.6 21.1,13.9 21.1,13.3 C21.1,12.7 20.9,12 22.4,12 Z" id="Path" fill="#554C3E"></path>
                    <path d="M24.8,25.1 C26.2,25.1 30.8,23.3 30.8,23.9 C30.8,24.4 24.2,27.7 22.7,27.7 C21.3,27.7 23.4,27 23.4,26.4 C22.5,26 19.3,25.9 24.8,25.1 Z" id="Path" fill="#554C3E"></path>
                    <path d="M19.2,27.8 C20.6,27.8 19.9,28.5 19.9,29.1 C19.9,29.7 18.5,30.4 17.1,30.4 C11.9,30.4 15.6,28.3 19.2,27.8 Z" id="Path" fill="#554C3E"></path>
                    <path d="M12.4,19.8 C13.9,19.8 17.2,21.9 17.2,22.5 C14,25.3 11.3,25.6 10.2,22.4 C10.3,22.4 3.8,19.8 12.4,19.8 Z" id="Path" fill="#554C3E"></path>
                    <path d="M19.1,0.5 C29.3,0.5 37.5,8.8 37.5,19 C37.5,29.2 29.2,37.4 19.1,37.4 C8.8,37.4 0.6,29.1 0.6,19 C0.5,8.8 8.8,0.5 19.1,0.5 Z M19.1,2.1 C9.8,2.1 2.1,9.8 2.1,19.1 C2.1,28.4 9.8,36 19.1,36 C28.4,36 36,28.4 36,19.1 C35.9,9.7 28.4,2.1 19.1,2.1 Z" id="Shape" fill="#0053FB" fill-rule="nonzero"></path>
                </g>
                <g transform="translate(672.000000, 855.000000)">
                    <path d="M36,2.1 C17.3,2.1 2.1,17.3 2.1,36 C2.1,54.8 17.3,69.9 36,69.9 C54.8,69.9 69.9,54.8 69.9,36 C69.9,17.3 54.8,2.1 36,2.1 Z" id="Path"></path>
                    <path d="M36,0.6 C55.6,0.6 71.4,16.4 71.4,36 C71.4,55.6 55.6,71.4 36,71.4 C16.4,71.4 0.6,55.6 0.6,36 C0.6,16.4 16.5,0.6 36,0.6 Z M36,2.1 C17.3,2.1 2.1,17.3 2.1,36 C2.1,54.8 17.3,69.9 36,69.9 C54.8,69.9 69.9,54.8 69.9,36 C69.9,17.3 54.8,2.1 36,2.1 Z" id="Shape" fill="#0053FB" fill-rule="nonzero"></path>
                    <rect id="Rectangle" fill="#3E5355" x="29" y="8" width="3" height="4"></rect>
                    <rect id="Rectangle" fill="#3E5355" x="43" y="8" width="3" height="4"></rect>
                    <rect id="Rectangle" fill="#3E5355" x="38" y="46" width="3" height="4"></rect>
                    <rect id="Rectangle" fill="#3E5355" x="22" y="46" width="2" height="4"></rect>
                    <rect id="Rectangle" fill="#3E5355" x="30" y="54" width="3" height="4"></rect>
                    <rect id="Rectangle" fill="#3E5355" x="20" y="54" width="2" height="4"></rect>
                    <rect id="Rectangle" fill="#3E5355" x="55" y="54" width="3" height="4"></rect>
                </g>
                <g transform="translate(480.000000, 864.000000)">
                    <path d="M29,1.7 C14,1.7 1.7,14 1.7,29 C1.7,44 14,56.3 29,56.3 C44,56.3 56.3,44 56.3,29 C56.3,14 44,1.7 29,1.7 Z" id="Path"></path>
                    <path d="M29,0.2 C44.9,0.2 57.8,13.1 57.8,29 C57.8,44.9 44.9,57.8 29,57.8 C13.1,57.8 0.2,44.9 0.2,29 C0.2,13.1 13.1,0.2 29,0.2 Z M29,1.7 C14,1.7 1.7,14 1.7,29 C1.7,44 14,56.3 29,56.3 C44,56.3 56.3,44 56.3,29 C56.3,14 44,1.7 29,1.7 Z" id="Shape" fill="#0053FB" fill-rule="nonzero"></path>
                    <path d="M7.3,23.9 L8.8,22.2 L9.3,21.8 L9.7,22.2 L11.2,23.9 L11.7,24.3 L11.2,24.7 L9.7,26.4 L9.3,26.8 L8.8,26.4 L7.3,24.7 L6.9,24.3 L7.3,23.9 Z M9.3,23.5 L8.5,24.3 L9.3,25.1 L10,24.3 L9.3,23.5 Z" id="Shape" fill="#3E5540" fill-rule="nonzero"></path>
                    <path d="M16.6,17 L18.3,15.5 L18.7,15.1 L19.1,15.5 L20.8,17 L21.2,17.5 L20.8,17.9 L19.1,19.4 L18.7,19.9 L18.3,19.4 L16.6,17.9 L16.2,17.5 L16.6,17 Z M18.6,16.6 L17.8,17.4 L18.6,18.1 L19.4,17.4 L18.6,16.6 Z" id="Shape" fill="#3E5540" fill-rule="nonzero"></path>
                    <path d="M17.5,8.7 L19,7 L19.5,6.6 L19.9,7 L21.4,8.7 L21.9,9.1 L21.4,9.5 L19.9,11.2 L19.5,11.6 L19,11.2 L17.5,9.5 L17.1,9.1 L17.5,8.7 Z M19.6,8.2 L18.8,9 L19.6,9.8 L20.4,9 L19.6,8.2 Z" id="Shape" fill="#3E5540" fill-rule="nonzero"></path>
                    <path d="M9.9,35.7 L11.4,34.2 L11.9,33.8 L12.3,34.2 L13.8,35.7 L14.3,36.2 L13.8,36.6 L12.3,38.1 L11.9,38.6 L11.4,38.1 L9.9,36.6 L9.5,36.2 L9.9,35.7 Z M11.9,35.4 L11.1,36.2 L11.9,37 L12.6,36.2 L11.9,35.4 Z" id="Shape" fill="#3E5540" fill-rule="nonzero"></path>
                    <path d="M31.8,20.9 L33.3,19.2 L33.8,18.8 L34.2,19.3 L35.7,20.8 L36.2,21.2 L35.7,21.6 L34.2,23.3 L33.8,23.7 L33.3,23.3 L31.8,21.6 L31.4,21.2 L31.8,20.9 Z M33.8,20.4 L33,21.2 L33.8,22 L34.5,21.2 L33.8,20.4 Z" id="Shape" fill="#3E5540" fill-rule="nonzero"></path>
                    <path d="M29.7,5.3 L31.2,3.6 L31.7,3.2 L32.1,3.6 L33.6,5.3 L34.1,5.7 L33.6,6.1 L32.1,7.8 L31.7,8.2 L31.2,7.8 L29.7,6.1 L29.3,5.7 L29.7,5.3 Z M31.7,4.8 L30.9,5.6 L31.7,6.4 L32.4,5.6 L31.7,4.8 Z" id="Shape" fill="#3E5540" fill-rule="nonzero"></path>
                    <path d="M31.7,33.1 L33.4,31.4 L33.8,31 L34.2,31.4 L35.7,33.1 L36.2,33.5 L35.7,33.9 L34.2,35.6 L33.8,36 L33.4,35.6 L31.7,33.9 L31.3,33.5 L31.7,33.1 Z M33.7,32.7 L32.9,33.5 L33.7,34.3 L34.5,33.5 L33.7,32.7 Z" id="Shape" fill="#3E5540" fill-rule="nonzero"></path>
                    <path d="M46.4,17.7 L48.1,16 L48.5,15.6 L48.9,16 L50.4,17.7 L50.9,18.1 L50.4,18.5 L48.9,20.2 L48.5,20.6 L48,20 L46.3,18.3 L46,18 L46.4,17.7 Z M48.4,17.2 L47.6,18 L48.4,18.8 L49.2,18 L48.4,17.2 Z" id="Shape" fill="#3E5540" fill-rule="nonzero"></path>
                    <path d="M20.5,42.3 L22.2,40.6 L22.6,40.2 L23,40.6 L24.7,42.3 L25.1,42.7 L24.7,43.1 L23,44.8 L22.6,45.2 L22.2,44.8 L20.5,43.1 L20.1,42.7 L20.5,42.3 Z M22.5,41.9 L21.7,42.7 L22.5,43.5 L23.3,42.7 L22.5,41.9 Z" id="Shape" fill="#3E5540" fill-rule="nonzero"></path>
                    <path d="M46.8,40.5 L48.5,38.8 L48.9,38.4 L49.3,38.8 L51,40.5 L51.4,40.9 L51,41.3 L49.3,43 L48.9,43.4 L48.5,43 L46.8,41.3 L46.4,40.9 L46.8,40.5 Z M48.8,40 L48,40.8 L48.8,41.6 L49.6,40.8 L48.8,40 Z" id="Shape" fill="#3E5540" fill-rule="nonzero"></path>
                    <path d="M36.4,50.8 L38.1,49.3 L38.5,48.8 L38.9,49.3 L40.4,50.8 L40.9,51.2 L40.4,51.6 L38.9,53.3 L38.5,53.7 L38.1,53.3 L36.4,51.6 L36,51.2 L36.4,50.8 Z M38.4,50.4 L37.6,51.2 L38.4,52 L39.2,51.2 L38.4,50.4 Z" id="Shape" fill="#3E5540" fill-rule="nonzero"></path>
                    <path d="M50.6,27.9 L52.1,26.4 L52.6,26 L53,26.4 L54.5,27.9 L55,28.3 L54.5,28.8 L53,30.3 L52.6,30.7 L52.1,30.3 L50.6,28.8 L50.2,28.3 L50.6,27.9 Z M52.6,27.6 L51.8,28.3 L52.6,29.1 L53.3,28.3 L52.6,27.6 Z" id="Shape" fill="#3E5540" fill-rule="nonzero"></path>
                </g>
                <g transform="translate(773.000000, 1051.000000)">
                    <path d="M49,1.5 C22.8,1.5 1.5,22.8 1.5,49 C1.5,75.2 22.8,96.5 49,96.5 C75.2,96.5 96.5,75.2 96.5,49 C96.5,22.8 75.2,1.5 49,1.5 Z" id="Path"></path>
                    <path d="M49,0 C76,0 98,22 98,49 C98,76 76,98 49,98 C22,98 0,76 0,49 C0,22 22,0 49,0 Z M49,1.5 C22.8,1.5 1.5,22.8 1.5,49 C1.5,75.2 22.8,96.5 49,96.5 C75.2,96.5 96.5,75.2 96.5,49 C96.5,22.8 75.2,1.5 49,1.5 Z" id="Shape" fill="#0053FB" fill-rule="nonzero"></path>
                    <path d="M82.2,19 L82.4,22.7 L81.7,24 L82.6,24 L83.5,21.5 C87.3,26.1 89.5,29.6 91.8,35.1 L88.3,35 C87.6,34.2 86.9,33.3 86.2,32.6 L85.4,34 C83.2,32.6 82.9,32.9 82.8,30.2 L80.9,28.1 L80.5,28.1 L82,31.4 L81.1,32.6 L74.8,30.4 L73,33.2 C68.7,33.6 68,34 65.8,30.9 L66.5,28.9 L70.2,27.6 L70.7,25.4 L73.3,24.9 L75,22.5 C75.9,22.4 76.7,22.1 77.7,22.1 L77.6,22 L76.3,22.1 L75.8,20.8 L74.6,20.7 L74.2,18.6 L78.5,15.4 C79.8,16.5 81,17.7 82.2,19 Z M78.4,17.4 L76,19.1 L76,19.3 L76.9,19.4 L77.4,20.3 L78.9,20.3 L79.5,24 L77.3,24 L75.9,24.1 L74.2,26.3 L72.1,26.6 L71.7,28.5 C69.6,29.8 70.2,29.7 67.8,30.1 L67.7,30.6 C68.9,32.4 69.8,31.8 72,31.8 L72.5,30.9 C74.2,29.1 73.9,28.4 76.5,29.2 L79.8,30.5 L78,27.2 L82.1,27.4 L85,29.6 L85,31.4 L85.1,31.6 L86,29.3 C87.1,30.4 88,32 89,32 L89.5,32 C88,28 86.2,25.8 83.7,22.7 L83.5,23.4 L80.4,23.4 L79.7,21.1 L80.9,20.6 L80.9,19.8 C81,19 79.3,18.1 78.4,17.4 Z M94.4,49.2 C94.4,60.3 90.4,70.8 83.1,79.1 L81.7,78.6 L80.2,74.2 L80,70.4 C77.5,67.9 78.6,67 80.1,64 L77,58.2 L77.4,55.1 C74.7,54.9 73.3,53.2 71.8,54.5 L71.3,54.7 C69.3,54.7 67.4,55.1 65.5,55.1 L60.8,49.8 L60.7,49.3 C60.7,46.3 60.3,44.6 59.5,41.7 L64.1,37.9 L64.1,35.3 C68.1,33.5 68.6,32.9 71.9,34.6 L81.1,32 L81.1,35.3 C81.1,35.5 81.1,35.8 85.1,36.5 L85.1,35.3 L87.8,35.2 L93.2,36.7 C94.3,40.9 94.4,45.1 94.4,49.2 Z M91.4,38.5 L88.1,38.4 L85,37 L85,40 L83.1,40 C81.1,36 81,37.2 76,36.7 L76,34.7 L72.5,36.4 L71.3,36.3 C68.8,35.2 68.1,35.2 68.1,36.5 L68.1,39 L62.6,42.7 C63.1,44.8 62.5,47.1 62.5,49.2 C67.6,55 65.1,53.5 71.1,53.5 L71.7,52.8 C73.7,52 76.5,53.7 79,54 L78.6,58.4 L81.9,64.3 C80.4,67 78.9,67.5 81.5,70.1 L83,75.9 L83.1,76.7 C91.8,65.8 94.7,51.7 91.4,38.5 Z M6.1,35.2 C9.2,26.1 14.8,18.3 22.5,12.6 L24.4,12 C27.7,9.5 26.4,10 30.4,10 L31.6,11.7 L32.9,11.8 L34.3,10.4 C36,11.2 35.6,11.2 37.4,10.6 L39.1,12.7 L39.5,13.6 L40.1,13.7 L41.6,10.9 C42.7,10.8 44.4,10.4 45.4,10.5 L50,12.6 L51.7,15 L50.6,17.1 C47.2,17.1 48.4,17.5 45.9,15.3 L45.2,19.6 C46.1,19.8 49.2,21.8 50.3,22.4 L50.2,25 L48.2,25.7 L46.9,26.8 L37.7,30.9 L35.2,34.6 L35.2,35 L31.9,37 L30.6,38.2 L30.3,42 L26.2,40.3 L26.2,39 L22.2,39.1 L20.1,40.2 L18.8,43.6 L19.3,44.7 L24.1,42.7 L25.1,42.1 L25.7,44.2 L25.1,45.9 L27.2,46.3 L27.4,48.9 L31.1,49.7 L32.4,48.2 L35.7,48.9 L36.9,50.2 L38.6,50.1 L38.7,49.1 C41.8,50.6 41.1,49.1 43,53.1 L45.9,53.1 L47.2,55.1 L47.3,56.6 L53.8,57.1 L54.3,57.1 L55.6,59.6 L57.7,60.6 C57.1,63.8 57.2,62.9 55.2,65.6 L55.2,71.2 C53.2,73.2 51.2,73.2 51.2,73 L51.2,76.4 L50.7,76.8 L47.3,80.7 L46,83.6 L42.9,86 L43.1,86 C42.7,86 43,86 41.9,86 L43.1,86 L43.1,87.4 C43.1,88.7 43,88.9 42.9,90 L45.1,91.8 L44.6,93.7 L40.9,93.5 L38.1,90.9 L35.9,86.8 L34.7,81.6 L34.5,81.4 L35.6,78.1 L35.3,77.9 L35.3,69.9 C35.3,69.3 32.9,68.2 32.8,68.2 C32.3,68.2 30.9,67.8 30.4,67.7 L30,65.9 L26.3,61.4 L26.7,59.5 L26.8,56.7 L29,55 L28.9,53.2 L25.5,52.7 L21.2,49.3 C19.7,49.1 19.8,49.1 18.4,48.4 L14,47.1 L9.7,43.6 L7.6,40.2 L7.5,36.7 L6.2,36 L6.1,35.2 Z M13.9,23.6 C11.3,27 9.8,30.8 8.4,34.9 L10,35.4 L10,39.4 L13.7,43.4 L15.2,45.9 L18.8,46.8 L21.3,47.6 L23.3,48.2 L26.1,51.3 L30,51.7 L30.5,55.6 L28,57.4 L27.9,59.6 L27.7,60.9 L31,65.3 L31.2,66.2 C31.4,66.3 31.5,66.4 31.6,66.4 C32.1,66.4 34.9,68.3 34.9,68.8 L34.9,76.5 L36.2,76.7 L35.6,80.7 L37.3,83.1 L39,89.8 L42.9,91.9 L41.3,91.4 C41.3,90.7 41.8,89.9 41.8,89.9 L41,89.9 L39.6,87.3 L40.9,85.5 L39.8,84.9 L40,82.8 L44.6,81.2 L45.5,79.6 L48.1,76.3 C47.4,73.1 47.2,73.9 48.7,71.2 L51.5,71.3 L52.8,70.2 L53.5,64.7 L55.5,61.6 C53.6,61 54,61.1 53,59.4 L49.1,59.3 L45.4,57.9 L45.2,54.8 L44.5,53 L41.7,53 L39.4,50.7 L38.8,51.1 L38.8,51.5 L35.4,51.7 L34.5,50.2 L32.5,49.8 L31.2,51.3 L25.4,50 L25.3,47.5 L22.1,46.9 L23.4,44.5 C20.3,46.6 21.4,46.4 17.9,45.9 C16.7,43.4 16.6,44.1 17.3,41.5 L18.6,38.3 L21.8,35.8 L30.7,35.8 L30.7,39.1 L29.8,39.2 L29.1,37.3 L30.5,35.6 L32.9,33.9 L33.2,32.5 L36.2,29.4 L39.3,27.6 L46.8,24.2 L48.2,23.7 L48.3,23.1 L46.9,21.1 L43.9,18.6 L43.1,18.6 L43.3,16.8 L44.2,11.1 C45.5,12.3 46.7,14.6 48,14.6 L49.2,14.6 L49.4,14.5 L44.4,11.6 L42.2,11.9 L40.5,15.1 L37.7,14.7 L37.3,13.2 L36.4,12 C35.6,12.4 35,12.4 34.2,12 L33.1,12.9 L30.4,12.8 L29.2,11.1 L24.8,13 L22.9,13.6 C19.7,16.8 16.5,19.9 13.9,23.6 Z" id="Shape" fill="#3E553F" fill-rule="nonzero"></path>
                </g>
                <g transform="translate(227.000000, 1128.000000)">
                    <path d="M118.1,1.9 C84.3,1.9 57,29.3 57,62.9 C57,96.6 84.3,123.8 118.1,123.8 C151.8,123.8 179,96.5 179,62.9 C179,29.3 151.7,1.9 118.1,1.9 Z" id="Path"></path>
                    <path d="M118.1,0.4 C152.6,0.4 180.6,28.4 180.6,63 C180.6,97.5 152.6,125.6 118.1,125.6 C83.5,125.6 55.5,97.5 55.5,63 C55.5,28.4 83.5,0.4 118.1,0.4 Z M118.1,1.9 C84.3,1.9 57,29.3 57,62.9 C57,96.6 84.3,123.8 118.1,123.8 C151.8,123.8 179,96.5 179,62.9 C179,29.3 151.7,1.9 118.1,1.9 Z" id="Shape" fill="#0053FB" fill-rule="nonzero"></path>
                    <path d="M126.8,97.1 C131.1,97.1 141.2,92.6 151.4,88.2 C157.9,85.4 171.7,78.6 178.6,79.1 C174.7,92.8 167.3,104.3 155.8,112.9 C145.3,120.8 132.2,125.5 118.1,125.5 C106.2,125.5 95.1,122.2 85.6,116.4 C75.2,110.1 67.6,101.6 62.1,90.9 C73.8,86.6 80.1,88.2 91.6,91.5 C100,94.1 110.4,97.1 126.8,97.1 Z M152.1,89.7 C141.7,94.2 131.4,98.7 126.8,98.7 C110.1,98.7 99.6,95.6 91.1,93.1 C81.8,90.4 74.7,88.3 64.3,91.8 C69.4,101.5 77.1,109.5 86.4,115.2 C95.6,120.8 106.5,123.9 118.1,123.9 C131.8,123.9 144.6,119.4 154.8,111.6 C165,103.9 172.6,93.2 176.4,80.7 C171.8,81.1 161.9,85.3 152.1,89.7 Z" id="Shape" fill="#0053FB" fill-rule="nonzero"></path>
                    <path d="M36.7,86.9 C14.7,90.7 0.8,91.7 0.2,89.1 C-0.2,87.3 5.2,84.5 15.1,81 C28.8,76 43.2,71.9 57.3,68 C57.4,69.5 57.7,71.1 57.9,72.6 C52.6,74.3 47,75.9 41.8,78.1 C38.8,79.3 37.2,80.1 37.3,80.3 C37.5,81.2 46.6,80.2 61.2,77.7 C97.8,71.4 140.8,61.3 176.4,50.4 C190.6,46 199.1,42.8 198.8,41.9 C198.8,41.7 196.9,41.7 193.5,42 C187.8,42.4 181.9,43.3 176.3,44.2 C175.8,42.8 175.2,41.4 174.8,39.9 C189.2,37.1 204.1,34.2 218.9,32.3 C229.4,31 235.6,31.1 236,33 C236.6,35.5 223.7,40.8 202.5,47.3 C154.7,62.2 85.7,78.5 36.7,86.9 Z M201.8,46.1 C222.2,39.8 234.6,35.1 234.3,33.6 C234.1,32.7 228.5,33 218.8,34.2 C208.6,35.4 194,37.9 176.8,41.3 L177.3,42.6 C184,41.5 189.6,40.8 193.5,40.5 C197.6,40.3 200.1,40.6 200.3,41.7 C200.8,43.6 191.8,47.4 176.8,52 C141.1,63 98.1,73.1 61.4,79.4 C45.9,82 36.2,82.7 35.8,80.8 C35.6,79.6 37.5,78.3 41.2,76.7 C44.6,75.3 49.7,73.5 56.1,71.5 C56,71 56,70.6 55.9,70.1 C39.1,74.8 25.2,79.1 15.6,82.5 C6.6,85.7 1.7,88 1.8,88.9 C2.2,90.4 15.4,89 36.4,85.5 C86.8,76.7 152.9,61 201.8,46.1 Z" id="Shape" fill="#9C433D" fill-rule="nonzero"></path>
                    <path d="M111.8,17.3 C124.8,18.7 140.3,14.7 152.7,10.9 C159.9,15.7 165.1,21.1 170.1,28.1 C140.1,35.1 105.3,26.7 63.7,34.6 L62.2,34.8 C64.3,30.9 66.5,27.4 69.3,23.8 C71.7,20.8 74.4,18 77.3,15.5 L77.7,15.3 C89.1,14.1 100.6,14.6 111.8,17.3 Z M131.6,17.4 C124.6,18.6 117.8,18 111.6,18 L111.5,18 C100.4,18 89.2,15.3 78,16.5 C72.8,21 68.4,26.6 65,32.5 C105.3,24.8 139.1,32.5 167.4,26.9 C163.3,21.2 158.2,16.2 152.4,12.2 C145.7,14.4 138.6,16.2 131.6,17.4 Z" id="Shape" fill="#0053FB" fill-rule="nonzero"></path>
                </g>
                <g transform="translate(827.000000, 1296.000000)">
                    <path d="M1.6,66.9 C1.6,103 30.9,132.2 66.9,132.2 C103,132.2 132.2,103 132.2,66.9 C132.3,30.9 103.1,1.6 66.9,1.6 C30.9,1.6 1.6,30.9 1.6,66.9 Z" id="Path"></path>
                    <path d="M24,82.3 C24,84 22.7,85.3 21.2,85.3 C19.5,85.3 18.4,84 18.4,82.3 C18.4,80.8 19.6,79.5 21.2,79.5 C22.7,79.5 24,80.8 24,82.3 Z" id="Path" fill="#0053FB"></path>
                    <path d="M88.7,3.2 C90.2,3.2 91.5,4.5 91.5,6 C91.5,7.7 90.2,9 88.7,9 C87,9 85.9,7.7 85.9,6 C85.8,4.5 87,3.2 88.7,3.2 Z" id="Path" fill="#0053FB"></path>
                    <path d="M66.9,0.1 C103.9,0.1 133.9,30.1 133.9,66.9 C133.9,103.9 103.9,133.9 66.9,133.9 C30.1,133.9 0.1,103.9 0.1,66.9 C0.1,30.1 30.1,0.1 66.9,0.1 Z M66.9,1.6 C30.9,1.6 1.6,30.9 1.6,66.9 C1.6,103 30.9,132.2 66.9,132.2 C103,132.2 132.2,103 132.2,66.9 C132.3,30.9 103.1,1.6 66.9,1.6 Z" id="Shape" fill="#0053FB" fill-rule="nonzero"></path>
                    <path d="M55.4,15.7 C73,18.4 89.5,20.9 110.4,16.6 L110.8,18.1 C89.5,22.4 72.8,19.9 55.1,17.2 C46.6,15.9 37,14.6 28,13.9 L28,12.4 C37,13 46.9,14.4 55.4,15.7 Z" id="Path" fill="#51553E"></path>
                    <path d="M7.3,37.5 C27.9,33.5 47.8,36.4 68,39.4 C87.6,42.3 107.6,45.4 128.2,41.8 L128.6,43.5 C107.6,47 87.6,44.1 67.8,41.1 C47.7,38 28,35.1 7.7,39.1 L7.3,37.5 Z" id="Path" fill="#51553E"></path>
                    <path d="M2.8,81.9 C20.3,83.1 36.6,79.3 52.9,75.5 C77.8,69.6 102.9,63.8 132.7,75.6 L132.1,77 C102.7,65.4 77.9,71.2 53.2,77 C36.8,80.8 20.4,84.7 2.6,83.4 L2.8,81.9 Z" id="Path" fill="#51553E"></path>
                    <path d="M15,107.1 C37.4,102.7 53.6,107 70.8,111.1 C82.5,114.1 95,116.9 107,117.2 L107,118.7 C95,118.3 82.2,115.5 70.4,112.6 C53.3,108.5 36.9,104.3 14.7,108.7 L15,107.1 Z" id="Path" fill="#51553E"></path>
                    <path d="M29.5,47.5 C35.5,47.5 40.8,48.6 44.7,50.3 C48.8,52.2 51.4,54.8 51.4,57.7 C51.4,60.7 48.8,63.2 44.7,65.1 C40.8,66.9 35.5,67.9 29.5,67.9 C23.6,67.9 18.2,66.8 14.3,65.1 C10.2,63.2 7.7,60.6 7.7,57.7 C7.7,54.7 10.2,52.2 14.3,50.3 C18.2,48.5 23.6,47.5 29.5,47.5 Z M44.1,51.7 C40.3,50 35.2,49 29.5,49 C23.8,49 18.6,50.1 15,51.7 C11.5,53.4 9.2,55.5 9.2,57.7 C9.2,59.9 11.4,62.1 15,63.7 C18.7,65.4 23.9,66.4 29.5,66.4 C35.3,66.4 40.4,65.3 44.1,63.7 C47.6,62 49.8,59.9 49.8,57.7 C49.8,55.5 47.7,53.4 44.1,51.7 Z" id="Shape" fill="#42945E" fill-rule="nonzero"></path>
                    <path d="M94.5,82.4 C99.3,82.4 103.7,83.5 106.9,85.2 C110.2,87.1 112.3,89.7 112.3,92.6 C112.3,95.4 110.2,98 106.9,99.9 C103.7,101.7 99.3,102.7 94.5,102.7 C89.7,102.7 85.3,101.6 82.1,99.9 C78.8,98 76.8,95.4 76.8,92.6 C76.8,89.6 78.8,87.1 82.1,85.2 C85.2,83.5 89.6,82.4 94.5,82.4 Z M106,86.7 C103,85 99,84 94.4,84 C89.8,84 85.8,85.1 82.8,86.7 C80,88.2 78.2,90.4 78.2,92.7 C78.2,94.9 80,97.1 82.8,98.6 C85.8,100.3 89.8,101.3 94.4,101.3 C99,101.3 103,100.2 106,98.6 C108.8,97.1 110.6,94.9 110.6,92.7 C110.6,90.3 108.9,88.2 106,86.7 Z" id="Shape" fill="#42945E" fill-rule="nonzero"></path>
                    <path d="M82.4,30.3 C86.4,31 90.2,31.5 93.9,31.8 C97.4,32 101,32.3 104.4,32.4 L104.3,33.9 C100.9,33.8 97.5,33.7 93.8,33.3 C90.1,32.9 86.2,32.5 82.2,31.8 L82.4,30.3 Z" id="Path" fill="#A02E6F"></path>
                    <path d="M56,9.4 C59.9,8.9 63.7,8.7 67.3,8.7 C70.9,8.7 74.5,8.9 77.9,9.4 L77.8,10.6 C74.4,10 70.8,9.8 67.3,9.8 C63.6,9.8 60,10 56.2,10.6 L56,9.4 Z" id="Path" fill="#A02E6F"></path>
                    <path d="M45,114.5 C49,114.7 52.1,115.1 55.6,115.7 C59.3,116.4 62.4,117.2 65.7,118.3 L65.3,119.4 C62,118.3 59.1,117.5 55.5,116.9 C52,116.2 48.9,115.8 44.9,115.7 L44.9,114.5 L45,114.5 Z" id="Path" fill="#A02E6F"></path>
                </g>
                <g transform="translate(452.000000, 1475.000000)">
                    <path d="M40,2.4 C19.3,2.4 2.4,19.3 2.4,40 C2.4,60.8 19.3,77.6 40,77.6 C60.8,77.6 77.6,60.8 77.6,40 C77.6,19.3 60.8,2.4 40,2.4 Z" id="Path"></path>
                    <path d="M40,0.9 C61.6,0.9 79.1,18.4 79.1,40 C79.1,61.6 61.6,79.1 40,79.1 C18.4,79.1 0.9,61.6 0.9,40 C0.9,18.4 18.4,0.9 40,0.9 Z M40,2.4 C19.3,2.4 2.4,19.3 2.4,40 C2.4,60.8 19.3,77.6 40,77.6 C60.8,77.6 77.6,60.8 77.6,40 C77.6,19.3 60.8,2.4 40,2.4 Z" id="Shape" fill="#0053FB" fill-rule="nonzero"></path>
                    <path d="M27.8,16.4 C30.2,16.3 48.1,15.2 51.1,17.9 C52.4,19 52.5,20.6 50.4,23 C48.2,25.5 41.3,23.2 38.9,22.1 C33.9,19.6 30.4,19 25.6,22 C20.4,25.1 -6.1,17.1 27.8,16.4 Z M27.8,17.9 C-1,18.5 21.9,22.3 24.7,20.6 C30,17.3 34.1,17.9 39.5,20.6 C41.3,21.4 47.7,23.5 49.2,21.9 C50.5,20.5 50.6,19.5 50,19.1 C47.7,17 29,17.9 27.8,17.9 Z" id="Shape" fill="#47553E" fill-rule="nonzero"></path>
                    <path d="M51.9,36.1 C51.7,37.9 57,46.5 57.6,37.2 C57.7,33.9 62.4,32.6 65.2,33.7 C66.9,34.4 68.5,35.8 69.8,38.4 C70.6,40.2 74.5,42.3 74.4,45 C74.3,46.7 72.4,48 66.4,47.7 C64.2,47.6 63.1,46.9 62.4,46.2 C61.6,48.6 61,50.5 58.3,51.5 C55,52.7 50.9,51.3 48,49.3 C43.5,46.2 44.3,42.9 41.1,40.7 C39.4,39.5 38.3,37.3 42.4,31.4 C43.4,29.7 53,28.2 51.9,36.1 Z M50.4,35.9 C51.2,29.8 43.8,32 43.7,32.1 C40.3,36.9 41,38.6 41.9,39.3 C46.4,42.4 43.2,44 48.9,47.9 C51.1,49.6 54.9,51 57.8,49.9 C59.9,49.1 60.4,47.2 61,45.3 C61.5,44.2 61.6,43.8 62.2,43.8 C62.8,43.7 62.9,44 63.1,44.4 C63.3,44.9 64,46.1 66.4,46.2 C71.2,46.3 72.8,45.7 72.9,44.9 C72.9,43.2 69.2,40.8 68.4,39.1 C67.2,36.9 65.9,35.7 64.6,35.2 C62.8,34.4 59.3,35.2 59.2,37.2 C58.4,49 49.8,40 50.4,35.9 Z" id="Shape" fill="#84274C" fill-rule="nonzero"></path>
                    <path d="M21.1,42.8 C22.4,43.3 23.7,43.9 24.8,44.7 C25.9,45.5 26.6,46.6 26.3,47.9 C26.2,49.1 25.4,49.7 25.4,51 C25.5,51.9 26.2,52.9 27.2,53.7 C28.4,54.6 29.8,55.4 31.5,55.9 C34.1,56.7 36.9,57.1 38.7,56.6 C41.5,55.7 49.2,55.7 53.7,56.6 C55,57 56.1,57.3 56.8,57.8 C57.7,58.5 58,59.3 57.4,60.4 C56.8,61.3 55.3,62.4 52.3,63.6 C50.2,64.5 49.5,64.2 48.6,63.7 C44.6,61.8 41,70.9 30.8,66.5 C26.8,64.8 9.8,54.6 13.6,47.1 C15.6,43.2 9.6,38.9 21.1,42.8 Z M20.5,44.4 C12.4,41.6 17.5,42.7 14.8,48.1 C11.5,54.2 28.3,63.9 31.2,65.2 C41,69.3 43.7,59.9 49,62.4 C49.6,62.6 50.1,62.9 51.5,62.3 C54.1,61.2 55.4,60.4 55.8,59.7 C55.9,59.6 55.9,59.3 55.7,59.2 C55.2,58.8 54.4,58.5 53.2,58.3 C48.9,57.4 41.6,57.5 38.9,58.2 C37,58.8 33.7,58.4 30.7,57.5 C29,56.9 27.3,56.1 26.1,55.1 C24.7,53.9 23.9,52.6 23.7,51.2 C23.6,49.4 24.5,49 24.6,47.9 C24.7,47.2 24.2,46.6 23.7,46 C23,45.3 21.8,44.7 20.5,44.4 Z" id="Shape" fill="#909027" fill-rule="nonzero"></path>
                </g>
                <g transform="translate(122.000000, 1382.000000)">
                    <path d="M62.9,1.9 C29.2,1.9 1.8,29.3 1.8,63 C1.8,96.8 29.2,124 62.9,124 C96.7,124 124.1,96.7 124.1,63 C124.1,29.3 96.7,1.9 62.9,1.9 Z" id="Path"></path>
                    <path d="M104.4,18.2 C105.9,18.2 107.2,19.4 107.2,21 C107.2,22.5 105.9,23.8 104.4,23.8 C102.9,23.8 101.6,22.5 101.6,21 C101.6,19.4 102.9,18.2 104.4,18.2 Z" id="Path" fill="#63A364"></path>
                    <path d="M62.9,0.4 C97.5,0.4 125.6,28.5 125.6,63 C125.6,97.6 97.5,125.7 62.9,125.7 C28.4,125.7 0.3,97.6 0.3,63 C0.3,28.5 28.5,0.4 62.9,0.4 Z M62.9,1.9 C29.2,1.9 1.8,29.3 1.8,63 C1.8,96.8 29.2,124 62.9,124 C96.7,124 124.1,96.7 124.1,63 C124.1,29.3 96.7,1.9 62.9,1.9 Z" id="Shape" fill="#0053FB" fill-rule="nonzero"></path>
                    <rect id="Rectangle" fill="#459190" x="7" y="54" width="66" height="4"></rect>
                    <rect id="Rectangle" fill="#459190" x="36" y="117" width="46" height="4"></rect>
                </g>
            </g>
        </g>
    </g>
</svg>